<svg width="24" height="22" viewBox="0 0 24 22" fill="none" xmlns="http://www.w3.org/2000/svg">
<path d="M1.71436 5.66338V18.9505C1.71436 19.7593 2.03043 20.5349 2.59304 21.1068C3.15564 21.6787 3.91871 22 4.71436 22H19.2858C20.0814 22 20.8445 21.6787 21.4071 21.1068C21.9697 20.5349 22.2858 19.7593 22.2858 18.9505V5.66338C22.2858 5.60561 22.2632 5.5502 22.223 5.50936C22.1828 5.46851 22.1283 5.44556 22.0715 5.44556H1.92864C1.87181 5.44556 1.8173 5.46851 1.77712 5.50936C1.73693 5.5502 1.71436 5.60561 1.71436 5.66338ZM16.0179 13.9205L12.606 17.3882C12.4452 17.5515 12.2273 17.6432 12.0001 17.6432C11.7728 17.6432 11.5549 17.5515 11.3942 17.3882L7.98221 13.9205C7.65596 13.5888 7.62596 13.0492 7.93668 12.7017C8.01467 12.6144 8.10931 12.5441 8.21484 12.495C8.32037 12.446 8.4346 12.4192 8.55061 12.4163C8.66662 12.4135 8.78199 12.4346 8.88973 12.4784C8.99747 12.5222 9.09533 12.5878 9.17739 12.6713L11.1429 14.6687V8.95521C11.1429 8.48635 11.4976 8.08392 11.9588 8.06051C12.0747 8.05483 12.1905 8.07313 12.2993 8.1143C12.408 8.15547 12.5074 8.21865 12.5914 8.30001C12.6754 8.38138 12.7422 8.47923 12.7879 8.58764C12.8336 8.69605 12.8572 8.81276 12.8572 8.93071V14.6687L14.8227 12.6713C14.9048 12.5878 15.0027 12.5222 15.1104 12.4784C15.2182 12.4346 15.3335 12.4135 15.4495 12.4163C15.5655 12.4192 15.6798 12.446 15.7853 12.495C15.8908 12.5441 15.9855 12.6144 16.0635 12.7017C16.3742 13.0486 16.3442 13.5888 16.0179 13.9205Z" fill="#333333"/>
<path d="M22.2857 0H1.71429C0.767512 0 0 0.780177 0 1.74257V2.61386C0 3.57626 0.767512 4.35644 1.71429 4.35644H22.2857C23.2325 4.35644 24 3.57626 24 2.61386V1.74257C24 0.780177 23.2325 0 22.2857 0Z" fill="#333333"/>
</svg>
