<svg width="26" height="24" viewBox="0 0 26 24" fill="none" xmlns="http://www.w3.org/2000/svg">
<path d="M5.16879 1V3.41703H1V5.78343C1 9.74432 2.14365 11.9525 4.8921 13.3256C5.91389 13.8909 6.85697 14.5953 7.6959 15.4199C8.37018 16.16 9.19254 16.7407 10.1062 17.1219L11.1453 17.451V20.3172H9.55894C7.64056 20.3172 6.99495 20.7665 6.99495 22.1015V23H18.9848V22.1964C18.9848 20.8867 18.1978 20.2982 16.3778 20.2982H14.8345V17.451L15.8921 17.1283C16.807 16.7467 17.6297 16.1636 18.3023 15.4199C19.1775 14.5615 20.1572 13.8235 21.2168 13.2243C22.0396 12.8169 22.7743 12.2434 23.3775 11.538C23.9806 10.8326 24.4398 10.0096 24.7277 9.11792C24.9234 8.01391 25.014 6.89289 24.9982 5.77078V3.42335H20.811V1H5.16879ZM12.9899 5.03049L14.2504 7.71326H17.2878L14.9083 9.9721L15.5908 12.8573L12.9899 11.4211L10.389 12.8763L11.0715 9.99108L8.68583 7.73224H11.7294L12.9899 5.03049ZM3.18892 5.83405H5.1319V10.82C4.929 10.9465 4.29568 10.1872 3.83453 9.32039C3.57272 8.65674 3.40499 7.95781 3.33649 7.24504L3.18892 5.83405ZM20.8479 5.83405H22.963L22.7847 7.22606C22.7428 8.38483 22.2901 9.4877 21.5119 10.3264C21.3289 10.5831 21.0966 10.7985 20.8294 10.9592L20.8479 5.83405Z" stroke="#0087FF" stroke-linecap="round" stroke-linejoin="round"/>
</svg>
