<svg width="26" height="26" viewBox="0 0 26 26" fill="none" xmlns="http://www.w3.org/2000/svg">
<path d="M11.2305 1.7821C11.4547 1.53574 11.7279 1.33892 12.0327 1.20424C12.3374 1.06957 12.6669 1 13 1C13.3331 1 13.6626 1.06957 13.9673 1.20424C14.2721 1.33892 14.5453 1.53574 14.7695 1.7821L15.9899 3.12212C16.2269 3.38225 16.5183 3.58692 16.8434 3.72155C17.1685 3.85618 17.5193 3.91745 17.8707 3.90101L19.681 3.81726C20.0136 3.80159 20.3459 3.85552 20.6565 3.97561C20.9671 4.0957 21.2492 4.2793 21.4848 4.51466C21.7204 4.75003 21.9043 5.03198 22.0247 5.34247C22.145 5.65297 22.1993 5.98518 22.1839 6.31784L22.099 8.12926C22.0825 8.48074 22.1438 8.83153 22.2785 9.15663C22.4131 9.48172 22.6178 9.77313 22.8779 10.0101L24.2179 11.2305C24.4643 11.4547 24.6611 11.7279 24.7958 12.0327C24.9304 12.3374 25 12.6669 25 13C25 13.3331 24.9304 13.6626 24.7958 13.9673C24.6611 14.2721 24.4643 14.5453 24.2179 14.7695L22.8779 15.9899C22.6178 16.2269 22.4131 16.5183 22.2785 16.8434C22.1438 17.1685 22.0825 17.5193 22.099 17.8707L22.1827 19.681C22.1984 20.0136 22.1445 20.3459 22.0244 20.6565C21.9043 20.9671 21.7207 21.2492 21.4853 21.4848C21.25 21.7204 20.968 21.9043 20.6575 22.0247C20.347 22.145 20.0148 22.1993 19.6822 22.1839L17.8707 22.099C17.5193 22.0825 17.1685 22.1438 16.8434 22.2785C16.5183 22.4131 16.2269 22.6178 15.9899 22.8779L14.7695 24.2179C14.5453 24.4643 14.2721 24.6611 13.9673 24.7958C13.6626 24.9304 13.3331 25 13 25C12.6669 25 12.3374 24.9304 12.0327 24.7958C11.7279 24.6611 11.4547 24.4643 11.2305 24.2179L10.0101 22.8779C9.77313 22.6178 9.48172 22.4131 9.15663 22.2785C8.83153 22.1438 8.48074 22.0825 8.12926 22.099L6.31903 22.1827C5.98639 22.1984 5.65413 22.1445 5.34352 22.0244C5.03291 21.9043 4.75078 21.7207 4.51519 21.4853C4.2796 21.25 4.09573 20.968 3.97535 20.6575C3.85496 20.347 3.80071 20.0148 3.81606 19.6822L3.90101 17.8707C3.91745 17.5193 3.85618 17.1685 3.72155 16.8434C3.58692 16.5183 3.38225 16.2269 3.12212 15.9899L1.7821 14.7695C1.53574 14.5453 1.33892 14.2721 1.20424 13.9673C1.06957 13.6626 1 13.3331 1 13C1 12.6669 1.06957 12.3374 1.20424 12.0327C1.33892 11.7279 1.53574 11.4547 1.7821 11.2305L3.12212 10.0101C3.38225 9.77313 3.58692 9.48172 3.72155 9.15663C3.85618 8.83153 3.91745 8.48074 3.90101 8.12926L3.81726 6.31903C3.80159 5.98639 3.85552 5.65413 3.97561 5.34352C4.0957 5.03291 4.2793 4.75078 4.51466 4.51519C4.75003 4.2796 5.03198 4.09573 5.34247 3.97535C5.65297 3.85496 5.98518 3.80071 6.31784 3.81606L8.12926 3.90101C8.48074 3.91745 8.83153 3.85618 9.15663 3.72155C9.48172 3.58692 9.77313 3.38225 10.0101 3.12212L11.2305 1.7821Z" fill="white" stroke="#333333" stroke-width="1.5"/>
<path d="M9.41064 13.0001L11.8035 15.393L16.5893 10.6072" fill="white"/>
<path d="M9.41064 13.0001L11.8035 15.393L16.5893 10.6072" stroke="#333333" stroke-width="1.5" stroke-linecap="round" stroke-linejoin="round"/>
</svg>
