<svg width="50" height="50" viewBox="0 0 50 50" fill="none" xmlns="http://www.w3.org/2000/svg">
<path d="M30.3219 34.3024L29.6 28.1536C29.4977 27.2827 29.0999 26.4815 28.4813 25.9007C27.8628 25.32 27.0661 24.9997 26.2411 25H23.7552C22.9306 25.0002 22.1345 25.3208 21.5164 25.9015C20.8984 26.4822 20.5008 27.2831 20.3986 28.1536L19.6756 34.3024C19.6359 34.6402 19.6643 34.9831 19.7587 35.3084C19.8532 35.6337 20.0116 35.9339 20.2234 36.189C20.4353 36.4441 20.6958 36.6484 20.9875 36.7882C21.2793 36.9281 21.5956 37.0002 21.9156 37H28.083C28.4029 37.0001 28.7191 36.9278 29.0107 36.7879C29.3024 36.648 29.5627 36.4437 29.7744 36.1886C29.9861 35.9334 30.1445 35.6333 30.2388 35.3081C30.3332 34.9829 30.3615 34.6401 30.3219 34.3024V34.3024Z" stroke="#0087FF" stroke-width="2" stroke-linecap="round" stroke-linejoin="round"/>
<path d="M24.9999 20.2C26.8687 20.2 28.3836 18.5882 28.3836 16.6C28.3836 14.6118 26.8687 13 24.9999 13C23.1311 13 21.6162 14.6118 21.6162 16.6C21.6162 18.5882 23.1311 20.2 24.9999 20.2Z" stroke="#0087FF" stroke-width="2"/>
<path d="M15.9765 23.8C17.2223 23.8 18.2323 22.7255 18.2323 21.4C18.2323 20.0745 17.2223 19 15.9765 19C14.7307 19 13.7207 20.0745 13.7207 21.4C13.7207 22.7255 14.7307 23.8 15.9765 23.8Z" stroke="#0087FF" stroke-width="2"/>
<path d="M34.0234 23.8C35.2692 23.8 36.2792 22.7255 36.2792 21.4C36.2792 20.0745 35.2692 19 34.0234 19C32.7775 19 31.7676 20.0745 31.7676 21.4C31.7676 22.7255 32.7775 23.8 34.0234 23.8Z" stroke="#0087FF" stroke-width="2"/>
<path d="M15.9768 27.4H15.6317C15.0977 27.3999 14.581 27.6014 14.1735 27.9685C13.766 28.3357 13.4942 28.8448 13.4063 29.4052L13.0307 31.8052C12.9768 32.149 12.994 32.5012 13.081 32.8373C13.168 33.1734 13.3228 33.4853 13.5346 33.7513C13.7464 34.0173 14.0101 34.231 14.3074 34.3775C14.6047 34.5241 14.9284 34.6 15.2561 34.6H19.3605M34.0232 27.4H34.3683C34.9023 27.3999 35.419 27.6014 35.8265 27.9685C36.234 28.3357 36.5058 28.8448 36.5937 29.4052L36.9693 31.8052C37.0232 32.149 37.006 32.5012 36.919 32.8373C36.832 33.1734 36.6772 33.4853 36.4654 33.7513C36.2536 34.0173 35.9899 34.231 35.6926 34.3775C35.3953 34.5241 35.0716 34.6 34.7439 34.6H30.6395" stroke="#0087FF" stroke-width="2" stroke-linecap="round" stroke-linejoin="round"/>
<circle cx="25" cy="25" r="24.5" stroke="#0087FF"/>
</svg>
