<svg width="22" height="24" viewBox="0 0 22 24" fill="none" xmlns="http://www.w3.org/2000/svg">
<path d="M19.6755 7.52996V3.76351C19.6755 2.51243 18.7521 1.46668 17.5768 1.46668L3.41042 1.46668C2.23514 1.46668 1.3117 2.51243 1.3117 3.76351L1.3117 13.605C1.3117 14.856 2.23514 15.9018 3.41042 15.9018H5.50915V20.5336H5.51308L5.5157 20.5321L8.35816 18.1854L7.94629 20.0246C7.91874 20.1508 7.89776 20.274 7.88595 20.3986L6.29486 21.7113C6.01562 21.9415 5.66674 22.0399 5.32329 21.9853C4.97984 21.9307 4.66929 21.7275 4.45847 21.4195C4.28948 21.1705 4.19782 20.8667 4.19744 20.5541V17.3685H3.41042C1.52682 17.3685 0 15.6833 0 13.605L0 3.76351C0 1.68522 1.52682 0 3.41042 0L17.5768 0C19.4604 0 20.9872 1.68522 20.9872 3.76351V8.34543C20.6037 7.97736 20.1575 7.69995 19.6755 7.52996ZM16.799 9.60091L10.4634 16.685C10.0947 17.0979 9.83308 17.6149 9.70659 18.181L9.2147 20.3781C9.16592 20.5967 9.16857 20.8257 9.2224 21.0429C9.27623 21.26 9.37941 21.4578 9.5219 21.6172C9.66439 21.7765 9.84133 21.8919 10.0355 21.9521C10.2297 22.0123 10.4345 22.0152 10.63 21.9607L12.595 21.4107C13.1017 21.2696 13.5643 20.9765 13.9329 20.5629L20.2684 13.4788C20.499 13.2248 20.6824 12.9223 20.808 12.5887C20.9335 12.255 20.9988 11.8969 21 11.535C21.0012 11.173 20.9383 10.8143 20.8149 10.4797C20.6916 10.145 20.5102 9.841 20.2812 9.5851C20.0523 9.3292 19.7803 9.12651 19.481 8.9887C19.1816 8.85089 18.8609 8.7807 18.5372 8.78217C18.2134 8.78364 17.8932 8.85674 17.5949 8.99726C17.2965 9.13779 17.026 9.34295 16.799 9.60091Z" fill="#0B1C3D"/>
</svg>
