<svg width="30" height="30" viewBox="0 0 30 30" fill="none" xmlns="http://www.w3.org/2000/svg">
<path opacity="0.5" d="M27.499 12.5005H2.49902V23.7505C2.49902 24.745 2.89411 25.6989 3.59737 26.4021C4.30063 27.1054 5.25446 27.5005 6.24902 27.5005H23.749C24.7436 27.5005 25.6974 27.1054 26.4007 26.4021C27.1039 25.6989 27.499 24.745 27.499 23.7505V12.5005ZM8.74902 10.0005C8.4175 10.0005 8.09956 9.86879 7.86514 9.63437C7.63072 9.39995 7.49902 9.08201 7.49902 8.75049V3.75049C7.49902 3.41897 7.63072 3.10103 7.86514 2.8666C8.09956 2.63218 8.4175 2.50049 8.74902 2.50049C9.08054 2.50049 9.39849 2.63218 9.63291 2.8666C9.86733 3.10103 9.99902 3.41897 9.99902 3.75049V8.75049C9.99902 9.08201 9.86733 9.39995 9.63291 9.63437C9.39849 9.86879 9.08054 10.0005 8.74902 10.0005ZM21.249 10.0005C20.9175 10.0005 20.5996 9.86879 20.3651 9.63437C20.1307 9.39995 19.999 9.08201 19.999 8.75049V3.75049C19.999 3.41897 20.1307 3.10103 20.3651 2.8666C20.5996 2.63218 20.9175 2.50049 21.249 2.50049C21.5805 2.50049 21.8985 2.63218 22.1329 2.8666C22.3673 3.10103 22.499 3.41897 22.499 3.75049V8.75049C22.499 9.08201 22.3673 9.39995 22.1329 9.63437C21.8985 9.86879 21.5805 10.0005 21.249 10.0005Z" fill="#0087FF"/>
<path d="M23.749 5.00049H22.499V8.75049C22.499 9.08201 22.3673 9.39995 22.1329 9.63437C21.8985 9.86879 21.5805 10.0005 21.249 10.0005C20.9175 10.0005 20.5996 9.86879 20.3651 9.63437C20.1307 9.39995 19.999 9.08201 19.999 8.75049V5.00049H9.99902V8.75049C9.99902 9.08201 9.86733 9.39995 9.63291 9.63437C9.39849 9.86879 9.08054 10.0005 8.74902 10.0005C8.4175 10.0005 8.09956 9.86879 7.86514 9.63437C7.63072 9.39995 7.49902 9.08201 7.49902 8.75049V5.00049H6.24902C5.25446 5.00049 4.30063 5.39558 3.59737 6.09884C2.89411 6.8021 2.49902 7.75593 2.49902 8.75049V12.5005H27.499V8.75049C27.499 7.75593 27.1039 6.8021 26.4007 6.09884C25.6974 5.39558 24.7436 5.00049 23.749 5.00049Z" fill="#333333"/>
</svg>
