<svg width="24" height="20" viewBox="0 0 24 20" fill="none" xmlns="http://www.w3.org/2000/svg">
<path d="M0 4.58333C0 3.36776 0.434597 2.20197 1.20818 1.34243C1.98177 0.482885 3.03098 0 4.125 0H19.875C20.969 0 22.0182 0.482885 22.7918 1.34243C23.5654 2.20197 24 3.36776 24 4.58333V15.4167C24 16.6322 23.5654 17.798 22.7918 18.6576C22.0182 19.5171 20.969 20 19.875 20H4.125C3.03098 20 1.98177 19.5171 1.20818 18.6576C0.434597 17.798 0 16.6322 0 15.4167V4.58333ZM1.5 10V15.4167C1.5 17.0267 2.676 18.3333 4.125 18.3333H7.5V11.1783L5.031 13.9233C4.89017 14.0798 4.69916 14.1677 4.5 14.1677C4.30084 14.1677 4.10983 14.0798 3.969 13.9233C3.82817 13.7669 3.74905 13.5546 3.74905 13.3333C3.74905 13.112 3.82817 12.8998 3.969 12.7433L6.4395 10H1.5ZM3.402 8.33333C3.07186 7.69787 2.93964 6.95913 3.02586 6.23166C3.11208 5.5042 3.41191 4.82868 3.87886 4.30984C4.34581 3.79101 4.95378 3.45786 5.6085 3.36207C6.26321 3.26627 6.92808 3.41317 7.5 3.78V1.66667H4.125C3.42881 1.66667 2.76113 1.97396 2.26884 2.52094C1.77656 3.06792 1.5 3.80979 1.5 4.58333V8.33333H3.402ZM6 8.33333H7.5V6.66667C7.5 6.33703 7.41203 6.0148 7.2472 5.74072C7.08238 5.46663 6.84811 5.25301 6.57403 5.12687C6.29994 5.00072 5.99834 4.96772 5.70736 5.03202C5.41639 5.09633 5.14912 5.25507 4.93934 5.48816C4.72956 5.72124 4.5867 6.01821 4.52882 6.34152C4.47094 6.66482 4.50065 6.99993 4.61418 7.30447C4.72771 7.60902 4.91997 7.86931 5.16665 8.05245C5.41332 8.23558 5.70333 8.33333 6 8.33333ZM9 6.66667V8.33333H10.5C10.7967 8.33333 11.0867 8.23558 11.3334 8.05245C11.58 7.86931 11.7723 7.60902 11.8858 7.30447C11.9994 6.99993 12.0291 6.66482 11.9712 6.34152C11.9133 6.01821 11.7704 5.72124 11.5607 5.48816C11.3509 5.25507 11.0836 5.09633 10.7926 5.03202C10.5017 4.96772 10.2001 5.00072 9.92597 5.12687C9.65189 5.25301 9.41762 5.46663 9.2528 5.74072C9.08797 6.0148 9 6.33703 9 6.66667ZM13.098 8.33333H22.5V4.58333C22.5 3.80979 22.2234 3.06792 21.7312 2.52094C21.2389 1.97396 20.5712 1.66667 19.875 1.66667H9V3.78C9.57192 3.41317 10.2368 3.26627 10.8915 3.36207C11.5462 3.45786 12.1542 3.79101 12.6211 4.30984C13.0881 4.82868 13.3879 5.5042 13.4741 6.23166C13.5604 6.95913 13.4281 7.69787 13.098 8.33333ZM10.0605 10L12.531 12.7433C12.6718 12.8998 12.7509 13.112 12.7509 13.3333C12.7509 13.5546 12.6718 13.7669 12.531 13.9233C12.3902 14.0798 12.1992 14.1677 12 14.1677C11.8008 14.1677 11.6098 14.0798 11.469 13.9233L9 11.1783V18.3333H19.875C20.5712 18.3333 21.2389 18.026 21.7312 17.4791C22.2234 16.9321 22.5 16.1902 22.5 15.4167V10H10.0605Z" fill="#333333"/>
</svg>
