<svg width="18" height="17" viewBox="0 0 18 17" fill="none" xmlns="http://www.w3.org/2000/svg">
<path d="M3 3.25C3 2.65326 3.23705 2.08097 3.65901 1.65901C4.08097 1.23705 4.65326 1 5.25 1C5.84674 1 6.41903 1.23705 6.84099 1.65901C7.26295 2.08097 7.5 2.65326 7.5 3.25C7.5 3.84674 7.26295 4.41903 6.84099 4.84099C6.41903 5.26295 5.84674 5.5 5.25 5.5C4.65326 5.5 4.08097 5.26295 3.65901 4.84099C3.23705 4.41903 3 3.84674 3 3.25ZM5.25 0C4.38805 0 3.5614 0.34241 2.9519 0.951903C2.34241 1.5614 2 2.38805 2 3.25C2 4.11195 2.34241 4.9386 2.9519 5.5481C3.5614 6.15759 4.38805 6.5 5.25 6.5C6.11195 6.5 6.9386 6.15759 7.5481 5.5481C8.15759 4.9386 8.5 4.11195 8.5 3.25C8.5 2.38805 8.15759 1.5614 7.5481 0.951903C6.9386 0.34241 6.11195 0 5.25 0ZM0 9.5C0 8.96957 0.210714 8.46086 0.585786 8.08579C0.960859 7.71071 1.46957 7.5 2 7.5H8.5C8.84825 7.49972 9.19054 7.59037 9.493 7.763C9.216 7.993 8.962 8.249 8.735 8.528C8.65804 8.50945 8.57916 8.50005 8.5 8.5H2C1.73478 8.5 1.48043 8.60536 1.29289 8.79289C1.10536 8.98043 1 9.23478 1 9.5V9.578L1.007 9.661C1.06118 10.1404 1.23219 10.5991 1.505 10.997C1.992 11.701 3.013 12.5 5.25 12.5C6.204 12.5 6.937 12.355 7.502 12.133C7.51 12.483 7.551 12.823 7.622 13.153C6.977 13.37 6.196 13.5 5.25 13.5C2.737 13.5 1.383 12.58 0.682 11.566C0.312824 11.0283 0.0826328 10.4074 0.012 9.759C0.00602443 9.70082 0.00202217 9.64245 0 9.584V9.5ZM11.5 4C11.5 3.60218 11.658 3.22064 11.9393 2.93934C12.2206 2.65804 12.6022 2.5 13 2.5C13.3978 2.5 13.7794 2.65804 14.0607 2.93934C14.342 3.22064 14.5 3.60218 14.5 4C14.5 4.39782 14.342 4.77936 14.0607 5.06066C13.7794 5.34196 13.3978 5.5 13 5.5C12.6022 5.5 12.2206 5.34196 11.9393 5.06066C11.658 4.77936 11.5 4.39782 11.5 4ZM13 1.5C12.337 1.5 11.7011 1.76339 11.2322 2.23223C10.7634 2.70107 10.5 3.33696 10.5 4C10.5 4.66304 10.7634 5.29893 11.2322 5.76777C11.7011 6.23661 12.337 6.5 13 6.5C13.663 6.5 14.2989 6.23661 14.7678 5.76777C15.2366 5.29893 15.5 4.66304 15.5 4C15.5 3.33696 15.2366 2.70107 14.7678 2.23223C14.2989 1.76339 13.663 1.5 13 1.5ZM17.5 12C17.5 13.1935 17.0259 14.3381 16.182 15.182C15.3381 16.0259 14.1935 16.5 13 16.5C11.8065 16.5 10.6619 16.0259 9.81802 15.182C8.97411 14.3381 8.5 13.1935 8.5 12C8.5 10.8065 8.97411 9.66193 9.81802 8.81802C10.6619 7.97411 11.8065 7.5 13 7.5C14.1935 7.5 15.3381 7.97411 16.182 8.81802C17.0259 9.66193 17.5 10.8065 17.5 12ZM13.5 10C13.5 9.86739 13.4473 9.74021 13.3536 9.64645C13.2598 9.55268 13.1326 9.5 13 9.5C12.8674 9.5 12.7402 9.55268 12.6464 9.64645C12.5527 9.74021 12.5 9.86739 12.5 10V11.5H11C10.8674 11.5 10.7402 11.5527 10.6464 11.6464C10.5527 11.7402 10.5 11.8674 10.5 12C10.5 12.1326 10.5527 12.2598 10.6464 12.3536C10.7402 12.4473 10.8674 12.5 11 12.5H12.5V14C12.5 14.1326 12.5527 14.2598 12.6464 14.3536C12.7402 14.4473 12.8674 14.5 13 14.5C13.1326 14.5 13.2598 14.4473 13.3536 14.3536C13.4473 14.2598 13.5 14.1326 13.5 14V12.5H15C15.1326 12.5 15.2598 12.4473 15.3536 12.3536C15.4473 12.2598 15.5 12.1326 15.5 12C15.5 11.8674 15.4473 11.7402 15.3536 11.6464C15.2598 11.5527 15.1326 11.5 15 11.5H13.5V10Z" fill="#333333"/>
</svg>
