<svg width="24" height="24" viewBox="0 0 24 24" fill="none" xmlns="http://www.w3.org/2000/svg">
<path d="M6 7.25C6 6.65326 6.23705 6.08097 6.65901 5.65901C7.08097 5.23705 7.65326 5 8.25 5C8.84674 5 9.41903 5.23705 9.84099 5.65901C10.2629 6.08097 10.5 6.65326 10.5 7.25C10.5 7.84674 10.2629 8.41903 9.84099 8.84099C9.41903 9.26295 8.84674 9.5 8.25 9.5C7.65326 9.5 7.08097 9.26295 6.65901 8.84099C6.23705 8.41903 6 7.84674 6 7.25ZM8.25 4C7.38805 4 6.5614 4.34241 5.9519 4.9519C5.34241 5.5614 5 6.38805 5 7.25C5 8.11195 5.34241 8.9386 5.9519 9.5481C6.5614 10.1576 7.38805 10.5 8.25 10.5C9.11195 10.5 9.9386 10.1576 10.5481 9.5481C11.1576 8.9386 11.5 8.11195 11.5 7.25C11.5 6.38805 11.1576 5.5614 10.5481 4.9519C9.9386 4.34241 9.11195 4 8.25 4ZM3 13.5C3 12.9696 3.21071 12.4609 3.58579 12.0858C3.96086 11.7107 4.46957 11.5 5 11.5H11.5C11.8483 11.4997 12.1905 11.5904 12.493 11.763C12.216 11.993 11.962 12.249 11.735 12.528C11.658 12.5095 11.5792 12.5001 11.5 12.5H5C4.73478 12.5 4.48043 12.6054 4.29289 12.7929C4.10536 12.9804 4 13.2348 4 13.5V13.578L4.007 13.661C4.06118 14.1404 4.23219 14.5991 4.505 14.997C4.992 15.701 6.013 16.5 8.25 16.5C9.204 16.5 9.937 16.355 10.502 16.133C10.51 16.483 10.551 16.823 10.622 17.153C9.977 17.37 9.196 17.5 8.25 17.5C5.737 17.5 4.383 16.58 3.682 15.566C3.31282 15.0283 3.08263 14.4074 3.012 13.759C3.00602 13.7008 3.00202 13.6425 3 13.584V13.5ZM14.5 8C14.5 7.60218 14.658 7.22064 14.9393 6.93934C15.2206 6.65804 15.6022 6.5 16 6.5C16.3978 6.5 16.7794 6.65804 17.0607 6.93934C17.342 7.22064 17.5 7.60218 17.5 8C17.5 8.39782 17.342 8.77936 17.0607 9.06066C16.7794 9.34196 16.3978 9.5 16 9.5C15.6022 9.5 15.2206 9.34196 14.9393 9.06066C14.658 8.77936 14.5 8.39782 14.5 8ZM16 5.5C15.337 5.5 14.7011 5.76339 14.2322 6.23223C13.7634 6.70107 13.5 7.33696 13.5 8C13.5 8.66304 13.7634 9.29893 14.2322 9.76777C14.7011 10.2366 15.337 10.5 16 10.5C16.663 10.5 17.2989 10.2366 17.7678 9.76777C18.2366 9.29893 18.5 8.66304 18.5 8C18.5 7.33696 18.2366 6.70107 17.7678 6.23223C17.2989 5.76339 16.663 5.5 16 5.5ZM20.5 16C20.5 17.1935 20.0259 18.3381 19.182 19.182C18.3381 20.0259 17.1935 20.5 16 20.5C14.8065 20.5 13.6619 20.0259 12.818 19.182C11.9741 18.3381 11.5 17.1935 11.5 16C11.5 14.8065 11.9741 13.6619 12.818 12.818C13.6619 11.9741 14.8065 11.5 16 11.5C17.1935 11.5 18.3381 11.9741 19.182 12.818C20.0259 13.6619 20.5 14.8065 20.5 16ZM16.5 14C16.5 13.8674 16.4473 13.7402 16.3536 13.6464C16.2598 13.5527 16.1326 13.5 16 13.5C15.8674 13.5 15.7402 13.5527 15.6464 13.6464C15.5527 13.7402 15.5 13.8674 15.5 14V15.5H14C13.8674 15.5 13.7402 15.5527 13.6464 15.6464C13.5527 15.7402 13.5 15.8674 13.5 16C13.5 16.1326 13.5527 16.2598 13.6464 16.3536C13.7402 16.4473 13.8674 16.5 14 16.5H15.5V18C15.5 18.1326 15.5527 18.2598 15.6464 18.3536C15.7402 18.4473 15.8674 18.5 16 18.5C16.1326 18.5 16.2598 18.4473 16.3536 18.3536C16.4473 18.2598 16.5 18.1326 16.5 18V16.5H18C18.1326 16.5 18.2598 16.4473 18.3536 16.3536C18.4473 16.2598 18.5 16.1326 18.5 16C18.5 15.8674 18.4473 15.7402 18.3536 15.6464C18.2598 15.5527 18.1326 15.5 18 15.5H16.5V14Z" fill="#333333"/>
<circle cx="12" cy="12" r="11.5" stroke="#333333"/>
</svg>
