<svg width="22" height="22" viewBox="0 0 22 22" fill="none" xmlns="http://www.w3.org/2000/svg">
<path d="M20.6364 11L21.8522 8.89866C21.9983 8.64584 22.038 8.34534 21.9627 8.06323C21.8873 7.78111 21.703 7.54049 21.4502 7.39425L19.3468 6.17839V3.75548C19.3468 3.46339 19.2307 3.18327 19.0242 2.97673C18.8177 2.77019 18.5375 2.65416 18.2455 2.65416H15.8237L14.609 0.551733C14.4623 0.299438 14.2222 0.115064 13.9405 0.038516C13.8008 0.000648009 13.655 -0.00911643 13.5116 0.00978865C13.3681 0.0286937 13.2298 0.0758924 13.1047 0.148648L11.0012 1.36451L8.89773 0.147547C8.64479 0.00150901 8.3442 -0.0380666 8.06208 0.0375258C7.77996 0.113118 7.53942 0.297687 7.39338 0.550631L6.17755 2.65416H3.75582C3.46374 2.65416 3.18363 2.77019 2.97709 2.97673C2.77056 3.18327 2.65453 3.46339 2.65453 3.75548V6.17729L0.551074 7.39315C0.425563 7.46535 0.315553 7.56164 0.227367 7.67648C0.13918 7.79132 0.0745536 7.92246 0.037201 8.06236C-0.000151526 8.20226 -0.00949422 8.34816 0.00970968 8.49168C0.0289136 8.63519 0.0762854 8.7735 0.149104 8.89866L1.36493 11L0.149104 13.1013C0.00372153 13.3544 -0.0357231 13.6546 0.0393698 13.9367C0.114463 14.2187 0.298003 14.4596 0.549973 14.6068L2.65343 15.8227V18.2445C2.65343 18.5366 2.76946 18.8167 2.97599 19.0232C3.18252 19.2298 3.46264 19.3458 3.75472 19.3458H6.17755L7.39338 21.4493C7.49087 21.616 7.63008 21.7544 7.7973 21.851C7.96453 21.9475 8.154 21.9989 8.34709 22C8.53871 22 8.72924 21.9493 8.89884 21.8513L11.0001 20.6355L13.1036 21.8513C13.3564 21.9972 13.6568 22.0367 13.9388 21.9614C14.2209 21.886 14.4615 21.7019 14.6079 21.4493L15.8226 19.3458H18.2444C18.5364 19.3458 18.8166 19.2298 19.0231 19.0232C19.2296 18.8167 19.3457 18.5366 19.3457 18.2445V15.8227L21.4491 14.6068C21.5744 14.5344 21.6842 14.438 21.7722 14.3231C21.8602 14.2083 21.9248 14.0772 21.9621 13.9374C21.9994 13.7976 22.0088 13.6517 21.9898 13.5083C21.9707 13.3648 21.9236 13.2265 21.8511 13.1013L20.6364 11ZM8.24687 5.48236C8.68514 5.4825 9.1054 5.65675 9.41519 5.96676C9.72499 6.27678 9.89895 6.69716 9.8988 7.13544C9.89866 7.57372 9.72442 7.99399 9.41441 8.3038C9.10441 8.61361 8.68404 8.78757 8.24577 8.78743C7.80751 8.78728 7.38725 8.61303 7.07745 8.30302C6.76765 7.99301 6.59369 7.57262 6.59384 7.13434C6.59399 6.69606 6.76823 6.27579 7.07823 5.96598C7.38823 5.65618 7.80861 5.48221 8.24687 5.48236ZM8.57726 16.0551L6.8152 14.7346L13.4229 5.92399L15.185 7.24447L8.57726 16.0551ZM13.7533 16.4956C13.5363 16.4955 13.3214 16.4527 13.121 16.3696C12.9205 16.2865 12.7384 16.1647 12.585 16.0112C12.4316 15.8577 12.3099 15.6755 12.227 15.4749C12.144 15.2744 12.1013 15.0595 12.1014 14.8425C12.1015 14.6255 12.1443 14.4106 12.2274 14.2101C12.3105 14.0097 12.4323 13.8275 12.5858 13.6741C12.7393 13.5207 12.9215 13.3991 13.122 13.3161C13.3225 13.2331 13.5374 13.1904 13.7544 13.1905C14.1927 13.1907 14.6129 13.3649 14.9227 13.6749C15.2325 13.9849 15.4065 14.4053 15.4063 14.8436C15.4062 15.2819 15.232 15.7022 14.922 16.012C14.612 16.3218 14.1916 16.4957 13.7533 16.4956Z" fill="#BB9858"/>
</svg>
