<svg width="24" height="24" viewBox="0 0 24 24" fill="none" xmlns="http://www.w3.org/2000/svg">
<circle cx="12" cy="12" r="12" fill="#333333"/>
<path d="M16.4276 11.1889H7.48966C7.0947 11.1893 6.71602 11.3464 6.43675 11.6257C6.15747 11.905 6.00039 12.2836 6 12.6786V15.6579C6.00026 15.9212 6.10498 16.1737 6.29116 16.3598C6.47735 16.546 6.7298 16.6507 6.9931 16.651V20.1269C6.99337 20.3902 7.09808 20.6426 7.28427 20.8288C7.47045 21.015 7.7229 21.1197 7.98621 21.12H9.97241C10.2357 21.1197 10.4882 21.015 10.6744 20.8288C10.8605 20.6426 10.9653 20.3902 10.9655 20.1269V14.1682H9.97241V20.1269H7.98621V15.6579H6.9931V12.6786C6.9931 12.5469 7.04542 12.4206 7.13854 12.3275C7.23166 12.2344 7.35796 12.182 7.48966 12.182H16.4276C16.5593 12.182 16.6856 12.2344 16.7787 12.3275C16.8718 12.4206 16.9241 12.5469 16.9241 12.6786V15.6579H15.931V20.1269H13.9448V14.1682H12.9517V20.1269C12.952 20.3902 13.0567 20.6426 13.2429 20.8288C13.4291 21.015 13.6815 21.1197 13.9448 21.12H15.931C16.1943 21.1197 16.4468 21.015 16.633 20.8288C16.8192 20.6426 16.9239 20.3902 16.9241 20.1269V16.651C17.1874 16.6507 17.4399 16.546 17.6261 16.3598C17.8123 16.1737 17.917 15.9212 17.9172 15.6579V12.6786C17.9168 12.2836 17.7598 11.905 17.4805 11.6257C17.2012 11.3464 16.8225 11.1893 16.4276 11.1889ZM8.97931 10.6924C8.58648 10.6924 8.20246 10.5759 7.87583 10.3576C7.5492 10.1394 7.29463 9.8292 7.14429 9.46627C6.99396 9.10333 6.95463 8.70398 7.03127 8.31869C7.10791 7.9334 7.29707 7.57949 7.57485 7.30172C7.85263 7.02394 8.20653 6.83477 8.59182 6.75814C8.97711 6.6815 9.37647 6.72083 9.7394 6.87116C10.1023 7.02149 10.4125 7.27607 10.6308 7.6027C10.849 7.92933 10.9655 8.31334 10.9655 8.70618C10.965 9.23279 10.7556 9.73769 10.3832 10.1101C10.0108 10.4824 9.50592 10.6919 8.97931 10.6924ZM8.97931 7.71308C8.78289 7.71308 8.59089 7.77132 8.42757 7.88044C8.26426 7.98957 8.13697 8.14467 8.0618 8.32613C7.98664 8.5076 7.96697 8.70728 8.00529 8.89992C8.04361 9.09257 8.13819 9.26952 8.27708 9.40841C8.41597 9.5473 8.59292 9.64188 8.78557 9.6802C8.97821 9.71852 9.17789 9.69885 9.35935 9.62369C9.54082 9.54852 9.69592 9.42123 9.80505 9.25792C9.91417 9.0946 9.97241 8.9026 9.97241 8.70618C9.97215 8.44287 9.86744 8.19042 9.68125 8.00424C9.49506 7.81805 9.24262 7.71334 8.97931 7.71308ZM14.9379 10.6924C14.5451 10.6924 14.1611 10.5759 13.8345 10.3576C13.5078 10.1394 13.2532 9.8292 13.1029 9.46627C12.9526 9.10333 12.9132 8.70398 12.9899 8.31869C13.0665 7.9334 13.2557 7.57949 13.5335 7.30172C13.8112 7.02394 14.1652 6.83477 14.5504 6.75814C14.9357 6.6815 15.3351 6.72083 15.698 6.87116C16.061 7.02149 16.3712 7.27607 16.5894 7.6027C16.8076 7.92933 16.9241 8.31334 16.9241 8.70618C16.9236 9.23279 16.7142 9.73769 16.3418 10.1101C15.9694 10.4824 15.4645 10.6919 14.9379 10.6924ZM14.9379 7.71308C14.7415 7.71308 14.5495 7.77132 14.3862 7.88044C14.2229 7.98957 14.0956 8.14467 14.0204 8.32613C13.9453 8.5076 13.9256 8.70728 13.9639 8.89992C14.0022 9.09257 14.0968 9.26952 14.2357 9.40841C14.3746 9.5473 14.5515 9.64188 14.7442 9.6802C14.9368 9.71852 15.1365 9.69885 15.318 9.62369C15.4994 9.54852 15.6545 9.42123 15.7637 9.25792C15.8728 9.0946 15.931 8.9026 15.931 8.70618C15.9308 8.44287 15.8261 8.19042 15.6399 8.00424C15.4537 7.81805 15.2012 7.71334 14.9379 7.71308Z" fill="white"/>
<path d="M13.5274 1.91992C12.886 1.91992 12.3209 2.24659 12.0001 2.75992C11.6794 2.24659 11.1143 1.91992 10.4729 1.91992C9.46486 1.91992 8.64014 2.75992 8.64014 3.78659C8.64014 5.6377 12.0001 7.51992 12.0001 7.51992C12.0001 7.51992 15.3601 5.65325 15.3601 3.78659C15.3601 2.75992 14.5354 1.91992 13.5274 1.91992Z" fill="#F44336"/>
</svg>
