<svg width="22" height="24" viewBox="0 0 22 24" fill="none" xmlns="http://www.w3.org/2000/svg">
<path d="M18.1237 5.08045C19.7949 3.50417 17.8615 1.45968 14.2052 2.72612C13.9899 2.80092 13.7897 2.87975 13.6009 2.96152C13.9591 2.27366 14.4882 1.52274 15.2802 0.80372C15.2802 0.80372 13.8011 1.33501 13.1176 1.20045C12.2699 1.03362 12.0041 0 12.0041 0C12.0041 0 11.1223 1.92057 10.6731 3.42791C10.03 2.13286 9.31758 0.872652 9.31758 0.872652C9.31758 0.872652 8.93735 1.7541 8.24106 2.08923C7.67971 2.36056 5.37048 2.59449 5.37048 2.59449C6.14046 2.98828 6.80155 3.47484 7.36254 3.97827C6.77259 3.82207 6.09903 3.70474 5.32868 3.64901C2.26926 3.42718 1.06772 4.51872 1.47691 5.59707L0 5.64437L0.80372 8.65796L1.30311 8.79985C2.48816 12.8144 2.20143 17.269 2.19776 17.3192L2.1776 17.6096L2.45406 17.691C6.88075 18.9949 10.9027 21.9996 10.9027 21.9996C10.9027 21.9996 16.1173 18.5486 18.9846 17.6903L19.2354 17.6151L19.2405 17.3511C19.242 17.2888 19.3674 11.7287 20.8065 8.10466C20.9077 8.09037 21.0031 8.079 21.0848 8.07387L21.388 8.05553L21.4185 7.75047C21.4196 7.73837 21.5435 5.99197 22 5.27955L18.1237 5.08045ZM0.948551 6.48989L3.32561 7.13485V8.62459L1.35261 8.06433L0.948551 6.48989ZM4.64229 17.6774C4.07737 17.4581 3.5049 17.2588 2.92595 17.0798C2.97288 16.0451 3.04072 12.4786 2.1072 9.02792L3.83417 9.51851C4.16856 10.9936 4.72369 14.0325 4.64229 17.6774ZM7.53634 4.78235C10.5041 4.99722 11.0258 6.52912 11.0258 6.52912C11.0258 6.52912 9.21785 7.19021 8.10063 7.19021C4.45529 7.19021 3.92877 4.52092 7.53634 4.78235ZM11.1985 6.75462L14.178 7.09232L10.4638 7.991L8.34226 7.51691L11.1985 6.75462ZM7.63131 8.09697L10.1099 8.65062V10.5514L7.55101 9.8375L7.63131 8.09697ZM10.5796 20.907C10.0384 20.5051 9.13645 19.8851 7.93893 19.2203C8.0339 17.4688 8.04527 12.7888 8.04563 10.7146L10.5796 11.4343V20.907ZM13.8964 19.3098C13.0122 19.8328 12.144 20.3826 11.2931 20.9583V11.1061C12.2877 10.7412 13.2853 10.3846 14.2858 10.0366C14.0706 12.1112 13.936 17.5253 13.8964 19.3098ZM15.0991 9.10492C15.0991 9.10492 11.5285 10.2507 10.8242 10.5107V8.64586L15.1548 7.59794L15.0991 9.10492ZM14.6591 6.36926C12.9875 6.79752 11.2095 6.49539 11.2095 6.49539C11.2095 6.49539 10.8763 4.85825 13.5749 3.92363C16.855 2.78735 18.1519 5.47424 14.6591 6.36926ZM17.1197 5.7463L19.2449 5.86584L17.9686 6.17493L16.4444 6.0246C16.6911 5.9388 16.9152 5.84494 17.1197 5.7463ZM18.5336 17.0761C18.003 17.2495 17.4435 17.4765 16.8796 17.7335C16.8836 16.0161 16.9885 12.2094 17.7841 8.88052C18.6022 8.62826 19.3604 8.41303 19.9793 8.26746C18.7961 11.5623 18.5721 15.9527 18.5336 17.0761ZM20.7475 7.38491C20.7475 7.38491 19.5738 7.72884 18.8244 7.93563L19.0128 6.66406L21.0533 6.17053C20.8861 6.63069 20.7475 7.38491 20.7475 7.38491Z" fill="#0087FF"/>
</svg>
