<svg width="15" height="15" viewBox="0 0 15 15" fill="none" xmlns="http://www.w3.org/2000/svg">
<path d="M15 7.50012V7.49637C15 5.277 14.0338 3.28387 12.4994 1.91325L12.4919 1.907C12.4729 1.88657 12.4518 1.86833 12.4288 1.85262L12.4275 1.852C11.0647 0.655453 9.31226 -0.00278739 7.49875 0.000746578C5.60375 0.000746578 3.87375 0.704497 2.555 1.86575L2.56313 1.85887C2.54723 1.87093 2.53258 1.88454 2.51938 1.8995V1.90012C1.72658 2.60212 1.092 3.46455 0.657663 4.4303C0.223328 5.39606 -0.000841805 6.44307 2.37542e-06 7.502C2.37542e-06 9.72075 0.965002 11.7139 2.49813 13.0851L2.50563 13.0914C2.52548 13.1139 2.54769 13.1342 2.57188 13.152L2.57313 13.1526C3.93553 14.3474 5.68668 15.0047 7.49875 15.0014C9.31929 15.0042 11.078 14.3408 12.4431 13.1364L12.435 13.1432C13.2415 12.442 13.888 11.5758 14.3308 10.603C14.7735 9.63033 15.0022 8.57386 15.0013 7.50512V7.50075L15 7.50012ZM12.2113 12.3782C11.8397 12.0777 11.4402 11.8136 11.0181 11.5895L10.9775 11.5695C11.3606 10.4651 11.5913 9.192 11.6131 7.86762V7.85762H14.2763C14.1864 9.571 13.449 11.1862 12.2131 12.3764L12.2113 12.3782ZM7.8575 11.4376C8.65938 11.4807 9.40875 11.657 10.1 11.9439L10.055 11.9276C9.50125 13.1901 8.72188 14.0576 7.8575 14.2482V11.4376ZM7.8575 10.7226V7.85762H10.9C10.8759 9.04403 10.6701 10.2198 10.29 11.3439L10.3144 11.262C9.53841 10.9431 8.71311 10.7608 7.875 10.7232L7.85813 10.7226H7.8575ZM7.8575 7.14262V4.27762C8.71823 4.23834 9.56561 4.04992 10.3619 3.72075L10.3125 3.73887C10.6594 4.75075 10.8725 5.917 10.9 7.1295V7.14262H7.8575ZM7.8575 3.56262V0.753247C8.72188 0.943872 9.50125 1.80762 10.055 3.07387C9.40875 3.34262 8.65938 3.51825 7.87563 3.562L7.8575 3.56262ZM9.64125 1.06262C10.3777 1.30827 11.0665 1.67866 11.6775 2.15762L11.6631 2.14637C11.3863 2.36387 11.0756 2.56887 10.7481 2.747L10.7131 2.7645C10.4485 2.13995 10.0846 1.56229 9.63563 1.05387L9.64125 1.06075V1.06262ZM7.14125 0.755122V3.56262C6.37031 3.52329 5.61182 3.35206 4.89875 3.05637L4.94375 3.07262C5.5 1.81012 6.27813 0.943247 7.1425 0.752622L7.14125 0.755122ZM4.28625 2.76262C3.94746 2.58034 3.62464 2.36981 3.32125 2.13325L3.33625 2.1445C3.92946 1.67959 4.5967 1.31787 5.31 1.0745L5.3575 1.06012C4.92026 1.55477 4.56399 2.11544 4.30188 2.72137L4.28625 2.762V2.76262ZM7.1425 4.277V7.142H4.1C4.1275 5.91637 4.34063 4.75012 4.71188 3.65637L4.6875 3.73825C5.46316 4.05667 6.288 4.23872 7.12563 4.27637L7.1425 4.277ZM7.1425 7.857V10.722C6.28177 10.7613 5.4344 10.9497 4.63813 11.2789L4.6875 11.2607C4.34063 10.2495 4.1275 9.08262 4.1 7.87012V7.857H7.1425ZM7.1425 11.437V14.2464C6.27813 14.0557 5.49875 13.192 4.945 11.9257C5.59125 11.657 6.34063 11.482 7.12438 11.4382L7.1425 11.4376V11.437ZM5.36125 13.937C4.62497 13.6921 3.93621 13.3225 3.325 12.8445L3.34 12.8557C3.61688 12.6382 3.9275 12.4332 4.255 12.2551L4.29 12.2376C4.55243 12.8624 4.91629 13.4396 5.36688 13.9457L5.36125 13.9395V13.937ZM10.7138 12.237C11.0763 12.4339 11.3869 12.6382 11.6788 12.8664L11.6638 12.8551C11.0705 13.32 10.4033 13.6817 9.69 13.9251L9.6425 13.9395C10.0797 13.4451 10.436 12.8846 10.6981 12.2789L10.7138 12.2382V12.237ZM14.2763 7.14262H11.6131C11.594 5.84947 11.3708 4.56744 10.9519 3.34387L10.9775 3.43012C11.419 3.19766 11.837 2.92305 12.2256 2.61012L12.2106 2.62137C13.4439 3.80701 14.1816 5.41627 14.275 7.1245L14.2756 7.142L14.2763 7.14262ZM2.78875 2.622C3.14875 2.9145 3.55313 3.18262 3.98188 3.41075L4.0225 3.43075C3.63938 4.53512 3.40875 5.80825 3.38688 7.13262V7.14262H0.723127C0.812935 5.42925 1.55041 3.814 2.78625 2.62387L2.78813 2.622H2.78875ZM0.723752 7.85762H3.38688C3.40604 9.15078 3.6292 10.4328 4.04813 11.6564L4.0225 11.5701C3.55313 11.8195 3.14938 12.0876 2.77438 12.3901L2.78938 12.3789C1.55609 11.1932 0.818355 9.58397 0.725002 7.87575L0.724377 7.85825L0.723752 7.85762Z" fill="#333333"/>
</svg>
