<svg width="33" height="58" viewBox="0 0 33 58" fill="none" xmlns="http://www.w3.org/2000/svg">
<path d="M5.423 53.915H3.295L2.903 55H2.231L3.995 50.149H4.73L6.487 55H5.815L5.423 53.915ZM5.241 53.397L4.359 50.933L3.477 53.397H5.241Z" fill="#333333"/>
<path d="M16.982 52.487C17.1593 52.515 17.3203 52.5873 17.465 52.704C17.6143 52.8207 17.731 52.9653 17.815 53.138C17.9037 53.3107 17.948 53.495 17.948 53.691C17.948 53.9383 17.885 54.1623 17.759 54.363C17.633 54.559 17.4487 54.7153 17.206 54.832C16.968 54.944 16.6857 55 16.359 55H14.539V50.121H16.289C16.6203 50.121 16.9027 50.177 17.136 50.289C17.3693 50.3963 17.5443 50.5433 17.661 50.73C17.7777 50.9167 17.836 51.1267 17.836 51.36C17.836 51.6493 17.7567 51.8897 17.598 52.081C17.444 52.2677 17.2387 52.403 16.982 52.487ZM15.176 52.228H16.247C16.5457 52.228 16.7767 52.158 16.94 52.018C17.1033 51.878 17.185 51.6843 17.185 51.437C17.185 51.1897 17.1033 50.996 16.94 50.856C16.7767 50.716 16.541 50.646 16.233 50.646H15.176V52.228ZM16.303 54.475C16.6203 54.475 16.8677 54.4003 17.045 54.251C17.2223 54.1017 17.311 53.894 17.311 53.628C17.311 53.3573 17.2177 53.145 17.031 52.991C16.8443 52.8323 16.5947 52.753 16.282 52.753H15.176V54.475H16.303Z" fill="#333333"/>
<path d="M26.301 52.557C26.301 52.081 26.4083 51.654 26.623 51.276C26.8377 50.8933 27.1293 50.5947 27.498 50.38C27.8713 50.1653 28.2843 50.058 28.737 50.058C29.269 50.058 29.7333 50.1863 30.13 50.443C30.5267 50.6997 30.816 51.0637 30.998 51.535H30.235C30.0997 51.241 29.9037 51.0147 29.647 50.856C29.395 50.6973 29.0917 50.618 28.737 50.618C28.3963 50.618 28.0907 50.6973 27.82 50.856C27.5493 51.0147 27.337 51.241 27.183 51.535C27.029 51.8243 26.952 52.165 26.952 52.557C26.952 52.9443 27.029 53.285 27.183 53.579C27.337 53.8683 27.5493 54.0923 27.82 54.251C28.0907 54.4097 28.3963 54.489 28.737 54.489C29.0917 54.489 29.395 54.412 29.647 54.258C29.9037 54.0993 30.0997 53.873 30.235 53.579H30.998C30.816 54.0457 30.5267 54.4073 30.13 54.664C29.7333 54.916 29.269 55.042 28.737 55.042C28.2843 55.042 27.8713 54.937 27.498 54.727C27.1293 54.5123 26.8377 54.216 26.623 53.838C26.4083 53.46 26.301 53.033 26.301 52.557Z" fill="#333333"/>
<rect x="26" y="9" width="5" height="40" rx="2.5" fill="#E2E2E2"/>
<rect x="26" y="34" width="5" height="15" rx="2.5" fill="#EFC232"/>
<rect x="2" y="9" width="5" height="40" rx="2.5" fill="#E2E2E2"/>
<rect x="2" y="19" width="5" height="30" rx="2.5" fill="#037F26"/>
<path d="M2.615 2.78H0.86V3.92C0.936667 3.81333 1.05 3.72667 1.2 3.66C1.35 3.59 1.51167 3.555 1.685 3.555C1.96167 3.555 2.18667 3.61333 2.36 3.73C2.53333 3.84333 2.65667 3.99167 2.73 4.175C2.80667 4.355 2.845 4.54667 2.845 4.75C2.845 4.99 2.8 5.205 2.71 5.395C2.62 5.585 2.48167 5.735 2.295 5.845C2.11167 5.955 1.88333 6.01 1.61 6.01C1.26 6.01 0.976667 5.92 0.76 5.74C0.543333 5.56 0.411667 5.32 0.365 5.02H0.81C0.853333 5.21 0.945 5.35833 1.085 5.465C1.225 5.57167 1.40167 5.625 1.615 5.625C1.87833 5.625 2.07667 5.54667 2.21 5.39C2.34333 5.23 2.41 5.02 2.41 4.76C2.41 4.5 2.34333 4.3 2.21 4.16C2.07667 4.01667 1.88 3.945 1.62 3.945C1.44333 3.945 1.28833 3.98833 1.155 4.075C1.025 4.15833 0.93 4.27333 0.87 4.42H0.44V2.38H2.615V2.78ZM5.75465 2.78H3.99965V3.92C4.07632 3.81333 4.18965 3.72667 4.33965 3.66C4.48965 3.59 4.65132 3.555 4.82465 3.555C5.10132 3.555 5.32632 3.61333 5.49965 3.73C5.67298 3.84333 5.79632 3.99167 5.86965 4.175C5.94632 4.355 5.98465 4.54667 5.98465 4.75C5.98465 4.99 5.93965 5.205 5.84965 5.395C5.75965 5.585 5.62132 5.735 5.43465 5.845C5.25132 5.955 5.02298 6.01 4.74965 6.01C4.39965 6.01 4.11632 5.92 3.89965 5.74C3.68298 5.56 3.55132 5.32 3.50465 5.02H3.94965C3.99298 5.21 4.08465 5.35833 4.22465 5.465C4.36465 5.57167 4.54132 5.625 4.75465 5.625C5.01798 5.625 5.21632 5.54667 5.34965 5.39C5.48298 5.23 5.54965 5.02 5.54965 4.76C5.54965 4.5 5.48298 4.3 5.34965 4.16C5.21632 4.01667 5.01965 3.945 4.75965 3.945C4.58298 3.945 4.42798 3.98833 4.29465 4.075C4.16465 4.15833 4.06965 4.27333 4.00965 4.42H3.57965V2.38H5.75465V2.78ZM6.4893 3.2C6.4893 2.97333 6.55763 2.79333 6.6943 2.66C6.83096 2.52333 7.00596 2.455 7.2193 2.455C7.43263 2.455 7.60763 2.52333 7.7443 2.66C7.88096 2.79333 7.9493 2.97333 7.9493 3.2C7.9493 3.43 7.88096 3.61333 7.7443 3.75C7.60763 3.88333 7.43263 3.95 7.2193 3.95C7.00596 3.95 6.83096 3.88333 6.6943 3.75C6.55763 3.61333 6.4893 3.43 6.4893 3.2ZM9.4093 2.51L7.3843 6H6.9343L8.9593 2.51H9.4093ZM7.2193 2.735C7.10596 2.735 7.01596 2.775 6.9493 2.855C6.88596 2.93167 6.8543 3.04667 6.8543 3.2C6.8543 3.35333 6.88596 3.47 6.9493 3.55C7.01596 3.63 7.10596 3.67 7.2193 3.67C7.33263 3.67 7.42263 3.63 7.4893 3.55C7.55596 3.46667 7.5893 3.35 7.5893 3.2C7.5893 3.04667 7.55596 2.93167 7.4893 2.855C7.42263 2.775 7.33263 2.735 7.2193 2.735ZM8.4043 5.31C8.4043 5.08 8.47263 4.89833 8.6093 4.765C8.74596 4.62833 8.92096 4.56 9.1343 4.56C9.34763 4.56 9.52096 4.62833 9.6543 4.765C9.79096 4.89833 9.8593 5.08 9.8593 5.31C9.8593 5.53667 9.79096 5.71833 9.6543 5.855C9.52096 5.99167 9.34763 6.06 9.1343 6.06C8.92096 6.06 8.74596 5.99333 8.6093 5.86C8.47263 5.72333 8.4043 5.54 8.4043 5.31ZM9.1293 4.845C9.01596 4.845 8.92596 4.885 8.8593 4.965C8.79263 5.04167 8.7593 5.15667 8.7593 5.31C8.7593 5.46 8.79263 5.575 8.8593 5.655C8.92596 5.73167 9.01596 5.77 9.1293 5.77C9.24263 5.77 9.33263 5.73167 9.3993 5.655C9.46596 5.575 9.4993 5.46 9.4993 5.31C9.4993 5.15667 9.46596 5.04167 9.3993 4.965C9.33263 4.885 9.24263 4.845 9.1293 4.845Z" fill="#333333"/>
<path d="M12.255 5.635C12.6783 5.295 13.01 5.01667 13.25 4.8C13.49 4.58 13.6917 4.35167 13.855 4.115C14.0217 3.875 14.105 3.64 14.105 3.41C14.105 3.19333 14.0517 3.02333 13.945 2.9C13.8417 2.77333 13.6733 2.71 13.44 2.71C13.2133 2.71 13.0367 2.78167 12.91 2.925C12.7867 3.065 12.72 3.25333 12.71 3.49H12.27C12.2833 3.11667 12.3967 2.82833 12.61 2.625C12.8233 2.42167 13.0983 2.32 13.435 2.32C13.7783 2.32 14.05 2.415 14.25 2.605C14.4533 2.795 14.555 3.05667 14.555 3.39C14.555 3.66667 14.4717 3.93667 14.305 4.2C14.1417 4.46 13.955 4.69 13.745 4.89C13.535 5.08667 13.2667 5.31667 12.94 5.58H14.66V5.96H12.255V5.635ZM17.491 2.78H15.736V3.92C15.8126 3.81333 15.926 3.72667 16.076 3.66C16.226 3.59 16.3876 3.555 16.561 3.555C16.8376 3.555 17.0626 3.61333 17.236 3.73C17.4093 3.84333 17.5326 3.99167 17.606 4.175C17.6826 4.355 17.721 4.54667 17.721 4.75C17.721 4.99 17.676 5.205 17.586 5.395C17.496 5.585 17.3576 5.735 17.171 5.845C16.9876 5.955 16.7593 6.01 16.486 6.01C16.136 6.01 15.8526 5.92 15.636 5.74C15.4193 5.56 15.2876 5.32 15.241 5.02H15.686C15.7293 5.21 15.821 5.35833 15.961 5.465C16.101 5.57167 16.2776 5.625 16.491 5.625C16.7543 5.625 16.9526 5.54667 17.086 5.39C17.2193 5.23 17.286 5.02 17.286 4.76C17.286 4.5 17.2193 4.3 17.086 4.16C16.9526 4.01667 16.756 3.945 16.496 3.945C16.3193 3.945 16.1643 3.98833 16.031 4.075C15.901 4.15833 15.806 4.27333 15.746 4.42H15.316V2.38H17.491V2.78ZM18.2256 3.2C18.2256 2.97333 18.294 2.79333 18.4306 2.66C18.5673 2.52333 18.7423 2.455 18.9556 2.455C19.169 2.455 19.344 2.52333 19.4806 2.66C19.6173 2.79333 19.6856 2.97333 19.6856 3.2C19.6856 3.43 19.6173 3.61333 19.4806 3.75C19.344 3.88333 19.169 3.95 18.9556 3.95C18.7423 3.95 18.5673 3.88333 18.4306 3.75C18.294 3.61333 18.2256 3.43 18.2256 3.2ZM21.1456 2.51L19.1206 6H18.6706L20.6956 2.51H21.1456ZM18.9556 2.735C18.8423 2.735 18.7523 2.775 18.6856 2.855C18.6223 2.93167 18.5906 3.04667 18.5906 3.2C18.5906 3.35333 18.6223 3.47 18.6856 3.55C18.7523 3.63 18.8423 3.67 18.9556 3.67C19.069 3.67 19.159 3.63 19.2256 3.55C19.2923 3.46667 19.3256 3.35 19.3256 3.2C19.3256 3.04667 19.2923 2.93167 19.2256 2.855C19.159 2.775 19.069 2.735 18.9556 2.735ZM20.1406 5.31C20.1406 5.08 20.209 4.89833 20.3456 4.765C20.4823 4.62833 20.6573 4.56 20.8706 4.56C21.084 4.56 21.2573 4.62833 21.3906 4.765C21.5273 4.89833 21.5956 5.08 21.5956 5.31C21.5956 5.53667 21.5273 5.71833 21.3906 5.855C21.2573 5.99167 21.084 6.06 20.8706 6.06C20.6573 6.06 20.4823 5.99333 20.3456 5.86C20.209 5.72333 20.1406 5.54 20.1406 5.31ZM20.8656 4.845C20.7523 4.845 20.6623 4.885 20.5956 4.965C20.529 5.04167 20.4956 5.15667 20.4956 5.31C20.4956 5.46 20.529 5.575 20.5956 5.655C20.6623 5.73167 20.7523 5.77 20.8656 5.77C20.979 5.77 21.069 5.73167 21.1356 5.655C21.2023 5.575 21.2356 5.46 21.2356 5.31C21.2356 5.15667 21.2023 5.04167 21.1356 4.965C21.069 4.885 20.979 4.845 20.8656 4.845Z" fill="#333333"/>
<path d="M24.19 2.8V2.385H25.13V6H24.67V2.8H24.19ZM28.2166 2.78H26.4616V3.92C26.5382 3.81333 26.6516 3.72667 26.8016 3.66C26.9516 3.59 27.1132 3.555 27.2866 3.555C27.5632 3.555 27.7882 3.61333 27.9616 3.73C28.1349 3.84333 28.2582 3.99167 28.3316 4.175C28.4082 4.355 28.4466 4.54667 28.4466 4.75C28.4466 4.99 28.4016 5.205 28.3116 5.395C28.2216 5.585 28.0832 5.735 27.8966 5.845C27.7132 5.955 27.4849 6.01 27.2116 6.01C26.8616 6.01 26.5782 5.92 26.3616 5.74C26.1449 5.56 26.0132 5.32 25.9666 5.02H26.4116C26.4549 5.21 26.5466 5.35833 26.6866 5.465C26.8266 5.57167 27.0032 5.625 27.2166 5.625C27.4799 5.625 27.6782 5.54667 27.8116 5.39C27.9449 5.23 28.0116 5.02 28.0116 4.76C28.0116 4.5 27.9449 4.3 27.8116 4.16C27.6782 4.01667 27.4816 3.945 27.2216 3.945C27.0449 3.945 26.8899 3.98833 26.7566 4.075C26.6266 4.15833 26.5316 4.27333 26.4716 4.42H26.0416V2.38H28.2166V2.78ZM28.9512 3.2C28.9512 2.97333 29.0195 2.79333 29.1562 2.66C29.2929 2.52333 29.4679 2.455 29.6812 2.455C29.8945 2.455 30.0695 2.52333 30.2062 2.66C30.3429 2.79333 30.4112 2.97333 30.4112 3.2C30.4112 3.43 30.3429 3.61333 30.2062 3.75C30.0695 3.88333 29.8945 3.95 29.6812 3.95C29.4679 3.95 29.2929 3.88333 29.1562 3.75C29.0195 3.61333 28.9512 3.43 28.9512 3.2ZM31.8712 2.51L29.8462 6H29.3962L31.4212 2.51H31.8712ZM29.6812 2.735C29.5679 2.735 29.4779 2.775 29.4112 2.855C29.3479 2.93167 29.3162 3.04667 29.3162 3.2C29.3162 3.35333 29.3479 3.47 29.4112 3.55C29.4779 3.63 29.5679 3.67 29.6812 3.67C29.7945 3.67 29.8845 3.63 29.9512 3.55C30.0179 3.46667 30.0512 3.35 30.0512 3.2C30.0512 3.04667 30.0179 2.93167 29.9512 2.855C29.8845 2.775 29.7945 2.735 29.6812 2.735ZM30.8662 5.31C30.8662 5.08 30.9345 4.89833 31.0712 4.765C31.2079 4.62833 31.3829 4.56 31.5962 4.56C31.8095 4.56 31.9829 4.62833 32.1162 4.765C32.2529 4.89833 32.3212 5.08 32.3212 5.31C32.3212 5.53667 32.2529 5.71833 32.1162 5.855C31.9829 5.99167 31.8095 6.06 31.5962 6.06C31.3829 6.06 31.2079 5.99333 31.0712 5.86C30.9345 5.72333 30.8662 5.54 30.8662 5.31ZM31.5912 4.845C31.4779 4.845 31.3879 4.885 31.3212 4.965C31.2545 5.04167 31.2212 5.15667 31.2212 5.31C31.2212 5.46 31.2545 5.575 31.3212 5.655C31.3879 5.73167 31.4779 5.77 31.5912 5.77C31.7045 5.77 31.7945 5.73167 31.8612 5.655C31.9279 5.575 31.9612 5.46 31.9612 5.31C31.9612 5.15667 31.9279 5.04167 31.8612 4.965C31.7945 4.885 31.7045 4.845 31.5912 4.845Z" fill="#333333"/>
<rect x="14" y="9" width="5" height="40" rx="2.5" fill="#E2E2E2"/>
<rect x="14" y="27" width="5" height="22" rx="2.5" fill="#0087FF"/>
</svg>
