<svg width="17" height="17" viewBox="0 0 17 17" fill="none" xmlns="http://www.w3.org/2000/svg">
<path d="M11.8269 14.314L11.3757 10.471C11.3118 9.92667 11.0632 9.42594 10.6766 9.06296C10.29 8.69999 9.79204 8.49979 9.27643 8.5H7.72275C7.20738 8.50015 6.70981 8.70052 6.32351 9.06346C5.9372 9.4264 5.68876 9.92692 5.62486 10.471L5.17299 14.314C5.14819 14.5251 5.1659 14.7395 5.22493 14.9428C5.28396 15.1461 5.38297 15.3337 5.51538 15.4931C5.64779 15.6526 5.81058 15.7803 5.99292 15.8676C6.17527 15.955 6.373 16.0002 6.573 16H10.4276C10.6275 16 10.8252 15.9549 11.0074 15.8674C11.1897 15.78 11.3524 15.6523 11.4847 15.4928C11.6171 15.3334 11.716 15.1458 11.775 14.9426C11.834 14.7393 11.8517 14.5251 11.8269 14.314V14.314Z" stroke="#333333" stroke-width="1.5" stroke-linecap="round" stroke-linejoin="round"/>
<path d="M8.50153 5.5C9.66951 5.5 10.6163 4.49264 10.6163 3.25C10.6163 2.00736 9.66951 1 8.50153 1C7.33355 1 6.38672 2.00736 6.38672 3.25C6.38672 4.49264 7.33355 5.5 8.50153 5.5Z" stroke="#333333" stroke-width="1.5"/>
<path d="M2.86105 7.75C3.6397 7.75 4.27092 7.07843 4.27092 6.25C4.27092 5.42157 3.6397 4.75 2.86105 4.75C2.08239 4.75 1.45117 5.42157 1.45117 6.25C1.45117 7.07843 2.08239 7.75 2.86105 7.75Z" stroke="#333333" stroke-width="1.5"/>
<path d="M14.1403 7.75C14.919 7.75 15.5502 7.07843 15.5502 6.25C15.5502 5.42157 14.919 4.75 14.1403 4.75C13.3617 4.75 12.7305 5.42157 12.7305 6.25C12.7305 7.07843 13.3617 7.75 14.1403 7.75Z" stroke="#333333" stroke-width="1.5"/>
<path d="M2.8605 9.99994H2.64479C2.31105 9.9999 1.98811 10.1258 1.73343 10.3553C1.47875 10.5848 1.30885 10.9029 1.25395 11.2532L1.01921 12.7532C0.985519 12.9681 0.996241 13.1882 1.05063 13.3983C1.10501 13.6083 1.20175 13.8033 1.33412 13.9695C1.46649 14.1358 1.63131 14.2693 1.81712 14.3609C2.00293 14.4525 2.20526 14.5 2.41005 14.4999H4.97531M14.1395 9.99994H14.3552C14.689 9.9999 15.0119 10.1258 15.2666 10.3553C15.5212 10.5848 15.6911 10.9029 15.746 11.2532L15.9808 12.7532C16.0145 12.9681 16.0038 13.1882 15.9494 13.3983C15.895 13.6083 15.7982 13.8033 15.6659 13.9695C15.5335 14.1358 15.3687 14.2693 15.1829 14.3609C14.9971 14.4525 14.7947 14.5 14.59 14.4999H12.0247" stroke="#333333" stroke-width="1.5" stroke-linecap="round" stroke-linejoin="round"/>
</svg>
