<svg width="24" height="22" viewBox="0 0 24 22" fill="none" xmlns="http://www.w3.org/2000/svg">
<path d="M17.4545 0C15.1636 0 13.1455 1.28333 12 3.3C10.8545 1.28333 8.83636 0 6.54545 0C2.94545 0 0 3.3 0 7.33333C0 14.6056 12 22 12 22C12 22 24 14.6667 24 7.33333C24 3.3 21.0545 0 17.4545 0Z" fill="#ED1B24"/>
<path d="M5.88355 3.67743L4.80434 3.51768L4.3219 2.52152C4.30872 2.49425 4.28705 2.47217 4.26027 2.45875C4.19311 2.42498 4.1115 2.45312 4.07792 2.52152L3.59549 3.51768L2.51628 3.67743C2.48652 3.68176 2.45932 3.69604 2.43849 3.71769C2.41331 3.74405 2.39944 3.77951 2.39991 3.81629C2.40039 3.85306 2.41518 3.88813 2.44104 3.91381L3.22186 4.68917L3.03739 5.78404C3.03306 5.80951 3.03583 5.8357 3.04538 5.85965C3.05492 5.8836 3.07087 5.90435 3.0914 5.91953C3.11193 5.93472 3.13624 5.94375 3.16155 5.94559C3.18686 5.94743 3.21217 5.942 3.23462 5.92994L4.19991 5.41302L5.16521 5.92994C5.19156 5.94422 5.22216 5.94898 5.25149 5.94379C5.32545 5.9308 5.37518 5.85937 5.36243 5.78404L5.17796 4.68917L5.95878 3.91381C5.98003 3.89259 5.99406 3.86489 5.99831 3.83458C6.00979 3.75882 5.95793 3.68868 5.88355 3.67743Z" fill="#EFC232"/>
<path d="M11.7286 11.4325L9.21044 11.0597L8.08476 8.73535C8.05402 8.67171 8.00343 8.6202 7.94095 8.58888C7.78425 8.51009 7.59382 8.57575 7.51547 8.73535L6.38979 11.0597L3.87163 11.4325C3.80221 11.4426 3.73873 11.4759 3.69014 11.5264C3.63138 11.5879 3.59901 11.6707 3.60013 11.7565C3.60124 11.8423 3.63576 11.9241 3.69609 11.984L5.51801 13.7932L5.08757 16.3479C5.07748 16.4073 5.08393 16.4684 5.10621 16.5243C5.12848 16.5802 5.16568 16.6286 5.2136 16.6641C5.26151 16.6995 5.31821 16.7206 5.37727 16.7248C5.43634 16.7291 5.4954 16.7165 5.54776 16.6883L7.80012 15.4822L10.0525 16.6883C10.114 16.7217 10.1854 16.7328 10.2538 16.7206C10.4264 16.6903 10.5424 16.5237 10.5127 16.3479L10.0822 13.7932L11.9041 11.984C11.9537 11.9345 11.9865 11.8699 11.9964 11.7992C12.0232 11.6224 11.9022 11.4587 11.7286 11.4325Z" fill="#EFC232"/>
<path d="M14.245 5.31059L12.806 5.09759L12.1628 3.76938C12.1452 3.73301 12.1163 3.70357 12.0806 3.68568C11.991 3.64065 11.8822 3.67817 11.8375 3.76938L11.1942 5.09759L9.75526 5.31059C9.71559 5.31636 9.67932 5.33541 9.65155 5.36427C9.61798 5.39942 9.59948 5.4467 9.60011 5.49573C9.60075 5.54476 9.62047 5.59153 9.65495 5.62576L10.696 6.65958L10.4501 8.1194C10.4443 8.15336 10.448 8.18829 10.4607 8.22022C10.4735 8.25215 10.4947 8.27981 10.5221 8.30006C10.5495 8.32031 10.5819 8.33235 10.6156 8.3348C10.6494 8.33725 10.6831 8.33002 10.713 8.31393L12.0001 7.62471L13.2872 8.31393C13.3223 8.33298 13.3631 8.33933 13.4022 8.3324C13.5008 8.31508 13.5671 8.21984 13.5501 8.1194L13.3042 6.65958L14.3453 5.62576C14.3736 5.59747 14.3923 5.56053 14.398 5.52012C14.4133 5.41911 14.3441 5.3256 14.245 5.31059Z" fill="#EFC232"/>
<path d="M19.0837 12.233L18.0045 12.0732L17.5221 11.0771C17.5089 11.0498 17.4872 11.0277 17.4605 11.0143C17.3933 10.9805 17.3117 11.0087 17.2781 11.0771L16.7957 12.0732L15.7165 12.233C15.6867 12.2373 15.6595 12.2516 15.6387 12.2732C15.6135 12.2996 15.5996 12.3351 15.6001 12.3718C15.6006 12.4086 15.6154 12.4437 15.6412 12.4693L16.4221 13.2447L16.2376 14.3396C16.2333 14.3651 16.236 14.3912 16.2456 14.4152C16.2551 14.4391 16.2711 14.4599 16.2916 14.4751C16.3121 14.4903 16.3364 14.4993 16.3617 14.5011C16.3871 14.503 16.4124 14.4975 16.4348 14.4855L17.4001 13.9686L18.3654 14.4855C18.3918 14.4998 18.4224 14.5045 18.4517 14.4993C18.5256 14.4863 18.5754 14.4149 18.5626 14.3396L18.3782 13.2447L19.159 12.4693C19.1802 12.4481 19.1943 12.4204 19.1985 12.3901C19.21 12.3144 19.1581 12.2442 19.0837 12.233Z" fill="#EFC232"/>
<path d="M14.2834 18.3441L13.2042 18.1843L12.7218 17.1881C12.7086 17.1609 12.6869 17.1388 12.6602 17.1254C12.593 17.0916 12.5114 17.1197 12.4778 17.1881L11.9954 18.1843L10.9162 18.3441C10.8864 18.3484 10.8592 18.3627 10.8384 18.3843C10.8132 18.4107 10.7993 18.4461 10.7998 18.4829C10.8003 18.5197 10.8151 18.5548 10.8409 18.5804L11.6218 19.3558L11.4373 20.4507C11.433 20.4761 11.4357 20.5023 11.4453 20.5263C11.4548 20.5502 11.4708 20.571 11.4913 20.5862C11.5118 20.6013 11.5361 20.6104 11.5615 20.6122C11.5868 20.6141 11.6121 20.6086 11.6345 20.5966L12.5998 20.0796L13.5651 20.5966C13.5915 20.6108 13.6221 20.6156 13.6514 20.6104C13.7254 20.5974 13.7751 20.526 13.7623 20.4507L13.5779 19.3558L14.3587 18.5804C14.3799 18.5592 14.394 18.5315 14.3982 18.5012C14.4097 18.4254 14.3578 18.3553 14.2834 18.3441Z" fill="#EFC232"/>
<path d="M22.6059 3.27712L20.8072 3.01087L20.0031 1.3506C19.9812 1.30515 19.945 1.26835 19.9004 1.24598C19.7885 1.1897 19.6525 1.2366 19.5965 1.3506L18.7924 3.01087L16.9938 3.27712C16.9442 3.28433 16.8988 3.30815 16.8641 3.34422C16.8222 3.38815 16.799 3.44726 16.7998 3.50855C16.8006 3.56984 16.8253 3.6283 16.8684 3.67108L18.1697 4.96336L17.8623 6.78814C17.8551 6.83059 17.8597 6.87424 17.8756 6.91416C17.8915 6.95407 17.9181 6.98865 17.9523 7.01396C17.9865 7.03928 18.027 7.05432 18.0692 7.05738C18.1114 7.06045 18.1536 7.05141 18.191 7.0313L19.7998 6.16978L21.4086 7.0313C21.4526 7.05511 21.5036 7.06304 21.5525 7.05439C21.6757 7.03274 21.7586 6.91369 21.7374 6.78814L21.4299 4.96336L22.7313 3.67108C22.7667 3.63573 22.7901 3.58955 22.7972 3.53904C22.8163 3.41277 22.7299 3.29588 22.6059 3.27712Z" fill="#EFC232"/>
</svg>
