<svg width="26" height="26" viewBox="0 0 26 26" fill="none" xmlns="http://www.w3.org/2000/svg">
<path d="M22.75 13.0011C22.7531 11.0905 22.1924 9.22149 21.138 7.62826V13.0011H19.513V5.74467C18.5518 4.88014 17.4283 4.21554 16.2077 3.78957V13.0011H14.5827V3.3784C13.5247 3.20558 12.4455 3.20723 11.388 3.38328V13.0011H9.763V3.80095C8.5475 4.22837 7.44087 4.88982 6.5 5.7333V13.0011H4.875V7.60876C4.03424 8.8764 3.50168 10.3232 3.31989 11.8335C3.1381 13.3437 3.31213 14.8756 3.82807 16.3066C4.34401 17.7375 5.18754 19.028 6.29123 20.0746C7.39492 21.1213 8.72815 21.8953 10.1843 22.3345C11.6405 22.7738 13.1793 22.8663 14.6776 22.6046C16.1759 22.3428 17.5922 21.7341 18.8133 20.8272C20.0344 19.9202 21.0263 18.7401 21.7099 17.3812C22.3934 16.0223 22.7496 14.5223 22.75 13.0011Z" fill="white"/>
<circle cx="13" cy="13" r="12.5" stroke="white"/>
</svg>
