<svg width="24" height="24" viewBox="0 0 24 24" fill="none" xmlns="http://www.w3.org/2000/svg">
<path d="M22.0016 11.9984C22.0018 10.0525 21.4343 8.14881 20.3687 6.52067C19.303 4.89254 17.7855 3.61069 16.0021 2.83223C14.2187 2.05377 12.247 1.81254 10.3285 2.13808C8.4101 2.46363 6.6283 3.34182 5.20157 4.66502H7.00157C7.26678 4.66502 7.52114 4.77038 7.70867 4.95791C7.89621 5.14545 8.00156 5.3998 8.00156 5.66502C8.00156 5.93023 7.89621 6.18459 7.70867 6.37213C7.52114 6.55966 7.26678 6.66502 7.00157 6.66502H3.00157C2.73635 6.66502 2.482 6.55966 2.29446 6.37213C2.10692 6.18459 2.00157 5.93023 2.00157 5.66502V1.66502C2.00157 1.3998 2.10692 1.14545 2.29446 0.957913C2.482 0.770377 2.73635 0.66502 3.00157 0.66502C3.26678 0.66502 3.52114 0.770377 3.70867 0.957913C3.89621 1.14545 4.00157 1.3998 4.00157 1.66502V3.05435C6.1088 1.17024 8.81351 0.0904932 11.6389 0.00543749C14.4644 -0.0796182 17.2291 0.835478 19.4459 2.58942C21.6626 4.34337 23.1891 6.82356 23.7561 9.59282C24.3231 12.3621 23.8944 15.2426 22.5454 17.7267C21.1964 20.2107 19.0139 22.1389 16.3824 23.1712C13.7509 24.2035 10.8395 24.2737 8.1613 23.3694C5.48312 22.4652 3.21012 20.6445 1.74297 18.2284C0.275814 15.8122 -0.291309 12.9557 0.141567 10.1624C0.181715 9.92686 0.304951 9.71355 0.488914 9.56115C0.672878 9.40874 0.90538 9.32733 1.14423 9.33168C1.75757 9.33168 2.1989 9.91568 2.10957 10.521C1.90809 11.8808 1.98913 13.2675 2.34763 14.5946C2.70612 15.9217 3.33437 17.1606 4.19315 18.234C5.05193 19.3074 6.12279 20.1921 7.33885 20.8331C8.55492 21.4741 9.89007 21.8574 11.2609 21.9592C12.6318 22.061 14.0089 21.8791 15.3063 21.4248C16.6037 20.9705 17.7936 20.2536 18.8015 19.3189C19.8094 18.3842 20.6138 17.2516 21.1644 15.9921C21.715 14.7325 22 13.373 22.0016 11.9984ZM12.6682 6.33169C12.6682 6.06647 12.5629 5.81211 12.3753 5.62458C12.1878 5.43704 11.9334 5.33169 11.6682 5.33169C11.403 5.33169 11.1487 5.43704 10.9611 5.62458C10.7736 5.81211 10.6682 6.06647 10.6682 6.33169V12.3317C10.6682 12.8837 11.1162 13.3317 11.6682 13.3317H15.0016C15.2668 13.3317 15.5211 13.2263 15.7087 13.0388C15.8962 12.8513 16.0016 12.5969 16.0016 12.3317C16.0016 12.0665 15.8962 11.8121 15.7087 11.6246C15.5211 11.437 15.2668 11.3317 15.0016 11.3317H12.6682V6.33169Z" fill="#333333"/>
</svg>
