<svg width="23" height="23" viewBox="0 0 23 23" fill="none" xmlns="http://www.w3.org/2000/svg">
<path d="M22.2807 11.7156L22.2799 11.7156C22.2508 11.7157 22.222 11.7102 22.1951 11.6992C22.1684 11.6883 22.1442 11.6724 22.1238 11.6523C22.1236 11.6521 22.1234 11.6519 22.1233 11.6518L11.8334 1.37232L11.48 1.01931L11.1267 1.37232L0.852942 11.6357C0.81256 11.666 0.762681 11.6817 0.711654 11.6798C0.655979 11.6776 0.603336 11.6546 0.564189 11.6155L0.211754 11.9686L0.564188 11.6155C0.525063 11.5765 0.502285 11.5243 0.500163 11.4694C0.498218 11.4191 0.513749 11.3698 0.544046 11.3296L11.3281 0.56397C11.3282 0.563856 11.3283 0.563743 11.3285 0.563629C11.3696 0.522967 11.4254 0.5 11.4836 0.5C11.5419 0.5 11.5977 0.522977 11.6389 0.563659C11.639 0.563763 11.6391 0.563867 11.6392 0.563971L22.4374 11.3437C22.4378 11.3441 22.4382 11.3445 22.4386 11.3449C22.4681 11.3755 22.4881 11.4139 22.4961 11.4554C22.5042 11.4975 22.4997 11.5411 22.4831 11.5807C22.4665 11.6203 22.4386 11.6543 22.4026 11.6784C22.3666 11.7024 22.3242 11.7154 22.2807 11.7156Z" stroke="#0087FF"/>
<path d="M11.4801 4.15625L2.83789 12.8124V21.5621C2.83789 21.9434 2.98964 22.3092 3.25976 22.5788C3.52989 22.8485 3.89625 23 4.27826 23H9.31954V15.8105H13.6406V23H18.6819C19.0639 23 19.4303 22.8485 19.7004 22.5788C19.9705 22.3092 20.1223 21.9434 20.1223 21.5621V12.7621L11.4801 4.15625Z" fill="#03194B"/>
</svg>
