<svg width="22" height="26" viewBox="0 0 22 26" fill="none" xmlns="http://www.w3.org/2000/svg">
<path d="M19.25 8.06897H2.75C2.02088 8.06968 1.32183 8.35328 0.80626 8.85753C0.290693 9.36179 0.00072803 10.0455 0 10.7586V16.1379C0.000485354 16.6133 0.193796 17.0692 0.537507 17.4053C0.881219 17.7415 1.34725 17.9306 1.83333 17.931V24.2069C1.83382 24.6823 2.02713 25.1381 2.37084 25.4743C2.71455 25.8105 3.18059 25.9995 3.66667 26H7.33333C7.81941 25.9995 8.28545 25.8105 8.62916 25.4743C8.97287 25.1381 9.16618 24.6823 9.16667 24.2069V13.4483H7.33333V24.2069H3.66667V16.1379H1.83333V10.7586C1.83333 10.5208 1.92991 10.2928 2.10182 10.1247C2.27373 9.95653 2.50688 9.86207 2.75 9.86207H19.25C19.4931 9.86207 19.7263 9.95653 19.8982 10.1247C20.0701 10.2928 20.1667 10.5208 20.1667 10.7586V16.1379H18.3333V24.2069H14.6667V13.4483H12.8333V24.2069C12.8338 24.6823 13.0271 25.1381 13.3708 25.4743C13.7146 25.8105 14.1806 25.9995 14.6667 26H18.3333C18.8194 25.9995 19.2854 25.8105 19.6292 25.4743C19.9729 25.1381 20.1662 24.6823 20.1667 24.2069V17.931C20.6527 17.9306 21.1188 17.7415 21.4625 17.4053C21.8062 17.0692 21.9995 16.6133 22 16.1379V10.7586C21.9993 10.0455 21.7093 9.36179 21.1937 8.85753C20.6782 8.35328 19.9791 8.06968 19.25 8.06897ZM5.5 7.17242C4.7748 7.17242 4.06589 6.96209 3.46291 6.56803C2.85993 6.17397 2.38996 5.61388 2.11244 4.95859C1.83492 4.3033 1.76231 3.58223 1.90379 2.88657C2.04527 2.19092 2.39448 1.55192 2.90727 1.05038C3.42007 0.548837 4.07341 0.207284 4.78467 0.0689096C5.49593 -0.069465 6.23318 0.00155384 6.90317 0.272985C7.57317 0.544417 8.14582 1.00407 8.54872 1.59382C8.95162 2.18357 9.16667 2.87692 9.16667 3.58621C9.1657 4.53704 8.77908 5.44865 8.09165 6.12099C7.40423 6.79333 6.47216 7.17147 5.5 7.17242ZM5.5 1.79311C5.1374 1.79311 4.78295 1.89827 4.48145 2.0953C4.17996 2.29233 3.94498 2.57237 3.80622 2.90002C3.66746 3.22766 3.63115 3.5882 3.70189 3.93603C3.77263 4.28385 3.94724 4.60335 4.20364 4.85412C4.46003 5.10489 4.7867 5.27567 5.14233 5.34486C5.49797 5.41405 5.86659 5.37854 6.20159 5.24282C6.53658 5.1071 6.82291 4.87728 7.02436 4.5824C7.22581 4.28753 7.33333 3.94085 7.33333 3.58621C7.33285 3.11079 7.13954 2.65499 6.79583 2.31882C6.45211 1.98265 5.98608 1.79358 5.5 1.79311ZM16.5 7.17242C15.7748 7.17242 15.0659 6.96209 14.4629 6.56803C13.8599 6.17397 13.39 5.61388 13.1124 4.95859C12.8349 4.3033 12.7623 3.58223 12.9038 2.88657C13.0453 2.19092 13.3945 1.55192 13.9073 1.05038C14.4201 0.548837 15.0734 0.207284 15.7847 0.0689096C16.4959 -0.069465 17.2332 0.00155384 17.9032 0.272985C18.5732 0.544417 19.1458 1.00407 19.5487 1.59382C19.9516 2.18357 20.1667 2.87692 20.1667 3.58621C20.1657 4.53704 19.7791 5.44865 19.0917 6.12099C18.4042 6.79333 17.4722 7.17147 16.5 7.17242ZM16.5 1.79311C16.1374 1.79311 15.7829 1.89827 15.4815 2.0953C15.18 2.29233 14.945 2.57237 14.8062 2.90002C14.6675 3.22766 14.6312 3.5882 14.7019 3.93603C14.7726 4.28385 14.9472 4.60335 15.2036 4.85412C15.46 5.10489 15.7867 5.27567 16.1423 5.34486C16.498 5.41405 16.8666 5.37854 17.2016 5.24282C17.5366 5.1071 17.8229 4.87728 18.0244 4.5824C18.2258 4.28753 18.3333 3.94085 18.3333 3.58621C18.3328 3.11079 18.1395 2.65499 17.7958 2.31882C17.4521 1.98265 16.9861 1.79358 16.5 1.79311Z" fill="#0087FF"/>
</svg>
