<svg width="22" height="24" viewBox="0 0 22 24" fill="none" xmlns="http://www.w3.org/2000/svg">
<path d="M13.2286 0.0532242C12.2839 -0.184964 11.54 0.419668 11.2835 1.00598L11.0057 1.64243C8.86175 6.55085 6.90488 11.035 1.80162 13.3657C0.624934 13.9038 -0.194794 15.0678 0.0403303 16.3416L0.484928 18.7486C0.609425 19.4234 0.943528 20.0526 1.44844 20.563C1.95336 21.0733 2.60836 21.444 3.33741 21.6319L11.5561 23.7496C12.5124 23.9961 13.5149 24.0615 14.5006 23.9418C15.4863 23.822 16.4339 23.5196 17.2839 23.0536C18.1338 22.5876 18.8678 21.968 19.4398 21.2338C20.0117 20.4996 20.4092 19.6666 20.6073 18.7872L21.9197 12.9569C22.038 12.4316 22.0255 11.8892 21.8829 11.3688C21.7404 10.8485 21.4714 10.3632 21.0955 9.94821C20.7196 9.53317 20.2462 9.19872 19.7094 8.96906C19.1727 8.7394 18.5861 8.62027 17.992 8.62029H15.6761C16.0448 7.17091 16.2147 5.51806 16.0469 4.05903C15.8492 2.35218 15.1289 0.530565 13.2286 0.0532242Z" fill="#0087FF"/>
</svg>
