<svg width="24" height="24" viewBox="0 0 24 24" fill="none" xmlns="http://www.w3.org/2000/svg">
<circle cx="12" cy="12" r="11.25" stroke="#333333" stroke-width="1.5"/>
<path d="M15.1936 17.5814L14.7605 13.8922C14.6991 13.3696 14.4604 12.8889 14.0893 12.5404C13.7181 12.192 13.2401 11.9998 12.7452 12H11.2536C10.7589 12.0001 10.2812 12.1925 9.91035 12.5409C9.5395 12.8893 9.301 13.3698 9.23965 13.8922L8.80586 17.5814C8.78205 17.7841 8.79905 17.9899 8.85572 18.1851C8.91239 18.3802 9.00744 18.5603 9.13455 18.7134C9.26167 18.8665 9.41794 18.989 9.59299 19.0729C9.76804 19.1568 9.95787 19.2001 10.1499 19.2H13.8503C14.0422 19.2 14.232 19.1567 14.4069 19.0727C14.5819 18.9888 14.7381 18.8662 14.8651 18.7131C14.9922 18.5601 15.0872 18.38 15.1438 18.1849C15.2004 17.9898 15.2174 17.7841 15.1936 17.5814V17.5814Z" stroke="#333333" stroke-linecap="round" stroke-linejoin="round"/>
<path d="M11.9999 9.12005C13.1212 9.12005 14.0302 8.15298 14.0302 6.96005C14.0302 5.76711 13.1212 4.80005 11.9999 4.80005C10.8787 4.80005 9.96973 5.76711 9.96973 6.96005C9.96973 8.15298 10.8787 9.12005 11.9999 9.12005Z" stroke="#333333"/>
<path d="M6.58541 11.28C7.33292 11.28 7.93889 10.6353 7.93889 9.84002C7.93889 9.04473 7.33292 8.40002 6.58541 8.40002C5.83791 8.40002 5.23193 9.04473 5.23193 9.84002C5.23193 10.6353 5.83791 11.28 6.58541 11.28Z" stroke="#333333"/>
<path d="M17.4135 11.28C18.161 11.28 18.767 10.6353 18.767 9.84002C18.767 9.04473 18.161 8.40002 17.4135 8.40002C16.666 8.40002 16.0601 9.04473 16.0601 9.84002C16.0601 10.6353 16.666 11.28 17.4135 11.28Z" stroke="#333333"/>
<path d="M6.58638 13.44H6.37929C6.0589 13.44 5.74888 13.5608 5.50439 13.7811C5.2599 14.0015 5.09679 14.3069 5.04409 14.6431L4.81873 16.0831C4.78639 16.2894 4.79668 16.5008 4.84889 16.7024C4.9011 16.9041 4.99397 17.0912 5.12105 17.2508C5.24812 17.4104 5.40635 17.5386 5.58473 17.6265C5.7631 17.7145 5.95734 17.76 6.15394 17.76H8.61659M17.4142 13.44H17.6213C17.9417 13.44 18.2517 13.5608 18.4962 13.7811C18.7407 14.0015 18.9038 14.3069 18.9565 14.6431L19.1819 16.0831C19.2142 16.2894 19.2039 16.5008 19.1517 16.7024C19.0995 16.9041 19.0066 17.0912 18.8795 17.2508C18.7525 17.4104 18.5942 17.5386 18.4159 17.6265C18.2375 17.7145 18.0432 17.76 17.8466 17.76H15.384" stroke="#333333" stroke-linecap="round" stroke-linejoin="round"/>
</svg>
