<svg width="18" height="24" viewBox="0 0 18 24" fill="none" xmlns="http://www.w3.org/2000/svg">
<path d="M9 24L2.09783 15.4723C2.00192 15.3442 1.90701 15.2154 1.8131 15.0857C0.634084 13.4587 -0.00284824 11.4713 9.57508e-06 9.42857C9.57508e-06 6.92796 0.94822 4.52977 2.63605 2.76156C4.32387 0.993365 6.61305 0 9 0C11.3869 0 13.6761 0.993365 15.364 2.76156C17.0518 4.52977 18 6.92796 18 9.42857C18.0028 11.4704 17.3662 13.4568 16.1877 15.0831L16.1869 15.0857C16.1869 15.0857 15.9414 15.4234 15.9046 15.4689L9 24ZM3.11892 14.0529C3.12055 14.0529 3.31037 14.3169 3.35373 14.3734L9 21.3497L14.6536 14.364C14.6896 14.3169 14.8811 14.0511 14.8819 14.0503C15.845 12.721 16.3655 11.0975 16.3636 9.42857C16.3636 7.38262 15.5878 5.42046 14.2069 3.97375C12.8259 2.52704 10.953 1.71429 9 1.71429C7.04704 1.71429 5.17408 2.52704 3.79313 3.97375C2.41218 5.42046 1.63637 7.38262 1.63637 9.42857C1.63465 11.0985 2.15573 12.7229 3.11973 14.0529H3.11892Z" fill="#333333"/>
<path d="M13.091 13.7143H11.4546V6.85711H6.54554V13.7143H4.90918V6.85711C4.90961 6.40259 5.08215 5.96682 5.38894 5.64543C5.69572 5.32403 6.11168 5.14328 6.54554 5.14282H11.4546C11.8885 5.14328 12.3044 5.32403 12.6112 5.64543C12.918 5.96682 13.0906 6.40259 13.091 6.85711V13.7143Z" fill="#333333"/>
<path d="M8.18164 12H9.818V13.7143H8.18164V12ZM8.18164 8.57141H9.818V10.2857H8.18164V8.57141Z" fill="#333333"/>
</svg>
