<svg width="26" height="26" viewBox="0 0 26 26" fill="none" xmlns="http://www.w3.org/2000/svg">
<path d="M13 25C19.6274 25 25 19.6274 25 13C25 6.37258 19.6274 1 13 1C6.37258 1 1 6.37258 1 13C1 19.6274 6.37258 25 13 25Z" stroke="#333333" stroke-linecap="round" stroke-linejoin="round"/>
<path d="M11.8019 14.7277L13.2865 16.1482H15.1265V18.1003H17.0748V20H20V17.2655L14.7488 11.7591L14.7879 11.6859C15.1659 10.6068 15.1635 9.43289 14.781 8.35532C14.3984 7.27775 13.6583 6.35996 12.6811 5.75137C11.7077 5.1495 10.5544 4.89755 9.41528 5.03791C8.27611 5.17826 7.22061 5.70236 6.42636 6.52201C5.62645 7.34705 5.13187 8.41514 5.02286 9.55303C4.91385 10.6909 5.19681 11.8318 5.82582 12.7907C6.44798 13.7456 7.38332 14.4598 8.47488 14.8135C9.56645 15.1672 10.7478 15.1388 11.8208 14.7332L11.8019 14.7277Z" stroke="#333333" stroke-linecap="round" stroke-linejoin="round"/>
<path d="M8.24923 9.4271C8.92299 9.4271 9.46917 8.88297 9.46917 8.21175C9.46917 7.54053 8.92299 6.9964 8.24923 6.9964C7.57548 6.9964 7.0293 7.54053 7.0293 8.21175C7.0293 8.88297 7.57548 9.4271 8.24923 9.4271Z" stroke="#333333" stroke-linecap="round" stroke-linejoin="round"/>
</svg>
