<svg width="228" height="300" viewBox="0 0 228 300" fill="none" xmlns="http://www.w3.org/2000/svg">
<g clip-path="url(#clip0_877_904)">
<path d="M200.853 96.603C173.926 73.0736 137.478 96.603 102.066 146.118C66.6544 195.632 49.8162 174.794 19.7132 196.618C-10.3897 218.441 -18.4412 307.838 87.6176 299.147C193.676 290.456 271.243 158.029 200.853 96.603Z" fill="#E2E2E2"/>
<path d="M150.368 277.441L76.9193 277.103C72.6777 277.08 68.6187 275.374 65.6339 272.36C62.6491 269.346 60.9825 265.271 61.0001 261.029L61.7795 76.9045C61.7882 74.803 62.211 72.7239 63.0236 70.7859C63.8362 68.848 65.0229 67.0892 66.5156 65.6101C68.0084 64.131 69.778 62.9606 71.7234 62.1658C73.6687 61.371 75.7517 60.9673 77.8531 60.978L151.294 61.3162C155.536 61.3376 159.596 63.0416 162.582 66.054C165.568 69.0664 167.236 73.1408 167.221 77.3824L166.441 261.5C166.433 263.602 166.01 265.682 165.198 267.621C164.385 269.56 163.199 271.319 161.706 272.8C160.214 274.28 158.444 275.452 156.499 276.248C154.553 277.045 152.47 277.45 150.368 277.441Z" fill="#0087FF"/>
<path d="M151.184 67.6472H136.949C136.484 67.6558 136.026 67.7558 135.6 67.9416C135.174 68.1273 134.789 68.3951 134.467 68.7297C134.145 69.0643 133.892 69.4591 133.722 69.8915C133.552 70.324 133.469 70.7856 133.478 71.2501V73.831C133.487 74.2951 133.404 74.7564 133.234 75.1884C133.064 75.6205 132.811 76.0148 132.489 76.3488C132.166 76.6828 131.781 76.9499 131.356 77.1348C130.93 77.3198 130.472 77.4189 130.008 77.4266L102.258 77.3016C101.319 77.2766 100.428 76.88 99.7817 76.1989C99.1352 75.5179 98.7853 74.608 98.809 73.6692V71.0883C98.8327 70.1508 98.4839 69.242 97.8389 68.5612C97.1939 67.8804 96.3053 67.4829 95.3678 67.456H90.3605L77.8972 67.3972C74.9328 67.3795 72.0822 68.5372 69.9695 70.6168C67.8569 72.6964 66.6543 75.5284 66.6252 78.4928L65.8899 258.213C65.8831 259.684 66.1661 261.142 66.7226 262.503C67.2791 263.864 68.0983 265.102 69.1334 266.147C70.1685 267.192 71.3993 268.022 72.7554 268.591C74.1114 269.16 75.5663 269.457 77.037 269.463L150.331 269.802C151.803 269.808 153.261 269.525 154.623 268.968C155.985 268.411 157.225 267.592 158.27 266.556C159.315 265.52 160.146 264.289 160.716 262.932C161.285 261.575 161.582 260.119 161.588 258.647L162.324 78.9266C162.341 75.9539 161.178 73.0959 159.089 70.9808C157 68.8657 154.157 67.6666 151.184 67.6472Z" fill="white"/>
<path d="M141.324 245.824L86.8236 245.588C86.2575 245.588 85.8016 244.971 85.8089 244.221L85.8678 229.963C85.8678 229.228 86.331 228.596 86.8972 228.596L140.562 228.842C141.118 228.844 141.745 228.829 142.113 229.245C142.136 229.272 142.159 229.3 142.181 229.329C142.37 229.586 142.453 229.905 142.412 230.221L142.36 244.463C142.36 245.221 141.89 245.831 141.324 245.824Z" fill="#0087FF"/>
<path d="M101.95 235.565C101.915 235.272 101.775 235.045 101.529 234.883C101.282 234.722 100.98 234.641 100.622 234.641C100.36 234.641 100.131 234.683 99.9346 234.768C99.7402 234.852 99.5881 234.969 99.4784 235.117C99.3706 235.265 99.3167 235.434 99.3167 235.623C99.3167 235.78 99.3543 235.916 99.4293 236.03C99.5063 236.141 99.6045 236.235 99.7239 236.31C99.8432 236.383 99.9683 236.444 100.099 236.492C100.23 236.538 100.35 236.575 100.46 236.604L101.061 236.766C101.215 236.806 101.386 236.862 101.575 236.933C101.765 237.005 101.947 237.102 102.121 237.225C102.296 237.346 102.44 237.502 102.554 237.693C102.667 237.883 102.724 238.117 102.724 238.395C102.724 238.714 102.64 239.003 102.473 239.261C102.307 239.519 102.065 239.724 101.745 239.876C101.427 240.028 101.042 240.104 100.587 240.104C100.164 240.104 99.797 240.036 99.4871 239.899C99.1791 239.762 98.9365 239.572 98.7594 239.327C98.5842 239.083 98.4851 238.799 98.462 238.475H99.2012C99.2205 238.699 99.2955 238.883 99.4264 239.03C99.5593 239.174 99.7267 239.282 99.9289 239.353C100.133 239.422 100.352 239.457 100.587 239.457C100.861 239.457 101.106 239.413 101.324 239.324C101.541 239.234 101.713 239.109 101.84 238.949C101.967 238.787 102.031 238.599 102.031 238.383C102.031 238.187 101.976 238.027 101.866 237.904C101.757 237.78 101.612 237.68 101.433 237.603C101.254 237.526 101.061 237.459 100.853 237.401L100.125 237.193C99.6632 237.06 99.2975 236.871 99.028 236.624C98.7585 236.378 98.6237 236.056 98.6237 235.657C98.6237 235.326 98.7132 235.037 98.8922 234.791C99.0732 234.543 99.3158 234.35 99.6199 234.213C99.926 234.075 100.268 234.005 100.645 234.005C101.026 234.005 101.365 234.074 101.661 234.211C101.958 234.345 102.193 234.53 102.366 234.765C102.541 235 102.634 235.266 102.643 235.565H101.95ZM104.617 234.086V240H103.901V234.086H104.617ZM110.743 234.086V240H110.05L106.827 235.357H106.769V240H106.053V234.086H106.746L109.98 238.741H110.038V234.086H110.743ZM116.218 235.934C116.155 235.74 116.071 235.566 115.967 235.412C115.865 235.256 115.743 235.123 115.6 235.013C115.46 234.904 115.3 234.82 115.121 234.762C114.942 234.704 114.746 234.675 114.532 234.675C114.181 234.675 113.863 234.766 113.576 234.947C113.289 235.128 113.061 235.394 112.892 235.747C112.722 236.099 112.638 236.531 112.638 237.043C112.638 237.555 112.723 237.987 112.895 238.34C113.066 238.692 113.298 238.959 113.591 239.14C113.883 239.32 114.212 239.411 114.578 239.411C114.917 239.411 115.215 239.339 115.473 239.194C115.733 239.048 115.935 238.842 116.08 238.576C116.226 238.309 116.299 237.994 116.299 237.632L116.518 237.678H114.74V237.043H116.992V237.678C116.992 238.165 116.888 238.589 116.68 238.949C116.474 239.309 116.189 239.588 115.825 239.786C115.464 239.983 115.048 240.081 114.578 240.081C114.054 240.081 113.594 239.958 113.198 239.711C112.803 239.465 112.495 239.114 112.274 238.66C112.054 238.206 111.945 237.667 111.945 237.043C111.945 236.575 112.007 236.155 112.132 235.781C112.259 235.406 112.438 235.086 112.669 234.823C112.9 234.559 113.174 234.357 113.489 234.216C113.805 234.076 114.153 234.005 114.532 234.005C114.844 234.005 115.134 234.053 115.404 234.147C115.675 234.239 115.917 234.371 116.129 234.543C116.342 234.712 116.52 234.915 116.663 235.152C116.805 235.387 116.903 235.648 116.957 235.934H116.218ZM124.386 234.086H125.102V238.002C125.102 238.406 125.007 238.767 124.816 239.085C124.628 239.4 124.361 239.65 124.017 239.833C123.672 240.013 123.268 240.104 122.804 240.104C122.34 240.104 121.936 240.013 121.591 239.833C121.247 239.65 120.979 239.4 120.788 239.085C120.6 238.767 120.505 238.406 120.505 238.002V234.086H121.222V237.944C121.222 238.233 121.285 238.49 121.412 238.715C121.539 238.938 121.72 239.114 121.955 239.243C122.192 239.371 122.475 239.434 122.804 239.434C123.133 239.434 123.416 239.371 123.653 239.243C123.89 239.114 124.071 238.938 124.196 238.715C124.323 238.49 124.386 238.233 124.386 237.944V234.086ZM126.532 240V234.086H128.531C128.995 234.086 129.374 234.17 129.668 234.338C129.965 234.503 130.184 234.727 130.327 235.01C130.469 235.293 130.54 235.609 130.54 235.957C130.54 236.306 130.469 236.623 130.327 236.907C130.186 237.192 129.969 237.42 129.674 237.589C129.38 237.756 129.002 237.84 128.542 237.84H127.11V237.205H128.519C128.837 237.205 129.092 237.15 129.284 237.04C129.477 236.931 129.616 236.782 129.703 236.596C129.791 236.407 129.836 236.194 129.836 235.957C129.836 235.721 129.791 235.509 129.703 235.322C129.616 235.135 129.476 234.989 129.281 234.883C129.087 234.775 128.829 234.722 128.507 234.722H127.249V240H126.532Z" fill="#03194B"/>
<path d="M97.6943 120.478L78.7827 120.392L78.767 123.863L97.6785 123.949L97.6943 120.478Z" fill="#0087FF"/>
<path opacity="0.1" d="M97.6943 120.478L78.7827 120.392L78.767 123.863L97.6785 123.949L97.6943 120.478Z" fill="#0B1C3D"/>
<path d="M153.132 141.787C153.281 141.772 153.427 141.737 153.566 141.684C153.77 141.604 153.947 141.469 154.077 141.293C154.207 141.118 154.285 140.909 154.302 140.691C154.302 139.522 154.302 137.816 154.302 135.625C154.302 134.529 154.302 133.301 154.302 131.949C154.302 131.618 154.302 131.272 154.302 130.926C154.35 130.591 154.277 130.25 154.096 129.963C153.994 129.826 153.863 129.714 153.711 129.636C153.559 129.558 153.391 129.517 153.221 129.515H152.074H141.449L79.9486 129.287C79.7912 129.284 79.6355 129.319 79.4947 129.39C79.3539 129.46 79.2321 129.564 79.1398 129.691C78.9623 129.979 78.8944 130.321 78.9486 130.654C78.9486 131.39 78.9486 132.125 78.9486 132.86C78.9486 134.331 78.9486 135.802 78.9486 137.272C78.9486 138.007 78.9486 138.743 78.9486 139.478C78.9181 139.82 78.9181 140.165 78.9486 140.507C78.9873 140.654 79.0591 140.79 79.1585 140.905C79.2579 141.02 79.3823 141.11 79.5222 141.169C79.6671 141.227 79.8222 141.254 79.9781 141.25H83.7207L100.052 141.338L127.699 141.507L146.338 141.654L151.405 141.713H152.721C153.022 141.713 153.169 141.713 153.169 141.713H152.721H151.405H146.338H127.699L100.052 141.625L83.7207 141.559H79.9781C79.7721 141.567 79.5667 141.532 79.3751 141.456C79.1815 141.373 79.0093 141.248 78.8717 141.088C78.7341 140.929 78.6346 140.74 78.581 140.537C78.5384 140.344 78.5236 140.146 78.5369 139.949V139.404C78.5369 138.669 78.5369 137.934 78.5369 137.199C78.5369 135.728 78.5369 134.257 78.5369 132.787C78.5369 132.051 78.5369 131.316 78.5369 130.581C78.5229 130.385 78.5229 130.188 78.5369 129.993C78.5644 129.776 78.6481 129.571 78.7795 129.397C78.9064 129.22 79.0743 129.075 79.2689 128.977C79.4635 128.878 79.679 128.828 79.8972 128.831L141.397 129.169L152.022 129.243H153.169C153.371 129.243 153.57 129.292 153.75 129.385C153.929 129.479 154.083 129.614 154.199 129.779C154.406 130.099 154.49 130.483 154.434 130.86C154.434 131.206 154.434 131.552 154.434 131.882C154.434 133.221 154.434 134.449 154.434 135.559C154.434 137.765 154.382 139.456 154.368 140.632C154.35 140.859 154.268 141.075 154.131 141.256C153.994 141.437 153.808 141.575 153.596 141.654C153.457 141.741 153.296 141.787 153.132 141.787Z" fill="#E0E0E0"/>
<path d="M119.052 132.978H84.4634V136.221H119.052V132.978Z" fill="#0087FF"/>
<path opacity="0.2" d="M119.052 132.978H84.4634V136.221H119.052V132.978Z" fill="white"/>
<path d="M97.5654 152.139L78.6538 152.053L78.6381 155.524L97.5496 155.61L97.5654 152.139Z" fill="#0087FF"/>
<path opacity="0.1" d="M97.5654 152.139L78.6538 152.053L78.6381 155.524L97.5496 155.61L97.5654 152.139Z" fill="#0B1C3D"/>
<path d="M152.655 173.448C152.803 173.43 152.95 173.403 153.096 173.368C153.301 173.302 153.49 173.194 153.65 173.049C153.81 172.904 153.937 172.727 154.022 172.529C154.138 172.233 154.183 171.913 154.155 171.596C154.155 171.243 154.155 170.86 154.155 170.434C154.155 169.581 154.155 168.61 154.155 167.493V162.823C154.19 162.485 154.115 162.145 153.941 161.853C153.76 161.553 153.475 161.331 153.14 161.228C152.774 161.163 152.401 161.143 152.03 161.169H141.449L80.1619 160.941C79.8323 160.942 79.5141 161.062 79.2666 161.28C79.0191 161.498 78.8591 161.798 78.8163 162.125C78.8163 162.823 78.8163 163.596 78.8163 164.331C78.8163 165.801 78.8163 167.272 78.8163 168.743C78.8163 169.478 78.8163 170.213 78.8163 170.948C78.7889 171.292 78.8038 171.638 78.8604 171.978C78.9523 172.276 79.1412 172.535 79.3972 172.713C79.6688 172.886 79.9879 172.968 80.309 172.948H81.331H83.456L99.7281 173.029L127.28 173.198L145.853 173.346L150.905 173.404H152.221H152.662H152.221H150.905H145.853H127.28L99.7134 173.375L83.4413 173.316H80.2428C79.8451 173.34 79.4504 173.234 79.1178 173.015C78.7832 172.783 78.539 172.443 78.4266 172.051C78.3607 171.678 78.341 171.298 78.3678 170.919C78.3678 170.184 78.3678 169.448 78.3678 168.713C78.3678 167.243 78.3678 165.772 78.3678 164.301C78.3678 163.566 78.3678 162.831 78.3678 162.096C78.4215 161.675 78.6265 161.289 78.9446 161.008C79.2626 160.728 79.6719 160.574 80.0957 160.573L141.383 160.912L151.963 160.993C152.357 160.968 152.753 160.996 153.14 161.073C153.522 161.198 153.844 161.46 154.044 161.809C154.235 162.133 154.317 162.509 154.28 162.882C154.28 163.228 154.28 163.566 154.28 163.904C154.28 165.235 154.28 166.456 154.28 167.581C154.28 168.706 154.28 169.654 154.28 170.522C154.28 170.941 154.28 171.331 154.28 171.691C154.306 172.02 154.253 172.35 154.125 172.654C154.03 172.857 153.892 173.037 153.72 173.182C153.549 173.326 153.349 173.432 153.133 173.493C152.972 173.506 152.81 173.491 152.655 173.448Z" fill="#E0E0E0"/>
<path d="M97.4228 185.175L78.5112 185.089L78.4955 188.559L97.4071 188.645L97.4228 185.175Z" fill="#0087FF"/>
<path opacity="0.1" d="M97.4228 185.175L78.5112 185.089L78.4955 188.559L97.4071 188.645L97.4228 185.175Z" fill="#0B1C3D"/>
<path d="M152.507 206.471C152.656 206.453 152.803 206.426 152.949 206.39C153.153 206.325 153.341 206.217 153.501 206.074C153.661 205.931 153.788 205.755 153.875 205.559C153.99 205.262 154.036 204.942 154.007 204.625C154.007 204.265 154.007 203.89 154.007 203.456C154.007 202.61 154.007 201.632 154.007 200.515V195.846C154.043 195.508 153.968 195.167 153.794 194.875C153.609 194.581 153.325 194.362 152.993 194.257C152.627 194.189 152.254 194.167 151.882 194.191H141.302L80.0148 193.963C79.6852 193.964 79.367 194.084 79.1195 194.302C78.872 194.52 78.712 194.82 78.6692 195.147C78.6692 195.882 78.6692 196.618 78.6692 197.353C78.6692 198.824 78.6692 200.294 78.6692 201.765C78.6692 202.5 78.6692 203.235 78.6692 203.971C78.6418 204.312 78.6567 204.655 78.7133 204.993C78.8014 205.293 78.9912 205.553 79.2501 205.728C79.52 205.904 79.8404 205.987 80.1619 205.963H83.3604L99.6325 206.051L127.184 206.221L145.757 206.368L150.809 206.426H152.125C152.419 206.426 152.566 206.426 152.566 206.426C152.566 206.426 152.419 206.426 152.125 206.426H150.809H145.757H127.184L99.6325 206.346L83.3604 206.279H80.1619C79.7638 206.306 79.3681 206.2 79.0369 205.978C78.7023 205.746 78.4581 205.406 78.3457 205.015C78.2798 204.641 78.26 204.261 78.2869 203.882C78.2869 203.147 78.2869 202.412 78.2869 201.676C78.2869 200.206 78.2869 198.735 78.2869 197.265C78.2869 196.529 78.2869 195.794 78.2869 195.022C78.3389 194.602 78.5424 194.216 78.8593 193.936C79.1761 193.655 79.5844 193.5 80.0075 193.5L141.294 193.838L151.875 193.919C152.269 193.895 152.665 193.922 153.052 194C153.434 194.125 153.756 194.387 153.956 194.735C154.146 195.059 154.229 195.435 154.191 195.809C154.191 196.154 154.191 196.5 154.191 196.831C154.191 198.162 154.191 199.382 154.191 200.507C154.191 201.632 154.191 202.581 154.191 203.449C154.191 203.868 154.191 204.257 154.191 204.618C154.219 204.947 154.166 205.277 154.037 205.581C153.941 205.784 153.803 205.964 153.632 206.108C153.461 206.253 153.26 206.359 153.044 206.419C152.872 206.478 152.688 206.496 152.507 206.471Z" fill="#E0E0E0"/>
<path d="M118.313 165.557L83.7253 165.4L83.7106 168.642L118.299 168.799L118.313 165.557Z" fill="#0087FF"/>
<path opacity="0.2" d="M118.313 165.557L83.7253 165.4L83.7106 168.642L118.299 168.799L118.313 165.557Z" fill="white"/>
<path d="M86.8531 200.471C86.8314 200.767 86.7234 201.049 86.5424 201.284C86.3614 201.519 86.1154 201.696 85.835 201.792C85.5545 201.889 85.2519 201.901 84.9647 201.827C84.6775 201.753 84.4184 201.596 84.2194 201.376C84.0204 201.156 83.8903 200.883 83.8453 200.59C83.8003 200.297 83.8423 199.997 83.9662 199.727C84.09 199.458 84.2903 199.231 84.5421 199.074C84.7938 198.917 85.0861 198.838 85.3825 198.846C85.7922 198.869 86.1763 199.052 86.4516 199.356C86.7269 199.66 86.8712 200.061 86.8531 200.471Z" fill="#0087FF"/>
<path d="M91.5368 200.493C91.5513 200.7 91.523 200.908 91.4536 201.104C91.3842 201.3 91.2753 201.479 91.1335 201.631C90.9918 201.783 90.8203 201.904 90.6298 201.987C90.4392 202.07 90.2336 202.113 90.0258 202.113C89.818 202.113 89.6124 202.07 89.4219 201.987C89.2313 201.904 89.0598 201.783 88.9181 201.631C88.7764 201.479 88.6674 201.3 88.598 201.104C88.5287 200.908 88.5003 200.7 88.5148 200.493C88.5003 200.285 88.5287 200.077 88.598 199.882C88.6674 199.686 88.7764 199.506 88.9181 199.354C89.0598 199.202 89.2313 199.081 89.4219 198.998C89.6124 198.915 89.818 198.873 90.0258 198.873C90.2336 198.873 90.4392 198.915 90.6298 198.998C90.8203 199.081 90.9918 199.202 91.1335 199.354C91.2753 199.506 91.3842 199.686 91.4536 199.882C91.523 200.077 91.5513 200.285 91.5368 200.493Z" fill="#0087FF"/>
<path d="M96.2281 200.515C96.2064 200.81 96.0984 201.093 95.9174 201.328C95.7364 201.563 95.4904 201.74 95.21 201.836C94.9295 201.933 94.6269 201.945 94.3397 201.871C94.0525 201.797 93.7934 201.64 93.5944 201.42C93.3954 201.2 93.2653 200.927 93.2203 200.634C93.1753 200.341 93.2173 200.041 93.3412 199.771C93.465 199.502 93.6653 199.275 93.9171 199.118C94.1688 198.961 94.4611 198.882 94.7575 198.89C95.1665 198.914 95.5495 199.098 95.8244 199.402C96.0993 199.706 96.2442 200.105 96.2281 200.515Z" fill="#0087FF"/>
<path d="M100.912 200.537C100.89 200.833 100.782 201.116 100.601 201.351C100.42 201.585 100.174 201.762 99.8938 201.858C99.6133 201.955 99.3108 201.967 99.0236 201.893C98.7364 201.819 98.4772 201.662 98.2782 201.442C98.0792 201.223 97.9492 200.949 97.9041 200.656C97.8591 200.363 97.9012 200.063 98.025 199.793C98.1489 199.524 98.3491 199.297 98.6009 199.14C98.8527 198.983 99.1449 198.904 99.4414 198.912C99.8503 198.937 100.233 199.121 100.508 199.424C100.783 199.728 100.928 200.128 100.912 200.537Z" fill="#0087FF"/>
<path d="M105.596 200.552C105.575 200.848 105.469 201.131 105.288 201.367C105.108 201.603 104.863 201.781 104.582 201.879C104.302 201.976 103.999 201.989 103.711 201.916C103.423 201.843 103.163 201.687 102.964 201.467C102.764 201.247 102.633 200.974 102.588 200.68C102.542 200.387 102.584 200.087 102.708 199.817C102.831 199.547 103.032 199.319 103.284 199.162C103.536 199.005 103.828 198.926 104.125 198.934C104.533 198.959 104.915 199.142 105.189 199.444C105.464 199.746 105.61 200.143 105.596 200.552Z" fill="#0087FF"/>
<path d="M110.287 200.573C110.267 200.868 110.161 201.151 109.983 201.386C109.804 201.621 109.561 201.799 109.282 201.898C109.004 201.997 108.703 202.012 108.416 201.942C108.129 201.872 107.869 201.719 107.668 201.503C107.466 201.287 107.332 201.017 107.283 200.726C107.233 200.435 107.269 200.135 107.388 199.865C107.506 199.594 107.7 199.364 107.948 199.202C108.195 199.041 108.484 198.955 108.78 198.956C109.194 198.971 109.585 199.15 109.867 199.453C110.15 199.756 110.301 200.159 110.287 200.573Z" fill="#0087FF"/>
<path d="M114.971 200.596C114.985 200.803 114.957 201.011 114.887 201.207C114.818 201.403 114.709 201.582 114.567 201.734C114.426 201.886 114.254 202.007 114.064 202.09C113.873 202.173 113.667 202.216 113.46 202.216C113.252 202.216 113.046 202.173 112.856 202.09C112.665 202.007 112.494 201.886 112.352 201.734C112.21 201.582 112.101 201.403 112.032 201.207C111.962 201.011 111.934 200.803 111.949 200.596C111.934 200.388 111.962 200.18 112.032 199.985C112.101 199.789 112.21 199.609 112.352 199.457C112.494 199.305 112.665 199.184 112.856 199.101C113.046 199.018 113.252 198.976 113.46 198.976C113.667 198.976 113.873 199.018 114.064 199.101C114.254 199.184 114.426 199.305 114.567 199.457C114.709 199.609 114.818 199.789 114.887 199.985C114.957 200.18 114.985 200.388 114.971 200.596Z" fill="#0087FF"/>
<path d="M119.655 200.618C119.634 200.912 119.529 201.195 119.35 201.43C119.172 201.665 118.928 201.843 118.65 201.942C118.372 202.041 118.07 202.056 117.784 201.986C117.497 201.916 117.237 201.763 117.035 201.547C116.834 201.331 116.7 201.061 116.65 200.77C116.601 200.479 116.637 200.179 116.755 199.909C116.873 199.638 117.068 199.408 117.315 199.246C117.563 199.085 117.852 198.999 118.147 199C118.561 199.015 118.953 199.194 119.235 199.497C119.518 199.801 119.668 200.203 119.655 200.618Z" fill="#0087FF"/>
<path d="M124.338 200.64C124.318 200.936 124.211 201.22 124.031 201.456C123.851 201.691 123.605 201.869 123.325 201.967C123.044 202.064 122.741 202.077 122.454 202.004C122.166 201.931 121.906 201.775 121.706 201.555C121.507 201.335 121.376 201.062 121.33 200.768C121.285 200.475 121.327 200.175 121.45 199.905C121.574 199.635 121.774 199.407 122.026 199.25C122.278 199.094 122.571 199.014 122.868 199.022C123.275 199.047 123.657 199.23 123.932 199.532C124.207 199.834 124.353 200.232 124.338 200.64Z" fill="#0087FF"/>
<g opacity="0.2">
<path d="M86.8531 200.471C86.8314 200.767 86.7234 201.049 86.5424 201.284C86.3614 201.519 86.1154 201.696 85.835 201.792C85.5545 201.889 85.2519 201.901 84.9647 201.827C84.6775 201.753 84.4184 201.596 84.2194 201.376C84.0204 201.156 83.8903 200.883 83.8453 200.59C83.8003 200.297 83.8423 199.997 83.9662 199.727C84.09 199.458 84.2903 199.231 84.5421 199.074C84.7938 198.917 85.0861 198.838 85.3825 198.846C85.7922 198.869 86.1763 199.052 86.4516 199.356C86.7269 199.66 86.8712 200.061 86.8531 200.471Z" fill="white"/>
<path d="M91.537 200.493C91.5514 200.7 91.5231 200.908 91.4537 201.104C91.3843 201.3 91.2754 201.479 91.1337 201.631C90.9919 201.783 90.8204 201.904 90.6299 201.987C90.4393 202.07 90.2337 202.113 90.0259 202.113C89.8181 202.113 89.6126 202.07 89.422 201.987C89.2314 201.904 89.0599 201.783 88.9182 201.631C88.7765 201.479 88.6675 201.3 88.5982 201.104C88.5288 200.908 88.5004 200.7 88.5149 200.493C88.5004 200.285 88.5288 200.077 88.5982 199.882C88.6675 199.686 88.7765 199.506 88.9182 199.354C89.0599 199.202 89.2314 199.081 89.422 198.998C89.6126 198.915 89.8181 198.873 90.0259 198.873C90.2337 198.873 90.4393 198.915 90.6299 198.998C90.8204 199.081 90.9919 199.202 91.1337 199.354C91.2754 199.506 91.3843 199.686 91.4537 199.882C91.5231 200.077 91.5514 200.285 91.537 200.493Z" fill="white"/>
<path d="M96.2281 200.515C96.2064 200.811 96.0984 201.094 95.9174 201.329C95.7364 201.563 95.4904 201.74 95.21 201.837C94.9295 201.933 94.6269 201.945 94.3397 201.871C94.0525 201.797 93.7934 201.64 93.5944 201.42C93.3954 201.201 93.2653 200.927 93.2203 200.634C93.1753 200.341 93.2173 200.041 93.3412 199.772C93.465 199.502 93.6653 199.275 93.9171 199.118C94.1688 198.961 94.4611 198.882 94.7575 198.89C95.1665 198.915 95.5495 199.099 95.8244 199.402C96.0993 199.706 96.2442 200.106 96.2281 200.515Z" fill="white"/>
<path d="M100.912 200.537C100.89 200.833 100.782 201.116 100.601 201.351C100.42 201.585 100.174 201.762 99.8938 201.858C99.6133 201.955 99.3108 201.967 99.0236 201.893C98.7364 201.819 98.4772 201.662 98.2782 201.442C98.0792 201.223 97.9492 200.949 97.9041 200.656C97.8591 200.363 97.9012 200.063 98.025 199.793C98.1489 199.524 98.3491 199.297 98.6009 199.14C98.8527 198.983 99.1449 198.904 99.4414 198.912C99.8503 198.937 100.233 199.121 100.508 199.424C100.783 199.728 100.928 200.128 100.912 200.537Z" fill="white"/>
<path d="M105.596 200.552C105.575 200.848 105.469 201.131 105.288 201.367C105.108 201.603 104.863 201.781 104.582 201.879C104.302 201.976 103.999 201.989 103.711 201.916C103.423 201.843 103.163 201.687 102.964 201.467C102.764 201.247 102.633 200.974 102.588 200.68C102.542 200.387 102.584 200.087 102.708 199.817C102.831 199.547 103.032 199.319 103.284 199.162C103.536 199.005 103.828 198.926 104.125 198.934C104.533 198.959 104.915 199.142 105.189 199.444C105.464 199.746 105.61 200.143 105.596 200.552Z" fill="white"/>
<path d="M110.287 200.574C110.267 200.868 110.161 201.151 109.983 201.386C109.804 201.621 109.561 201.799 109.282 201.898C109.004 201.997 108.703 202.012 108.416 201.942C108.129 201.872 107.869 201.719 107.668 201.503C107.466 201.287 107.332 201.017 107.283 200.726C107.233 200.435 107.269 200.135 107.388 199.865C107.506 199.594 107.7 199.364 107.948 199.202C108.195 199.041 108.484 198.955 108.78 198.956C109.194 198.971 109.585 199.15 109.867 199.453C110.15 199.757 110.301 200.16 110.287 200.574Z" fill="white"/>
<path d="M114.971 200.596C114.985 200.803 114.957 201.011 114.888 201.207C114.818 201.403 114.709 201.582 114.567 201.734C114.426 201.886 114.254 202.007 114.064 202.09C113.873 202.173 113.668 202.216 113.46 202.216C113.252 202.216 113.046 202.173 112.856 202.09C112.665 202.007 112.494 201.886 112.352 201.734C112.21 201.582 112.101 201.403 112.032 201.207C111.963 201.011 111.934 200.803 111.949 200.596C111.934 200.388 111.963 200.18 112.032 199.985C112.101 199.789 112.21 199.609 112.352 199.457C112.494 199.305 112.665 199.184 112.856 199.101C113.046 199.018 113.252 198.976 113.46 198.976C113.668 198.976 113.873 199.018 114.064 199.101C114.254 199.184 114.426 199.305 114.567 199.457C114.709 199.609 114.818 199.789 114.888 199.985C114.957 200.18 114.985 200.388 114.971 200.596Z" fill="white"/>
<path d="M119.655 200.618C119.634 200.913 119.529 201.195 119.35 201.43C119.172 201.666 118.928 201.844 118.65 201.942C118.372 202.041 118.07 202.056 117.784 201.986C117.497 201.916 117.237 201.764 117.035 201.548C116.834 201.331 116.7 201.061 116.65 200.77C116.601 200.479 116.637 200.18 116.755 199.909C116.873 199.638 117.068 199.408 117.315 199.247C117.563 199.085 117.852 198.999 118.147 199C118.561 199.016 118.953 199.194 119.235 199.498C119.518 199.801 119.668 200.204 119.655 200.618Z" fill="white"/>
<path d="M124.338 200.64C124.318 200.936 124.211 201.22 124.031 201.456C123.851 201.692 123.605 201.87 123.325 201.967C123.044 202.065 122.741 202.078 122.454 202.004C122.166 201.931 121.906 201.775 121.706 201.555C121.507 201.336 121.376 201.062 121.33 200.769C121.285 200.475 121.327 200.175 121.45 199.905C121.574 199.635 121.774 199.408 122.026 199.251C122.278 199.094 122.571 199.014 122.868 199.022C123.275 199.047 123.657 199.23 123.932 199.532C124.207 199.834 124.353 200.232 124.338 200.64Z" fill="white"/>
</g>
<path d="M117.684 94.4928C118.195 94.2678 118.628 93.8977 118.93 93.4283C119.232 92.959 119.389 92.4112 119.382 91.8531C119.402 91.4903 119.346 91.1274 119.221 90.7866C119.095 90.4457 118.901 90.1341 118.651 89.8705C118.401 89.607 118.1 89.3972 117.766 89.2537C117.432 89.1103 117.073 89.0364 116.71 89.0364C116.346 89.0364 115.987 89.1103 115.653 89.2537C115.319 89.3972 115.018 89.607 114.768 89.8705C114.518 90.1341 114.324 90.4457 114.199 90.7866C114.073 91.1274 114.018 91.4903 114.037 91.8531C114.026 92.4168 114.182 92.9711 114.485 93.4462C114.789 93.9212 115.227 94.2956 115.743 94.5222C111.625 95.1399 111.809 99.6104 111.809 99.6104L121.544 99.6546C121.544 99.6546 121.772 95.1031 117.684 94.4928Z" fill="#0087FF"/>
<path opacity="0.1" d="M117.684 94.4928C118.195 94.2678 118.628 93.8977 118.93 93.4283C119.232 92.959 119.389 92.4112 119.382 91.8531C119.402 91.4903 119.346 91.1274 119.221 90.7866C119.095 90.4457 118.901 90.1341 118.651 89.8705C118.401 89.607 118.1 89.3972 117.766 89.2537C117.432 89.1103 117.073 89.0364 116.71 89.0364C116.346 89.0364 115.987 89.1103 115.653 89.2537C115.319 89.3972 115.018 89.607 114.768 89.8705C114.518 90.1341 114.324 90.4457 114.199 90.7866C114.073 91.1274 114.018 91.4903 114.037 91.8531C114.026 92.4168 114.182 92.9711 114.485 93.4462C114.789 93.9212 115.227 94.2956 115.743 94.5222C111.625 95.1399 111.809 99.6104 111.809 99.6104L121.544 99.6546C121.544 99.6546 121.772 95.1031 117.684 94.4928Z" fill="#03194B"/>
<path d="M133.503 102.538L98.8053 102.38L98.7865 106.527L133.485 106.685L133.503 102.538Z" fill="#0087FF"/>
<path opacity="0.2" d="M133.503 102.538L98.8053 102.38L98.7865 106.527L133.485 106.685L133.503 102.538Z" fill="white"/>
</g>
<defs>
<clipPath id="clip0_877_904">
<rect width="227.941" height="300" fill="white"/>
</clipPath>
</defs>
</svg>
