<svg width="250" height="195" viewBox="0 0 250 195" fill="none" xmlns="http://www.w3.org/2000/svg">
<path d="M128.659 16.0004H185.243L174.175 23.8685V30.4394C174.15 33.686 172.837 36.7898 170.524 39.0682C168.211 41.3466 165.088 42.6132 161.841 42.5893H126.334C123.087 42.6132 119.964 41.3466 117.651 39.0682C115.338 36.7898 114.025 33.686 114 30.4394C114.014 28.5287 114.404 26.6395 115.149 24.8797C115.893 23.1199 116.977 21.524 118.338 20.1832C119.7 18.8423 121.312 17.7828 123.082 17.0651C124.853 16.3474 126.748 15.9856 128.659 16.0004Z" fill="#E2E2E2"/>
<path d="M137.895 29.4742V37.0527H144.526V29.4742H137.895ZM145.474 29.4742V37.0527H152.105V29.4742H145.474ZM153.053 29.4742V38H136.947V29.4742H136V23.7904H138.875L138.842 23.3167C138.842 22.5917 139.079 21.8866 139.518 21.3094C139.957 20.7322 140.573 20.3147 141.271 20.1208C141.97 19.9269 142.713 19.9673 143.386 20.2359C144.06 20.5045 144.627 20.9864 145 21.6078C145.373 20.9864 145.94 20.5045 146.614 20.2359C147.287 19.9673 148.03 19.9269 148.729 20.1208C149.427 20.3147 150.043 20.7322 150.482 21.3094C150.921 21.8866 151.158 22.5917 151.158 23.3167L151.125 23.7904H154V29.4742H153.053ZM136.947 24.7377V28.5269H144.526V24.7377H136.947ZM153.053 28.5269V24.7377H145.474V28.5269H153.053ZM150.163 23.7904L150.211 23.3167C150.211 22.6886 149.961 22.0863 149.517 21.6421C149.073 21.198 148.47 20.9485 147.842 20.9485C147.214 20.9485 146.612 21.198 146.167 21.6421C145.723 22.0863 145.474 22.6886 145.474 23.3167V23.7904H150.163ZM144.526 23.7904V23.3167C144.526 22.6886 144.277 22.0863 143.833 21.6421C143.388 21.198 142.786 20.9485 142.158 20.9485C141.53 20.9485 140.927 21.198 140.483 21.6421C140.039 22.0863 139.789 22.6886 139.789 23.3167L139.837 23.7904H144.526Z" fill="#333333"/>
<path d="M2.184 180.939V190H1.001V180.939H2.184ZM7.67122 182.746C8.53789 182.746 9.23989 183.01 9.77722 183.539C10.3146 184.059 10.5832 184.813 10.5832 185.801V190H9.41322V185.97C9.41322 185.259 9.23555 184.718 8.88022 184.345C8.52489 183.964 8.03955 183.773 7.42422 183.773C6.80022 183.773 6.30189 183.968 5.92922 184.358C5.56522 184.748 5.38322 185.316 5.38322 186.061V190H4.20022V182.876H5.38322V183.89C5.61722 183.526 5.93355 183.244 6.33222 183.045C6.73955 182.846 7.18589 182.746 7.67122 182.746ZM15.1676 188.908L17.3776 182.876H18.6386L15.8436 190H14.4656L11.6706 182.876H12.9446L15.1676 188.908ZM20.4138 181.719C20.1884 181.719 19.9978 181.641 19.8418 181.485C19.6858 181.329 19.6078 181.138 19.6078 180.913C19.6078 180.688 19.6858 180.497 19.8418 180.341C19.9978 180.185 20.1884 180.107 20.4138 180.107C20.6304 180.107 20.8124 180.185 20.9598 180.341C21.1158 180.497 21.1938 180.688 21.1938 180.913C21.1938 181.138 21.1158 181.329 20.9598 181.485C20.8124 181.641 20.6304 181.719 20.4138 181.719ZM20.9858 182.876V190H19.8028V182.876H20.9858ZM24.445 183.851V188.05C24.445 188.397 24.5186 188.644 24.666 188.791C24.8133 188.93 25.069 188.999 25.433 188.999H26.304V190H25.238C24.5793 190 24.0853 189.848 23.756 189.545C23.4266 189.242 23.262 188.743 23.262 188.05V183.851H22.339V182.876H23.262V181.082H24.445V182.876H26.304V183.851H24.445ZM34.2373 186.165C34.2373 186.39 34.2243 186.629 34.1983 186.88H28.5043C28.5477 187.582 28.786 188.132 29.2193 188.531C29.6613 188.921 30.1943 189.116 30.8183 189.116C31.3297 189.116 31.7543 188.999 32.0923 188.765C32.439 188.522 32.6817 188.202 32.8203 187.803H34.0943C33.9037 188.488 33.5223 189.047 32.9503 189.48C32.3783 189.905 31.6677 190.117 30.8183 190.117C30.1423 190.117 29.5357 189.965 28.9983 189.662C28.4697 189.359 28.0537 188.93 27.7503 188.375C27.447 187.812 27.2953 187.162 27.2953 186.425C27.2953 185.688 27.4427 185.043 27.7373 184.488C28.032 183.933 28.4437 183.509 28.9723 183.214C29.5097 182.911 30.125 182.759 30.8183 182.759C31.4943 182.759 32.0923 182.906 32.6123 183.201C33.1323 183.496 33.531 183.903 33.8083 184.423C34.0943 184.934 34.2373 185.515 34.2373 186.165ZM33.0153 185.918C33.0153 185.467 32.9157 185.082 32.7163 184.761C32.517 184.432 32.244 184.185 31.8973 184.02C31.5593 183.847 31.1823 183.76 30.7663 183.76C30.1683 183.76 29.657 183.951 29.2323 184.332C28.8163 184.713 28.578 185.242 28.5173 185.918H33.0153ZM45.4007 182.876L41.1107 193.354H39.8887L41.2927 189.922L38.4197 182.876H39.7327L41.9687 188.648L44.1787 182.876H45.4007ZM49.6969 190.117C49.0295 190.117 48.4229 189.965 47.8769 189.662C47.3395 189.359 46.9149 188.93 46.6029 188.375C46.2995 187.812 46.1479 187.162 46.1479 186.425C46.1479 185.697 46.3039 185.056 46.6159 184.501C46.9365 183.938 47.3699 183.509 47.9159 183.214C48.4619 182.911 49.0729 182.759 49.7489 182.759C50.4249 182.759 51.0359 182.911 51.5819 183.214C52.1279 183.509 52.5569 183.933 52.8689 184.488C53.1895 185.043 53.3499 185.688 53.3499 186.425C53.3499 187.162 53.1852 187.812 52.8559 188.375C52.5352 188.93 52.0975 189.359 51.5429 189.662C50.9882 189.965 50.3729 190.117 49.6969 190.117ZM49.6969 189.077C50.1215 189.077 50.5202 188.977 50.8929 188.778C51.2655 188.579 51.5645 188.28 51.7899 187.881C52.0239 187.482 52.1409 186.997 52.1409 186.425C52.1409 185.853 52.0282 185.368 51.8029 184.969C51.5775 184.57 51.2829 184.276 50.9189 184.085C50.5549 183.886 50.1605 183.786 49.7359 183.786C49.3025 183.786 48.9039 183.886 48.5399 184.085C48.1845 184.276 47.8985 184.57 47.6819 184.969C47.4652 185.368 47.3569 185.853 47.3569 186.425C47.3569 187.006 47.4609 187.495 47.6689 187.894C47.8855 188.293 48.1715 188.592 48.5269 188.791C48.8822 188.982 49.2722 189.077 49.6969 189.077ZM61.2233 182.876V190H60.0403V188.947C59.815 189.311 59.4986 189.597 59.0913 189.805C58.6926 190.004 58.2506 190.104 57.7653 190.104C57.2106 190.104 56.7123 189.991 56.2703 189.766C55.8283 189.532 55.4773 189.185 55.2173 188.726C54.966 188.267 54.8403 187.708 54.8403 187.049V182.876H56.0103V186.893C56.0103 187.595 56.188 188.137 56.5433 188.518C56.8986 188.891 57.384 189.077 57.9993 189.077C58.632 189.077 59.1303 188.882 59.4943 188.492C59.8583 188.102 60.0403 187.534 60.0403 186.789V182.876H61.2233ZM64.4037 184.033C64.6117 183.626 64.9064 183.309 65.2877 183.084C65.6777 182.859 66.1501 182.746 66.7047 182.746V183.968H66.3927C65.0667 183.968 64.4037 184.687 64.4037 186.126V190H63.2207V182.876H64.4037V184.033ZM74.4352 183.851H72.9402V190H71.7572V183.851H70.8342V182.876H71.7572V182.369C71.7572 181.572 71.9608 180.991 72.3682 180.627C72.7842 180.254 73.4472 180.068 74.3572 180.068V181.056C73.8372 181.056 73.4688 181.16 73.2522 181.368C73.0442 181.567 72.9402 181.901 72.9402 182.369V182.876H74.4352V183.851ZM76.9975 184.033C77.2055 183.626 77.5001 183.309 77.8815 183.084C78.2715 182.859 78.7438 182.746 79.2985 182.746V183.968H78.9865C77.6605 183.968 76.9975 184.687 76.9975 186.126V190H75.8145V182.876H76.9975V184.033ZM81.2751 181.719C81.0498 181.719 80.8591 181.641 80.7031 181.485C80.5471 181.329 80.4691 181.138 80.4691 180.913C80.4691 180.688 80.5471 180.497 80.7031 180.341C80.8591 180.185 81.0498 180.107 81.2751 180.107C81.4918 180.107 81.6738 180.185 81.8211 180.341C81.9771 180.497 82.0551 180.688 82.0551 180.913C82.0551 181.138 81.9771 181.329 81.8211 181.485C81.6738 181.641 81.4918 181.719 81.2751 181.719ZM81.8471 182.876V190H80.6641V182.876H81.8471ZM90.3633 186.165C90.3633 186.39 90.3503 186.629 90.3243 186.88H84.6303C84.6736 187.582 84.912 188.132 85.3453 188.531C85.7873 188.921 86.3203 189.116 86.9443 189.116C87.4556 189.116 87.8803 188.999 88.2183 188.765C88.565 188.522 88.8076 188.202 88.9463 187.803H90.2203C90.0296 188.488 89.6483 189.047 89.0763 189.48C88.5043 189.905 87.7936 190.117 86.9443 190.117C86.2683 190.117 85.6616 189.965 85.1243 189.662C84.5956 189.359 84.1796 188.93 83.8763 188.375C83.573 187.812 83.4213 187.162 83.4213 186.425C83.4213 185.688 83.5686 185.043 83.8633 184.488C84.158 183.933 84.5696 183.509 85.0983 183.214C85.6356 182.911 86.251 182.759 86.9443 182.759C87.6203 182.759 88.2183 182.906 88.7383 183.201C89.2583 183.496 89.657 183.903 89.9343 184.423C90.2203 184.934 90.3633 185.515 90.3633 186.165ZM89.1413 185.918C89.1413 185.467 89.0416 185.082 88.8423 184.761C88.643 184.432 88.37 184.185 88.0233 184.02C87.6853 183.847 87.3083 183.76 86.8923 183.76C86.2943 183.76 85.783 183.951 85.3583 184.332C84.9423 184.713 84.704 185.242 84.6433 185.918H89.1413ZM95.3958 182.746C96.2625 182.746 96.9645 183.01 97.5018 183.539C98.0392 184.059 98.3078 184.813 98.3078 185.801V190H97.1378V185.97C97.1378 185.259 96.9602 184.718 96.6048 184.345C96.2495 183.964 95.7642 183.773 95.1488 183.773C94.5248 183.773 94.0265 183.968 93.6538 184.358C93.2898 184.748 93.1078 185.316 93.1078 186.061V190H91.9248V182.876H93.1078V183.89C93.3418 183.526 93.6582 183.244 94.0568 183.045C94.4642 182.846 94.9105 182.746 95.3958 182.746ZM99.7983 186.412C99.7983 185.684 99.9456 185.047 100.24 184.501C100.535 183.946 100.938 183.517 101.449 183.214C101.969 182.911 102.55 182.759 103.191 182.759C103.746 182.759 104.262 182.889 104.738 183.149C105.215 183.4 105.579 183.734 105.83 184.15V180.38H107.026V190H105.83V188.661C105.596 189.086 105.25 189.437 104.79 189.714C104.331 189.983 103.794 190.117 103.178 190.117C102.546 190.117 101.969 189.961 101.449 189.649C100.938 189.337 100.535 188.899 100.24 188.336C99.9456 187.773 99.7983 187.131 99.7983 186.412ZM105.83 186.425C105.83 185.888 105.722 185.42 105.505 185.021C105.289 184.622 104.994 184.319 104.621 184.111C104.257 183.894 103.854 183.786 103.412 183.786C102.97 183.786 102.567 183.89 102.203 184.098C101.839 184.306 101.549 184.609 101.332 185.008C101.116 185.407 101.007 185.875 101.007 186.412C101.007 186.958 101.116 187.435 101.332 187.842C101.549 188.241 101.839 188.548 102.203 188.765C102.567 188.973 102.97 189.077 103.412 189.077C103.854 189.077 104.257 188.973 104.621 188.765C104.994 188.548 105.289 188.241 105.505 187.842C105.722 187.435 105.83 186.962 105.83 186.425ZM111.547 190.117C111.001 190.117 110.512 190.026 110.078 189.844C109.645 189.653 109.303 189.393 109.051 189.064C108.8 188.726 108.661 188.34 108.635 187.907H109.857C109.892 188.262 110.057 188.553 110.351 188.778C110.655 189.003 111.049 189.116 111.534 189.116C111.985 189.116 112.34 189.016 112.6 188.817C112.86 188.618 112.99 188.366 112.99 188.063C112.99 187.751 112.852 187.521 112.574 187.374C112.297 187.218 111.868 187.066 111.287 186.919C110.759 186.78 110.325 186.642 109.987 186.503C109.658 186.356 109.372 186.143 109.129 185.866C108.895 185.58 108.778 185.207 108.778 184.748C108.778 184.384 108.887 184.05 109.103 183.747C109.32 183.444 109.628 183.205 110.026 183.032C110.425 182.85 110.88 182.759 111.391 182.759C112.18 182.759 112.817 182.958 113.302 183.357C113.788 183.756 114.048 184.302 114.082 184.995H112.899C112.873 184.622 112.722 184.323 112.444 184.098C112.176 183.873 111.812 183.76 111.352 183.76C110.928 183.76 110.59 183.851 110.338 184.033C110.087 184.215 109.961 184.453 109.961 184.748C109.961 184.982 110.035 185.177 110.182 185.333C110.338 185.48 110.529 185.602 110.754 185.697C110.988 185.784 111.309 185.883 111.716 185.996C112.228 186.135 112.644 186.273 112.964 186.412C113.285 186.542 113.558 186.741 113.783 187.01C114.017 187.279 114.139 187.63 114.147 188.063C114.147 188.453 114.039 188.804 113.822 189.116C113.606 189.428 113.298 189.675 112.899 189.857C112.509 190.03 112.059 190.117 111.547 190.117Z" fill="#333333"/>
<path d="M232.325 89.7666H152.124C147.436 89.7666 142.94 91.6288 139.625 94.9435C136.311 98.2582 134.448 102.754 134.448 107.442V136.023H117.146L134.448 153.326V172.756C134.448 177.443 136.311 181.939 139.625 185.254C142.94 188.569 147.436 190.431 152.124 190.431H232.325C237.013 190.431 241.509 188.569 244.824 185.254C248.138 181.939 250 177.443 250 172.756V107.442C250 102.754 248.138 98.2582 244.824 94.9435C241.509 91.6288 237.013 89.7666 232.325 89.7666Z" fill="#E2E2E2"/>
<path d="M165.154 69.0831C165.154 69.3938 165.246 69.6975 165.419 69.9559C165.592 70.2142 165.837 70.4156 166.124 70.5345C166.411 70.6534 166.727 70.6845 167.032 70.6239C167.336 70.5632 167.616 70.4136 167.836 70.1939C168.056 69.9742 168.205 69.6943 168.266 69.3896C168.327 69.0849 168.295 68.769 168.177 68.482C168.058 68.1949 167.856 67.9496 167.598 67.777C167.34 67.6043 167.036 67.5122 166.725 67.5122C166.309 67.5122 165.909 67.6777 165.614 67.9723C165.32 68.2669 165.154 68.6665 165.154 69.0831Z" fill="#333333"/>
<path d="M160.437 70.654C161.305 70.654 162.008 69.9507 162.008 69.0831C162.008 68.2155 161.305 67.5122 160.437 67.5122C159.569 67.5122 158.866 68.2155 158.866 69.0831C158.866 69.9507 159.569 70.654 160.437 70.654Z" fill="#333333"/>
<path d="M152.596 68.2978C152.44 68.5668 152.368 68.8759 152.388 69.186C152.408 69.4961 152.52 69.7932 152.709 70.0397C152.898 70.2863 153.156 70.4713 153.451 70.5712C153.745 70.6712 154.062 70.6816 154.362 70.6012C154.662 70.5209 154.932 70.3533 155.137 70.1197C155.342 69.8861 155.473 69.5969 155.513 69.2889C155.554 68.9808 155.502 68.6676 155.365 68.3889C155.227 68.1102 155.01 67.8786 154.741 67.7233C154.563 67.6196 154.365 67.5522 154.161 67.5249C153.956 67.4977 153.748 67.5112 153.549 67.5645C153.35 67.6179 153.163 67.7102 152.999 67.836C152.836 67.9618 152.698 68.1188 152.596 68.2978Z" fill="#333333"/>
<path d="M160.339 50.7304C160.234 50.7225 160.129 50.7225 160.024 50.7304L159.091 50.7573C158.884 50.7573 158.642 50.7573 158.4 50.7887L157.578 50.9054L156.618 51.0446L155.541 51.3094C153.695 51.7675 151.938 52.5256 150.339 53.5535C147.973 55.0597 145.983 57.0866 144.521 59.4794C143.058 61.8722 142.162 64.5675 141.901 67.3596C141.83 68.197 141.814 69.0381 141.851 69.8776C141.883 70.2995 141.874 70.7348 141.936 71.1612C141.999 71.5876 142.067 72.023 142.129 72.4584C142.458 74.2421 143.048 75.9677 143.88 77.5795C144.766 79.2683 145.892 80.8195 147.224 82.1846C148.643 83.5797 150.269 84.747 152.044 85.6451C153.881 86.5852 155.87 87.193 157.919 87.4404C158.438 87.5177 158.961 87.5612 159.486 87.5706C160.013 87.6103 160.542 87.6208 161.07 87.602C162.136 87.558 163.196 87.4243 164.239 87.2025C166.491 86.7146 168.632 85.8121 170.554 84.5409L170.366 84.5634L176.797 87.1442L177.179 87.2968L177.071 86.9018L175.177 80.0257L175.146 80.1917C176.891 77.8798 178.068 75.1888 178.579 72.3372C178.825 71.0057 178.91 69.6494 178.831 68.2977C178.815 67.6493 178.754 67.0028 178.646 66.3632C178.599 66.046 178.549 65.7319 178.498 65.4207C178.445 65.111 178.35 64.8103 178.274 64.523C177.196 60.2944 174.651 56.5864 171.093 54.0607C169.779 53.1206 168.343 52.3655 166.824 51.8165L165.859 51.4709L164.962 51.2376L164.127 51.0311C163.857 50.9817 163.597 50.9548 163.355 50.9144C162.87 50.856 162.457 50.7708 162.067 50.7528L161.124 50.7214H160.545C160.479 50.7166 160.413 50.7166 160.348 50.7214C160.411 50.7417 160.478 50.7508 160.545 50.7483L161.12 50.7977L162.058 50.8605C162.43 50.8875 162.852 50.9817 163.337 51.0535C166.828 51.6601 170.069 53.2672 172.664 55.6797C175.26 58.0923 177.1 61.2064 177.96 64.6442C178.027 64.9404 178.121 65.2366 178.175 65.5418C178.229 65.8471 178.265 66.1523 178.314 66.4664C178.417 67.0943 178.474 67.7289 178.485 68.365C178.556 69.6858 178.468 71.0102 178.225 72.3102C177.703 75.0994 176.537 77.7278 174.818 79.9853L174.76 80.0616L174.787 80.1558C175.385 82.3761 176.01 84.6696 176.663 87.0364L176.936 86.7941L170.505 84.2043L170.406 84.1639L170.312 84.2223C167.553 86.0499 164.345 87.084 161.039 87.2115C160.523 87.2295 160.006 87.2205 159.49 87.1846C158.978 87.1752 158.467 87.1317 157.96 87.0544C155.956 86.812 154.012 86.2179 152.215 85.2995C150.478 84.4205 148.885 83.2807 147.493 81.9198C146.187 80.5896 145.081 79.0779 144.208 77.4314C143.397 75.8494 142.823 74.1574 142.502 72.409C142.435 71.9602 142.367 71.5607 142.305 71.1388C142.242 70.7169 142.251 70.295 142.219 69.8776C142.177 69.0548 142.189 68.2302 142.255 67.409C142.5 64.6607 143.367 62.0042 144.791 59.6409C146.215 57.2776 148.158 55.2695 150.473 53.769C152.045 52.7293 153.774 51.9503 155.594 51.462L156.654 51.1792L157.605 51.0221L158.422 50.8875C158.673 50.8605 158.902 50.8516 159.104 50.8381L160.033 50.7708C160.136 50.768 160.239 50.7545 160.339 50.7304Z" fill="#333333"/>
<path d="M81.512 17.8741C81.512 18.1765 81.4226 18.4721 81.2552 18.7235C81.0879 18.975 80.8499 19.1709 80.5716 19.2866C80.2932 19.4024 79.9869 19.4326 79.6914 19.3736C79.3959 19.3147 79.1245 19.169 78.9114 18.9552C78.6984 18.7414 78.5533 18.469 78.4945 18.1724C78.4358 17.8758 78.4659 17.5684 78.5812 17.289C78.6965 17.0097 78.8918 16.7709 79.1423 16.6029C79.3928 16.4349 79.6873 16.3452 79.9886 16.3452C80.3926 16.3452 80.7801 16.5063 81.0658 16.793C81.3515 17.0797 81.512 17.4686 81.512 17.8741Z" fill="#333333"/>
<path d="M86.0864 19.403C85.2451 19.403 84.5631 18.7185 84.5631 17.8741C84.5631 17.0297 85.2451 16.3452 86.0864 16.3452C86.9278 16.3452 87.6098 17.0297 87.6098 17.8741C87.6098 18.7185 86.9278 19.403 86.0864 19.403Z" fill="#333333"/>
<path d="M93.6895 17.1097C93.8403 17.3716 93.9103 17.6724 93.8907 17.9742C93.8711 18.276 93.7628 18.5652 93.5794 18.8051C93.3961 19.0451 93.1459 19.2251 92.8606 19.3224C92.5753 19.4197 92.2676 19.4298 91.9766 19.3516C91.6855 19.2734 91.4241 19.1103 91.2254 18.8829C91.0267 18.6556 90.8996 18.3742 90.8603 18.0743C90.821 17.7745 90.8711 17.4697 91.0044 17.1985C91.1377 16.9272 91.3481 16.7018 91.6091 16.5506C91.7821 16.4497 91.9733 16.3841 92.1717 16.3576C92.3701 16.3311 92.5718 16.3442 92.7651 16.3961C92.9585 16.4481 93.1396 16.5379 93.2983 16.6603C93.4569 16.7828 93.5899 16.9355 93.6895 17.1097Z" fill="#333333"/>
<path d="M86.1825 0.0122636C86.2839 0.00461382 86.3857 0.00461382 86.4871 0.0122636L87.3924 0.0384723C87.5926 0.0384723 87.8277 0.0384722 88.0627 0.0690503L88.8592 0.182627L89.7906 0.318043L90.8352 0.575774C92.6245 1.02162 94.3287 1.75949 95.8797 2.75992C98.1735 4.22584 100.103 6.19853 101.521 8.52732C102.939 10.8561 103.809 13.4794 104.062 16.1968C104.131 17.0118 104.147 17.8304 104.11 18.6474C104.08 19.058 104.088 19.4818 104.027 19.8967C103.966 20.3117 103.901 20.7355 103.84 21.1592C103.521 22.8952 102.949 24.5747 102.143 26.1434C101.284 27.787 100.192 29.2967 98.9002 30.6253C97.5244 31.9831 95.9476 33.1191 94.2257 33.9932C92.4441 34.9082 90.5153 35.4998 88.5284 35.7406C88.0254 35.8158 87.518 35.8581 87.0094 35.8672C86.4982 35.9059 85.9853 35.9161 85.473 35.8978C84.4397 35.855 83.4118 35.7249 82.4002 35.509C80.2165 35.0342 78.1399 34.1558 76.2763 32.9186L76.4592 32.9405L70.2221 35.4522L69.8522 35.6008L69.9566 35.2164L71.7934 28.5241L71.8238 28.6858C70.1308 26.4356 68.9901 23.8166 68.4942 21.0412C68.2554 19.7454 68.1736 18.4253 68.2505 17.1098C68.2653 16.4787 68.325 15.8496 68.4289 15.227C68.4754 14.9183 68.5232 14.6126 68.5726 14.3097C68.6248 14.0083 68.7162 13.7156 68.7902 13.436C69.8351 9.32054 72.3033 5.71166 75.754 3.25354C77.0275 2.3386 78.4203 1.60367 79.8932 1.06939L80.829 0.733033L81.6995 0.50588L82.509 0.304939C82.7702 0.256887 83.0226 0.23068 83.2576 0.191365C83.7277 0.134578 84.1281 0.0515796 84.5068 0.0341064L85.4208 0.00352851H85.9822C86.046 -0.00117617 86.11 -0.00117617 86.1737 0.00352851C86.1119 0.0233098 86.0471 0.0321767 85.9822 0.0297372L85.4251 0.0777887L84.5155 0.138945C84.1542 0.165154 83.7451 0.256889 83.275 0.326781C79.8893 0.917161 76.7472 2.48128 74.23 4.82927C71.7128 7.17726 69.9289 10.2081 69.0948 13.554C69.0296 13.8423 68.9382 14.1306 68.8859 14.4276C68.8337 14.7247 68.7989 15.0217 68.751 15.3275C68.6514 15.9386 68.5961 16.5562 68.5856 17.1753C68.5171 18.4607 68.6019 19.7498 68.8381 21.015C69.3434 23.7295 70.4747 26.2877 72.1415 28.4848L72.1981 28.5591L72.172 28.6508C71.5917 30.8117 70.9853 33.0439 70.3527 35.3474L70.0872 35.1115L76.3242 32.591L76.42 32.5517L76.5114 32.6085C79.1863 34.3873 82.2971 35.3937 85.5035 35.5178C86.0041 35.5353 86.5053 35.5266 87.0051 35.4916C87.502 35.4825 87.9979 35.4401 88.4892 35.3649C90.4319 35.1289 92.3179 34.5507 94.0603 33.6569C95.7449 32.8014 97.2891 31.6921 98.6391 30.3676C99.9051 29.073 100.978 27.6017 101.825 25.9993C102.611 24.4596 103.168 22.8127 103.479 21.1111C103.544 20.6743 103.61 20.2855 103.67 19.8749C103.731 19.4643 103.723 19.0537 103.753 18.6474C103.794 17.8467 103.782 17.0441 103.718 16.2449C103.481 13.5701 102.64 10.9846 101.26 8.68451C99.8788 6.3844 97.9944 4.43003 95.7491 2.9696C94.2249 1.95775 92.548 1.19956 90.783 0.724295L89.7558 0.449093L88.8331 0.296204L88.0409 0.165153C87.7972 0.138944 87.5752 0.130207 87.3794 0.117102L86.4784 0.0515767C86.3787 0.0489216 86.2795 0.0357459 86.1825 0.0122636Z" fill="#333333"/>
<g opacity="0.4">
<path d="M112.14 69.5693H129.093L111.759 86.9077L112.14 69.5693Z" fill="#333333"/>
</g>
<g opacity="0.4">
<path d="M95.7719 39.9463H17.4102C7.79481 39.9463 0 47.7411 0 57.3565V121.136C0 130.751 7.79481 138.546 17.4102 138.546H95.7719C105.387 138.546 113.182 130.751 113.182 121.136V57.3565C113.182 47.7411 105.387 39.9463 95.7719 39.9463Z" fill="#333333"/>
</g>
<path d="M135.527 137.451L128.422 129.372C126.501 127.451 125.842 126.526 126.228 126.19C126.739 125.741 126.519 125.889 130.509 128.883C130.509 128.883 124.854 124.56 126.816 124.533C127.161 124.533 128.122 125.09 129.15 125.763C127.749 124.574 127.354 123.77 127.628 123.389C128.077 122.725 131.542 125.126 133.135 126.279C131.834 125.31 129.351 123.429 128.916 122.837C128.315 122.029 129.531 122.096 130.518 122.433C131.627 122.81 137.754 125.938 139.567 126.746C139.712 126.833 139.875 126.887 140.043 126.905C140.211 126.923 140.382 126.904 140.542 126.85C140.702 126.796 140.849 126.708 140.972 126.591C141.095 126.475 141.192 126.333 141.255 126.176C141.923 123.366 143.948 121.54 144.72 121.302C145.492 121.064 146.088 122.051 145.536 122.769C145.017 123.605 144.615 124.508 144.342 125.453C144.092 126.195 143.969 126.973 143.979 127.756C143.979 128.654 144.042 129.43 144.1 130.081L150.595 138.99L139.733 145.274L135.527 137.451Z" fill="#D88A6C"/>
<path d="M132.987 130.139C132.916 130.238 131.641 129.371 130.169 128.2C128.697 127.029 127.548 125.996 127.633 125.902C127.718 125.808 128.979 126.678 130.452 127.841C131.924 129.003 133.05 130.036 132.987 130.139Z" fill="#AA6550"/>
<path d="M134.36 128.721C134.289 128.824 132.893 127.971 131.241 126.822C129.589 125.673 128.306 124.654 128.377 124.556C128.449 124.457 129.845 125.301 131.497 126.45C133.148 127.599 134.432 128.618 134.36 128.721Z" fill="#AA6550"/>
<path d="M135.366 127.213C135.294 127.316 133.957 126.535 132.381 125.467C130.806 124.399 129.585 123.452 129.653 123.344C129.72 123.236 131.057 124.022 132.637 125.09C134.217 126.158 135.434 127.11 135.366 127.213Z" fill="#AA6550"/>
<path d="M144.706 131.288L170.595 164.116L164.666 177.917C164.666 177.917 157.565 176.346 155.411 173.357C153.256 170.368 135.527 137.451 135.527 137.451L144.706 131.288Z" fill="#D88A6C"/>
<path d="M210.424 85.3633C212.286 86.9791 212.282 89.8247 212.066 92.2798C211.851 94.7349 211.685 97.5311 213.386 99.3175C214.791 100.79 217.336 101.431 217.659 103.438C217.735 103.909 217.664 104.393 217.455 104.822C217.245 105.251 216.908 105.605 216.489 105.835C216.071 106.064 215.591 106.159 215.116 106.105C214.642 106.051 214.196 105.852 213.839 105.534C214.387 107.118 214.01 109.098 212.636 110.058C211.263 111.019 208.96 110.426 208.534 108.806C208.604 109.076 208.617 109.358 208.573 109.634C208.529 109.91 208.429 110.174 208.278 110.409C208.128 110.645 207.93 110.846 207.698 111.002C207.466 111.158 207.205 111.264 206.93 111.314C206.655 111.364 206.373 111.357 206.101 111.293C205.829 111.229 205.573 111.11 205.349 110.943C205.125 110.776 204.938 110.564 204.8 110.322C204.661 110.079 204.574 109.811 204.544 109.533" fill="black"/>
<path d="M183.75 101.934C183.499 102.536 183.02 103.013 182.418 103.26C181.816 103.508 181.14 103.507 180.538 103.256C179.937 103.006 179.46 102.527 179.212 101.924C178.965 101.322 178.966 100.646 179.217 100.045C179.643 99.1113 180.653 98.438 180.752 97.4147C180.868 96.1804 179.607 95.2962 178.508 94.7576C177.408 94.219 176.079 93.5188 175.958 92.28C175.837 91.0413 176.91 90.1571 177.803 89.3581C178.696 88.5592 179.598 87.3204 179.028 86.2567C178.745 85.7091 178.157 85.3994 177.776 84.9102C176.937 83.842 177.376 82.1409 178.449 81.3195C179.522 80.4982 181.003 80.368 182.341 80.6059C183.678 80.8438 184.935 81.4003 186.236 81.7908C188.394 82.4182 190.658 82.5914 192.886 82.2994C195.114 82.0074 197.258 81.2565 199.181 80.0942" fill="black"/>
<path d="M191.699 130.88C194.018 131.347 196.428 130.885 198.409 129.592C200.389 128.299 201.782 126.279 202.287 123.968L208.656 94.7665C209.054 93.0803 209.109 91.3315 208.819 89.6236C208.529 87.9156 207.899 86.2832 206.967 84.8228C206.035 83.3624 204.82 82.1037 203.393 81.1211C201.967 80.1385 200.357 79.452 198.66 79.1022L197.996 79.0035C194.752 78.5265 191.446 79.2893 188.739 81.1401C186.031 82.9908 184.12 85.7935 183.387 88.99C181.968 95.1525 180.483 101.979 180.034 105.332C179.105 112.275 185.869 114.367 185.869 114.367L184.652 120.202C184.411 121.364 184.402 122.563 184.626 123.729C184.849 124.895 185.301 126.006 185.955 126.997C186.609 127.988 187.452 128.84 188.436 129.504C189.421 130.168 190.526 130.631 191.69 130.866L191.699 130.88Z" fill="#D88A6C"/>
<path d="M184.634 93.5858C184.594 93.8435 184.656 94.1064 184.807 94.3191C184.958 94.5318 185.185 94.6776 185.442 94.7259C185.566 94.7541 185.694 94.7573 185.82 94.7353C185.945 94.7132 186.065 94.6663 186.172 94.5973C186.279 94.5283 186.371 94.4386 186.443 94.3335C186.515 94.2284 186.565 94.11 186.591 93.9853C186.632 93.7279 186.572 93.4644 186.422 93.2513C186.271 93.0381 186.044 92.8924 185.787 92.8452C185.663 92.8169 185.534 92.8137 185.408 92.8357C185.282 92.8577 185.162 92.9046 185.055 92.9735C184.948 93.0425 184.855 93.1321 184.783 93.2373C184.71 93.3424 184.66 93.4609 184.634 93.5858Z" fill="#263238"/>
<path d="M184.379 92.5987C184.482 92.7468 185.312 92.298 186.38 92.4596C187.449 92.6211 188.144 93.263 188.279 93.1508C188.346 93.1014 188.252 92.85 187.951 92.5538C187.537 92.167 187.014 91.9177 186.452 91.8402C185.899 91.7566 185.333 91.8509 184.836 92.1095C184.473 92.3159 184.329 92.5314 184.379 92.5987Z" fill="#263238"/>
<path d="M195.043 95.2918C195.002 95.5496 195.064 95.8131 195.215 96.0261C195.366 96.239 195.594 96.3846 195.851 96.4318C195.975 96.46 196.104 96.4631 196.23 96.4407C196.355 96.4183 196.475 96.371 196.582 96.3016C196.69 96.2322 196.782 96.142 196.853 96.0364C196.925 95.9308 196.975 95.8119 197 95.6867C197.04 95.4294 196.978 95.1665 196.827 94.9542C196.676 94.742 196.448 94.5973 196.192 94.5512C196.068 94.5222 195.939 94.5186 195.813 94.5404C195.688 94.5622 195.568 94.609 195.461 94.6781C195.353 94.7472 195.261 94.8371 195.189 94.9425C195.118 95.0479 195.068 95.1667 195.043 95.2918Z" fill="#263238"/>
<path d="M194.818 94.3311C194.921 94.4748 195.751 94.0304 196.815 94.192C197.879 94.3536 198.583 94.9954 198.718 94.8832C198.781 94.8338 198.691 94.5825 198.386 94.2862C197.972 93.8994 197.448 93.6502 196.887 93.5726C196.333 93.489 195.768 93.5833 195.271 93.8419C194.926 94.0349 194.764 94.2638 194.818 94.3311Z" fill="#263238"/>
<path d="M189.795 101.665C189.795 101.602 189.163 101.391 188.112 101.1C187.843 101.032 187.596 100.938 187.578 100.745C187.597 100.462 187.7 100.192 187.874 99.9686C188.23 99.3492 188.6 98.6984 188.983 98.0162C190.532 95.229 191.676 92.9264 191.582 92.8636C191.488 92.8008 190.123 95.009 188.575 97.8008L187.497 99.7667C187.28 100.072 187.175 100.443 187.201 100.817C187.229 100.916 187.278 101.008 187.346 101.086C187.413 101.163 187.497 101.225 187.592 101.266C187.735 101.327 187.886 101.371 188.04 101.396C188.612 101.558 189.202 101.649 189.795 101.665Z" fill="#263238"/>
<path d="M195.15 90.1167C195.213 90.4219 196.299 90.4398 197.525 90.772C198.75 91.1041 199.71 91.5933 199.917 91.3599C200.007 91.2477 199.872 90.947 199.509 90.6104C199.015 90.1866 198.432 89.881 197.802 89.7169C197.173 89.5528 196.515 89.5345 195.877 89.6633C195.375 89.78 195.128 89.9955 195.15 90.1167Z" fill="#263238"/>
<path d="M185.222 89.5734C185.375 89.8427 186.12 89.699 187.017 89.8157C187.915 89.9324 188.624 90.2197 188.813 89.9908C188.907 89.8786 188.813 89.6182 188.535 89.34C188.136 89.0013 187.646 88.7889 187.126 88.7298C186.607 88.6707 186.081 88.7674 185.617 89.0078C185.294 89.2098 185.155 89.4432 185.222 89.5734Z" fill="#263238"/>
<path d="M202.247 86.0636L202.278 86.0995C203.256 87.1315 203.796 88.5019 203.786 89.9236V90.0627C203.786 92.0825 203.423 94.1022 203.427 96.0995C203.432 98.0968 203.817 100.224 205.079 101.795C205.595 102.446 206.6 102.985 207.188 102.401C207.395 102.153 207.528 101.851 207.57 101.53C208.638 96.8132 210.559 92.7737 211.282 87.7827C211.382 87.1145 211.321 86.4321 211.105 85.7921C210.889 85.152 210.523 84.5727 210.038 84.1022C209.105 83.2046 207.942 82.2351 206.699 82.6166C205.456 82.9981 203.638 84.9505 202.601 85.7584" fill="black"/>
<path d="M205.859 97.5582C205.985 97.5223 210.828 96.8446 209.98 101.562C209.131 106.279 204.594 104.457 204.594 104.318C204.594 104.178 205.859 97.5582 205.859 97.5582Z" fill="#D88A6C"/>
<path d="M206.353 102.791C206.353 102.791 206.425 102.863 206.55 102.949C206.731 103.068 206.952 103.113 207.165 103.074C207.695 102.98 208.256 102.266 208.431 101.418C208.521 101.018 208.521 100.602 208.431 100.202C208.412 100.046 208.357 99.8981 208.268 99.7691C208.18 99.6402 208.062 99.5345 207.924 99.4611C207.834 99.4187 207.732 99.4094 207.636 99.4349C207.54 99.4603 207.456 99.5189 207.399 99.6002C207.313 99.7169 207.327 99.8202 207.3 99.8202C207.273 99.8202 207.215 99.7259 207.3 99.5374C207.347 99.4256 207.431 99.3335 207.538 99.2771C207.685 99.202 207.856 99.1875 208.014 99.2367C208.202 99.3115 208.367 99.4333 208.494 99.5905C208.622 99.7477 208.707 99.9349 208.741 100.134C208.865 100.573 208.882 101.035 208.79 101.481C208.588 102.428 207.942 103.227 207.228 103.303C207.094 103.317 206.959 103.301 206.833 103.256C206.706 103.211 206.591 103.138 206.497 103.043C206.339 102.904 206.335 102.796 206.353 102.791Z" fill="#AA6550"/>
<path d="M206.753 83.3753C208.199 81.6473 205.407 78.4606 203.163 77.3789C200.918 76.2972 197.687 76.9884 195.245 77.4193C193.706 77.6931 192.144 78.1599 190.609 77.8681C189.59 77.6132 188.616 77.2062 187.718 76.6608C186.818 76.1252 185.82 75.7757 184.783 75.633C184.261 75.5688 183.732 75.6481 183.252 75.8624C182.772 76.0768 182.359 76.418 182.059 76.8493C181.524 77.747 181.897 79.1518 182.902 79.4435C182.599 79.2135 182.245 79.0604 181.87 78.9974C181.495 78.9344 181.11 78.9633 180.748 79.0817C180.387 79.2001 180.059 79.4045 179.794 79.6772C179.529 79.9499 179.334 80.2829 179.226 80.6476C179.117 81.0123 179.099 81.3978 179.173 81.7711C179.246 82.1443 179.409 82.4942 179.647 82.7907C179.886 83.0871 180.193 83.3213 180.541 83.4732C180.89 83.625 181.271 83.69 181.65 83.6626C181.053 83.0522 179.895 83.7478 179.855 84.6006C179.814 85.4534 180.488 86.176 181.201 86.6294C183.046 87.7873 185.389 87.8457 187.534 87.4597C189.68 87.0737 191.735 86.2748 193.872 85.8349C196.008 85.3951 199.594 84.5602 201.524 85.5791C202.943 86.3241 203.724 88.2721 204.626 88.0073C205.053 87.8499 205.438 87.5952 205.749 87.2633C206.061 86.9314 206.291 86.5315 206.421 86.0952C206.664 85.2193 206.766 84.3102 206.722 83.4022" fill="black"/>
<path d="M215.985 105.256C216.073 105.236 216.157 105.199 216.232 105.148C216.454 105.006 216.631 104.804 216.744 104.565C216.918 104.183 216.971 103.757 216.896 103.344C216.78 102.801 216.482 102.314 216.052 101.962C215.542 101.542 214.968 101.207 214.351 100.97C213.658 100.717 212.992 100.395 212.363 100.009C211.704 99.5461 211.201 98.8933 210.922 98.1376C210.616 97.3239 210.474 96.4573 210.505 95.5882C210.55 93.7929 211.048 92.1098 211.169 90.5254C211.29 88.941 211.088 87.4554 210.415 86.4276C209.909 85.6009 209.106 84.9989 208.171 84.7444C207.92 84.6813 207.662 84.6556 207.403 84.6681C207.314 84.6696 207.225 84.6831 207.139 84.7085C207.479 84.7063 207.819 84.7485 208.149 84.8342C209.038 85.1153 209.792 85.7146 210.267 86.5173C210.891 87.5137 211.106 88.959 210.949 90.5074C210.792 92.0559 210.312 93.739 210.258 95.5837C210.229 96.4846 210.382 97.3821 210.707 98.2229C211.007 99.0213 211.544 99.7088 212.246 100.193C212.891 100.58 213.572 100.902 214.28 101.154C214.88 101.376 215.442 101.691 215.945 102.087C216.355 102.412 216.645 102.863 216.771 103.371C216.853 103.758 216.815 104.16 216.663 104.524C216.524 104.837 216.286 105.094 215.985 105.256Z" fill="#455A64"/>
<path d="M182.749 79.3312C182.686 79.284 182.617 79.2462 182.543 79.219C182.459 79.1777 182.372 79.1431 182.282 79.1158C182.158 79.0733 182.031 79.0417 181.901 79.0215C181.475 78.9544 181.04 78.9849 180.628 79.1109C180.216 79.2369 179.837 79.455 179.522 79.7486C179.203 80.1379 178.963 80.5866 178.819 81.0689C178.674 81.5512 178.626 82.0575 178.678 82.5583C178.739 83.1804 178.923 83.7842 179.22 84.3338C179.518 84.8835 179.923 85.3679 180.411 85.7585C181.532 86.6622 182.898 87.2107 184.334 87.3339C185.892 87.4679 187.462 87.3727 188.992 87.0511C191.42 86.5756 193.744 85.6762 195.86 84.3941C196.766 83.8332 197.715 83.3425 198.696 82.9264C199.552 82.5789 200.465 82.3918 201.389 82.3743C202.734 82.3452 204.064 82.6538 205.258 83.272C205.69 83.5136 206.108 83.7788 206.51 84.0664C206.151 83.7133 205.745 83.4113 205.303 83.1687C204.106 82.5015 202.755 82.1566 201.385 82.1678C200.438 82.1751 199.501 82.3561 198.62 82.7019C197.628 83.1176 196.669 83.6083 195.752 84.1696C193.651 85.4252 191.349 86.3075 188.948 86.7774C187.439 87.0968 185.893 87.1951 184.356 87.0691C182.965 86.9537 181.639 86.4289 180.545 85.561C180.075 85.1892 179.684 84.7275 179.394 84.2026C179.104 83.6778 178.922 83.1005 178.858 82.5045C178.803 82.0269 178.843 81.5432 178.975 81.081C179.108 80.6189 179.33 80.1875 179.63 79.8115C179.929 79.5258 180.288 79.3104 180.681 79.1807C181.074 79.0511 181.49 79.0105 181.901 79.0619C182.191 79.1255 182.475 79.2157 182.749 79.3312Z" fill="#455A64"/>
<path d="M185.374 75.4038C185.358 75.7645 185.415 76.1247 185.54 76.4631C185.891 77.3983 186.545 78.1887 187.399 78.7072C187.972 79.0809 188.61 79.3456 189.279 79.4882C190.047 79.6429 190.833 79.6837 191.613 79.6094C193.26 79.4882 194.984 78.9227 196.793 78.4559C198.601 77.9891 200.41 77.7422 201.972 78.1596C203.358 78.5269 204.591 79.3273 205.491 80.4442C206.11 81.186 206.568 82.0479 206.837 82.9756C207.017 83.6354 207.039 84.0214 207.071 84.0169C207.077 83.9242 207.077 83.8313 207.071 83.7386C207.046 83.474 207.003 83.2116 206.941 82.9532C206.701 81.9962 206.255 81.1031 205.635 80.3365C204.726 79.1738 203.467 78.3349 202.044 77.9442C200.428 77.4954 198.57 77.7512 196.752 78.2225C194.934 78.6938 193.224 79.2593 191.613 79.3894C190.854 79.468 190.088 79.4362 189.337 79.2952C188.689 79.1632 188.069 78.917 187.506 78.5681C186.674 78.0774 186.022 77.3313 185.648 76.4406C185.528 76.1033 185.436 75.7565 185.374 75.4038Z" fill="#455A64"/>
<path d="M187.668 105.189C187.727 105.652 187.849 106.105 188.031 106.535C188.127 106.748 188.266 106.937 188.44 107.092C188.614 107.247 188.819 107.363 189.041 107.433C189.282 107.482 189.531 107.471 189.766 107.4C190.002 107.328 190.215 107.199 190.388 107.024C190.732 106.662 190.953 106.2 191.021 105.705C191.092 105.256 191.021 104.695 190.572 104.551C190.39 104.506 190.201 104.506 190.02 104.551L187.533 105" fill="#AA6550"/>
<path d="M188.104 107.074C188.499 107.226 188.919 107.305 189.343 107.307C189.781 107.281 190.194 107.092 190.501 106.777C190.682 106.585 190.82 106.356 190.905 106.106C190.991 105.856 191.023 105.591 190.999 105.328C190.986 105.193 190.955 105.06 190.909 104.933C190.851 104.811 190.869 104.82 190.766 104.807C190.662 104.794 190.501 104.807 190.366 104.829L189.949 104.861C189.41 104.901 188.925 104.933 188.517 104.955C188.069 105.017 187.615 105.008 187.17 104.928C187.59 104.775 188.03 104.684 188.477 104.659C188.88 104.601 189.374 104.542 189.899 104.479L190.312 104.434C190.461 104.413 190.611 104.399 190.761 104.394C190.88 104.397 190.995 104.438 191.089 104.511C191.172 104.585 191.236 104.679 191.273 104.785C191.334 104.946 191.373 105.115 191.389 105.287C191.419 105.61 191.377 105.936 191.266 106.241C191.155 106.546 190.978 106.822 190.748 107.051C190.365 107.415 189.853 107.614 189.325 107.603C188.98 107.605 188.641 107.51 188.346 107.329C188.194 107.204 188.091 107.092 188.104 107.074Z" fill="#263238"/>
<path d="M185.877 114.367C185.877 114.367 190.401 116.082 194.804 114.816C194.804 114.816 191.483 117.603 185.424 116.535L185.877 114.367Z" fill="#AA6550"/>
<path d="M192.781 178.716C192.562 178.573 192.355 178.414 192.161 178.241C191.968 178.083 191.712 177.89 191.439 177.684C191.165 177.478 190.833 177.235 190.451 176.988C190.07 176.741 189.675 176.472 189.212 176.216C188.75 175.961 188.261 175.691 187.736 175.422C185.433 174.289 182.957 173.549 180.411 173.232C179.823 173.169 179.266 173.097 178.741 173.083C178.216 173.07 177.727 173.048 177.282 173.052C176.838 173.057 176.43 173.079 176.075 173.092C175.72 173.106 175.415 173.133 175.177 173.16C174.92 173.199 174.661 173.217 174.401 173.214C174.653 173.149 174.91 173.101 175.168 173.07C175.466 173.019 175.765 172.983 176.066 172.962C176.421 172.935 176.825 172.886 177.278 172.886C177.731 172.886 178.22 172.859 178.75 172.886C179.28 172.913 179.845 172.958 180.438 173.012C181.722 173.171 182.992 173.433 184.235 173.793C185.469 174.172 186.669 174.651 187.825 175.224C188.351 175.503 188.858 175.759 189.302 176.046C189.746 176.333 190.168 176.589 190.536 176.849C190.904 177.11 191.228 177.361 191.51 177.576C191.793 177.792 192.027 177.998 192.211 178.169C192.416 178.335 192.606 178.518 192.781 178.716Z" fill="#FAFAFA"/>
<path d="M166.403 155.664L170.083 139.717C171.493 133.721 173.162 127.958 175.967 127.275V129.129L174.764 174.69C174.764 174.69 167.265 183.218 157.709 178.487C154.72 177.002 149.266 166.566 149.266 166.566C149.266 166.566 136.578 143.927 137.107 142.899C137.637 141.871 145.388 131.88 146.178 131.382L166.403 155.664Z" fill="#0087FF"/>
<path d="M204.275 122.76C211.591 124.161 219.827 128.429 223.619 139.367C225.002 143.362 235.074 172.81 235.074 172.81L217.897 172.451L215.123 166.387L216.47 176.239L217.632 190.287L174.257 191.019L174.562 169.852L174.979 127.751C174.979 127.751 175.464 127.114 182.946 122.989C187.587 120.426 204.275 122.76 204.275 122.76Z" fill="#0087FF"/>
<g opacity="0.2">
<path d="M208.602 150.92C209.316 159.807 210.133 162.554 210.847 171.441C210.864 172.282 211.015 173.115 211.295 173.909C211.445 174.304 211.686 174.658 211.998 174.942C212.31 175.227 212.684 175.434 213.091 175.547C214.356 175.803 215.999 176.719 216.354 175.48L215.155 166.921C214.898 165.676 214.5 164.464 213.97 163.308C211.309 157.397 210.326 157.051 208.584 150.92" fill="black"/>
</g>
<path d="M182.942 127.545L183.086 126.62L184.472 117.751C184.512 117.493 184.648 117.26 184.853 117.099C185.058 116.937 185.317 116.859 185.577 116.88L202.655 118.308C203.17 118.35 203.649 118.595 203.985 118.988C204.321 119.382 204.488 119.892 204.45 120.408L204.068 125.561L198.736 132.518L191.057 133.716" fill="#0087FF"/>
<path d="M174.365 144.219C174.433 144.219 174.482 151.167 174.482 159.735C174.482 168.303 174.433 175.251 174.365 175.251C174.298 175.251 174.249 168.303 174.249 159.735C174.249 151.167 174.302 144.219 174.365 144.219Z" fill="#263238"/>
<path d="M218.265 173.878C218.265 173.878 218.265 173.846 218.211 173.779C218.157 173.712 218.126 173.599 218.068 173.474L217.547 172.293L215.675 167.935L209.576 153.523C208.391 150.704 207.264 148.02 206.241 145.574C205.724 144.428 205.353 143.222 205.137 141.984C204.947 140.902 204.848 139.806 204.841 138.707C204.783 137.115 205.015 135.526 205.523 134.017L205.662 133.644L205.819 133.33C205.893 133.163 205.983 133.004 206.088 132.854L206.277 132.576C206.298 132.544 206.323 132.514 206.349 132.486C206.053 132.983 205.805 133.506 205.608 134.048C205.138 135.554 204.935 137.131 205.007 138.707C205.014 141.048 205.502 143.362 206.438 145.507L209.791 153.447L215.828 167.886L217.623 172.271L218.104 173.469L218.225 173.783C218.241 173.813 218.255 173.845 218.265 173.878Z" fill="#263238"/>
<path d="M209.598 124.327C209.441 124.486 209.275 124.636 209.1 124.775C208.595 125.16 208.045 125.481 207.461 125.732C206.537 126.117 205.57 126.388 204.58 126.539C203.272 126.743 201.953 126.873 200.63 126.93C199.158 126.993 197.551 126.966 195.828 126.997C193.997 126.994 192.173 127.217 190.397 127.661C188.429 128.126 186.648 129.176 185.289 130.673C184.612 131.488 184.127 132.446 183.871 133.474C183.597 134.529 183.615 135.638 183.925 136.683C184.096 137.199 184.349 137.684 184.674 138.119C185.001 138.542 185.414 138.891 185.886 139.143C186.344 139.393 186.865 139.503 187.385 139.457C187.894 139.405 188.364 139.165 188.705 138.784C189.008 138.383 189.224 137.923 189.338 137.434C189.453 136.944 189.463 136.436 189.369 135.942C189.294 135.455 189.143 134.982 188.92 134.542C188.699 134.113 188.432 133.708 188.126 133.335C186.926 131.952 185.31 130.996 183.521 130.61C181.97 130.245 180.354 130.263 178.812 130.664C177.544 130.992 176.334 131.511 175.222 132.204C174.375 132.732 173.576 133.332 172.834 133.999C172.219 134.538 171.784 135.004 171.488 135.31L171.155 135.669C171.119 135.712 171.078 135.751 171.034 135.785C171.563 135.118 172.148 134.497 172.785 133.932C173.519 133.252 174.316 132.642 175.163 132.109C176.286 131.395 177.512 130.859 178.799 130.521C180.366 130.1 182.012 130.072 183.593 130.44C185.428 130.827 187.088 131.802 188.319 133.218C188.632 133.593 188.906 133.999 189.136 134.43C189.362 134.892 189.514 135.388 189.584 135.898C189.663 136.418 189.654 136.947 189.557 137.464C189.461 138.002 189.224 138.505 188.871 138.923C188.494 139.346 187.972 139.613 187.408 139.672C186.842 139.726 186.272 139.609 185.774 139.336C185.273 139.068 184.834 138.698 184.486 138.249C184.143 137.792 183.876 137.283 183.696 136.741C183.373 135.656 183.355 134.502 183.642 133.407C183.904 132.342 184.406 131.352 185.11 130.512C186.502 128.984 188.323 127.913 190.334 127.437C192.13 126.998 193.974 126.784 195.823 126.8C197.551 126.773 199.158 126.8 200.621 126.759C201.939 126.713 203.253 126.595 204.557 126.405C205.542 126.263 206.506 126.007 207.43 125.642C208.01 125.406 208.561 125.105 209.073 124.744C209.252 124.623 209.373 124.511 209.463 124.448C209.504 124.403 209.549 124.363 209.598 124.327Z" fill="white"/>
<path d="M224.442 143.007C224.379 143.025 224.314 143.035 224.249 143.038C224.123 143.038 223.939 143.07 223.697 143.079C223.019 143.101 222.34 143.085 221.664 143.029C220.806 142.967 219.792 142.836 218.67 142.679C217.548 142.522 216.318 142.356 215.016 142.289C213.799 142.223 212.579 142.315 211.385 142.563C210.41 142.761 209.473 143.117 208.612 143.617C207.832 144.094 207.139 144.701 206.565 145.413C206.589 145.353 206.623 145.297 206.664 145.247C206.758 145.088 206.866 144.938 206.987 144.798C207.422 144.267 207.942 143.812 208.526 143.451C209.393 142.922 210.343 142.542 211.336 142.329C212.548 142.065 213.791 141.965 215.03 142.033C216.345 142.1 217.579 142.28 218.701 142.446C219.823 142.612 220.829 142.76 221.677 142.841C222.525 142.922 223.221 142.958 223.697 142.962C223.946 142.962 224.195 142.977 224.442 143.007Z" fill="#FAFAFA"/>
<path d="M213.656 163.128C212.812 162.932 211.945 162.858 211.08 162.908C210.065 162.977 209.062 163.156 208.086 163.442C206.941 163.752 205.662 164.205 204.226 164.649C202.666 165.178 201.034 165.461 199.388 165.489C197.491 165.488 195.616 165.099 193.876 164.344C191.943 163.527 190.223 162.277 188.849 160.691C188.106 159.862 187.5 158.919 187.054 157.899C186.579 156.843 186.401 155.678 186.538 154.528C186.694 153.369 187.259 152.305 188.131 151.526C188.564 151.148 189.084 150.883 189.643 150.754C190.191 150.638 190.759 150.653 191.3 150.799C191.84 150.945 192.339 151.217 192.754 151.593C193.159 151.965 193.441 152.452 193.562 152.989C193.678 153.514 193.636 154.063 193.441 154.564C193.252 155.046 192.966 155.485 192.601 155.852C191.905 156.549 191.064 157.084 190.137 157.419C189.701 157.584 189.25 157.709 188.791 157.791C188.566 157.832 188.342 157.881 188.122 157.912L187.453 157.993C185.813 158.156 184.157 158.039 182.556 157.648C181.236 157.333 179.964 156.844 178.773 156.193C177.872 155.707 177.028 155.123 176.255 154.452L175.806 154.061L175.438 153.689C175.239 153.501 175.054 153.3 174.881 153.088L174.558 152.702C174.521 152.66 174.488 152.615 174.459 152.567C174.503 152.604 174.543 152.645 174.581 152.688L174.917 153.056C175.095 153.262 175.286 153.457 175.487 153.64L175.86 154.003L176.309 154.385C177.085 155.037 177.929 155.604 178.827 156.077C180.011 156.71 181.275 157.184 182.583 157.486C184.168 157.864 185.806 157.97 187.426 157.8L188.082 157.719C188.301 157.684 188.53 157.634 188.746 157.594C189.195 157.513 189.635 157.389 190.061 157.226C190.957 156.899 191.771 156.38 192.444 155.704C192.787 155.357 193.056 154.943 193.234 154.488C193.41 154.025 193.449 153.522 193.346 153.038C193.213 152.544 192.948 152.095 192.578 151.741C192.209 151.387 191.75 151.14 191.25 151.027C190.739 150.88 190.198 150.865 189.679 150.983C189.16 151.102 188.68 151.35 188.284 151.705C187.452 152.446 186.916 153.46 186.771 154.564C186.642 155.671 186.813 156.791 187.265 157.809C187.699 158.806 188.287 159.728 189.006 160.543C190.357 162.1 192.045 163.328 193.943 164.133C195.655 164.88 197.502 165.271 199.37 165.282C201 165.262 202.617 164.99 204.163 164.474C205.595 164.026 206.856 163.604 208.037 163.303C209.022 163.026 210.035 162.859 211.057 162.805C211.429 162.781 211.803 162.781 212.175 162.805C212.494 162.854 212.767 162.877 212.983 162.926L213.472 163.047C213.537 163.065 213.599 163.093 213.656 163.128Z" fill="#FAFAFA"/>
<path d="M174.216 158.339C174.176 158.339 173.97 157.89 173.534 157.136C172.395 155.222 170.734 153.673 168.745 152.67C167.982 152.284 167.479 152.114 167.493 152.073C167.619 152.084 167.743 152.113 167.861 152.159C168.188 152.256 168.507 152.376 168.817 152.518C169.845 152.987 170.791 153.619 171.618 154.389C172.446 155.159 173.142 156.06 173.678 157.055C173.848 157.353 173.998 157.662 174.127 157.98C174.172 158.095 174.203 158.216 174.216 158.339Z" fill="#FAFAFA"/>
<path d="M156.802 177.549C156.802 177.549 156.771 177.514 156.73 177.437C156.69 177.361 156.623 177.24 156.546 177.101C156.385 176.804 156.151 176.36 155.864 175.786C155.03 174.164 154.343 172.471 153.809 170.727C153.452 169.516 153.236 168.267 153.167 167.006C153.131 166.302 153.16 165.596 153.252 164.897C153.364 164.157 153.541 163.428 153.782 162.72C154.306 161.189 155.213 159.816 156.416 158.734C157.059 158.145 157.815 157.691 158.638 157.402C159.461 157.113 160.335 156.993 161.205 157.051C162.11 157.119 162.955 157.53 163.566 158.2C163.857 158.532 164.068 158.925 164.184 159.351C164.3 159.776 164.318 160.222 164.235 160.655C164.138 161.08 163.916 161.466 163.598 161.764C163.286 162.049 162.911 162.254 162.502 162.361C161.712 162.567 160.874 162.466 160.155 162.078C159.488 161.718 158.906 161.221 158.445 160.62C158.004 160.062 157.64 159.448 157.363 158.793C156.878 157.618 156.676 156.344 156.775 155.076C156.866 154.03 157.172 153.014 157.673 152.092C158.045 151.396 158.52 150.76 159.082 150.207C159.434 149.856 159.821 149.541 160.236 149.269C160.375 149.174 160.492 149.116 160.568 149.071L160.685 149.013C160.685 149.013 160.541 149.116 160.263 149.309C159.862 149.595 159.488 149.916 159.145 150.269C158.607 150.828 158.154 151.461 157.799 152.15C157.322 153.061 157.036 154.06 156.959 155.085C156.873 156.328 157.082 157.574 157.57 158.721C157.842 159.356 158.199 159.953 158.629 160.494C159.076 161.07 159.638 161.545 160.281 161.89C160.952 162.251 161.734 162.344 162.471 162.15C162.849 162.062 163.195 161.871 163.471 161.598C163.748 161.326 163.944 160.983 164.037 160.606C164.109 160.209 164.09 159.802 163.983 159.414C163.876 159.025 163.683 158.666 163.418 158.362C162.845 157.737 162.055 157.355 161.21 157.294C160.371 157.238 159.53 157.353 158.737 157.632C157.944 157.91 157.216 158.346 156.596 158.914C155.421 159.971 154.533 161.308 154.015 162.801C153.773 163.494 153.594 164.207 153.481 164.933C153.388 165.62 153.356 166.314 153.387 167.006C153.45 168.254 153.654 169.49 153.997 170.691C154.514 172.431 155.175 174.124 155.972 175.754L156.614 177.101C156.681 177.244 156.735 177.361 156.78 177.451C156.825 177.541 156.802 177.549 156.802 177.549Z" fill="#FAFAFA"/>
<path d="M151.258 137.926C151.258 137.926 151.281 137.989 151.299 138.11C151.33 138.292 151.353 138.474 151.366 138.658C151.425 139.328 151.425 140.003 151.366 140.673C151.185 142.906 150.421 145.051 149.152 146.897C147.882 148.742 146.151 150.222 144.131 151.189C143.526 151.485 142.897 151.726 142.25 151.912C142.026 151.984 141.842 152.015 141.721 152.047C141.6 152.078 141.532 152.082 141.532 152.073C141.757 151.977 141.988 151.894 142.223 151.827C142.853 151.608 143.466 151.346 144.059 151.041C146.025 150.048 147.71 148.576 148.959 146.761C150.208 144.946 150.98 142.847 151.205 140.655C151.275 139.993 151.301 139.328 151.281 138.662C151.258 138.418 151.25 138.172 151.258 137.926Z" fill="#FAFAFA"/>
<path d="M228.368 157.388C227.7 157.806 227.113 158.341 226.635 158.968C226.187 159.547 225.738 160.314 225.231 161.122C224.674 162.027 224.033 162.876 223.314 163.658C222 165.077 220.442 166.25 218.714 167.118C218.193 167.382 217.657 167.611 217.107 167.805C216.906 167.884 216.699 167.944 216.487 167.985C216.673 167.878 216.868 167.79 217.071 167.72C217.448 167.554 217.995 167.32 218.637 166.97C220.314 166.069 221.831 164.897 223.126 163.501C223.837 162.731 224.475 161.897 225.033 161.01C225.479 160.268 225.966 159.552 226.492 158.864C226.857 158.403 227.291 158.002 227.78 157.675C227.912 157.587 228.052 157.51 228.197 157.446C228.314 157.401 228.368 157.379 228.368 157.388Z" fill="#FAFAFA"/>
<path d="M204.114 123.299C204.048 123.327 203.978 123.345 203.907 123.353L203.31 123.461C202.789 123.546 202.035 123.658 201.106 123.784C199.239 124.035 196.654 124.331 193.786 124.542C192.443 124.665 191.095 124.713 189.746 124.686C188.634 124.659 187.532 124.47 186.474 124.125C185.76 123.893 185.087 123.553 184.477 123.115C184.311 122.998 184.152 122.87 184.001 122.734C183.903 122.635 183.853 122.585 183.858 122.576C183.862 122.568 184.091 122.756 184.526 123.025C185.147 123.424 185.819 123.735 186.524 123.95C187.572 124.269 188.66 124.438 189.755 124.453C191.104 124.467 192.452 124.413 193.795 124.291C196.654 124.08 199.239 123.815 201.106 123.604L203.319 123.353C203.582 123.316 203.848 123.298 204.114 123.299Z" fill="#263238"/>
<path d="M234.871 175.987C235.209 177.724 235.161 179.513 234.73 181.229C234.299 182.944 233.496 184.544 232.378 185.915C231.259 187.285 229.853 188.393 228.259 189.159C226.665 189.926 224.921 190.332 223.152 190.35L189.153 189.973L190.051 178.963L219.162 174.591" fill="#D88A6C"/>
<path d="M192.134 179.443C191.977 179.493 190.016 178.613 188.256 177.801C186.39 176.936 184.341 176.539 182.287 176.643L174.181 177.056C174.181 177.056 174.679 178.402 175.527 178.851C176.376 179.3 181.461 179.443 181.461 179.443L181.2 179.708C180.137 180.803 178.687 181.438 177.161 181.477H176.385C175.81 181.431 175.242 181.32 174.692 181.144L172.695 180.337C172.089 180.067 171.452 180.108 171.187 180.718C170.922 181.329 171.124 182.029 172.776 182.859C173.696 183.308 177.116 184.506 177.116 184.506C177.14 184.993 177.207 185.477 177.318 185.952C177.466 186.45 178.808 186.948 178.808 186.948C179.157 187.686 179.556 188.4 180.002 189.084C180.159 189.264 181.376 189.645 182.673 190.009C184.764 190.594 186.978 190.577 189.06 189.96L192.148 189.035V179.609" fill="#D88A6C"/>
<path d="M181.048 185.597C179.62 185.56 178.22 185.191 176.959 184.519C176.959 184.465 177.857 184.807 178.993 185.098C180.128 185.39 181.053 185.529 181.048 185.597Z" fill="#AA6550"/>
<path d="M180.76 187.486C180.38 187.565 179.985 187.536 179.62 187.401C179.239 187.331 178.885 187.157 178.597 186.898C178.964 186.972 179.324 187.075 179.674 187.208C180.043 187.273 180.406 187.366 180.76 187.486Z" fill="#AA6550"/>
<path d="M182.241 178.712C182.064 178.962 181.854 179.186 181.618 179.381C181.08 179.894 180.487 180.346 179.849 180.727C179.207 181.102 178.508 181.372 177.78 181.526C177.488 181.604 177.185 181.638 176.882 181.625C177.885 181.394 178.854 181.034 179.764 180.552C180.387 180.176 180.98 179.752 181.537 179.282C181.754 179.071 181.99 178.881 182.241 178.712Z" fill="#AA6550"/>
<path d="M192.96 177.967L192.134 190.417H224.158C226.333 190.419 228.466 189.828 230.33 188.707C232.439 187.44 234.106 185.554 235.106 183.305C236.105 181.056 236.387 178.555 235.913 176.14C235.453 173.775 234.761 171.462 233.849 169.232L217.745 171.885L218.261 173.887L192.96 177.967Z" fill="#0087FF"/>
<path d="M225.68 172.841C225.574 172.871 225.466 172.895 225.357 172.912L224.419 173.083L220.959 173.657L209.576 175.453L198.18 177.199L194.724 177.701L193.782 177.827C193.672 177.842 193.561 177.851 193.45 177.854C193.556 177.817 193.666 177.792 193.777 177.778L194.711 177.612L198.158 177.033L209.54 175.237L220.959 173.478L224.415 172.975L225.357 172.85C225.464 172.835 225.573 172.832 225.68 172.841Z" fill="#263238"/>
<path d="M209.289 190.426C209.23 190.426 209.482 189.528 209.513 188.061C209.52 187.662 209.503 187.264 209.464 186.867C209.425 186.414 209.359 185.965 209.266 185.52C209.044 184.496 208.694 183.504 208.225 182.567C207.745 181.634 207.157 180.761 206.474 179.964L206.026 179.439C205.873 179.268 205.707 179.12 205.554 178.967C205.254 178.658 204.935 178.411 204.657 178.173C203.512 177.275 202.7 176.827 202.727 176.786C202.925 176.866 203.116 176.963 203.297 177.078C203.52 177.194 203.736 177.325 203.943 177.468C204.181 177.639 204.477 177.805 204.76 178.047C205.083 178.289 205.392 178.55 205.685 178.828C205.842 178.981 206.017 179.125 206.174 179.277L206.663 179.807C207.366 180.609 207.969 181.494 208.458 182.441C208.934 183.398 209.283 184.412 209.5 185.458C209.592 185.915 209.652 186.379 209.679 186.844C209.708 187.248 209.708 187.653 209.679 188.056C209.671 188.392 209.641 188.726 209.589 189.057C209.565 189.307 209.521 189.555 209.459 189.798C209.421 190.012 209.363 190.222 209.289 190.426Z" fill="#FAFAFA"/>
<path d="M228.786 189.488C228.285 189.485 227.787 189.426 227.3 189.313C226.726 189.181 226.168 188.984 225.639 188.725C224.938 188.376 224.304 187.905 223.768 187.334C223.117 186.633 222.644 185.786 222.39 184.865C222.248 184.353 222.168 183.825 222.152 183.294C222.119 182.732 222.165 182.169 222.286 181.62C222.406 181.035 222.632 180.477 222.951 179.973C223.284 179.438 223.747 178.996 224.297 178.689C224.866 178.357 225.52 178.201 226.178 178.24C226.516 178.264 226.846 178.355 227.147 178.509C227.449 178.664 227.716 178.877 227.933 179.138C228.157 179.395 228.326 179.695 228.428 180.02C228.53 180.346 228.563 180.689 228.525 181.027C228.47 181.356 228.342 181.669 228.151 181.942C227.96 182.215 227.711 182.443 227.421 182.607C226.335 183.176 225.084 183.348 223.884 183.092C222.182 182.827 220.626 181.974 219.485 180.683C218.345 179.391 217.693 177.741 217.641 176.018C217.612 175.518 217.655 175.017 217.767 174.528C217.725 175.022 217.713 175.518 217.731 176.014C217.814 177.365 218.256 178.669 219.01 179.793C219.572 180.618 220.296 181.32 221.139 181.855C221.982 182.389 222.925 182.746 223.911 182.904C225.057 183.15 226.253 182.991 227.295 182.455C227.556 182.308 227.78 182.104 227.953 181.86C228.125 181.615 228.241 181.336 228.292 181.041C228.318 180.734 228.284 180.424 228.19 180.13C228.097 179.837 227.947 179.564 227.748 179.329C227.549 179.093 227.305 178.899 227.031 178.758C226.757 178.616 226.458 178.53 226.151 178.505C225.542 178.464 224.935 178.602 224.405 178.904C223.906 179.202 223.478 179.604 223.148 180.083C222.819 180.562 222.597 181.106 222.497 181.678C222.376 182.211 222.329 182.758 222.358 183.303C222.371 183.817 222.444 184.328 222.578 184.825C222.815 185.722 223.264 186.548 223.889 187.235C224.402 187.798 225.01 188.267 225.684 188.622C226.201 188.886 226.746 189.092 227.309 189.237C228.251 189.448 228.79 189.457 228.786 189.488Z" fill="#FAFAFA"/>
<path d="M68.1864 40.8739C67.6792 42.189 68.5499 43.6208 69.5329 44.6351C70.5158 45.6495 71.6918 46.61 72.0015 47.9834C72.2573 49.1369 71.8309 50.3353 71.9341 51.5112C72.0374 52.6872 72.6882 53.7958 73.0562 54.9448C73.725 57.0274 73.4557 59.303 72.8587 61.408C72.4282 63.1572 71.6056 64.7857 70.453 66.1701C69.8725 66.8558 69.153 67.4104 68.3421 67.7973C67.5312 68.1842 66.6474 68.3945 65.7492 68.4143C65.4952 68.4302 65.2407 68.3938 65.0013 68.3074C64.762 68.2209 64.543 68.0862 64.3578 67.9116C64.1061 67.5484 63.9671 67.1191 63.9584 66.6773C62.9305 57.64 62.9305 48.5153 63.9584 39.478" fill="#263238"/>
<path d="M67.24 69.9988C71.1448 69.8283 74.7534 73.5671 74.4438 77.4629C78.398 78.4279 81.1762 82.7771 80.4177 86.7717C80.1619 88.0913 79.5739 89.348 79.4931 90.6855C79.4034 92.1487 79.942 93.5715 80.2068 95.0078C80.7149 97.6255 80.4434 100.335 79.4258 102.8C78.8109 104.285 77.6619 105.82 76.0551 105.865C75.5107 105.842 74.9803 105.686 74.5106 105.409C74.041 105.133 73.6465 104.745 73.3621 104.281C72.8026 103.34 72.4336 102.298 72.2759 101.215C71.5802 97.7053 71.3782 94.1011 70.4087 90.6586C69.4393 87.2161 67.5542 83.8229 64.4438 82.0769C62.7247 81.1074 60.6601 80.6496 59.2912 79.2268C58.6025 78.4503 58.1434 77.4976 57.9651 76.4751C57.7867 75.4526 57.8962 74.4007 58.2813 73.4369C58.6848 72.4817 59.285 71.6223 60.0429 70.9147C60.8008 70.2071 61.6993 69.6671 62.6798 69.3301" fill="#263238"/>
<path d="M40.2112 44.0919C40.1664 42.4222 41.7059 41.1341 43.2588 40.5012C44.8118 39.8683 46.5398 39.6574 47.9222 38.7059C49.152 37.88 49.9734 36.5919 51.0102 35.564C52.2904 34.2657 53.8932 33.3315 55.6538 32.8574C57.4144 32.3832 59.2696 32.3862 61.0287 32.8659C62.7878 33.3457 64.3876 34.285 65.6637 35.5873C66.9398 36.8897 67.8464 38.5083 68.2902 40.2768C68.8872 42.6511 68.4787 45.4608 66.6071 47.0407C64.4347 48.8719 61.2211 48.4635 58.4249 47.8935C55.6286 47.3235 52.4868 46.7624 50.1619 48.4007C48.7615 49.3836 47.9536 50.9904 47.0963 52.4761C46.2391 53.9617 45.1664 55.4743 43.5461 56.0353C41.9258 56.5963 39.722 55.6269 39.6592 53.9168" fill="#263238"/>
<path d="M46.791 44.4335C46.0961 44.5086 45.4546 44.8417 44.9933 45.3669C44.5321 45.8921 44.2847 46.5712 44.3 47.2701L45.9651 84.972C46.037 89.4244 52.545 91.9244 57.3116 91.8122C62.1276 91.7 62.2802 89.3392 62.3431 85.1022C62.4418 78.0286 62.4328 75.3715 62.4373 75.4119C62.4418 75.4523 68.519 74.3885 69.7623 66.4352C70.3772 62.49 70.1662 56.0178 69.8206 50.7261C69.5109 45.964 66.3421 40.1291 61.598 40.6408L46.791 44.4335Z" fill="#FFBE9D"/>
<path d="M68.4512 55.7259C68.4537 55.9909 68.353 56.2463 68.1703 56.4382C67.9877 56.6301 67.7374 56.7433 67.4727 56.7538C67.3446 56.7648 67.2156 56.7502 67.0932 56.7109C66.9708 56.6716 66.8574 56.6084 66.7596 56.5248C66.6619 56.4413 66.5818 56.3392 66.5239 56.2244C66.466 56.1095 66.4315 55.9844 66.4225 55.8561C66.4188 55.5909 66.5191 55.3347 66.702 55.1426C66.8849 54.9505 67.1358 54.8376 67.4009 54.8283C67.529 54.8172 67.658 54.8318 67.7805 54.8711C67.9029 54.9104 68.0163 54.9737 68.114 55.0572C68.2117 55.1408 68.2919 55.2429 68.3498 55.3577C68.4077 55.4725 68.4421 55.5977 68.4512 55.7259Z" fill="#263238"/>
<path d="M68.4239 54.1101C68.2983 54.2448 67.5263 53.6613 66.4311 53.6613C65.336 53.6613 64.5326 54.2178 64.4114 54.0832C64.353 54.0248 64.4832 53.7825 64.8333 53.5266C65.3058 53.1976 65.8688 53.0235 66.4446 53.0284C67.0145 53.0251 67.5709 53.2027 68.0335 53.5356C68.3701 53.8004 68.4868 54.0518 68.4239 54.1101Z" fill="#263238"/>
<path d="M57.9263 55.7259C57.9288 55.9909 57.8281 56.2463 57.6454 56.4382C57.4628 56.6301 57.2125 56.7433 56.9478 56.7538C56.8197 56.7648 56.6907 56.7502 56.5683 56.7109C56.4459 56.6716 56.3325 56.6084 56.2347 56.5248C56.137 56.4413 56.0569 56.3392 55.999 56.2244C55.9411 56.1095 55.9066 55.9844 55.8976 55.8561C55.8939 55.5909 55.9942 55.3347 56.1771 55.1426C56.36 54.9505 56.6109 54.8376 56.876 54.8283C57.0041 54.8172 57.1331 54.8318 57.2556 54.8711C57.378 54.9104 57.4914 54.9737 57.5891 55.0572C57.6868 55.1408 57.767 55.2429 57.8249 55.3577C57.8828 55.4725 57.9172 55.5977 57.9263 55.7259Z" fill="#263238"/>
<path d="M57.679 54.3391C57.5533 54.4738 56.7814 53.8903 55.6862 53.8903C54.591 53.8903 53.7876 54.4469 53.6709 54.3122C53.6126 54.2539 53.7383 54.0115 54.0884 53.7557C54.5607 53.4258 55.1236 53.2503 55.6997 53.253C56.2701 53.2509 56.8265 53.4301 57.2885 53.7646C57.6027 54.0384 57.7194 54.2808 57.679 54.3391Z" fill="#263238"/>
<path d="M61.6514 62.454C61.6514 62.3912 62.3246 62.2745 63.4467 62.1308C63.725 62.0994 63.9898 62.0411 64.0392 61.8526C64.0598 61.5632 63.9942 61.2743 63.8507 61.0222L63.0158 58.8948C61.8623 55.8651 61.023 53.3741 61.1487 53.3292C61.2744 53.2843 62.3067 55.7036 63.4602 58.7152L64.2591 60.8562C64.4331 61.1933 64.4854 61.5801 64.4072 61.9513C64.3678 62.0492 64.3071 62.137 64.2295 62.2085C64.1518 62.2799 64.0592 62.3331 63.9584 62.3642C63.8121 62.4045 63.6613 62.4257 63.5096 62.4271C62.3426 62.5079 61.6559 62.5168 61.6514 62.454Z" fill="#263238"/>
<path d="M62.4367 75.4162C58.6988 75.4807 55.0163 74.5065 51.7993 72.6021C51.7993 72.6021 54.3891 78.0509 62.3334 77.2879L62.4367 75.4162Z" fill="#EB996E"/>
<path d="M61.194 65.0931C60.9827 64.8276 60.7064 64.6211 60.3918 64.4937C60.0773 64.3663 59.7352 64.3223 59.3986 64.366C59.157 64.3877 58.9222 64.4581 58.7085 64.573C58.4948 64.688 58.3067 64.8451 58.1554 65.0348C58.0094 65.2178 57.9234 65.4414 57.9089 65.6751C57.8945 65.9087 57.9523 66.1412 58.0746 66.3409C58.2503 66.538 58.4812 66.6777 58.7374 66.7417C58.9936 66.8057 59.2631 66.7912 59.5108 66.6999C60.0276 66.5163 60.5022 66.2309 60.9067 65.8606C61.031 65.7738 61.1376 65.6641 61.2209 65.5374C61.2618 65.4772 61.2837 65.4061 61.2837 65.3332C61.2837 65.2604 61.2618 65.1893 61.2209 65.129" fill="#EB996E"/>
<path d="M58.4286 63.2256C58.6082 63.2256 58.6126 64.406 59.6315 65.2453C60.6503 66.0846 61.9161 65.9545 61.925 66.143C61.925 66.2193 61.6423 66.3764 61.1082 66.3899C60.4115 66.4025 59.7328 66.1689 59.1916 65.7301C58.6737 65.3064 58.3406 64.6981 58.2626 64.0335C58.2132 63.5084 58.3478 63.2256 58.4286 63.2256Z" fill="#263238"/>
<path d="M58.1281 52.4182C58.0204 52.7189 56.9252 52.5798 55.6415 52.7369C54.3579 52.894 53.3166 53.2485 53.146 52.9792C53.0697 52.8536 53.2493 52.5708 53.6667 52.2835C54.224 51.9253 54.8555 51.6988 55.5135 51.621C56.1714 51.5432 56.8384 51.6163 57.4638 51.8347C57.953 52.0457 58.1909 52.2791 58.1281 52.4182Z" fill="#263238"/>
<path d="M68.0025 50.9413C67.8095 51.1881 67.0554 50.9413 66.1443 50.9413C65.2332 50.9413 64.4702 51.1118 64.2951 50.8515C64.2143 50.7258 64.3355 50.479 64.6721 50.2411C65.1226 49.9593 65.6463 49.817 66.1774 49.8322C66.7085 49.8473 67.2233 50.0193 67.6569 50.3263C68.0025 50.5642 68.0967 50.8201 68.0025 50.9413Z" fill="#263238"/>
<path d="M41.248 70.5465C42.3424 70.7677 43.4737 70.7256 44.5486 70.4236C45.6235 70.1215 46.6112 69.5682 47.4301 68.8093C48.2491 68.0504 48.8759 67.1077 49.2588 66.0588C49.6416 65.01 49.7697 63.8852 49.6322 62.7772C49.3854 60.8247 48.3351 58.8454 49.0128 56.9962C49.9105 54.559 53.3261 53.8095 54.2328 51.3723C54.7579 49.9585 54.2866 48.3023 54.8836 46.9154C55.4446 45.6138 56.818 44.8642 58.1556 44.3795C59.4931 43.8948 60.9204 43.5626 62.0424 42.6919C63.1645 41.8212 63.8602 40.1784 63.1376 38.9531C57.2098 39.6644 51.3878 41.0792 45.7947 43.1677C44.4976 43.6524 43.1376 44.2359 42.3701 45.3849C41.5622 46.6057 41.6026 48.1766 41.6699 49.6398C42.0021 56.7673 40.9159 63.4414 41.248 70.5689" fill="#263238"/>
<path d="M39.358 68.3111C39.3128 68.3043 39.2689 68.2907 39.2278 68.2707C39.0997 68.226 38.9776 68.1657 38.8643 68.0912C38.427 67.8083 38.0834 67.4022 37.8768 66.9242C37.5372 66.1686 37.446 65.3247 37.6165 64.514C37.8868 63.4607 38.3779 62.477 39.0573 61.628C39.7529 60.6585 40.6371 59.6755 41.2386 58.4233C41.5593 57.787 41.7384 57.0888 41.7637 56.3766C41.7378 55.6207 41.5861 54.8744 41.3149 54.1684C41.0124 53.405 40.8526 52.5926 40.8436 51.7716C40.8871 50.8931 41.145 50.0386 41.5949 49.2828C42.0448 48.527 42.6729 47.8929 43.4244 47.4359C44.2304 46.9961 45.1243 46.7416 46.0411 46.6908C46.9282 46.6473 47.8069 46.4966 48.6578 46.242C49.4567 45.9395 50.1133 45.3486 50.498 44.5858C50.8646 43.8354 51.1563 43.0506 51.3687 42.2429C51.5958 41.468 51.8964 40.7165 52.2664 39.9987C52.9412 38.6379 53.9689 37.4832 55.2422 36.6549C56.3664 35.9481 57.6818 35.6063 59.0079 35.6765C60.1062 35.7333 61.1525 36.1622 61.9747 36.8928C62.5875 37.4438 63.0442 38.1467 63.2987 38.9305C63.4641 39.4212 63.5267 39.9406 63.4827 40.4565C63.4736 40.636 63.4434 40.8137 63.393 40.9862C63.393 40.9862 63.4244 40.8021 63.4378 40.452C63.4594 39.9441 63.3832 39.4367 63.2134 38.9574C62.9044 38.0754 62.3373 37.3067 61.5857 36.7512C60.8341 36.1957 59.9328 35.8791 58.9989 35.8425C57.7095 35.7857 56.4338 36.1274 55.3454 36.821C54.1064 37.6352 53.1083 38.7666 52.4549 40.0975C52.0923 40.8154 51.8007 41.567 51.5842 42.3416C51.365 43.1639 51.0643 43.9623 50.6865 44.7249C50.4784 45.1196 50.207 45.4774 49.8831 45.7842C49.5482 46.0943 49.1544 46.3339 48.7251 46.4888C47.8506 46.7584 46.946 46.9182 46.0321 46.9646C45.1486 47.0112 44.2866 47.255 43.5097 47.6783C42.7913 48.1141 42.1904 48.719 41.7593 49.4403C41.3283 50.1616 41.0802 50.9773 41.0366 51.8165C41.0446 52.6122 41.1967 53.3999 41.4854 54.1414C41.7711 54.8691 41.9305 55.6402 41.9567 56.4215C41.9265 57.1625 41.7366 57.8881 41.4002 58.549C40.7718 59.8326 39.8786 60.7931 39.1784 61.7671C38.5027 62.5921 38.01 63.5514 37.7332 64.5813C37.5544 65.3649 37.6282 66.1851 37.9442 66.9242C38.1383 67.3951 38.462 67.8013 38.8777 68.0956C39.1784 68.2482 39.3625 68.2931 39.358 68.3111Z" fill="#455A64"/>
<path d="M62.4243 33.7017C62.5333 33.7097 62.639 33.7419 62.734 33.7959C63.0034 33.9102 63.2556 34.0612 63.4836 34.2447C64.2655 34.8515 64.7835 35.7363 64.9298 36.7152C65.0761 37.6941 64.8394 38.6917 64.269 39.5006C64.1032 39.7416 63.9071 39.9604 63.6855 40.1514C63.524 40.286 63.4252 40.3444 63.4162 40.3309C63.6693 40.0441 63.9075 39.7445 64.1299 39.4333C64.6357 38.6445 64.8385 37.6992 64.7007 36.7724C64.5628 35.8457 64.0938 35.0003 63.3803 34.3929C63.0752 34.1442 62.756 33.9135 62.4243 33.7017Z" fill="#455A64"/>
<path d="M80.0085 88.1762C80.1031 87.9002 80.1796 87.6184 80.2374 87.3324C80.3426 86.5489 80.2063 85.7519 79.8469 85.0478C79.2932 84.0143 78.4124 83.1935 77.3424 82.7139C76.7163 82.4177 76.0623 82.1847 75.39 82.0182C74.6898 81.8387 73.9492 81.6906 73.2086 81.4482C72.4634 81.2451 71.7762 80.87 71.2024 80.353C70.6884 79.8384 70.3559 79.1704 70.2553 78.45C70.1341 77.7812 70.0937 77.1484 69.9456 76.5828C69.8129 76.0596 69.5661 75.5723 69.223 75.1556C68.721 74.5451 68.0542 74.0918 67.302 73.8495C66.7679 73.6879 66.4492 73.6879 66.4492 73.6609C66.5253 73.6534 66.602 73.6534 66.6781 73.6609C66.8977 73.6761 67.1155 73.7107 67.3289 73.7642C68.1161 73.9813 68.8199 74.4301 69.3487 75.0523C69.7183 75.4826 69.9867 75.9902 70.1341 76.538C70.2957 77.1259 70.3451 77.7678 70.4708 78.4141C70.563 79.0954 70.8787 79.7268 71.3684 80.2094C71.9188 80.6981 72.5747 81.0529 73.2849 81.2462C74.0076 81.4796 74.7481 81.6322 75.4528 81.8162C76.1341 81.9829 76.796 82.2206 77.4277 82.5254C78.5331 83.0315 79.4348 83.8968 79.986 84.9805C80.3453 85.7168 80.4616 86.5482 80.3182 87.3548C80.2754 87.57 80.2076 87.7793 80.1162 87.9787C80.0872 88.0481 80.0511 88.1143 80.0085 88.1762Z" fill="#455A64"/>
<path d="M45.4839 74.1192C41.4444 73.042 37.9884 69.1057 36.579 65.1874C35.1697 61.2691 35.1697 56.9917 35.5333 52.8445C35.7936 49.8418 36.3232 46.6641 38.316 44.402C41.3232 40.9908 44.5997 39.2494 49.1239 39.393" fill="#263238"/>
<path d="M68.9586 82.8715L65.2108 81.9289C65.6194 81.6481 65.9172 81.2336 66.0532 80.7568C66.1892 80.2801 66.1548 79.7708 65.9559 79.3167C65.7186 78.7346 65.3261 78.2289 64.8212 77.8545C64.3162 77.4802 63.7182 77.2516 63.0923 77.1937L46.0097 75.2638C45.7111 75.2239 45.4077 75.2854 45.1481 75.4384C44.8886 75.5914 44.6878 75.827 44.578 76.1076C43.8209 78.0346 43.7955 79.6204 44.5017 80.8652H44.4209L41.1264 81.5205L35.543 130.775L72.1139 129.065L68.9586 82.8715Z" fill="#F5F5F5"/>
<path d="M63.5816 82.1174C63.3573 82.183 63.1274 82.228 62.8949 82.2521C62.4461 82.3239 61.8042 82.4002 61.0053 82.481C56.8242 82.8694 52.6091 82.6593 48.4874 81.8571C47.6974 81.7 47.0646 81.5564 46.6292 81.4397C46.4005 81.3953 46.1766 81.3292 45.9604 81.2422C46.1922 81.2592 46.422 81.2967 46.6472 81.3544C47.096 81.4397 47.7288 81.5609 48.5188 81.6955C52.6363 82.404 56.8244 82.612 60.9919 82.3149C61.7908 82.261 62.4371 82.2027 62.8859 82.1578C63.1164 82.1261 63.349 82.1126 63.5816 82.1174Z" fill="#263238"/>
<path d="M47.0518 89.9451C47.4115 89.198 47.8398 88.4858 48.3309 87.8176C48.7596 87.1072 49.254 86.4385 49.8076 85.8203C49.4472 86.5681 49.0174 87.2803 48.5239 87.9478C48.0976 88.6587 47.6046 89.3274 47.0518 89.9451Z" fill="#E0E0E0"/>
<path d="M58.838 90.7799C57.6972 89.6086 56.6707 88.3311 55.7725 86.9648C56.3704 87.5244 56.9144 88.1391 57.3972 88.8006C57.9403 89.4122 58.4228 90.0751 58.838 90.7799Z" fill="#E0E0E0"/>
<path d="M53.3619 97.0413C53.1039 96.2428 52.9191 95.4226 52.8099 94.5906C52.6231 93.7726 52.5164 92.9383 52.4912 92.0996C52.7499 92.8979 52.9347 93.7182 53.0433 94.5502C53.225 95.3692 53.3317 96.203 53.3619 97.0413Z" fill="#E0E0E0"/>
<path d="M62.3607 97.4268C61.7271 98.2148 61.0339 98.9531 60.2871 99.635C59.5937 100.373 58.8433 101.056 58.043 101.677C58.6765 100.889 59.3697 100.151 60.1166 99.4689C60.8129 98.7335 61.5631 98.0509 62.3607 97.4268Z" fill="#E0E0E0"/>
<path d="M50.2913 105.82C48.6374 104.832 47.2903 103.404 46.3999 101.695C46.4627 101.655 47.1495 102.732 48.2311 103.868C49.3128 105.003 50.3362 105.762 50.2913 105.82Z" fill="#E0E0E0"/>
<path d="M54.17 112.301C54.17 112.369 53.1467 112.696 51.9618 113.329C50.7769 113.962 49.9106 114.626 49.8657 114.568C50.4306 113.963 51.1054 113.471 51.8541 113.118C52.566 112.699 53.3525 112.421 54.17 112.301Z" fill="#E0E0E0"/>
<path d="M60.4757 112.718C60.2082 112.492 59.9686 112.234 59.7621 111.951C59.3492 111.457 58.7971 110.753 58.2226 109.949C57.6481 109.146 57.1634 108.396 56.8267 107.84C56.6264 107.552 56.4607 107.242 56.333 106.915C56.5717 107.171 56.7838 107.451 56.9659 107.75L58.4156 109.814L59.8922 111.852C60.1168 112.12 60.3124 112.41 60.4757 112.718Z" fill="#E0E0E0"/>
<path d="M61.1086 118.248C60.2362 118.554 59.3333 118.765 58.4156 118.876C57.5079 119.066 56.5825 119.158 55.6553 119.15C56.5518 118.925 57.4618 118.757 58.3797 118.648C59.2806 118.46 60.1918 118.327 61.1086 118.248Z" fill="#E0E0E0"/>
<path d="M50.8973 81.4219C50.8659 81.4219 51.0813 81.1526 51.2653 80.6769C51.4932 80.0543 51.5611 79.3845 51.4628 78.7289C51.3514 78.0682 51.1569 77.4243 50.8838 76.8124C50.7515 76.5619 50.6491 76.2968 50.5786 76.0225C50.7661 76.2377 50.9176 76.4817 51.0274 76.7451C51.3539 77.3533 51.5769 78.0116 51.6872 78.693C51.7958 79.3888 51.7007 80.1012 51.4134 80.7442C51.3131 81.0167 51.1333 81.2528 50.8973 81.4219Z" fill="#E0E0E0"/>
<path d="M57.7287 77.7324C58.0487 78.1731 58.2775 78.6732 58.4016 79.2035C58.5257 79.7338 58.5426 80.2835 58.4513 80.8204C58.384 80.8204 58.375 80.1067 58.173 79.2585C57.9711 78.4102 57.6793 77.7683 57.7287 77.7324Z" fill="#E0E0E0"/>
<path d="M88.5406 112.826L105.551 82.9475L107.603 77.7635C107.603 77.7635 112.908 66.3632 113.276 65.1962C113.702 63.8497 114.452 63.742 114.936 63.9305C115.69 64.2312 115.933 65.3533 115.601 66.5158C115.484 66.9152 113.424 73.1809 113.424 73.1809C113.978 72.7034 114.566 72.2669 115.183 71.8748C116.489 70.9772 118.882 71.022 121.099 71.812C123.316 72.6019 123.864 73.0193 123.599 73.8901C123.54 74.0535 123.446 74.2017 123.322 74.3237C123.199 74.4457 123.049 74.5383 122.885 74.5947C122.363 74.8128 121.778 74.8256 121.247 74.6307C117.683 73.4188 116.103 75.0256 116.103 75.0256L115.839 75.7034C115.839 75.7034 118.532 74.8461 120.04 76.0579C120.265 76.2358 120.454 76.4552 120.596 76.7043C121.084 76.8637 121.522 77.1478 121.867 77.5284C122.211 77.9091 122.45 78.3731 122.561 78.8745C122.671 79.376 122.648 79.8975 122.495 80.3875C122.342 80.8775 122.063 81.319 121.687 81.6683C121.523 81.8548 121.307 81.9872 121.067 82.0481C120.826 82.109 120.573 82.0956 120.34 82.0095C120.123 81.8613 119.948 81.6585 119.833 81.4215C119.76 81.3028 119.678 81.1903 119.586 81.0849L118.572 82.8802C118.572 82.8802 116.072 86.785 115.174 88.6118L103.46 119.819C103.075 120.846 102.489 121.787 101.736 122.585C100.983 123.383 100.079 124.024 99.0765 124.469C98.0737 124.914 96.9922 125.155 95.8953 125.177C94.7983 125.199 93.708 125.003 92.6878 124.599C91.5869 124.165 90.5923 123.499 89.7712 122.646C88.9501 121.794 88.3216 120.775 87.9284 119.659C87.5352 118.543 87.3863 117.355 87.492 116.176C87.5976 114.997 87.9552 113.855 88.5406 112.826Z" fill="#FFBE9D"/>
<path d="M106.723 82.8447C107.324 83.2397 108.154 82.9704 108.693 82.5036C109.232 82.0368 109.591 81.395 110.111 80.8878C111.624 79.3752 114.151 79.2316 115.601 77.6472C115.803 77.4273 115.982 77.0906 115.807 76.8483C115.632 76.6059 115.309 76.6508 115.04 76.7047L108.078 78.0826" fill="#FFBE9D"/>
<path d="M108.079 78.0826C108.314 77.9763 108.561 77.9009 108.815 77.8582C109.296 77.737 109.996 77.5799 110.858 77.4093L113.892 76.7675L114.789 76.5835C115.135 76.4569 115.517 76.4698 115.853 76.6194C115.949 76.6906 116.022 76.7889 116.062 76.9016C116.102 77.0143 116.107 77.1364 116.077 77.2523C116.031 77.4424 115.939 77.6181 115.808 77.7639C115.574 78.0235 115.31 78.2554 115.023 78.4551C113.865 79.2585 112.595 79.5862 111.58 80.1203C111.096 80.349 110.651 80.6518 110.261 81.018C109.902 81.3636 109.619 81.7585 109.323 82.0952C109.109 82.3921 108.834 82.6388 108.515 82.818C108.196 82.9971 107.842 83.1042 107.478 83.132C106.944 83.132 106.724 82.8671 106.742 82.8627C106.976 82.9428 107.222 82.9808 107.469 82.9749C107.8 82.9201 108.116 82.7972 108.397 82.6142C108.678 82.4311 108.919 82.1917 109.103 81.9111C109.39 81.5189 109.697 81.1414 110.023 80.7801C110.43 80.3768 110.898 80.0405 111.41 79.7837C112.455 79.2181 113.721 78.886 114.789 78.123C115.047 77.9402 115.284 77.7311 115.498 77.4991C115.696 77.2792 115.763 77.0144 115.624 76.9381C115.485 76.8618 115.175 76.8977 114.866 76.9605L113.968 77.1266L110.916 77.6876C110.045 77.8402 109.34 77.9569 108.851 78.0287C108.598 78.087 108.338 78.1052 108.079 78.0826Z" fill="#EB996E"/>
<path d="M115.745 75.7125C115.923 75.2959 116.196 74.9269 116.543 74.6353C116.932 74.344 117.404 74.1865 117.89 74.1865C118.5 74.1901 119.106 74.2901 119.685 74.4827C120.277 74.6824 120.888 74.8207 121.508 74.8956C122.028 74.9554 122.555 74.8748 123.034 74.6622C123.198 74.5863 123.343 74.4729 123.456 74.331C123.569 74.1892 123.647 74.0229 123.684 73.8454C123.718 73.7205 123.718 73.5888 123.684 73.4639C123.657 73.4639 123.657 73.5985 123.59 73.8229C123.541 73.9742 123.459 74.1128 123.35 74.2291C123.242 74.3454 123.109 74.4366 122.962 74.4962C122.505 74.666 122.013 74.7215 121.53 74.6578C120.928 74.563 120.336 74.4128 119.762 74.2089C119.162 74.0116 118.534 73.9146 117.903 73.9217C117.374 73.934 116.863 74.1237 116.454 74.4603C116.182 74.6863 115.973 74.9784 115.848 75.3086C115.736 75.5734 115.727 75.708 115.745 75.7125Z" fill="#EB996E"/>
<path d="M115.722 66.0669C115.546 66.4684 115.405 66.8844 115.3 67.3102C115.036 68.1719 114.721 69.1953 114.371 70.3263C114.021 71.4574 113.676 72.4717 113.397 73.329C113.235 73.7356 113.11 74.1563 113.025 74.5857C113.248 74.2077 113.431 73.8076 113.572 73.3918C113.869 72.6378 114.246 71.5965 114.623 70.4071C115 69.2177 115.292 68.1629 115.48 67.3595C115.606 66.9384 115.687 66.5051 115.722 66.0669Z" fill="#EB996E"/>
<path d="M116.706 77.5887C116.843 77.6084 116.982 77.6084 117.118 77.5887C117.291 77.5592 117.467 77.5673 117.636 77.6122C117.805 77.6571 117.962 77.7379 118.097 77.849C118.175 77.9314 118.23 78.0325 118.258 78.1426C118.285 78.2526 118.284 78.368 118.254 78.4774C118.182 78.753 118.074 79.0185 117.935 79.2673C117.756 79.5795 117.696 79.9468 117.769 80.2996C117.831 80.4866 117.935 80.6566 118.073 80.7961C118.212 80.9356 118.382 81.0407 118.568 81.103C118.752 81.1614 118.946 81.1816 119.139 81.1623C119.331 81.143 119.517 81.0846 119.686 80.9908C120 80.8303 120.258 80.5784 120.426 80.2682C120.669 79.7567 120.836 79.2123 120.92 78.6524C120.986 78.2767 120.986 77.8925 120.92 77.5169C120.906 77.3757 120.851 77.2417 120.763 77.1309C120.741 77.1309 120.799 77.2745 120.821 77.5303C120.841 77.8965 120.809 78.2635 120.727 78.621C120.621 79.1516 120.446 79.6661 120.206 80.1515C120.06 80.4248 119.828 80.6421 119.545 80.7695C119.263 80.897 118.946 80.9275 118.645 80.8562C118.497 80.8084 118.362 80.7267 118.251 80.6176C118.141 80.5085 118.057 80.375 118.007 80.2278C117.949 79.9346 117.998 79.6301 118.146 79.3705C118.286 79.0988 118.391 78.8109 118.461 78.5133C118.491 78.3708 118.484 78.223 118.441 78.0839C118.397 77.9448 118.319 77.8192 118.214 77.7188C118.058 77.5953 117.875 77.51 117.68 77.4694C117.485 77.4289 117.284 77.4344 117.092 77.4854C116.958 77.4987 116.828 77.5336 116.706 77.5887Z" fill="#EB996E"/>
<path d="M119.64 80.7304C119.64 80.7304 119.555 80.8471 119.564 81.0984C119.577 81.2748 119.63 81.4457 119.721 81.5977C119.811 81.7496 119.936 81.8783 120.085 81.9736C120.315 82.1059 120.576 82.1756 120.841 82.1756C121.106 82.1756 121.367 82.1059 121.597 81.9736C122.151 81.6544 122.56 81.1332 122.737 80.5194C122.933 79.9185 122.933 79.2711 122.737 78.6702C122.578 78.1845 122.291 77.7505 121.907 77.4135C121.654 77.1868 121.36 77.0102 121.041 76.8928C120.927 76.8384 120.803 76.8108 120.677 76.8121C121.077 77.0057 121.449 77.2534 121.781 77.5481C122.158 77.9155 122.424 78.381 122.549 78.892C122.675 79.4029 122.654 79.9387 122.491 80.4386C122.33 80.9901 121.97 81.4621 121.481 81.7627C121.285 81.8774 121.063 81.9409 120.837 81.9472C120.61 81.9535 120.385 81.9024 120.184 81.7986C120.05 81.7206 119.934 81.615 119.844 81.4888C119.755 81.3627 119.693 81.2189 119.663 81.067C119.618 80.8695 119.663 80.7304 119.64 80.7304Z" fill="#EB996E"/>
<path d="M113.976 83.5494C113.799 83.4293 113.589 83.3652 113.375 83.3653C112.827 83.312 112.277 83.4431 111.813 83.7379L112.006 83.868C112.066 83.5717 112.108 83.2719 112.131 82.9704C112.289 81.2379 111.736 79.9003 111.683 79.9363C111.855 80.9303 111.92 81.94 111.876 82.9479C111.854 83.2355 111.816 83.5217 111.763 83.8052L111.71 84.0969L111.956 83.9309C112.377 83.6564 112.868 83.5098 113.37 83.509C113.743 83.5179 113.967 83.5808 113.976 83.5494Z" fill="#EB996E"/>
<path d="M117.519 72.9026C117.447 72.9026 117.546 73.4412 118.021 73.8541C118.497 74.2671 119.031 74.303 119.031 74.2267C119.031 74.1504 118.605 74.0202 118.196 73.6566C117.788 73.2931 117.59 72.8757 117.519 72.9026Z" fill="#EB996E"/>
<path d="M64.4116 137.62L82.2078 137.795L79.2231 124.882L80.224 127.319C81.1466 129.569 82.7176 131.494 84.7373 132.849C86.757 134.204 89.134 134.927 91.566 134.927C97.1944 134.927 101.086 130.739 103.465 125.641C109.03 113.72 114.394 94.523 114.394 94.523L103.545 84.9898C95.6908 99.8461 88.312 112.746 88.312 112.746C88.312 112.746 86.18 106.269 84.5328 100.488C82.8856 94.707 82.899 91.6729 80.3721 88.7914C76.4807 84.3569 70.9466 83.2573 65.794 81.9287L65.601 105.914L64.4116 137.62Z" fill="#90CAF9"/>
<path d="M44.0485 119.779L76.4542 126.063L78.0296 138.513H28.3438C26.9838 138.53 25.6351 138.263 24.3841 137.729C23.133 137.196 22.0069 136.407 21.0777 135.413C20.1486 134.42 19.4367 133.244 18.9877 131.96C18.5386 130.676 18.3621 129.313 18.4695 127.957C19.1832 118.881 19.9597 107.705 20.5521 102.979C21.0009 99.2943 22.4821 95.4837 24.2191 92.2073C26.728 87.4855 35.0898 81.4353 42.4192 81.1211L43.8061 111.987" fill="#90CAF9"/>
<g opacity="0.4">
<path d="M64.4116 137.619L82.2078 137.794L79.223 124.882L80.2239 127.319C81.1465 129.569 82.7176 131.494 84.7372 132.848C86.7569 134.203 89.134 134.927 91.5659 134.926C97.1943 134.926 101.086 130.739 103.464 125.64C109.03 113.719 114.394 94.5225 114.394 94.5225L103.545 84.9893C95.6907 99.8456 88.3119 112.745 88.3119 112.745C88.3119 112.745 86.1799 106.268 84.5327 100.487C82.8855 94.7065 82.899 91.6724 80.372 88.7909C76.4807 84.3564 70.9466 83.2568 65.794 81.9282L65.601 105.914L64.4116 137.619Z" fill="#0087FF"/>
<path d="M44.048 119.778L73.276 125.138C73.8716 125.248 74.421 125.532 74.8549 125.955C75.2887 126.378 75.5874 126.919 75.7132 127.512L78.0291 138.54H28.3434C26.9833 138.556 25.6347 138.289 24.3836 137.756C23.1325 137.222 22.0064 136.433 21.0773 135.44C20.1481 134.446 19.4363 133.27 18.9872 131.986C18.5381 130.703 18.3616 129.339 18.469 127.983C19.1827 118.908 19.9592 107.732 20.5516 103.006C21.0005 99.3207 22.4816 95.5101 24.2186 92.2336C26.7276 87.5119 35.0893 81.4616 42.4187 81.1475L43.8056 112.014" fill="#0087FF"/>
</g>
<path d="M37.8766 118.854C37.8651 118.756 37.8651 118.656 37.8766 118.558C37.8766 118.338 37.8766 118.055 37.8766 117.71C37.8766 116.942 37.8766 115.883 37.8766 114.568C37.8766 111.933 37.8273 108.284 37.6253 104.276C37.5221 102.265 37.3919 100.353 37.2528 98.6206C37.1876 97.0828 36.9696 95.5552 36.602 94.0605C36.3453 93.0628 35.8562 92.14 35.1747 91.3675C34.9108 91.0979 34.632 90.8432 34.3398 90.6045C34.6825 90.7808 34.9935 91.0129 35.26 91.2912C35.9866 92.0581 36.5097 92.9947 36.7815 94.0156C37.1735 95.5223 37.4081 97.0656 37.4817 98.6206C37.6343 100.358 37.7689 102.27 37.8722 104.28C38.0786 108.32 38.1011 111.951 38.0562 114.604C38.0292 115.923 37.9933 116.991 37.9619 117.745L37.9126 118.594C37.9108 118.682 37.8988 118.769 37.8766 118.854Z" fill="#263238"/>
<path d="M75.8257 126.96C75.4839 126.583 75.0858 126.26 74.6453 126.004C74.1216 125.719 73.5656 125.498 72.9891 125.345C72.3204 125.152 71.5349 125.003 70.6687 124.828C67.2037 124.119 62.4236 123.136 57.1274 122.135C51.8312 121.135 47.0107 120.34 43.5233 119.784L39.3895 119.124L38.2674 118.935C38.1353 118.919 38.0047 118.892 37.877 118.854C38.0094 118.855 38.1415 118.867 38.2719 118.89L39.403 119.034C40.3814 119.164 41.7997 119.362 43.5457 119.622C47.0421 120.143 51.8671 120.915 57.1678 121.907C62.4685 122.898 67.2486 123.904 70.7001 124.649C71.5663 124.837 72.3518 124.999 73.025 125.205C73.6079 125.37 74.1674 125.609 74.6902 125.915C75.026 126.104 75.3292 126.347 75.5879 126.633C75.6569 126.704 75.72 126.78 75.7764 126.862C75.8078 126.916 75.8302 126.96 75.8257 126.96Z" fill="#263238"/>
<path d="M37.9755 118.854C37.9755 118.895 37.3785 119.034 36.4539 119.411C35.9142 119.634 35.3894 119.892 34.883 120.183C34.2707 120.548 33.687 120.959 33.1371 121.413C32.6023 121.876 32.1041 122.381 31.6469 122.921C31.2708 123.366 30.9259 123.837 30.6146 124.33C30.085 125.179 29.8426 125.753 29.8022 125.735C29.8302 125.59 29.8769 125.45 29.9414 125.318C30.0943 124.949 30.2712 124.591 30.471 124.245C30.7707 123.733 31.1082 123.244 31.4809 122.782C32.4022 121.651 33.5292 120.706 34.8022 119.995C35.3179 119.703 35.8569 119.456 36.4135 119.254C36.788 119.114 37.172 119.002 37.5626 118.917C37.6966 118.877 37.8356 118.856 37.9755 118.854Z" fill="#263238"/>
<path d="M79.8201 126.61C79.7892 126.509 79.7667 126.405 79.7528 126.3C79.7169 126.076 79.6675 125.779 79.6091 125.402C79.4835 124.626 79.3174 123.504 79.1289 122.112C78.7519 119.334 78.2941 115.483 77.9081 111.219C77.5221 106.955 77.2932 103.086 77.1675 100.281C77.1047 98.8809 77.0688 97.7454 77.0508 96.9599C77.0508 96.5859 77.0508 96.2866 77.0508 96.0622C77.041 95.9577 77.041 95.8525 77.0508 95.748C77.0751 95.851 77.0871 95.9565 77.0867 96.0622L77.1451 96.9599C77.1944 97.7678 77.2573 98.8944 77.338 100.272C77.5041 103.073 77.7644 106.937 78.146 111.197C78.5275 115.456 78.9628 119.307 79.2995 122.09C79.4655 123.463 79.6047 124.581 79.7034 125.389C79.7438 125.761 79.7797 126.058 79.8066 126.287C79.8248 126.393 79.8293 126.502 79.8201 126.61Z" fill="#263238"/>
<path d="M90.5654 121.785C90.5654 121.785 90.4622 121.686 90.3051 121.489C90.0876 121.203 89.8882 120.903 89.7082 120.591C88.5038 118.536 87.9484 116.164 88.1148 113.787C88.1374 113.43 88.1854 113.074 88.2585 112.723C88.2744 112.592 88.3076 112.464 88.3572 112.342C88.3976 112.342 88.3123 112.898 88.2809 113.796C88.2059 116.139 88.7476 118.461 89.8518 120.529C90.2737 121.305 90.6014 121.758 90.5654 121.785Z" fill="#263238"/>
<path d="M37.7465 102.176C37.7465 102.176 37.6882 102.198 37.5805 102.212C37.4185 102.238 37.2552 102.254 37.0913 102.261C36.4892 102.286 35.8863 102.238 35.2959 102.117C34.419 101.941 33.5631 101.673 32.7421 101.318C31.813 100.932 30.8255 100.421 29.7932 99.9226C28.8269 99.4372 27.8263 99.0232 26.7995 98.6838C25.9663 98.404 25.1003 98.2335 24.2232 98.1766C23.4108 98.1502 22.5988 98.2424 21.813 98.4504C21.8612 98.4183 21.9142 98.3941 21.9701 98.3786C22.1155 98.315 22.2656 98.2624 22.4189 98.2215C23.0039 98.0648 23.6089 97.9952 24.2142 98.015C25.1104 98.0431 25.9984 98.1941 26.8534 98.4639C27.8934 98.7985 28.905 99.2157 29.8785 99.7116C30.9153 100.223 31.8938 100.726 32.8094 101.116C33.6154 101.475 34.4542 101.754 35.3139 101.951C36.1141 102.115 36.9299 102.19 37.7465 102.176Z" fill="#FAFAFA"/>
<path d="M43.317 101.085C42.4548 101.347 41.5719 101.537 40.6779 101.65C39.7921 101.843 38.8908 101.956 37.9849 101.987C38.8471 101.725 39.7299 101.535 40.624 101.422C41.5097 101.228 42.411 101.116 43.317 101.085Z" fill="#FAFAFA"/>
<path d="M37.545 110.717C37.3384 110.833 37.1203 110.928 36.8942 111C36.4678 111.166 35.8439 111.39 35.0674 111.641C33.037 112.293 30.9646 112.806 28.8646 113.176C27.6348 113.392 26.4543 113.549 25.3771 113.657C24.4217 113.78 23.4562 113.806 22.4956 113.733C21.844 113.68 21.2094 113.499 20.6285 113.199C20.4706 113.117 20.3203 113.021 20.1797 112.912C20.1279 112.876 20.0811 112.834 20.0405 112.786C20.0405 112.786 20.256 112.925 20.6644 113.118C21.2462 113.381 21.8717 113.533 22.5091 113.567C23.458 113.616 24.4094 113.574 25.3502 113.441C26.4229 113.32 27.5944 113.158 28.8197 112.943C30.9098 112.572 32.9777 112.085 35.0136 111.484C35.7946 111.251 36.4229 111.035 36.8583 110.914C37.082 110.832 37.3115 110.766 37.545 110.717Z" fill="#FAFAFA"/>
<path d="M43.1686 113.083C42.3599 113.211 41.541 113.264 40.7225 113.24C39.9065 113.291 39.0875 113.266 38.2764 113.163C39.0851 113.035 39.904 112.982 40.7225 113.006C41.5385 112.955 42.3575 112.98 43.1686 113.083Z" fill="#FAFAFA"/>
<path d="M20.0718 133.531C20.077 133.448 20.0936 133.367 20.1211 133.288C20.166 133.109 20.2289 132.889 20.3007 132.615L20.4353 132.13C20.4937 131.955 20.57 131.771 20.6418 131.569C20.8032 131.111 20.989 130.662 21.1983 130.223L21.5619 129.455C21.6921 129.186 21.8581 128.926 22.0107 128.648C22.3492 128.059 22.7178 127.488 23.1149 126.937C24.9485 124.402 27.3393 122.322 30.1032 120.856C30.7043 120.538 31.3215 120.252 31.9524 119.999C32.2531 119.886 32.5314 119.756 32.8141 119.666L33.6265 119.411C34.0919 119.262 34.5655 119.141 35.0448 119.047C35.2558 119.002 35.4488 118.953 35.6283 118.921L36.131 118.854L36.8222 118.769C36.9026 118.757 36.9842 118.757 37.0646 118.769C36.988 118.798 36.9081 118.818 36.8267 118.827L36.1445 118.957L35.6508 119.042L35.0718 119.186C34.6588 119.298 34.1741 119.393 33.6759 119.581L32.877 119.85C32.5987 119.945 32.3204 120.075 32.0287 120.192C31.4071 120.449 30.7989 120.739 30.2064 121.058C28.8567 121.804 27.586 122.686 26.4138 123.688C25.2559 124.71 24.2034 125.845 23.2719 127.077C22.868 127.66 22.4685 128.208 22.1633 128.76C22.0062 129.034 21.8402 129.289 21.7145 129.554L21.3375 130.308C21.0816 130.784 20.9246 131.242 20.754 131.655C20.6777 131.852 20.5969 132.036 20.5341 132.207L20.377 132.683L20.157 133.342C20.1356 133.408 20.107 133.471 20.0718 133.531Z" fill="#FAFAFA"/>
<path d="M42.5801 119.743C41.8294 120.395 41.2055 121.18 40.7399 122.059C40.2503 123.02 39.9026 124.046 39.7076 125.107C39.4755 126.411 39.3255 127.729 39.2587 129.052C39.2028 130.385 39.0529 131.712 38.8099 133.024C38.5901 134.099 38.2103 135.136 37.6833 136.099C37.3314 136.744 36.8766 137.328 36.3368 137.827C36.1898 137.963 36.0322 138.088 35.8656 138.199C35.7534 138.275 35.6905 138.316 35.686 138.307C36.4503 137.669 37.0869 136.892 37.5622 136.018C38.0594 135.063 38.4162 134.041 38.6214 132.984C38.8603 131.68 39.0103 130.362 39.0702 129.038C39.1285 127.704 39.2785 126.376 39.5191 125.062C39.7281 123.986 40.0972 122.949 40.6142 121.983C40.967 121.331 41.4215 120.74 41.9607 120.232C42.1019 120.097 42.2519 119.971 42.4095 119.855C42.4614 119.811 42.5187 119.773 42.5801 119.743Z" fill="#FAFAFA"/>
<path d="M50.2422 138.589C50.1794 138.589 50.2422 134.72 50.4083 129.954C50.5743 125.187 50.7449 121.323 50.8077 121.323C50.8706 121.323 50.8077 125.192 50.6417 129.963C50.4756 134.734 50.305 138.594 50.2422 138.589Z" fill="#FAFAFA"/>
<path d="M62.4234 137.925C62.3389 137.745 62.2728 137.557 62.2259 137.364C62.1531 137.143 62.0917 136.918 62.0419 136.691C61.9836 136.426 61.9028 136.125 61.8534 135.793C61.7138 135.001 61.6343 134.2 61.6155 133.396C61.5714 131.421 61.8753 129.454 62.5132 127.584C62.7732 126.822 63.0898 126.081 63.4602 125.367C63.6083 125.057 63.7744 124.797 63.9091 124.563C64.0231 124.36 64.149 124.164 64.2861 123.975C64.3862 123.804 64.5051 123.644 64.6407 123.5C64.6811 123.522 64.1918 124.218 63.6039 125.443C63.255 126.158 62.9551 126.896 62.7062 127.651C62.0914 129.502 61.788 131.442 61.8085 133.392C61.8187 134.186 61.8802 134.979 61.9925 135.766C62.217 137.104 62.4683 137.912 62.4234 137.925Z" fill="#FAFAFA"/>
<path d="M41.7371 88.3203C41.7371 88.3563 41.028 88.0466 39.861 87.6695C36.8215 86.6883 33.6002 86.403 30.4355 86.8347C29.2237 87.0008 28.4831 87.1893 28.4741 87.1489C28.6351 87.0713 28.8056 87.0154 28.9813 86.9828C29.4509 86.853 29.9274 86.7496 30.4086 86.6731C33.5973 86.1433 36.8683 86.4321 39.9149 87.5124C40.3726 87.6739 40.822 87.8582 41.2614 88.0645C41.4299 88.1299 41.5897 88.2158 41.7371 88.3203Z" fill="#FAFAFA"/>
<path d="M77.1943 107.211C76.6393 107.24 76.083 107.231 75.5292 107.185C74.5013 107.144 73.083 107.09 71.5166 107.054C69.9502 107.018 68.5319 106.996 67.504 106.987C66.9483 107.005 66.392 106.985 65.8389 106.929C65.986 106.894 66.1365 106.876 66.2877 106.875C66.575 106.875 66.9924 106.834 67.5085 106.821C68.5364 106.79 69.9547 106.781 71.5256 106.821C73.0965 106.861 74.5148 106.942 75.5651 107.027C76.0767 107.068 76.4897 107.104 76.7769 107.14C76.9182 107.149 77.0582 107.173 77.1943 107.211Z" fill="#FAFAFA"/>
<path d="M86.055 105.511C86.055 105.551 85.494 105.744 84.6188 106.175C82.3293 107.301 80.3898 109.03 79.0084 111.175C78.4787 111.996 78.2229 112.544 78.187 112.522C78.212 112.38 78.2605 112.243 78.3306 112.118C78.4879 111.761 78.6678 111.415 78.8692 111.081C79.5276 109.971 80.3543 108.97 81.3199 108.114C82.2828 107.255 83.371 106.548 84.547 106.018C84.9018 105.858 85.266 105.72 85.6376 105.605C85.7721 105.556 85.9124 105.524 86.055 105.511Z" fill="#FAFAFA"/>
<path d="M81.6828 91.1254C80.91 91.0989 80.1385 91.2067 79.4027 91.4441C78.6084 91.7214 77.8383 92.0637 77.1002 92.4674C76.189 92.9725 75.2371 93.4004 74.2546 93.7466C72.4384 94.3285 70.5067 94.4534 68.6307 94.1101C68.0669 94.0078 67.5128 93.8576 66.9745 93.6613C66.7732 93.5982 66.5791 93.514 66.3955 93.41C66.3955 93.3651 67.2393 93.7196 68.6397 93.9485C70.4895 94.2374 72.3812 94.0914 74.1648 93.5222C75.1362 93.1785 76.0799 92.7614 76.988 92.2744C77.7393 91.8756 78.5249 91.5452 79.3354 91.287C79.8865 91.112 80.4627 91.0286 81.0409 91.0401C81.1914 91.0445 81.3414 91.0595 81.4897 91.085C81.6289 91.103 81.6872 91.1164 81.6828 91.1254Z" fill="#FAFAFA"/>
<path d="M79.4432 121.206C79.2804 121.309 79.1055 121.392 78.9225 121.453C78.7519 121.525 78.541 121.61 78.2897 121.691C78.0383 121.771 77.7555 121.879 77.4369 121.96C76.6853 122.169 75.9206 122.328 75.1478 122.436C74.2015 122.558 73.2472 122.608 72.2933 122.584C71.3396 122.548 70.39 122.442 69.4521 122.265C68.691 122.111 67.9412 121.906 67.208 121.65C66.8893 121.551 66.6155 121.43 66.3731 121.332C66.1308 121.233 65.9243 121.139 65.7538 121.058C65.5752 120.983 65.4052 120.89 65.2466 120.779C65.2466 120.739 66.0051 121.098 67.2618 121.493C67.9977 121.725 68.7472 121.911 69.506 122.05C71.3624 122.393 73.2605 122.451 75.1344 122.22C75.8993 122.126 76.6578 121.985 77.4055 121.798C78.6712 121.475 79.4297 121.165 79.4432 121.206Z" fill="#FAFAFA"/>
<path d="M89.7579 134.492C89.6938 134.451 89.635 134.403 89.5828 134.348C89.4796 134.245 89.309 134.106 89.134 133.899C88.592 133.32 88.1163 132.681 87.7157 131.996C86.4204 129.701 85.7315 127.114 85.7139 124.478C85.7168 121.861 86.0593 119.256 86.7327 116.727C86.9751 115.757 87.1816 114.976 87.3476 114.442C87.4239 114.195 87.4868 113.994 87.5361 113.827C87.5855 113.661 87.608 113.612 87.6169 113.616C87.616 113.691 87.6039 113.765 87.581 113.836C87.5451 114.007 87.4957 114.213 87.4374 114.465C87.3027 115.044 87.1187 115.811 86.8943 116.767C86.2748 119.288 85.9598 121.874 85.9562 124.469C85.9707 127.062 86.6194 129.613 87.8458 131.897C88.2304 132.582 88.6814 133.227 89.1923 133.823C89.5469 134.254 89.7713 134.474 89.7579 134.492Z" fill="#FAFAFA"/>
<path d="M106.091 119.249C105.374 118.68 104.573 118.226 103.716 117.903C102.78 117.579 101.819 117.328 100.844 117.153C99.6322 116.949 98.4334 116.675 97.2533 116.332C95.1224 115.639 93.1776 114.469 91.5666 112.912C91.0807 112.442 90.6306 111.936 90.2201 111.399C90.072 111.211 89.9732 111.053 89.9014 110.95C89.8296 110.847 89.7982 110.789 89.8072 110.784C89.9807 110.959 90.1426 111.145 90.2919 111.341C90.7226 111.853 91.1859 112.337 91.6788 112.79C93.2968 114.292 95.2219 115.424 97.3206 116.107C98.4885 116.448 99.6736 116.727 100.871 116.942C101.855 117.131 102.821 117.4 103.761 117.746C104.396 117.986 104.992 118.318 105.53 118.733C105.677 118.843 105.815 118.965 105.943 119.097C106.055 119.195 106.1 119.245 106.091 119.249Z" fill="#FAFAFA"/>
<path d="M111.225 104.272C111.052 104.148 110.891 104.008 110.745 103.854C110.597 103.715 110.417 103.545 110.193 103.356C109.968 103.167 109.744 102.943 109.439 102.728C108.776 102.193 108.08 101.7 107.356 101.251C105.58 100.153 103.65 99.3266 101.629 98.8003C100.803 98.5878 99.9651 98.4244 99.1198 98.3111C98.7608 98.2528 98.4331 98.2303 98.1459 98.2034C97.8586 98.1765 97.6073 98.154 97.4053 98.1451C97.1931 98.1441 96.9813 98.1246 96.7725 98.0867C96.9818 98.0543 97.1938 98.0438 97.4053 98.0553C97.655 98.0428 97.9052 98.0428 98.1549 98.0553C98.4421 98.0553 98.7787 98.0777 99.1423 98.1271C99.9966 98.2205 100.844 98.3705 101.678 98.5759C102.701 98.838 103.703 99.174 104.676 99.5813C105.642 100.002 106.575 100.494 107.468 101.053C108.194 101.517 108.888 102.028 109.546 102.584C109.833 102.813 110.067 103.033 110.282 103.248C110.466 103.416 110.642 103.592 110.807 103.778C110.964 103.927 111.104 104.093 111.225 104.272Z" fill="#FAFAFA"/>
<path d="M71.9522 83.6702C71.6887 83.846 71.4015 83.9835 71.0994 84.0786C70.3913 84.3563 69.6637 84.5813 68.9225 84.7519C68.1842 84.9258 67.4342 85.0458 66.6784 85.1109C66.366 85.1583 66.0482 85.1583 65.7358 85.1109C65.7358 85.0391 67.1586 84.9224 68.8777 84.514C70.5967 84.1055 71.9252 83.6028 71.9522 83.6702Z" fill="#FAFAFA"/>
<path d="M78.8912 138.212C78.8912 138.212 79.0124 138.266 79.2009 138.396L79.551 138.639C79.7174 138.743 79.8684 138.87 79.9999 139.016C80.1553 139.194 80.2769 139.4 80.3589 139.622C80.4397 139.86 80.525 140.102 80.6148 140.358L81.1893 142.045C81.5887 143.248 81.9388 144.334 82.1812 145.129C82.3345 145.55 82.4501 145.984 82.5268 146.426C82.323 146.026 82.1548 145.608 82.0241 145.178C81.7413 144.397 81.3643 143.32 80.9648 142.122C80.7718 141.525 80.5833 140.955 80.4083 140.43C80.3275 140.169 80.2512 139.922 80.1749 139.689C80.1077 139.483 80.006 139.291 79.8742 139.119C79.7606 138.979 79.631 138.852 79.4882 138.742L79.165 138.468C78.972 138.316 78.8823 138.226 78.8912 138.212Z" fill="#EB996E"/>
<path d="M85.2063 146.403C85.1394 146.26 85.0897 146.11 85.0582 145.955L84.7215 144.752C84.4343 143.737 84.0528 142.333 83.5636 140.802C83.0743 139.271 82.5627 137.907 81.9478 137.063C81.7184 136.726 81.4276 136.435 81.0905 136.206C80.8436 136.053 80.6865 136.008 80.691 135.982C80.7325 135.981 80.7738 135.988 80.8122 136.004C80.924 136.033 81.0323 136.073 81.1354 136.125C81.5081 136.333 81.8312 136.619 82.0824 136.964C82.7512 137.817 83.2898 139.209 83.7835 140.73C84.2772 142.252 84.6363 143.683 84.8786 144.711C84.9998 145.223 85.0896 145.64 85.1479 145.932C85.191 146.085 85.2107 146.244 85.2063 146.403Z" fill="#EB996E"/>
<path d="M87.9177 147.041C87.8367 146.892 87.7748 146.734 87.7337 146.57C87.6215 146.21 87.4823 145.775 87.3163 145.259C86.9751 144.15 86.5218 142.615 86.0326 140.919C85.5434 139.222 85.1349 137.732 84.7983 136.565C84.6823 136.133 84.4306 135.749 84.0802 135.47C83.9381 135.378 83.7879 135.3 83.6313 135.237C83.6756 135.226 83.7217 135.226 83.766 135.237C83.8919 135.265 84.0119 135.315 84.1206 135.385C84.5125 135.654 84.8019 136.048 84.9419 136.502C85.31 137.611 85.7454 139.146 86.2436 140.842C86.7418 142.539 87.1637 144.087 87.4644 145.205C87.599 145.726 87.7157 146.17 87.8055 146.552C87.8599 146.71 87.8975 146.874 87.9177 147.041Z" fill="#EB996E"/>
<path d="M111.957 142H45L55.9066 149.89V165.375C55.9066 165.8 55.9904 166.221 56.1531 166.613C56.3157 167.005 56.5542 167.362 56.8547 167.662C57.1553 167.962 57.5121 168.2 57.9047 168.362C58.2973 168.524 58.718 168.607 59.1427 168.607H111.957C112.382 168.607 112.802 168.524 113.195 168.362C113.588 168.2 113.944 167.962 114.245 167.662C114.545 167.362 114.784 167.005 114.947 166.613C115.109 166.221 115.193 165.8 115.193 165.375V145.232C115.192 144.374 114.85 143.552 114.244 142.946C113.637 142.34 112.814 142 111.957 142Z" fill="#F5F5F5"/>
<path d="M77.8946 155.474V163.053H84.5258V155.474H77.8946ZM85.4731 155.474V163.053H92.1042V155.474H85.4731ZM93.0515 155.474V164H76.9473V155.474H76V149.79H78.8751L78.8419 149.317C78.8417 148.592 79.0791 147.887 79.5177 147.309C79.9564 146.732 80.5722 146.315 81.2708 146.121C81.9694 145.927 82.7123 145.967 83.3857 146.236C84.0592 146.504 84.626 146.986 84.9994 147.608C85.3729 146.986 85.9397 146.504 86.6131 146.236C87.2865 145.967 88.0294 145.927 88.728 146.121C89.4266 146.315 90.0424 146.732 90.4811 147.309C90.9198 147.887 91.1572 148.592 91.1569 149.317L91.1238 149.79H93.9988V155.474H93.0515ZM76.9473 150.738V154.527H84.5258V150.738H76.9473ZM93.0515 154.527V150.738H85.4731V154.527H93.0515ZM90.1622 149.79L90.2096 149.317C90.2096 148.689 89.9601 148.086 89.516 147.642C89.0718 147.198 88.4694 146.948 87.8413 146.948C87.2132 146.948 86.6109 147.198 86.1667 147.642C85.7226 148.086 85.4731 148.689 85.4731 149.317V149.79H90.1622ZM84.5258 149.79V149.317C84.5258 148.689 84.2763 148.086 83.8321 147.642C83.388 147.198 82.7856 146.948 82.1575 146.948C81.5294 146.948 80.927 147.198 80.4829 147.642C80.0387 148.086 79.7892 148.689 79.7892 149.317L79.8366 149.79H84.5258Z" fill="#333333"/>
<path d="M87.8721 146.884C87.9305 147.084 87.9377 147.296 87.8931 147.499C87.8486 147.703 87.7536 147.892 87.617 148.05C87.4804 148.208 87.3065 148.328 87.1111 148.402C86.9158 148.475 86.7052 148.497 86.4987 148.468C86.2593 148.434 86.035 148.331 85.8533 148.172C85.6715 148.012 85.5402 147.803 85.4754 147.57L85.0939 146.161H85.1522C85.1911 146.365 85.1811 146.574 85.1229 146.773C85.0646 146.972 84.96 147.154 84.8175 147.305C84.6749 147.455 84.4987 147.569 84.3033 147.638C84.1078 147.707 83.8988 147.729 83.6935 147.701C83.1055 147.701 82.5984 146.843 82.4278 146.39C81.984 146.433 81.5368 146.354 81.1349 146.161C80.733 145.968 80.3916 145.668 80.1477 145.295L77.5131 141.184L72.6343 137.615L75.5876 127.072L86.0858 133.868C86.4987 134.191 86.5615 134.316 87.2168 134.931L93.9942 141.166C93.2267 141.614 92.5759 141.592 91.5077 141.166C90.4395 140.739 85.7626 137.575 85.7626 137.575L87.8721 146.843" fill="#FFBE9D"/>
</svg>
