<svg width="24" height="46" viewBox="0 0 24 46" fill="none" xmlns="http://www.w3.org/2000/svg">
<path d="M16.9284 33.7649C18.8038 33.7649 20.6025 33.0397 21.9286 31.749C23.2548 30.4583 23.9998 28.7078 23.9998 26.8824C23.9998 25.0571 23.2548 23.3065 21.9286 22.0158C20.6025 20.7251 18.8038 20 16.9284 20C15.0529 20 13.2543 20.7251 11.9281 22.0158C10.602 23.3065 9.85693 25.0571 9.85693 26.8824C9.85693 28.7078 10.602 30.4583 11.9281 31.749C13.2543 33.0397 15.0529 33.7649 16.9284 33.7649ZM20.6275 25.1297L15.9132 29.718C15.8402 29.7892 15.7535 29.8457 15.6581 29.8843C15.5626 29.9228 15.4603 29.9426 15.3569 29.9426C15.2536 29.9426 15.1513 29.9228 15.0558 29.8843C14.9603 29.8457 14.8736 29.7892 14.8006 29.718L13.2292 28.1886C13.0817 28.045 12.9988 27.8502 12.9988 27.6471C12.9988 27.4441 13.0817 27.2493 13.2292 27.1057C13.3768 26.9621 13.5769 26.8815 13.7855 26.8815C13.9942 26.8815 14.1943 26.9621 14.3418 27.1057L15.3569 28.0953L19.5149 24.0469C19.6625 23.9033 19.8626 23.8226 20.0712 23.8226C20.2799 23.8226 20.48 23.9033 20.6275 24.0469C20.775 24.1905 20.8579 24.3852 20.8579 24.5883C20.8579 24.7914 20.775 24.9861 20.6275 25.1297Z" fill="white"/>
<path d="M17.4707 35.2791C16.9017 35.3122 16.3307 35.2917 15.7657 35.2179L10.6429 43.7231V35.0894C10.9424 34.9211 11.1766 34.6613 11.309 34.3502C11.4413 34.0392 11.4646 33.6943 11.375 33.3691C11.2855 33.0439 11.0882 32.7565 10.8138 32.5515C10.5393 32.3466 10.2031 32.2355 9.85714 32.2355C9.51122 32.2355 9.17496 32.3466 8.90052 32.5515C8.62608 32.7565 8.42879 33.0439 8.33926 33.3691C8.24973 33.6943 8.27295 34.0392 8.40533 34.3502C8.53771 34.6613 8.77185 34.9211 9.07143 35.0894V43.7231L3.91086 35.1567C3.71675 34.8345 3.60641 34.4711 3.58943 34.0979C3.57245 33.7247 3.64935 33.3532 3.81343 33.0155L6.42514 27.6473H8.32029C8.27317 27.1385 8.27317 26.6266 8.32029 26.1178H4.35714C4.14876 26.1178 3.94891 26.0373 3.80156 25.8938C3.65421 25.7504 3.57143 25.5559 3.57143 25.3531V22.2943C3.57143 22.0914 3.48865 21.8969 3.3413 21.7535C3.19395 21.6101 2.9941 21.5295 2.78571 21.5295C2.57733 21.5295 2.37748 21.6101 2.23013 21.7535C2.08278 21.8969 2 22.0914 2 22.2943V25.3531C2 25.9616 2.24834 26.5451 2.69039 26.9753C3.13244 27.4055 3.73199 27.6473 4.35714 27.6473H4.68714L2.39286 32.3579C2.11886 32.9209 1.99037 33.5406 2.01858 34.163C2.04679 34.7854 2.23084 35.3917 2.55471 35.9291L7.99657 44.9634C8.18698 45.2791 8.45884 45.5408 8.7852 45.7226C9.11156 45.9044 9.48108 46.0001 9.85714 46.0001C10.2332 46.0001 10.6027 45.9044 10.9291 45.7226C11.2554 45.5408 11.5273 45.2791 11.7177 44.9634L17.1596 35.9291C17.2853 35.7196 17.389 35.5009 17.4707 35.2776V35.2791Z" fill="white"/>
<path d="M6.92965 2.96989L2.96985 6.92969C1.33198 8.56756 1.33198 11.2315 2.96985 12.8694L9.40452 19.3041C9.5358 19.4353 9.71384 19.5091 9.8995 19.5091C10.0851 19.5091 10.2632 19.4353 10.3945 19.3041L16.8291 12.8694C18.467 11.2315 18.467 8.56756 16.8291 6.92969L12.8693 2.96989C11.2315 1.33202 8.56752 1.33202 6.92965 2.96989ZM12.8693 7.91964L10.8894 9.89954L12.8693 11.8794L11.8794 12.8694L9.89949 10.8895L7.9196 12.8694L6.92965 11.8794L8.90954 9.89954L6.92965 7.91964L7.9196 6.92969L9.89949 8.90959L11.8794 6.92969L12.8693 7.91964Z" fill="white"/>
</svg>
