<svg width="24" height="24" viewBox="0 0 24 24" fill="none" xmlns="http://www.w3.org/2000/svg">
<path d="M12.8615 16.6087L11.6668 14.8167L9.3335 18.3167H19.8335L15.7502 12.4834L12.8615 16.6087Z" fill="#333333"/>
<path d="M8.2867 8.74992C9.25513 8.74992 10.0402 7.96485 10.0402 6.99642C10.0402 6.02799 9.25513 5.24292 8.2867 5.24292C7.31827 5.24292 6.5332 6.02799 6.5332 6.99642C6.5332 7.96485 7.31827 8.74992 8.2867 8.74992Z" fill="#333333"/>
<path d="M22.1667 2.33325H7C5.593 2.33325 3.5 3.26542 3.5 5.83325V22.1666C3.5 24.7344 5.593 25.6666 7 25.6666H24.5V23.3333H7.014C6.475 23.3193 5.83333 23.1069 5.83333 22.1666C5.83333 21.2263 6.475 21.0139 7.014 20.9999H24.5V4.66659C24.5 3.37975 23.4535 2.33325 22.1667 2.33325ZM22.1667 18.6666H5.83333V5.83325C5.83333 4.89292 6.475 4.68059 7 4.66659H22.1667V18.6666Z" fill="#333333"/>
</svg>
