<svg width="24" height="24" viewBox="0 0 24 24" fill="none" xmlns="http://www.w3.org/2000/svg">
<path d="M9.80733 13.4596L8.55577 11.77L6.11133 15.07H17.1113L12.8336 9.57001L9.80733 13.4596Z" fill="#333333"/>
<path d="M5.01473 6.05001C6.02928 6.05001 6.85173 5.3098 6.85173 4.39671C6.85173 3.48362 6.02928 2.74341 5.01473 2.74341C4.00019 2.74341 3.17773 3.48362 3.17773 4.39671C3.17773 5.3098 4.00019 6.05001 5.01473 6.05001Z" fill="#333333"/>
<path d="M19.5556 0H3.66667C2.19267 0 0 0.8789 0 3.3V18.7C0 21.1211 2.19267 22 3.66667 22H22V19.8H3.68133C3.11667 19.7868 2.44444 19.5866 2.44444 18.7C2.44444 17.8134 3.11667 17.6132 3.68133 17.6H22V2.2C22 0.9867 20.9037 0 19.5556 0ZM19.5556 15.4H2.44444V3.3C2.44444 2.4134 3.11667 2.2132 3.66667 2.2H19.5556V15.4Z" fill="#333333"/>
</svg>
