<svg width="24" height="24" viewBox="0 0 24 24" fill="none" xmlns="http://www.w3.org/2000/svg">
<path d="M11.0004 9.71664C11.5676 9.71664 12.1115 9.44623 12.5126 8.96489C12.9137 8.48354 13.139 7.8307 13.139 7.14998C13.139 6.46926 12.9137 5.81642 12.5126 5.33507C12.1115 4.85373 11.5676 4.58331 11.0004 4.58331C10.4332 4.58331 9.88923 4.85373 9.48817 5.33507C9.0871 5.81642 8.86178 6.46926 8.86178 7.14998C8.86178 7.8307 9.0871 8.48354 9.48817 8.96489C9.88923 9.44623 10.4332 9.71664 11.0004 9.71664ZM8.14892 8.86109C8.14892 9.3149 7.9987 9.75013 7.73133 10.071C7.46395 10.3919 7.10131 10.5722 6.72318 10.5722C6.34505 10.5722 5.98241 10.3919 5.71503 10.071C5.44766 9.75013 5.29744 9.3149 5.29744 8.86109C5.29744 8.40727 5.44766 7.97205 5.71503 7.65115C5.98241 7.33026 6.34505 7.14998 6.72318 7.14998C7.10131 7.14998 7.46395 7.33026 7.73133 7.65115C7.9987 7.97205 8.14892 8.40727 8.14892 8.86109ZM4.93388 15.1289C4.81219 15.0459 4.72105 14.9108 4.67868 14.7507C4.55307 14.2625 4.55175 13.7404 4.67489 13.2512C4.79803 12.7621 5.04002 12.3282 5.36987 12.0051C5.69972 11.682 6.10241 11.4844 6.52639 11.4376C6.95036 11.3909 7.37632 11.4971 7.74971 11.7426C6.9824 12.6476 6.50214 13.8454 6.3917 15.1297C6.3753 15.3197 6.38172 15.5079 6.40952 15.6893C5.88924 15.6353 5.38534 15.4439 4.93388 15.1289ZM15.5913 15.6884C16.1115 15.6347 16.6154 15.4436 17.0669 15.1289C17.1883 15.0457 17.2792 14.9107 17.3214 14.7507C17.4472 14.2624 17.4487 13.7402 17.3256 13.2509C17.2026 12.7616 16.9606 12.3275 16.6307 12.0043C16.3008 11.6811 15.898 11.4834 15.4739 11.4366C15.0499 11.3898 14.6238 11.4961 14.2504 11.7417C15.0183 12.6467 15.4991 13.8449 15.6098 15.1297C15.6257 15.3164 15.6194 15.5048 15.5913 15.6893V15.6884ZM16.7033 8.86109C16.7033 9.3149 16.5531 9.75013 16.2857 10.071C16.0184 10.3919 15.6557 10.5722 15.2776 10.5722C14.8995 10.5722 14.5368 10.3919 14.2694 10.071C14.0021 9.75013 13.8519 9.3149 13.8519 8.86109C13.8519 8.40727 14.0021 7.97205 14.2694 7.65115C14.5368 7.33026 14.8995 7.14998 15.2776 7.14998C15.6557 7.14998 16.0184 7.33026 16.2857 7.65115C16.5531 7.97205 16.7033 8.40727 16.7033 8.86109ZM7.65276 15.8681C7.58245 15.7925 7.52795 15.6982 7.49365 15.5926C7.45934 15.4871 7.44621 15.3734 7.4553 15.2606C7.54597 14.2079 7.95861 13.2328 8.61346 12.5239C9.26831 11.8151 10.1189 11.4227 11.0007 11.4227C11.8826 11.4227 12.7332 11.8151 13.388 12.5239C14.0429 13.2328 14.4555 14.2079 14.5462 15.2606C14.5553 15.3734 14.5422 15.4871 14.5079 15.5927C14.4736 15.6982 14.4191 15.7926 14.3487 15.8681C13.4321 16.8665 12.2382 17.4186 11.0004 17.4166C9.76281 17.4185 8.56914 16.8663 7.65276 15.8681Z" fill="#333333"/>
<circle cx="11" cy="11" r="10.5" stroke="#333333"/>
</svg>
