<svg width="24" height="24" viewBox="0 0 24 24" fill="none" xmlns="http://www.w3.org/2000/svg">
<path d="M19.2002 12.0001C19.2025 10.5893 18.7884 9.20926 18.0098 8.03286V12.0001H16.8098V6.64206C16.1 6.00371 15.2703 5.51298 14.369 5.19846V12.0001H13.169V4.89486C12.3877 4.76725 11.5907 4.76846 10.8098 4.89846V12.0001H9.60979V5.20686C8.71219 5.52246 7.89499 6.01086 7.20019 6.63366V12.0001H6.00019V8.01846C5.37931 8.95446 4.98604 10.0227 4.8518 11.1379C4.71755 12.253 4.84607 13.3841 5.22707 14.4407C5.60807 15.4973 6.23098 16.4501 7.04602 17.223C7.86105 17.9958 8.84559 18.5673 9.92094 18.8916C10.9963 19.216 12.1326 19.2843 13.239 19.091C14.3455 18.8978 15.3914 18.4483 16.2931 17.7786C17.1948 17.1089 17.9273 16.2376 18.4321 15.2342C18.9369 14.2308 19.1999 13.1233 19.2002 12.0001Z" fill="#333333"/>
<path fill-rule="evenodd" clip-rule="evenodd" d="M12 0C18.6276 0 24 5.3724 24 12C24 18.6276 18.6276 24 12 24C5.3724 24 0 18.6276 0 12C0 5.3724 5.3724 0 12 0ZM2.4 12C2.4 9.45392 3.41142 7.01212 5.21177 5.21178C7.01212 3.41143 9.45392 2.4 12 2.4C14.5461 2.4 16.9879 3.41143 18.7882 5.21178C20.5886 7.01212 21.6 9.45392 21.6 12C21.6 14.5461 20.5886 16.9879 18.7882 18.7882C16.9879 20.5886 14.5461 21.6 12 21.6C9.45392 21.6 7.01212 20.5886 5.21177 18.7882C3.41142 16.9879 2.4 14.5461 2.4 12Z" fill="#333333"/>
</svg>
