<svg width="24" height="24" viewBox="0 0 24 24" fill="none" xmlns="http://www.w3.org/2000/svg">
<path d="M1.17205 22H22.828C23.7278 22 24.2888 20.9857 23.8447 20.1669L13.0109 0.613782C12.9091 0.427342 12.762 0.272365 12.5845 0.164571C12.4069 0.0567768 12.2053 0 12 0C11.7947 0 11.5931 0.0567768 11.4155 0.164571C11.238 0.272365 11.0909 0.427342 10.9891 0.613782L0.155286 20.1669C-0.288817 20.9857 0.272156 22 1.17205 22V22ZM13.1745 18.3338H10.8372V15.8897H13.1745V18.3338ZM12.0058 13.4455C11.3631 13.4455 10.8372 12.8956 10.8372 12.2234V9.7793C10.8372 9.10716 11.3631 8.55723 12.0058 8.55723C12.6486 8.55723 13.1745 9.10716 13.1745 9.7793V12.2234C13.1745 12.8956 12.6486 13.4455 12.0058 13.4455Z" fill="#333333"/>
</svg>
