<svg width="141" height="150" viewBox="0 0 141 150" fill="none" xmlns="http://www.w3.org/2000/svg">
<path d="M33.0386 5.14732L29.1508 3.98678C24.4448 2.34461 20.5512 3.6096 18.0039 6.78948C15.4565 9.96936 14.47 14.1879 14.6151 18.2614C14.7079 20.8842 15.1953 23.6463 14.1567 26.0486C13.4873 27.3517 12.6157 28.5405 11.5745 29.5709C10.5308 30.6044 9.7197 31.8487 9.19536 33.2208C8.76016 34.6192 8.97486 36.3136 10.089 37.2826C10.6116 37.6155 11.0961 38.0046 11.5338 38.4432C12.0561 39.1163 12.0097 40.0563 12.0619 40.9093C12.1789 42.934 12.9768 44.8597 14.326 46.3738C15.6752 47.888 17.4965 48.9017 19.4943 49.2505C21.4922 49.5992 23.5492 49.2626 25.3316 48.2951C27.1141 47.3277 28.5172 45.7862 29.3133 43.9209C30.4738 41.2575 30.2417 38.2459 30.1257 35.3561C29.7189 25.2009 30.6989 15.0377 33.0386 5.14732Z" fill="#263238"/>
<path d="M41.4754 0.406509C38.1099 -0.591554 34.9358 0.371692 31.8081 1.95583C28.6807 3.60216 26.1315 6.16552 24.5026 9.30204C22.7113 12.5698 22.0349 16.3326 22.5761 20.0196C22.8631 21.846 23.5163 23.5955 24.4965 25.1631C25.4767 26.7306 26.7637 28.0838 28.2801 29.1415C32.4755 31.9442 38.2781 31.8397 42.636 29.2981C46.9938 26.7565 49.8777 22.0332 50.6727 17.0544C51.2678 13.6018 50.7624 10.0494 49.2278 6.89973C48.4516 5.34062 47.3627 3.95799 46.029 2.8379C44.6952 1.71782 43.1452 0.884254 41.4754 0.389102" fill="#263238"/>
<path d="M30.3052 10.9094C30.9609 9.65599 30.9435 8.1647 31.3091 6.79526C32.1157 3.78366 34.8778 1.62506 37.8778 0.772061C40.6688 -0.0229078 43.8835 0.609588 46.9648 2.02545C49.1058 2.96805 50.935 4.49943 52.2394 6.4413C53.06 7.75251 53.5547 9.2412 53.6819 10.7828C53.8091 12.3244 53.5652 13.874 52.9706 15.302L37.5702 11.1531C35.9571 12.1918 34.3033 13.2479 32.4406 13.7121C31.9005 13.8778 31.3265 13.8998 30.7753 13.7759C30.4986 13.7106 30.2469 13.566 30.0511 13.3599C29.8553 13.1538 29.7238 12.895 29.6727 12.6154C29.6031 11.9945 30.0209 11.4548 30.3052 10.9094Z" fill="#263238"/>
<path d="M46.7853 6.3949L32.7486 7.67149C32.1037 7.6336 31.4683 7.84105 30.97 8.25219C30.4717 8.66333 30.1473 9.24775 30.062 9.88812L26.6732 39.5399C26.4464 41.5598 26.8888 43.5984 27.9324 45.3426L29.0349 47.182C31.5533 51.3774 37.6345 51.714 40.4198 47.6927C40.5868 47.4659 40.7234 47.2181 40.826 46.9557C40.9116 46.7426 40.9814 46.5234 41.0349 46.3L41.6152 43.4451C42.0678 40.8223 42.4043 38.1414 42.4043 38.1646C42.4043 38.1879 48.091 38.1298 50.3946 31.0796C51.5552 27.5979 52.2979 21.6502 52.7621 16.7875C53.2089 12.4065 51.1954 6.62701 46.7853 6.3949Z" fill="#FFBF9D"/>
<path d="M50.1392 22.6598C50.1032 22.902 49.9736 23.1204 49.7783 23.268C49.5829 23.4155 49.3375 23.4806 49.0947 23.449C48.9751 23.4403 48.8584 23.4077 48.7517 23.353C48.6449 23.2983 48.5503 23.2226 48.4734 23.1306C48.3965 23.0385 48.3389 22.932 48.3041 22.8172C48.2693 22.7024 48.2579 22.5818 48.2707 22.4625C48.3067 22.22 48.4361 22.0011 48.6312 21.8526C48.8264 21.7041 49.0718 21.6377 49.3152 21.6676C49.4345 21.6785 49.5505 21.7128 49.6565 21.7687C49.7625 21.8245 49.8565 21.9006 49.933 21.9928C50.0095 22.085 50.0671 22.1913 50.1025 22.3058C50.1379 22.4202 50.1504 22.5406 50.1392 22.6598Z" fill="#263238"/>
<path d="M51.0205 19.654C50.887 19.7585 50.2661 19.126 49.2797 18.9693C48.2932 18.8127 47.4692 19.1956 47.3822 19.0564C47.2951 18.9171 47.4866 18.7953 47.8464 18.6096C48.3262 18.3796 48.8656 18.3046 49.3899 18.3949C49.9098 18.4725 50.3904 18.7168 50.7593 19.0912C51.0147 19.3755 51.0843 19.6076 51.0205 19.654Z" fill="#263238"/>
<path d="M41.2369 21.598C41.2009 21.8405 41.0715 22.0594 40.8764 22.2079C40.6813 22.3564 40.4358 22.4228 40.1924 22.3929C40.0733 22.3835 39.9573 22.3503 39.8512 22.2953C39.7452 22.2403 39.6512 22.1645 39.5749 22.0726C39.4987 21.9806 39.4416 21.8743 39.4071 21.7598C39.3727 21.6454 39.3615 21.5253 39.3743 21.4065C39.4103 21.165 39.5388 20.9471 39.7327 20.7987C39.9265 20.6503 40.1705 20.5832 40.4129 20.6115C40.5326 20.6202 40.6492 20.6528 40.756 20.7075C40.8627 20.7622 40.9573 20.8379 41.0342 20.9299C41.1111 21.022 41.1687 21.1285 41.2035 21.2433C41.2383 21.3581 41.2497 21.4787 41.2369 21.598Z" fill="#263238"/>
<path d="M41.5269 18.2672C41.3935 18.3717 40.7726 17.7392 39.7861 17.5825C38.7997 17.4258 37.9815 17.8088 37.8887 17.6695C37.7958 17.5303 37.9989 17.4084 38.3529 17.2285C38.8313 16.9944 39.3715 16.9172 39.8964 17.008C40.4162 17.0856 40.8968 17.33 41.2658 17.7043C41.5269 17.9887 41.5966 18.2208 41.5269 18.2672Z" fill="#263238"/>
<path d="M43.6504 26.2401C44.2055 26.1739 44.7665 26.1739 45.3216 26.2401C45.5769 26.2401 45.8264 26.2401 45.9018 26.0718C45.9682 25.8122 45.952 25.5384 45.8554 25.2885C45.7103 24.6327 45.5653 23.948 45.4086 23.2285C44.8283 20.2981 44.4105 17.9074 44.5266 17.8842C44.6426 17.861 45.2345 20.2053 45.838 23.1473C45.9831 23.8668 46.1165 24.5573 46.25 25.213C46.3712 25.5427 46.3712 25.9047 46.25 26.2343C46.1994 26.3184 46.1302 26.3899 46.0477 26.4432C45.9653 26.4965 45.8717 26.5302 45.7742 26.5418C45.6258 26.5599 45.4758 26.5599 45.3274 26.5418C44.7574 26.5167 44.1934 26.4152 43.6504 26.2401Z" fill="#263238"/>
<path d="M42.4328 38.1704C39.0146 37.685 35.7995 36.2563 33.1484 34.0447C33.1484 34.0447 34.7848 39.4412 42.131 39.917L42.4328 38.1704Z" fill="#FF9A6C"/>
<path d="M42.8159 28.5902C42.6648 28.321 42.4474 28.095 42.1844 27.9335C41.9214 27.772 41.6214 27.6805 41.313 27.6676C41.0895 27.6518 40.8652 27.6817 40.6537 27.7555C40.4422 27.8293 40.2479 27.9455 40.0828 28.097C39.9254 28.2402 39.8155 28.4281 39.7678 28.6355C39.7201 28.8429 39.7369 29.0599 39.8159 29.2575C39.946 29.4634 40.1353 29.6252 40.359 29.7215C40.5827 29.8178 40.8303 29.8442 41.0693 29.7972C41.5695 29.6989 42.0449 29.5016 42.4678 29.2169C42.5931 29.1559 42.7054 29.0711 42.7985 28.9674C42.8447 28.9187 42.875 28.8571 42.8854 28.7907C42.8958 28.7244 42.8857 28.6565 42.8565 28.596" fill="#FF9A6C"/>
<path d="M40.5755 26.478C40.738 26.478 40.5755 27.5747 41.3763 28.4916C42.1771 29.4084 43.3492 29.4722 43.3376 29.6521C43.326 29.832 43.0475 29.8204 42.5542 29.7565C41.918 29.6624 41.3349 29.3482 40.9063 28.8687C40.5043 28.4052 40.2965 27.8046 40.326 27.1918C40.3376 26.7101 40.5059 26.4606 40.5755 26.478Z" fill="#263238"/>
<path d="M42.3397 14.745C42.1946 15.0003 41.2197 14.7102 40.0186 14.6695C38.8174 14.6289 37.831 14.7914 37.6975 14.5245C37.6453 14.3968 37.8484 14.1647 38.2778 13.9442C38.8385 13.7002 39.4486 13.5909 40.0592 13.6251C40.6706 13.6478 41.2675 13.817 41.8 14.1183C42.2178 14.3736 42.3977 14.6347 42.3397 14.745Z" fill="#263238"/>
<path d="M51.8858 15.2904C51.6769 15.4877 51.027 15.1396 50.203 15.0003C49.379 14.861 48.6478 14.9074 48.526 14.6463C48.4738 14.5187 48.6188 14.3098 48.9612 14.1415C49.4127 13.9497 49.9112 13.897 50.3929 13.99C50.8746 14.083 51.3176 14.3176 51.6653 14.6637C51.9206 14.9423 51.9844 15.215 51.8858 15.2904Z" fill="#263238"/>
<path d="M28.0539 8.49548C29.9746 4.49742 36.8508 -0.44647 41.1912 0.476158L47.6032 5.65216C47.2067 6.81417 46.5043 7.84782 45.57 8.64433C44.6356 9.44083 43.5038 9.97073 42.2937 10.1783C41.0055 10.3814 39.5026 10.2769 38.6148 11.2402C37.727 12.2034 37.9301 13.863 37.0713 14.8842C35.9107 16.3059 33.2473 15.8591 32.284 17.4374C31.8663 18.128 31.9069 19.0274 31.4775 19.7063C30.8972 20.6173 28.2686 21.5051 27.2995 21.0409C26.3305 20.5767 26.5684 18.8417 26.3653 17.89C26.0889 16.8083 26.1955 15.6642 26.667 14.6521C27.404 12.6676 27.1371 10.4046 28.0539 8.49548Z" fill="#263238"/>
<path d="M30.1784 22.3175C30.2596 21.7778 30.3699 21.0061 29.8824 20.7623C28.426 20.0312 25.3621 19.4974 24.7645 23.0834C23.9463 28.0099 29.0584 27.8126 29.0875 27.6734C29.1165 27.5341 29.8882 24.1743 30.1784 22.3175Z" fill="#FFBF9D"/>
<path d="M27.8909 25.5728C27.8909 25.5728 27.7981 25.6192 27.6414 25.6656C27.4226 25.7156 27.1931 25.6825 26.9973 25.5728C26.5099 25.2943 26.2081 24.4123 26.33 23.5012C26.3959 23.0873 26.5481 22.6919 26.7768 22.3407C26.85 22.1957 26.9565 22.0702 27.0877 21.9743C27.2188 21.8785 27.3708 21.8151 27.5311 21.7894C27.6342 21.781 27.737 21.808 27.8225 21.8661C27.908 21.9241 27.971 22.0097 28.0012 22.1086C28.0418 22.2595 28.0012 22.3523 28.0012 22.3639C28.0012 22.3755 28.123 22.3001 28.1172 22.0912C28.1077 21.9642 28.0567 21.8439 27.9722 21.7488C27.8533 21.625 27.691 21.5522 27.5195 21.5457C27.311 21.5527 27.1077 21.6129 26.929 21.7206C26.7502 21.8282 26.602 21.9798 26.4983 22.1608C26.2163 22.5518 26.035 23.0062 25.9702 23.4838C25.8368 24.4819 26.1907 25.4916 26.8696 25.8049C26.9952 25.8664 27.1331 25.8984 27.2729 25.8984C27.4127 25.8984 27.5507 25.8664 27.6762 25.8049C27.8677 25.6947 27.9083 25.5844 27.8909 25.5728Z" fill="#FF9A6C"/>
<path d="M46.3435 3.98678C46.5582 6.05254 49.3086 9.00612 50.4692 10.7353C52.6742 14.0429 53.063 15.0931 52.21 21.7895C53.7013 19.6193 54.8966 17.4664 55.1113 14.8262C55.3692 12.184 54.6532 9.53859 53.0978 7.38716C52.3118 6.32819 51.289 5.46764 50.1113 4.87422C48.9335 4.2808 47.6333 3.97094 46.3145 3.96938" fill="#263238"/>
<path d="M26.3477 7.21889C29.162 3.15701 32.7306 1.0042 35.9511 0.342697L26.3477 7.21889Z" fill="#263238"/>
<path d="M25.2562 26.2923C25.1799 26.2251 25.1117 26.1491 25.0531 26.066C24.8638 25.8356 24.6893 25.5933 24.5308 25.3407C23.9458 24.4128 23.5055 23.4012 23.2252 22.3407C22.8238 20.7665 22.6173 19.149 22.6101 17.5245C22.5496 15.5272 22.9053 13.5393 23.6546 11.6869C24.3624 9.81419 25.3398 8.05482 26.556 6.46452C27.5365 5.162 28.6814 3.99176 29.9621 2.9829C30.8313 2.31715 31.7759 1.75622 32.7764 1.31172C33.1304 1.16085 33.4089 1.0506 33.6062 0.98677C33.7005 0.945658 33.8001 0.918299 33.9022 0.905533C33.9022 0.905533 33.5134 1.08542 32.8287 1.42197C31.858 1.90271 30.9417 2.48633 30.0956 3.16278C28.8496 4.18165 27.7347 5.35111 26.7765 6.6444C25.5842 8.21513 24.6229 9.94836 23.9215 11.7914C23.1833 13.6085 22.8258 15.5578 22.8712 17.5187C22.8662 19.1244 23.0492 20.7253 23.4167 22.2885C23.6739 23.3373 24.0762 24.3451 24.6121 25.2827C25.0124 25.9442 25.2852 26.2749 25.2562 26.2923Z" fill="black"/>
<path d="M50.1569 89.5243C50.1569 89.5243 78.4682 86.3154 83.1104 85.5321C91.9653 84.0292 100.82 85.4624 104.58 93.0756C106.292 96.5572 104.122 103.224 98.9343 108.163C95.0581 111.865 75.8338 131.31 75.8338 131.31L59.36 117.551L79.7506 101.693L40.2227 107.246L50.1569 89.5243Z" fill="#263238"/>
<path d="M79.5295 121.834L68.928 133.01C68.928 133.01 76.9415 147.714 75.1891 149.977L52.3555 129.882L68.1446 111.754L79.5295 121.834Z" fill="#263238"/>
<path d="M62.7251 125.832C62.4515 125.702 62.1395 125.679 61.8499 125.767C61.5603 125.855 61.3138 126.048 61.1584 126.308C61.0261 126.581 61.0029 126.895 61.0934 127.184C61.1839 127.474 61.3814 127.719 61.6458 127.869C61.9361 128.005 62.2669 128.027 62.5731 127.932C62.8792 127.836 63.1384 127.629 63.2996 127.352C63.4093 127.053 63.3994 126.723 63.2718 126.431C63.1442 126.139 62.9089 125.908 62.6148 125.785" fill="#E0E0E0"/>
<path d="M52.3555 129.882L53.9512 128.048L75.369 148.137C75.5529 148.757 75.4905 149.425 75.1949 150L52.3555 129.882Z" fill="#455A64"/>
<path d="M69.4035 133.236C69.299 133.34 68.7013 132.899 67.8425 132.772C66.9837 132.644 66.2816 132.841 66.2178 132.708C66.1539 132.574 66.8793 132.087 67.918 132.267C68.9566 132.447 69.5137 133.155 69.4035 133.236Z" fill="white"/>
<path d="M70.9242 136.323C70.8546 136.451 70.2047 136.207 69.4214 136.323C68.638 136.439 68.0925 136.845 67.9823 136.741C67.872 136.636 68.3536 135.957 69.3343 135.818C70.315 135.679 71.0287 136.213 70.9242 136.323Z" fill="white"/>
<path d="M69.8217 140.338C69.6998 140.269 70.0248 139.584 70.8372 139.236C71.6495 138.888 72.3865 139.108 72.3517 139.236C72.3169 139.364 71.7134 139.41 71.0519 139.706C70.3904 140.002 69.9378 140.426 69.8217 140.338Z" fill="white"/>
<path d="M71.5041 130.416C71.3707 130.474 70.9935 129.87 70.3436 129.354C69.6937 128.838 69.009 128.605 69.038 128.46C69.067 128.315 69.8794 128.339 70.6569 128.954C71.4345 129.569 71.6608 130.375 71.5041 130.416Z" fill="white"/>
<path d="M87.1719 119.884C87.112 119.975 87.0419 120.059 86.963 120.134L86.3421 120.824L83.9804 123.273L75.9379 131.455L75.8393 131.553L75.7348 131.466L73.6807 129.725L63.5085 121.178L60.4795 118.561L59.6555 117.836C59.5566 117.755 59.4653 117.666 59.3828 117.569C59.4944 117.632 59.5994 117.705 59.6962 117.789L60.555 118.468L63.6768 121.016L73.9012 129.493L75.9553 131.234H75.7522L83.876 123.11L86.3015 120.731L86.9688 120.099C87.0282 120.02 87.0963 119.948 87.1719 119.884Z" fill="#455A64"/>
<path d="M111.281 118.985L125.207 131.251L139.006 137.791C139.241 137.902 139.451 138.06 139.623 138.256C139.794 138.451 139.924 138.68 140.003 138.927C140.082 139.175 140.11 139.436 140.084 139.695C140.059 139.954 139.98 140.204 139.853 140.431C139.706 140.696 139.498 140.922 139.246 141.09C138.993 141.257 138.704 141.362 138.403 141.395C134.503 141.812 120.147 143.269 119.178 142.311C118.058 141.209 103.65 130.34 103.65 130.34L111.281 118.985Z" fill="#263238"/>
<path d="M139.837 140.431L118.204 141.505L119.162 142.311C119.372 142.476 119.614 142.594 119.873 142.659C120.132 142.724 120.401 142.734 120.664 142.689C122.481 142.689 127.5 142.543 138.351 141.441C138.662 141.407 138.961 141.297 139.22 141.121C139.479 140.945 139.69 140.708 139.837 140.431Z" fill="#455A64"/>
<g opacity="0.6">
<path d="M118.198 136.213C118.474 136.149 118.764 136.188 119.013 136.322C119.262 136.457 119.453 136.678 119.55 136.944C119.626 137.215 119.595 137.506 119.463 137.755C119.332 138.004 119.11 138.194 118.843 138.284C118.551 138.356 118.244 138.317 117.98 138.174C117.716 138.031 117.515 137.796 117.415 137.513C117.366 137.22 117.432 136.919 117.598 136.673C117.764 136.427 118.019 136.254 118.309 136.19" fill="white"/>
</g>
<path d="M130.907 138.453C131.012 138.406 130.542 137.46 130.849 136.282C131.157 135.105 132.01 134.478 131.917 134.385C131.824 134.292 131.627 134.431 131.302 134.722C130.886 135.118 130.592 135.626 130.454 136.184C130.317 136.742 130.341 137.328 130.524 137.872C130.692 138.284 130.866 138.482 130.907 138.453Z" fill="white"/>
<path d="M133.657 139.044C133.773 139.044 133.698 138.186 134.104 137.304C134.51 136.422 135.166 135.865 135.096 135.766C135.027 135.667 134.18 136.097 133.733 137.141C133.286 138.186 133.559 139.085 133.657 139.044Z" fill="white"/>
<path d="M126.886 138.284C127.013 138.284 126.886 136.979 127.396 135.505C127.907 134.031 128.771 133.074 128.679 132.986C128.586 132.899 127.518 133.787 127.007 135.377C126.497 136.967 126.793 138.319 126.886 138.284Z" fill="white"/>
<path d="M122.348 134.907C122.464 134.942 122.795 133.88 123.619 132.83C124.443 131.78 125.36 131.176 125.307 131.089C125.255 131.002 124.147 131.46 123.3 132.598C122.452 133.735 122.244 134.896 122.348 134.907Z" fill="white"/>
<path d="M119.243 132.731C119.365 132.731 119.557 131.571 120.514 130.532C121.471 129.493 122.609 129.168 122.568 129.052C122.528 128.936 122.249 129.006 121.785 129.174C121.183 129.409 120.644 129.781 120.211 130.261C119.778 130.74 119.463 131.314 119.29 131.936C119.168 132.429 119.197 132.725 119.243 132.731Z" fill="white"/>
<path d="M4.96484 102.116C5.24918 102.824 3.99579 125.588 25.5992 125.727C44.9918 125.855 71.075 108.081 74.0517 109.219C75.9956 109.967 109.448 139.044 109.448 139.044L121.553 124.886C121.553 124.886 90.5778 95.2922 87.5314 93.1742C81.0092 88.6133 76.425 88.6481 65.6959 90.592C56.0924 92.3328 32.5741 100.137 32.5741 100.137L30.3052 98.1935L4.96484 102.116Z" fill="#263238"/>
<path d="M58.738 92.8841C58.738 92.8841 58.8599 92.826 59.1036 92.7332L60.1829 92.327C61.1403 91.9846 62.5562 91.4972 64.4188 90.975C66.6798 90.3368 68.9809 89.8502 71.3066 89.5185C72.7627 89.304 74.2333 89.2031 75.7051 89.2168C77.3574 89.2424 79.0018 89.4507 80.6084 89.8376C84.3164 90.732 87.754 92.5075 90.6296 95.0136C93.618 97.7989 96.734 100.845 100.059 104.014L121.668 124.752L121.767 124.851L121.674 124.961C121.152 125.582 120.583 126.25 120.009 126.917C118.221 129.023 116.365 131.164 114.525 133.137C112.686 135.11 111.044 137.095 109.338 139.056L109.384 139.161L90.4149 122.756C87.5426 120.261 84.8211 117.911 82.2911 115.718L78.6354 112.555C78.0552 112.045 77.4749 111.551 76.8946 111.07C76.6161 110.826 76.3434 110.576 76.059 110.368C75.7767 110.163 75.4732 109.99 75.1538 109.851C74.5485 109.59 73.8943 109.46 73.235 109.471C72.5756 109.482 71.9261 109.633 71.3298 109.915L68.1326 111.482L63.032 113.983L59.8289 115.544L58.9991 115.938L58.709 116.066C58.709 116.066 58.8018 116.008 58.9817 115.915L59.8057 115.491L62.9856 113.89L68.0629 111.348L71.2544 109.758C72.0392 109.383 72.9109 109.227 73.7771 109.306C74.6434 109.386 75.472 109.699 76.1751 110.211C76.4768 110.431 76.7554 110.675 77.0281 110.913L78.7689 112.393L82.4362 115.544L90.56 122.559L109.558 138.934L109.61 139.033C111.281 137.048 113.016 135.006 114.688 132.899C116.359 130.793 118.001 128.785 119.782 126.696L121.425 124.764V124.973L99.8327 104.211C96.5136 101.037 93.3975 97.9788 90.4323 95.1993C87.5943 92.7262 84.2061 90.9674 80.5503 90.0698C78.9571 89.6828 77.3268 89.4688 75.6877 89.4315C74.226 89.4129 72.7652 89.508 71.3182 89.7158C68.996 90.0302 66.697 90.4974 64.4363 91.1142C62.5736 91.6191 61.1519 92.0891 60.1945 92.414L59.1036 92.7912C58.8541 92.8492 58.738 92.8841 58.738 92.8841Z" fill="#455A64"/>
<path d="M46.8833 42.36C46.8833 42.36 54.0497 45.2033 54.8968 51.2613C55.6048 56.3097 54.0322 69.7603 54.0554 70.6714C54.0283 71.4662 54.2995 72.2423 54.8156 72.8474C55.6943 73.7927 56.178 75.0384 56.1676 76.329C56.2225 77.1915 56.0713 78.0548 55.7266 78.8474C54.9084 80.2284 46.982 89.4082 46.982 89.4082L39.9375 74.7448C39.9375 74.7448 44.5797 61.0157 44.5797 60.6617C44.5797 60.3077 46.8833 42.36 46.8833 42.36Z" fill="#0087FF"/>
<path d="M54.9961 78.2265C55.2978 78.2671 65.6324 85.6075 65.6324 85.6075C65.6324 85.6075 68.1566 80.7332 69.2881 80.5882C70.4196 80.4431 73.9013 81.7835 74.2088 82.1491C74.5163 82.5147 75.1952 82.5785 75.88 82.6423C76.5647 82.7062 77.7717 84.418 77.7717 84.418L80.0927 86.1588C80.0927 86.1588 79.3616 87.5166 79.1701 87.7487C78.9786 87.9808 77.4293 87.3309 77.4293 87.0814C77.4293 86.8319 77.6266 88.6075 76.4196 88.6597C75.4548 88.6046 74.513 88.3434 73.6575 87.8938L73.2513 85.8454L70.2572 83.8957L69.8974 85.8628C69.8974 85.8628 72.9322 86.4837 72.8336 87.4818C72.8074 87.7669 72.7015 88.0388 72.5281 88.2666C72.3547 88.4944 72.1207 88.6689 71.8529 88.77L69.3461 88.7178L63.8278 90.0408C63.8278 90.0408 49.3558 86.8377 48.8278 85.1955C48.2998 83.5533 50.7543 77.652 54.9961 78.2265Z" fill="#FFBF9D"/>
<path d="M55.0997 74.7971C56.3647 75.8675 57.3471 77.2325 57.9604 78.7719C58.5987 80.24 65.504 85.2883 65.504 85.2883L59.8985 89.8202C59.8985 89.8202 48.2235 90.3019 47.6781 88.5669C47.1326 86.8319 48.9547 79.091 48.9547 79.091L55.0997 74.7971Z" fill="#0087FF"/>
<path d="M47.8236 94.4972C47.8906 94.7408 48.048 94.9496 48.2636 95.0811C48.4792 95.2127 48.7369 95.257 48.9841 95.2051L69.2936 90.7661L86.7365 87.592L86.8815 86.0427L70.2162 88.4334L48.5663 93.2728C48.4358 93.3019 48.3125 93.3572 48.2038 93.4351C48.0951 93.5131 48.0033 93.6123 47.9339 93.7267C47.8646 93.841 47.819 93.9683 47.8001 94.1007C47.7811 94.2331 47.7891 94.368 47.8236 94.4972Z" fill="#E0E0E0"/>
<path d="M79.5357 64.5669L70.1527 88.5901C70.0679 88.8083 70.0423 89.045 70.0784 89.2762C70.1145 89.5075 70.211 89.7251 70.3583 89.9071C70.5055 90.0891 70.6982 90.2289 70.9168 90.3125C71.1355 90.3961 71.3723 90.4205 71.6034 90.3831L92.319 86.5591C92.546 86.5216 92.7592 86.4252 92.9373 86.2796C93.1155 86.134 93.2524 85.9443 93.3345 85.7293L102.746 61.8977C102.79 61.7861 102.805 61.6653 102.789 61.5465C102.773 61.4278 102.727 61.315 102.656 61.2188C102.584 61.1226 102.49 61.046 102.381 60.9962C102.272 60.9465 102.152 60.9252 102.033 60.9344L80.6614 63.7313C80.4143 63.7512 80.1778 63.84 79.9787 63.9877C79.7797 64.1355 79.6262 64.3362 79.5357 64.5669Z" fill="#E0E0E0"/>
<path d="M81.6533 63.7313C81.7345 63.7661 79.483 69.7429 76.6339 77.0775C73.7848 84.4121 71.4115 90.3599 71.3303 90.3309C71.249 90.3019 73.5005 84.3193 76.3554 76.9847C79.2103 69.6501 81.5778 63.7023 81.6533 63.7313Z" fill="#263238"/>
<path d="M86.8411 75.093C86.2609 76.2535 86.2957 77.4489 86.9282 77.768C87.5607 78.0872 88.5413 77.4025 89.1216 76.2419C89.7019 75.0814 89.6728 73.886 89.0404 73.5727C88.4079 73.2593 87.4272 73.9325 86.8411 75.093Z" fill="white"/>
<path d="M48.166 90.7603C48.166 90.7603 46.4716 83.6404 46.814 82.3348C47.7889 78.5804 52.8082 69.1046 52.3904 63.4296C51.9726 57.7545 46.8836 42.36 46.8836 42.36L42.0326 40.6714C40.0713 44.948 32.4581 43.9905 26.2435 38.9828L18.4562 40.5612L6.27058 78.4992L4.19321 92.3212C-0.750685 98.768 4.94756 102.186 4.94756 102.186C4.94756 102.186 14.3363 105.145 21.7754 103.816C27.3286 102.83 35.4291 98.9073 37.2454 97.4856C41.5916 94.0794 48.4852 94.3173 48.4852 94.3173L48.166 90.7603Z" fill="#0087FF"/>
<path d="M34.5418 91.1084L39.625 93.1858C39.625 93.1858 42.4509 91.503 42.8629 91.3463C45.234 90.9105 47.6289 90.616 50.035 90.4643C50.823 90.4824 51.6111 90.4338 52.3909 90.3193L45.6772 94.4508L41.4238 100.114C40.2534 100.498 39.034 100.711 37.8029 100.747C35.9345 100.747 31.5244 99.679 31.5244 99.679L34.5418 91.1084Z" fill="#FFBF9D"/>
<path d="M19.4315 40.4451C19.4315 40.4451 10.5128 40.9732 7.37353 48.0931C5.27876 52.8397 0.990564 73.7526 0.329057 77.5766C-0.332451 81.4005 0.32906 86.0601 3.39288 88.474C6.45671 90.8879 31.8667 101.71 31.8667 101.71L37.1646 91.503L15.7294 78.1916H15.0331L17.5979 62.8319" fill="#0087FF"/>
<path d="M17.5972 62.8261C17.5972 62.8261 17.5972 62.9132 17.5972 63.093L17.4754 63.8706C17.3651 64.5669 17.2084 65.5824 16.9995 66.888C16.5643 69.534 15.9434 73.3754 15.1543 78.1975L15.0614 78.093H15.7868L37.2567 91.3696L37.367 91.4392L37.309 91.5495C35.6262 94.799 33.8564 98.2226 32.0169 101.762L31.9589 101.884L31.8312 101.826C26.6726 99.6268 21.1775 97.2303 15.5489 94.6829C13.3206 93.6733 11.1311 92.6539 8.98022 91.6249C7.91252 91.1026 6.85063 90.5804 5.81194 90.035C4.74648 89.5366 3.74984 88.9028 2.84677 88.1491C2.00477 87.3295 1.34618 86.3406 0.914467 85.2477C0.483062 84.198 0.203651 83.0921 0.0846812 81.9634C-0.0282271 80.8618 -0.0282271 79.7516 0.0846812 78.6501C0.18913 77.5592 0.415436 76.5089 0.606925 75.4644C1.4193 71.3097 2.26649 67.3754 3.09048 63.6965C3.91446 60.0176 4.73844 56.6056 5.57403 53.5128C5.99183 51.9693 6.42123 50.5012 6.89125 49.1318C7.34225 47.8379 7.99862 46.6251 8.83515 45.5399C9.59359 44.6233 10.4741 43.815 11.4522 43.1376C12.2802 42.5795 13.1605 42.1034 14.0808 41.7159C15.3534 41.1795 16.6831 40.7901 18.044 40.5554C18.5082 40.4799 18.868 40.4393 19.1059 40.4161C19.2277 40.4084 19.3498 40.4084 19.4715 40.4161L19.1117 40.4625C18.868 40.4974 18.5315 40.5496 18.0498 40.6366C16.7016 40.8923 15.386 41.2971 14.1272 41.8436C13.2182 42.2338 12.3494 42.7119 11.5334 43.271C10.5738 43.9477 9.71091 44.752 8.96861 45.6617C8.14913 46.7357 7.50839 47.9348 7.07113 49.213C6.61271 50.5766 6.18912 52.0389 5.78293 53.5882C4.95895 56.6811 4.15237 60.093 3.33999 63.772C2.52762 67.4509 1.68623 71.3793 0.879652 75.534C0.693966 76.5785 0.467662 77.6288 0.369017 78.6965C0.253059 79.7766 0.253059 80.8659 0.369017 81.946C0.618532 84.1046 1.39029 86.3502 3.04405 87.9228C3.93013 88.6553 4.90491 89.2733 5.9454 89.7622C6.97828 90.3019 8.04018 90.8241 9.10787 91.3406C11.2549 92.3657 13.4406 93.3831 15.6649 94.3928C21.2935 96.9402 26.7887 99.3367 31.9125 101.548L31.7268 101.617L37.0304 91.4102L37.0769 91.5901L15.6707 78.2439H15.7171H15.0208H14.9106V78.1336L16.8719 66.859C17.0982 65.5534 17.2781 64.5379 17.3999 63.8474C17.458 63.5166 17.5044 63.2671 17.5392 63.0756C17.574 62.8842 17.5972 62.8261 17.5972 62.8261Z" fill="#263238"/>
<path d="M51.619 51.2556C51.648 51.2556 51.4972 51.7952 51.3927 52.7701C51.3349 53.362 51.3156 53.9571 51.3347 54.5515C51.3347 55.2478 51.445 56.037 51.5668 56.9132C51.9034 58.9544 52.1146 61.0144 52.1993 63.0815C52.3052 65.6352 51.8988 68.1843 51.0039 70.5785C50.0233 73.1027 48.7409 75.3425 47.9459 77.5128C47.3079 79.4664 47.0923 81.5333 47.3134 83.5766C47.4237 85.3174 47.5862 86.7507 47.6906 87.7313C47.737 88.1955 47.7718 88.5727 47.8009 88.857C47.8138 88.9902 47.8138 89.1243 47.8009 89.2574C47.7587 89.1314 47.7314 89.001 47.7196 88.8686C47.6732 88.5785 47.621 88.2071 47.5455 87.7429C47.4121 86.7681 47.2148 85.3522 47.0755 83.5882C46.8225 81.5143 47.0204 79.4102 47.6558 77.4199C48.4508 75.2091 49.7274 72.9635 50.6964 70.4567C51.5718 68.0957 51.9778 65.5865 51.8918 63.0699C51.8172 61.0101 51.6234 58.9564 51.3115 56.919C51.207 56.0428 51.1374 55.242 51.1258 54.5399C51.1151 53.9364 51.152 53.333 51.2361 52.7353C51.2863 52.3597 51.3599 51.9875 51.4566 51.6211C51.4974 51.4938 51.5519 51.3712 51.619 51.2556Z" fill="#263238"/>
<path d="M20.1269 55.3755C20.0688 55.3755 20.3474 54.5689 20.4924 53.2517C20.5781 52.4809 20.5898 51.7036 20.5273 50.9306C20.4408 49.986 20.258 49.0527 19.9818 48.1453C19.4572 46.4955 18.6155 44.9639 17.5041 43.6366C16.6511 42.6212 15.9954 42.1047 16.036 42.0583C16.2088 42.1489 16.3688 42.2621 16.5118 42.3948C16.9294 42.7285 17.3177 43.0974 17.6723 43.4973C18.8541 44.8137 19.7422 46.3665 20.2777 48.0525C20.5585 48.984 20.7375 49.9431 20.8116 50.9132C20.8621 51.7036 20.829 52.4972 20.7129 53.2807C20.6727 53.5837 20.6146 53.884 20.5389 54.1801C20.4923 54.4034 20.4283 54.6226 20.3474 54.8358C20.296 55.024 20.222 55.2052 20.1269 55.3755Z" fill="#263238"/>
<path d="M32.4873 76.6133C33.3205 76.379 34.129 76.0642 34.9012 75.6733C35.2826 75.4597 35.6508 75.2233 36.0037 74.9653C36.3963 74.6548 36.7721 74.3236 37.1295 73.9731C37.9452 73.1655 38.6567 72.259 39.2475 71.2748C40.3239 69.4828 41.0873 67.5205 41.5047 65.4721C41.8064 63.888 41.8296 62.8841 41.8935 62.8899C41.9171 63.1234 41.9171 63.3586 41.8935 63.5921C41.8707 64.2357 41.8067 64.8773 41.702 65.5127C41.3442 67.6127 40.5942 69.6265 39.4912 71.4489C38.8928 72.4593 38.1587 73.3828 37.3094 74.1936C36.943 74.5476 36.5554 74.879 36.1488 75.1858C35.778 75.4419 35.3903 75.6726 34.9883 75.8764C34.6627 76.05 34.323 76.1956 33.9728 76.3116C33.7127 76.4094 33.4448 76.4851 33.172 76.5379C32.9465 76.5834 32.7173 76.6087 32.4873 76.6133Z" fill="#263238"/>
<path d="M9.41504 80.9711C10.1896 80.0403 11.188 79.3215 12.3164 78.8822C13.3985 78.3539 14.5948 78.1027 15.798 78.151C14.6486 78.3952 13.5211 78.7329 12.4266 79.1607C11.375 79.6809 10.3678 80.2864 9.41504 80.9711Z" fill="#263238"/>
<path d="M53.6902 91.6597C53.6627 91.8391 53.5823 92.0061 53.4593 92.1395C53.3362 92.2728 53.1762 92.3664 52.9996 92.4083C52.9225 92.4171 52.8447 92.4171 52.7675 92.4083C52.1873 92.4083 51.9494 91.3696 51.9494 91.3696L49.431 91.7119C49.431 91.7119 45.8333 96.2729 44.5625 97.5669C39.5664 102.662 38.2666 98.9827 38.2666 98.9827L39.8101 93.0001L43.0074 87.65C43.0074 87.65 42.8043 87.975 42.8797 87.1336C42.9552 86.2922 44.4349 86.1472 44.4349 86.1472C44.5335 85.7119 45.4039 85.3058 45.4039 85.3058L49.4136 84.563C49.8227 84.4871 50.2437 84.504 50.6454 84.6124C51.0471 84.7209 51.4194 84.9182 51.7347 85.1897L54.166 87.2787C54.166 87.2787 55.6051 88.8802 55.5993 89.3618C55.5927 89.5616 55.5128 89.752 55.3746 89.8966C55.2365 90.0411 55.05 90.1296 54.8507 90.1452C54.8507 90.1452 55.0364 91.4334 54.7288 91.5727C54.3914 91.657 54.0413 91.6786 53.696 91.6365L53.6902 91.6597Z" fill="#FFBF9D"/>
<path d="M44.3184 90.5108C44.3184 90.5514 44.8348 90.3425 45.6762 90.1278C46.7675 89.8482 47.8924 89.7212 49.0185 89.7506C49.6378 89.7683 50.2548 89.8343 50.8638 89.9479C51.4093 90.0698 51.9663 90.1336 52.2216 90.4295C52.2783 90.4933 52.3172 90.5708 52.3345 90.6543C52.3518 90.7378 52.3469 90.8243 52.3203 90.9054C52.2815 91.0368 52.2048 91.1539 52.0998 91.2419C51.9257 91.387 51.7748 91.3696 51.7806 91.3986C51.7864 91.4276 51.9315 91.4682 52.1636 91.3232C52.299 91.2351 52.4011 91.1044 52.4537 90.9518C52.4965 90.8477 52.5104 90.7341 52.494 90.6228C52.4777 90.5115 52.4317 90.4067 52.3609 90.3193C52.1902 90.1227 51.9634 89.9829 51.711 89.9189C51.4615 89.8435 51.1946 89.7738 50.9102 89.7158C49.1561 89.3503 47.3382 89.4321 45.624 89.9537C45.1635 90.0736 44.7235 90.2613 44.3184 90.5108Z" fill="#FF9A6C"/>
<path d="M44.8115 93.064C44.8115 93.1336 46.3957 92.5881 48.3686 92.1065C50.3415 91.6249 51.9721 91.387 51.9604 91.3115C51.5975 91.2841 51.2325 91.3056 50.8753 91.3754C50.01 91.4867 49.1517 91.6475 48.3047 91.857C47.4577 92.0642 46.6228 92.3179 45.8038 92.6172C45.4551 92.7225 45.1215 92.8727 44.8115 93.064Z" fill="#FF9A6C"/>
<path d="M53.6374 91.5669C53.6298 91.4212 53.6044 91.277 53.562 91.1375C53.4683 90.7538 53.352 90.3759 53.2138 90.0059C53.1199 89.7448 53.0034 89.4924 52.8657 89.2516C52.7038 88.9694 52.4867 88.7227 52.2274 88.5262C51.6669 88.0544 51.0178 87.6993 50.3183 87.4818C49.6278 87.2578 48.9086 87.1347 48.1829 87.1162C47.594 87.125 47.0087 87.2108 46.4421 87.3715C45.9546 87.4992 45.5717 87.6326 45.3105 87.7197C45.1694 87.7553 45.0344 87.812 44.9102 87.8879C45.4406 87.8071 45.9657 87.6948 46.4827 87.5514C47.0417 87.4191 47.6143 87.3528 48.1887 87.3541C48.8913 87.3847 49.5864 87.5116 50.2544 87.7313C50.9243 87.9383 51.5486 88.2712 52.0939 88.7119C52.5348 89.0688 52.8682 89.5408 53.0571 90.0756C53.4285 90.9808 53.5852 91.5843 53.6374 91.5669Z" fill="#FF9A6C"/>
<path d="M45.8916 86.2516C45.8916 86.2922 46.4719 86.1297 47.4467 85.9498C48.4216 85.7699 49.8258 85.445 51.0154 86.4257C52.0901 87.1006 53.0664 87.9208 53.9167 88.8628C54.2281 89.2837 54.5 89.7324 54.7291 90.2032C54.7192 90.0589 54.6839 89.9174 54.6247 89.7854C54.4828 89.4146 54.2873 89.0666 54.0444 88.7525C53.2202 87.7549 52.2405 86.8967 51.143 86.211C50.8377 85.9927 50.5063 85.8134 50.1566 85.6771C49.8202 85.5653 49.4662 85.5162 49.1121 85.532C48.5252 85.5519 47.942 85.6317 47.3713 85.7699C46.86 85.8686 46.363 86.0304 45.8916 86.2516Z" fill="#FF9A6C"/>
<path d="M46.8198 95.2922C46.8835 95.2131 46.9417 95.1297 46.9939 95.0427L47.4871 94.3231C48.1059 93.441 48.7763 92.5962 49.4949 91.7932H49.4427L51.9668 91.4682L51.8508 91.3928C51.9019 91.5948 51.9779 91.7898 52.0771 91.9731C52.1747 92.1776 52.33 92.349 52.5239 92.4663C52.639 92.5155 52.7657 92.5315 52.8895 92.5127C53.0077 92.5078 53.124 92.4803 53.2318 92.4315C53.4518 92.3226 53.6264 92.1398 53.725 91.915C53.7532 91.8598 53.7747 91.8013 53.7889 91.7409V91.6655L53.6612 91.7642H53.7541C53.8701 91.7642 53.9862 91.7642 54.1022 91.7642C54.2183 91.7642 54.3343 91.7642 54.4504 91.7642C54.5134 91.7562 54.5755 91.7426 54.6361 91.7235C54.7154 91.7093 54.7884 91.6708 54.845 91.6133C54.9275 91.4996 54.9758 91.3647 54.9842 91.2245C54.9929 91.1028 54.9929 90.9806 54.9842 90.8589C54.9813 90.6163 54.9638 90.3741 54.932 90.1336L54.8218 90.2729C54.9956 90.2588 55.1622 90.1972 55.3034 90.0949C55.4447 89.9926 55.555 89.8534 55.6225 89.6926C55.6865 89.5204 55.6865 89.3309 55.6225 89.1587C55.5588 89.0079 55.4831 88.8623 55.3962 88.7235C55.0367 88.1889 54.6391 87.6808 54.2067 87.2032L52.9359 86.0891L52.1119 85.3812C51.8475 85.1312 51.5577 84.9095 51.2473 84.7197C50.9211 84.5476 50.5642 84.4411 50.197 84.4063C49.8439 84.3857 49.4898 84.4189 49.1467 84.505L45.3924 85.2129C45.1857 85.3123 44.991 85.435 44.8121 85.5785C44.6032 85.716 44.4477 85.9207 44.3711 86.1588L44.493 86.0775C44.268 86.0475 44.039 86.0725 43.8258 86.1503C43.6126 86.2281 43.4214 86.3564 43.2686 86.5243C43.0223 86.8582 42.9104 87.2724 42.9552 87.6849V87.6268L40.7444 91.2941L40.1641 92.3038C40.0894 92.4176 40.0253 92.538 39.9727 92.6636C40.065 92.5612 40.1449 92.4482 40.2106 92.327L40.8431 91.3522L43.0713 87.7487V87.7139C43.0333 87.3497 43.1349 86.9847 43.3556 86.6926C43.4844 86.5513 43.646 86.444 43.8262 86.3803C44.0064 86.3165 44.1996 86.2982 44.3885 86.327H44.4872V86.2342C44.5609 86.0564 44.6862 85.9049 44.8469 85.799C45.0207 85.6713 45.2051 85.5587 45.3982 85.4624L49.1815 84.7777C49.502 84.6983 49.8325 84.667 50.1622 84.6849C50.4957 84.7127 50.8198 84.8095 51.1138 84.9692C51.4087 85.1498 51.683 85.3618 51.932 85.6017L52.756 86.3096L54.0964 87.4005C54.5167 87.8686 54.9045 88.3649 55.257 88.886C55.3381 89.0081 55.4062 89.1384 55.4601 89.2748C55.5032 89.3908 55.5032 89.5185 55.4601 89.6346C55.4115 89.7516 55.3317 89.8531 55.2293 89.9278C55.127 90.0025 55.0061 90.0476 54.8798 90.0582H54.7521V90.18C54.7839 90.4108 54.8014 90.6434 54.8043 90.8764C54.8255 91.074 54.7955 91.2738 54.7173 91.4566C54.6874 91.4764 54.6538 91.4902 54.6187 91.4972C54.5697 91.513 54.5191 91.5227 54.4678 91.5263C54.3616 91.5349 54.2548 91.5349 54.1486 91.5263C54.0386 91.5349 53.928 91.5349 53.8179 91.5263H53.7308C53.8469 91.445 53.58 91.6423 53.609 91.6249V91.6655C53.5996 91.7119 53.584 91.7568 53.5626 91.799C53.4882 91.9762 53.3522 92.1205 53.1796 92.2052C53.0957 92.2439 53.005 92.2656 52.9127 92.269C52.8317 92.296 52.7441 92.296 52.6631 92.269C52.3659 92.0405 52.1601 91.7133 52.0829 91.3464V91.2593H51.9958L49.4775 91.6191H49.4427C48.7325 92.4396 48.0773 93.306 47.4813 94.2129C47.2783 94.5321 47.1274 94.7932 47.0287 94.9614C46.946 95.0628 46.8758 95.1739 46.8198 95.2922Z" fill="#FF9A6C"/>
<g opacity="0.3">
<path d="M41.6839 65.5882C41.2451 67.7357 40.4256 69.7873 39.2642 71.6462C37.8774 73.77 36.1424 74.8899 33.9838 76.2187L33.8213 76.2825C35.1183 76.2972 36.4003 76.0028 37.561 75.4238C38.7217 74.8447 39.7278 73.9976 40.4962 72.9525C41.2646 71.9074 41.773 70.6944 41.9796 69.4138C42.1861 68.1332 42.0848 66.8218 41.6839 65.5882Z" fill="black"/>
</g>
</svg>
