<svg width="24" height="24" viewBox="0 0 24 24" fill="none" xmlns="http://www.w3.org/2000/svg">
<path d="M11.2774 0C12.8019 2.84523e-05 14.3107 0.30788 15.713 0.905053C17.1153 1.50223 18.3823 2.37639 19.4377 3.47501C20.4931 4.57362 21.3152 5.87401 21.8546 7.29801C22.394 8.72201 22.6396 10.2402 22.5765 11.7614C22.2065 11.2106 21.7127 10.7538 21.1346 10.4273C20.9604 8.45716 20.1983 6.58456 18.9468 5.05171C17.6953 3.51886 16.0121 2.39628 14.1149 1.8292C12.2176 1.26212 10.1936 1.27662 8.30472 1.87082C6.41582 2.46502 4.74889 3.61158 3.51957 5.1622C2.29025 6.71282 1.55509 8.59615 1.40919 10.5686C1.26329 12.541 1.71336 14.5118 2.70118 16.226C3.68901 17.9401 5.16914 19.3189 6.95011 20.1838C8.73108 21.0488 10.731 21.3602 12.6911 21.0776V22.5035C11.1605 22.6917 9.6076 22.5654 8.12777 22.1321C6.64794 21.6989 5.27246 20.968 4.08589 19.9844C2.89931 19.0007 1.92672 17.7851 1.22788 16.4122C0.529049 15.0394 0.118744 13.5383 0.0221897 12.0012C-0.0743645 10.4642 0.144872 8.92363 0.666423 7.47431C1.18797 6.02499 2.00082 4.6975 3.05499 3.57346C4.10917 2.44942 5.38239 1.55257 6.7964 0.938042C8.21042 0.323513 9.73534 0.00429204 11.2774 0ZM21.1304 12.2047C21.5968 12.7073 21.8796 13.3793 21.8796 14.1176V15.5294H22.5864C22.9613 15.5294 23.3209 15.6782 23.586 15.9429C23.8511 16.2077 24 16.5668 24 16.9412V22.5882C24 22.9627 23.8511 23.3217 23.586 23.5865C23.3209 23.8513 22.9613 24 22.5864 24H15.5183C15.1434 24 14.7838 23.8513 14.5187 23.5865C14.2536 23.3217 14.1047 22.9627 14.1047 22.5882V16.9412C14.1047 16.5668 14.2536 16.2077 14.5187 15.9429C14.7838 15.6782 15.1434 15.5294 15.5183 15.5294H16.2251V14.1176C16.2254 13.5497 16.3973 12.995 16.7182 12.526C17.0391 12.0571 17.4942 11.6957 18.024 11.4891C18.5537 11.2825 19.1336 11.2403 19.6878 11.368C20.242 11.4956 20.7447 11.7872 21.1304 12.2047ZM17.6387 15.5294H20.466V14.1176C20.466 13.7432 20.317 13.3841 20.0519 13.1194C19.7868 12.8546 19.4272 12.7059 19.0523 12.7059C18.6774 12.7059 18.3179 12.8546 18.0528 13.1194C17.7877 13.3841 17.6387 13.7432 17.6387 14.1176V15.5294ZM18.1264 20.2814C18.2636 20.5267 18.4928 20.7074 18.7635 20.7839C19.0341 20.8605 19.3242 20.8265 19.5697 20.6894C19.8153 20.5524 19.9963 20.3235 20.0729 20.0532C20.1495 19.7829 20.1155 19.4932 19.9783 19.248C19.841 19.0028 19.6119 18.822 19.3412 18.7455C19.0705 18.669 18.7805 18.703 18.535 18.84C18.2894 18.977 18.1084 19.2059 18.0318 19.4762C17.9551 19.7465 17.9892 20.0362 18.1264 20.2814ZM16.0244 7.97082C16.1415 8.08762 16.2138 8.24175 16.2288 8.40634C16.2438 8.57093 16.2004 8.73556 16.1064 8.87153L16.0244 8.97035L10.3642 14.6231C10.2473 14.74 10.093 14.8122 9.92815 14.8272C9.76334 14.8422 9.59849 14.7989 9.46235 14.7049L9.36339 14.6231L6.53616 11.7995C6.41093 11.675 6.33694 11.5082 6.32877 11.3319C6.3206 11.1556 6.37884 10.9827 6.49202 10.8472C6.60519 10.7117 6.76508 10.6234 6.94019 10.5998C7.1153 10.5761 7.29292 10.6189 7.43805 10.7195L7.537 10.8014L9.86382 13.1266L15.0249 7.97082C15.1575 7.83849 15.3372 7.76415 15.5247 7.76415C15.7121 7.76415 15.8918 7.83849 16.0244 7.97082Z" fill="#333333"/>
</svg>
