<svg width="20" height="24" viewBox="0 0 20 24" fill="none" xmlns="http://www.w3.org/2000/svg">
<path d="M9.7335 6.15012C9.75786 6.10514 9.79578 6.06723 9.84293 6.04071C9.89008 6.01418 9.94456 6.00012 10.0002 6.00012C10.0558 6.00012 10.1102 6.01418 10.1574 6.04071C10.2045 6.06723 10.2425 6.10514 10.2668 6.15012L11.3235 8.07766C11.3447 8.11665 11.376 8.15041 11.415 8.17602C11.4539 8.20164 11.4991 8.21833 11.5468 8.22466L13.9135 8.53366C14.1552 8.56516 14.2535 8.83367 14.0768 8.98817L12.3668 10.4897C12.3323 10.52 12.3066 10.5574 12.2917 10.5987C12.2769 10.64 12.2735 10.684 12.2818 10.7267L12.6852 12.8477C12.6942 12.8967 12.6879 12.947 12.667 12.9929C12.6461 13.0389 12.6113 13.0786 12.5666 13.1078C12.522 13.1369 12.4692 13.1543 12.4141 13.1579C12.3591 13.1615 12.3041 13.1512 12.2552 13.1282L10.1385 12.1262C10.0961 12.1062 10.0489 12.0958 10.001 12.0958C9.95311 12.0958 9.90593 12.1062 9.8635 12.1262L7.74683 13.1282C7.69799 13.1508 7.64314 13.1607 7.58839 13.1569C7.53365 13.1531 7.48115 13.1357 7.43675 13.1066C7.39235 13.0775 7.35778 13.038 7.33691 12.9922C7.31603 12.9465 7.30966 12.8965 7.3185 12.8477L7.72183 10.7267C7.73034 10.6841 7.7272 10.6402 7.71268 10.5989C7.69816 10.5576 7.6727 10.5202 7.6385 10.4897L5.92183 8.98817C5.88251 8.95342 5.85472 8.90951 5.84157 8.86134C5.82843 8.81318 5.83045 8.76267 5.8474 8.71548C5.86436 8.66829 5.89559 8.62628 5.93759 8.59417C5.97958 8.56206 6.03068 8.5411 6.08517 8.53366L8.45183 8.22466C8.49953 8.21833 8.54479 8.20164 8.58371 8.17602C8.62262 8.15041 8.65401 8.11665 8.67517 8.07766L9.7335 6.15012Z" fill="#333333"/>
<path d="M0 3.00005C0 2.20439 0.351189 1.44131 0.976311 0.878694C1.60143 0.316076 2.44928 0 3.33333 0L16.6667 0C17.5507 0 18.3986 0.316076 19.0237 0.878694C19.6488 1.44131 20 2.20439 20 3.00005V23.2504C19.9999 23.386 19.959 23.5191 19.8815 23.6355C19.804 23.7519 19.6929 23.8472 19.56 23.9112C19.4271 23.9752 19.2774 24.0056 19.1268 23.9991C18.9763 23.9927 18.8305 23.9495 18.705 23.8744L10 19.6518L1.295 23.8744C1.16951 23.9495 1.02372 23.9927 0.873152 23.9991C0.722588 24.0056 0.572888 23.9752 0.439999 23.9112C0.30711 23.8472 0.196007 23.7519 0.118523 23.6355C0.0410401 23.5191 7.78674e-05 23.386 0 23.2504V3.00005ZM3.33333 1.50002C2.89131 1.50002 2.46738 1.65806 2.15482 1.93937C1.84226 2.22068 1.66667 2.60222 1.66667 3.00005V21.8494L9.53833 18.1263C9.6751 18.0444 9.83572 18.0007 10 18.0007C10.1643 18.0007 10.3249 18.0444 10.4617 18.1263L18.3333 21.8494V3.00005C18.3333 2.60222 18.1577 2.22068 17.8452 1.93937C17.5326 1.65806 17.1087 1.50002 16.6667 1.50002H3.33333Z" fill="#333333"/>
</svg>
