<svg width="175" height="100" viewBox="0 0 175 100" fill="none" xmlns="http://www.w3.org/2000/svg">
<path d="M0 10C0 4.47716 4.47715 0 10 0H175V100H10C4.47715 100 0 95.5229 0 90V10Z" fill="url(#paint0_linear_4022_987)"/>
<path d="M131.661 58C131.48 57.999 131.303 57.9364 131.152 57.8195L128.193 55.6043H128.182L125.434 57.6667C125.257 57.7994 125.05 57.8664 124.84 57.8589C124.63 57.8515 124.427 57.7701 124.257 57.625C124.082 57.4725 123.949 57.2614 123.876 57.0189C123.803 56.7763 123.793 56.5135 123.847 56.264L124.638 52.5767C124.64 52.5671 124.64 52.5568 124.638 52.547C124.636 52.5372 124.632 52.5283 124.626 52.5212L121.978 49.9102C121.827 49.7608 121.718 49.5612 121.663 49.3371C121.609 49.1131 121.613 48.875 121.673 48.6534C121.732 48.4346 121.845 48.242 121.998 48.1007C122.15 47.9595 122.335 47.8762 122.529 47.8617L125.985 47.5979C125.99 47.5971 125.995 47.5948 125.999 47.5912C126.003 47.5875 126.006 47.5826 126.008 47.577L127.297 43.7231C127.367 43.5102 127.489 43.3272 127.648 43.1981C127.807 43.0691 127.995 43 128.188 43C128.38 43 128.568 43.0691 128.727 43.1981C128.886 43.3272 129.008 43.5102 129.078 43.7231L130.367 47.577C130.369 47.5826 130.372 47.5875 130.376 47.5912C130.38 47.5948 130.385 47.5971 130.39 47.5979L133.846 47.8617C134.04 47.8762 134.225 47.9595 134.377 48.1007C134.53 48.242 134.643 48.4346 134.702 48.6534C134.762 48.875 134.766 49.1131 134.712 49.3371C134.657 49.5612 134.548 49.7608 134.397 49.9102L131.749 52.5212C131.743 52.5283 131.739 52.5372 131.737 52.547C131.735 52.5568 131.735 52.5671 131.737 52.5767L132.587 56.5556C132.637 56.7807 132.629 57.0186 132.563 57.238C132.497 57.4574 132.377 57.648 132.218 57.7847C132.055 57.9217 131.861 57.9968 131.661 58ZM128.188 54.4933C128.368 54.4918 128.545 54.5521 128.697 54.6669L131.65 56.882H131.661C131.669 56.8774 131.675 56.8701 131.679 56.8612C131.685 56.8542 131.685 56.8473 131.679 56.8195L130.829 52.8406C130.783 52.6285 130.789 52.4053 130.845 52.1965C130.9 51.9877 131.005 51.8018 131.146 51.6601L133.799 49.0492C133.805 49.0422 133.817 49.0283 133.805 48.9936C133.794 48.9589 133.794 48.9658 133.788 48.9658L130.326 48.702C130.144 48.6865 129.971 48.6104 129.824 48.4826C129.678 48.3548 129.566 48.1804 129.5 47.9798L128.205 44.1328C128.199 44.112 128.193 44.112 128.188 44.112C128.182 44.112 128.176 44.112 128.17 44.1328L126.875 47.9867C126.809 48.1874 126.697 48.3617 126.551 48.4895C126.404 48.6174 126.231 48.6934 126.049 48.7089L122.587 48.9728C122.581 48.9728 122.576 48.9728 122.57 49.0006C122.564 49.0283 122.57 49.0492 122.576 49.0561L125.229 51.6671C125.37 51.8088 125.475 51.9947 125.53 52.2034C125.586 52.4122 125.592 52.6354 125.546 52.8475L124.755 56.5418C124.748 56.5747 124.749 56.6093 124.758 56.6414C124.768 56.6735 124.785 56.7016 124.807 56.7223C124.824 56.7409 124.845 56.7518 124.868 56.7531C124.891 56.7544 124.913 56.7459 124.93 56.7292L127.678 54.6669C127.83 54.5521 128.007 54.4918 128.188 54.4933Z" fill="black"/>
<path d="M67.7863 19C67.6053 18.999 67.4284 18.9364 67.2766 18.8195L64.3184 16.6043H64.3066L61.5593 18.6667C61.3818 18.7994 61.1749 18.8664 60.9652 18.8589C60.7554 18.8515 60.5523 18.7701 60.3818 18.625C60.2068 18.4725 60.0743 18.2614 60.0012 18.0189C59.9281 17.7763 59.9179 17.5135 59.9718 17.264L60.7626 13.5767C60.7651 13.5671 60.7653 13.5568 60.7632 13.547C60.7612 13.5372 60.7569 13.5283 60.7509 13.5212L58.1031 10.9102C57.9522 10.7608 57.8426 10.5612 57.7883 10.3371C57.734 10.1131 57.7375 9.87496 57.7985 9.65337C57.8571 9.43462 57.9702 9.24198 58.1228 9.10072C58.2754 8.95945 58.4605 8.87616 58.6537 8.86175L62.1099 8.59788C62.115 8.59715 62.1199 8.59484 62.124 8.59118C62.1281 8.58752 62.1313 8.58265 62.1334 8.57704L63.4221 4.72312C63.4917 4.51019 63.6139 4.32717 63.7728 4.19812C63.9317 4.06906 64.1199 4 64.3125 4C64.5051 4 64.6933 4.06906 64.8522 4.19812C65.0111 4.32717 65.1333 4.51019 65.2029 4.72312L66.4916 8.57704C66.4937 8.58265 66.4969 8.58752 66.501 8.59118C66.5051 8.59484 66.51 8.59715 66.5151 8.59788L69.9713 8.86175C70.1645 8.87616 70.3496 8.95945 70.5022 9.10072C70.6548 9.24198 70.7679 9.43462 70.8265 9.65337C70.8875 9.87496 70.891 10.1131 70.8367 10.3371C70.7824 10.5612 70.6728 10.7608 70.5219 10.9102L67.8741 13.5212C67.8681 13.5283 67.8638 13.5372 67.8618 13.547C67.8597 13.5568 67.8599 13.5671 67.8624 13.5767L68.7118 17.5556C68.7622 17.7807 68.754 18.0186 68.6881 18.238C68.6222 18.4574 68.5018 18.648 68.3428 18.7847C68.18 18.9217 67.9859 18.9968 67.7863 19ZM64.3125 15.4933C64.4929 15.4918 64.6699 15.5521 64.8221 15.6669L67.7745 17.882H67.7863C67.7938 17.8774 67.7999 17.8701 67.8038 17.8612C67.8097 17.8542 67.8097 17.8473 67.8038 17.8195L66.9544 13.8406C66.9083 13.6285 66.9136 13.4053 66.9695 13.1965C67.0255 12.9877 67.1299 12.8018 67.2708 12.6601L69.9244 10.0492C69.9303 10.0422 69.942 10.0283 69.9303 9.99362C69.9185 9.9589 69.9185 9.96585 69.9127 9.96585L66.4506 9.70197C66.2695 9.68648 66.0957 9.61041 65.9495 9.48259C65.8033 9.35477 65.6907 9.18043 65.6247 8.9798L64.3301 5.13282C64.3242 5.11198 64.3184 5.11198 64.3125 5.11198C64.3066 5.11198 64.3008 5.11198 64.2949 5.13282L63.0003 8.98674C62.9343 9.18737 62.8217 9.36171 62.6755 9.48953C62.5293 9.61736 62.3555 9.69343 62.1744 9.70892L58.7123 9.97279C58.7065 9.97279 58.7006 9.97279 58.6947 10.0006C58.6889 10.0283 58.6947 10.0492 58.7006 10.0561L61.3542 12.6671C61.4951 12.8088 61.5995 12.9947 61.6555 13.2034C61.7114 13.4122 61.7167 13.6354 61.6706 13.8475L60.8798 17.5418C60.8727 17.5747 60.8739 17.6093 60.8833 17.6414C60.8927 17.6735 60.9098 17.7016 60.9325 17.7223C60.9488 17.7409 60.9703 17.7518 60.9929 17.7531C61.0155 17.7544 61.0377 17.7459 61.0555 17.7292L63.8029 15.6669C63.9551 15.5521 64.1321 15.4918 64.3125 15.4933Z" fill="black"/>
<path d="M45.0363 91C44.8553 90.999 44.6784 90.9364 44.5266 90.8195L41.5684 88.6043H41.5566L38.8093 90.6667C38.6318 90.7994 38.4249 90.8664 38.2152 90.8589C38.0054 90.8515 37.8023 90.7701 37.6318 90.625C37.4568 90.4725 37.3243 90.2614 37.2512 90.0189C37.1781 89.7763 37.1679 89.5135 37.2218 89.264L38.0126 85.5767C38.0151 85.5671 38.0153 85.5568 38.0132 85.547C38.0112 85.5372 38.0069 85.5283 38.0009 85.5212L35.3531 82.9102C35.2022 82.7608 35.0926 82.5612 35.0383 82.3371C34.984 82.1131 34.9875 81.875 35.0485 81.6534C35.1071 81.4346 35.2202 81.242 35.3728 81.1007C35.5254 80.9595 35.7105 80.8762 35.9037 80.8617L39.3599 80.5979C39.365 80.5971 39.3699 80.5948 39.374 80.5912C39.3781 80.5875 39.3813 80.5826 39.3834 80.577L40.6721 76.7231C40.7417 76.5102 40.8639 76.3272 41.0228 76.1981C41.1817 76.0691 41.3699 76 41.5625 76C41.7551 76 41.9433 76.0691 42.1022 76.1981C42.2611 76.3272 42.3833 76.5102 42.4529 76.7231L43.7416 80.577C43.7437 80.5826 43.7469 80.5875 43.751 80.5912C43.7551 80.5948 43.76 80.5971 43.7651 80.5979L47.2213 80.8617C47.4145 80.8762 47.5996 80.9595 47.7522 81.1007C47.9048 81.242 48.0179 81.4346 48.0765 81.6534C48.1375 81.875 48.141 82.1131 48.0867 82.3371C48.0324 82.5612 47.9228 82.7608 47.7719 82.9102L45.1241 85.5212C45.1181 85.5283 45.1138 85.5372 45.1118 85.547C45.1097 85.5568 45.1099 85.5671 45.1124 85.5767L45.9618 89.5556C46.0122 89.7807 46.004 90.0186 45.9381 90.238C45.8722 90.4574 45.7518 90.648 45.5928 90.7847C45.43 90.9217 45.2359 90.9968 45.0363 91ZM41.5625 87.4933C41.7429 87.4918 41.9199 87.5521 42.0721 87.6669L45.0245 89.882H45.0363C45.0438 89.8774 45.0499 89.8701 45.0538 89.8612C45.0597 89.8542 45.0597 89.8473 45.0538 89.8195L44.2044 85.8406C44.1583 85.6285 44.1636 85.4053 44.2195 85.1965C44.2755 84.9877 44.3799 84.8018 44.5208 84.6601L47.1744 82.0492C47.1803 82.0422 47.192 82.0283 47.1803 81.9936C47.1685 81.9589 47.1685 81.9658 47.1627 81.9658L43.7006 81.702C43.5195 81.6865 43.3457 81.6104 43.1995 81.4826C43.0533 81.3548 42.9407 81.1804 42.8747 80.9798L41.5801 77.1328C41.5742 77.112 41.5684 77.112 41.5625 77.112C41.5566 77.112 41.5508 77.112 41.5449 77.1328L40.2503 80.9867C40.1843 81.1874 40.0717 81.3617 39.9255 81.4895C39.7793 81.6174 39.6055 81.6934 39.4244 81.7089L35.9623 81.9728C35.9565 81.9728 35.9506 81.9728 35.9447 82.0006C35.9389 82.0283 35.9447 82.0492 35.9506 82.0561L38.6042 84.6671C38.7451 84.8088 38.8495 84.9947 38.9055 85.2034C38.9614 85.4122 38.9667 85.6354 38.9206 85.8475L38.1298 89.5418C38.1227 89.5747 38.1239 89.6093 38.1333 89.6414C38.1427 89.6735 38.1598 89.7016 38.1825 89.7223C38.1988 89.7409 38.2203 89.7518 38.2429 89.7531C38.2655 89.7544 38.2877 89.7459 38.3055 89.7292L41.0529 87.6669C41.2051 87.5521 41.3821 87.4918 41.5625 87.4933Z" fill="black"/>
<path d="M20.4376 46.464C21.4347 45.3893 20.2812 43.9953 18.0998 44.8588C17.9714 44.9098 17.852 44.9635 17.7393 45.0192C17.953 44.5502 18.2687 44.0382 18.7412 43.548C18.7412 43.548 17.8588 43.9103 17.451 43.8185C16.9453 43.7048 16.7867 43 16.7867 43C16.7867 43 16.2606 44.3095 15.9926 45.3372C15.6089 44.4542 15.1839 43.595 15.1839 43.595C15.1839 43.595 14.957 44.196 14.5416 44.4245C14.2067 44.6095 12.829 44.769 12.829 44.769C13.2884 45.0375 13.6828 45.3693 14.0175 45.7125C13.6655 45.606 13.2637 45.526 12.8041 45.488C10.9788 45.3368 10.262 46.081 10.5061 46.8162L9.625 46.8485L10.1045 48.9033L10.4024 49C11.1094 51.7373 10.9384 54.7745 10.9362 54.8088L10.9242 55.0068L11.0891 55.0623C13.7301 55.9513 16.1295 58 16.1295 58C16.1295 58 19.2406 55.647 20.9512 55.0618L21.1008 55.0105L21.1039 54.8305C21.1048 54.788 21.1796 50.997 22.0382 48.526C22.0986 48.5163 22.1554 48.5085 22.2042 48.505L22.3851 48.4925L22.4033 48.2845C22.4039 48.2762 22.4779 47.0855 22.7502 46.5998L20.4376 46.464ZM10.1909 47.425L11.6091 47.8647V48.8805L10.432 48.4985L10.1909 47.425ZM12.3946 55.053C12.0576 54.9035 11.716 54.7675 11.3706 54.6455C11.3986 53.94 11.4391 51.5083 10.8822 49.1555L11.9125 49.49C12.112 50.4957 12.4432 52.5678 12.3946 55.053ZM14.1212 46.2608C15.8918 46.4073 16.203 47.4517 16.203 47.4517C16.203 47.4517 15.1244 47.9025 14.4578 47.9025C12.283 47.9025 11.9689 46.0825 14.1212 46.2608ZM16.3061 47.6055L18.0836 47.8358L15.8677 48.4485L14.602 48.1252L16.3061 47.6055ZM14.1778 48.5208L15.6566 48.8983V50.1943L14.1299 49.7075L14.1778 48.5208ZM15.9368 57.255C15.6139 56.981 15.0758 56.5582 14.3614 56.105C14.418 54.9107 14.4248 51.7198 14.425 50.3055L15.9368 50.7963V57.255ZM17.9156 56.166C17.3881 56.5226 16.8701 56.8975 16.3625 57.29V50.5725C16.9558 50.3236 17.551 50.0806 18.1479 49.8432C18.0195 51.2577 17.9392 54.9493 17.9156 56.166ZM18.6331 49.208C18.6331 49.208 16.5029 49.9893 16.0827 50.1665V48.895L18.6664 48.1805L18.6331 49.208ZM18.3706 47.3428C17.3733 47.6347 16.3126 47.4288 16.3126 47.4288C16.3126 47.4288 16.1138 46.3125 17.7238 45.6753C19.6807 44.9005 20.4544 46.7325 18.3706 47.3428ZM19.8387 46.918L21.1065 46.9995L20.3451 47.2102L19.4357 47.1077C19.5829 47.0493 19.7166 46.9853 19.8387 46.918ZM20.6822 54.643C20.3656 54.7612 20.0318 54.916 19.6954 55.0913C19.6978 53.9202 19.7603 51.3247 20.235 49.055C20.7231 48.883 21.1754 48.7362 21.5447 48.637C20.8388 50.8835 20.7051 53.877 20.6822 54.643ZM22.003 48.0353C22.003 48.0353 21.3027 48.2698 20.8556 48.4107L20.9681 47.5437L22.1854 47.2073C22.0857 47.521 22.003 48.0353 22.003 48.0353Z" fill="black"/>
<path d="M160.438 12.464C161.435 11.3893 160.281 9.99525 158.1 10.8588C157.971 10.9098 157.852 10.9635 157.739 11.0192C157.953 10.5502 158.269 10.0382 158.741 9.548C158.741 9.548 157.859 9.91025 157.451 9.8185C156.945 9.70475 156.787 9 156.787 9C156.787 9 156.261 10.3095 155.993 11.3372C155.609 10.4542 155.184 9.595 155.184 9.595C155.184 9.595 154.957 10.196 154.542 10.4245C154.207 10.6095 152.829 10.769 152.829 10.769C153.288 11.0375 153.683 11.3693 154.017 11.7125C153.666 11.606 153.264 11.526 152.804 11.488C150.979 11.3368 150.262 12.081 150.506 12.8162L149.625 12.8485L150.104 14.9033L150.402 15C151.109 17.7373 150.938 20.7745 150.936 20.8088L150.924 21.0068L151.089 21.0623C153.73 21.9513 156.13 24 156.13 24C156.13 24 159.241 21.647 160.951 21.0618L161.101 21.0105L161.104 20.8305C161.105 20.788 161.18 16.997 162.038 14.526C162.099 14.5163 162.155 14.5085 162.204 14.505L162.385 14.4925L162.403 14.2845C162.404 14.2762 162.478 13.0855 162.75 12.5998L160.438 12.464ZM150.191 13.425L151.609 13.8647V14.8805L150.432 14.4985L150.191 13.425ZM152.395 21.053C152.058 20.9035 151.716 20.7675 151.371 20.6455C151.399 19.94 151.439 17.5083 150.882 15.1555L151.912 15.49C152.112 16.4957 152.443 18.5678 152.395 21.053ZM154.121 12.2608C155.892 12.4073 156.203 13.4517 156.203 13.4517C156.203 13.4517 155.124 13.9025 154.458 13.9025C152.283 13.9025 151.969 12.0825 154.121 12.2608ZM156.306 13.6055L158.084 13.8358L155.868 14.4485L154.602 14.1252L156.306 13.6055ZM154.178 14.5208L155.657 14.8983V16.1943L154.13 15.7075L154.178 14.5208ZM155.937 23.255C155.614 22.981 155.076 22.5582 154.361 22.105C154.418 20.9107 154.425 17.7198 154.425 16.3055L155.937 16.7963V23.255ZM157.916 22.166C157.388 22.5226 156.87 22.8975 156.362 23.29V16.5725C156.956 16.3236 157.551 16.0806 158.148 15.8432C158.02 17.2577 157.939 20.9493 157.916 22.166ZM158.633 15.208C158.633 15.208 156.503 15.9893 156.083 16.1665V14.895L158.666 14.1805L158.633 15.208ZM158.371 13.3428C157.373 13.6347 156.313 13.4288 156.313 13.4288C156.313 13.4288 156.114 12.3125 157.724 11.6753C159.681 10.9005 160.454 12.7325 158.371 13.3428ZM159.839 12.918L161.107 12.9995L160.345 13.2102L159.436 13.1077C159.583 13.0493 159.717 12.9853 159.839 12.918ZM160.682 20.643C160.366 20.7612 160.032 20.916 159.695 21.0913C159.698 19.9202 159.76 17.3247 160.235 15.055C160.723 14.883 161.175 14.7362 161.545 14.637C160.839 16.8835 160.705 19.877 160.682 20.643ZM162.003 14.0353C162.003 14.0353 161.303 14.2698 160.856 14.4107L160.968 13.5437L162.185 13.2073C162.086 13.521 162.003 14.0353 162.003 14.0353Z" fill="black"/>
<path d="M140.875 78.4375C140.875 77.5258 141.16 76.6515 141.668 76.0068C142.176 75.3622 142.864 75 143.582 75H153.918C154.636 75 155.324 75.3622 155.832 76.0068C156.34 76.6515 156.625 77.5258 156.625 78.4375V86.5625C156.625 87.4742 156.34 88.3485 155.832 88.9932C155.324 89.6378 154.636 90 153.918 90H143.582C142.864 90 142.176 89.6378 141.668 88.9932C141.16 88.3485 140.875 87.4742 140.875 86.5625V78.4375ZM141.859 82.5V86.5625C141.859 87.77 142.631 88.75 143.582 88.75H145.797V83.3837L144.177 85.4425C144.084 85.5599 143.959 85.6258 143.828 85.6258C143.697 85.6258 143.572 85.5599 143.48 85.4425C143.387 85.3251 143.335 85.166 143.335 85C143.335 84.834 143.387 84.6749 143.48 84.5575L145.101 82.5H141.859ZM143.108 81.25C142.891 80.7734 142.804 80.2193 142.861 79.6737C142.917 79.1282 143.114 78.6215 143.421 78.2324C143.727 77.8433 144.126 77.5934 144.556 77.5215C144.985 77.4497 145.422 77.5599 145.797 77.835V76.25H143.582C143.125 76.25 142.687 76.4805 142.364 76.8907C142.041 77.3009 141.859 77.8573 141.859 78.4375V81.25H143.108ZM144.812 81.25H145.797V80C145.797 79.7528 145.739 79.5111 145.631 79.3055C145.523 79.1 145.369 78.9398 145.189 78.8452C145.009 78.7505 144.811 78.7258 144.62 78.774C144.43 78.8222 144.254 78.9413 144.116 79.1161C143.979 79.2909 143.885 79.5137 143.847 79.7561C143.809 79.9986 143.829 80.2499 143.903 80.4784C143.978 80.7068 144.104 80.902 144.266 81.0393C144.427 81.1767 144.618 81.25 144.812 81.25ZM146.781 80V81.25H147.766C147.96 81.25 148.151 81.1767 148.313 81.0393C148.474 80.902 148.601 80.7068 148.675 80.4784C148.75 80.2499 148.769 79.9986 148.731 79.7561C148.693 79.5137 148.599 79.2909 148.462 79.1161C148.324 78.9413 148.149 78.8222 147.958 78.774C147.767 78.7258 147.569 78.7505 147.389 78.8452C147.209 78.9398 147.055 79.1 146.947 79.3055C146.839 79.5111 146.781 79.7528 146.781 80ZM149.471 81.25H155.641V78.4375C155.641 77.8573 155.459 77.3009 155.136 76.8907C154.813 76.4805 154.375 76.25 153.918 76.25H146.781V77.835C147.157 77.5599 147.593 77.4497 148.023 77.5215C148.452 77.5934 148.851 77.8433 149.158 78.2324C149.464 78.6215 149.661 79.1282 149.717 79.6737C149.774 80.2193 149.687 80.7734 149.471 81.25ZM147.477 82.5L149.098 84.5575C149.191 84.6749 149.243 84.834 149.243 85C149.243 85.166 149.191 85.3251 149.098 85.4425C149.006 85.5599 148.881 85.6258 148.75 85.6258C148.619 85.6258 148.494 85.5599 148.402 85.4425L146.781 83.3837V88.75H153.918C154.375 88.75 154.813 88.5195 155.136 88.1093C155.459 87.6991 155.641 87.1427 155.641 86.5625V82.5H147.477Z" fill="black"/>
<path d="M73.684 51.0539V67.8949H86.5779V51.0539H73.684ZM88.4199 51.0539V67.8949H101.314V51.0539H88.4199ZM103.156 51.0539V70H71.842V51.0539H70V38.4231H75.5904L75.526 37.3705C75.5255 35.7594 75.9871 34.1925 76.8401 32.9098C77.693 31.6271 78.8904 30.6992 80.2488 30.2684C81.6072 29.8375 83.0517 29.9274 84.3611 30.5242C85.6706 31.121 86.7727 32.1919 87.4989 33.5729C88.225 32.1919 89.3272 31.121 90.6366 30.5242C91.946 29.9274 93.3906 29.8375 94.7489 30.2684C96.1073 30.6992 97.3047 31.6271 98.1577 32.9098C99.0107 34.1925 99.4723 35.7594 99.4718 37.3705L99.4073 38.4231H104.998V51.0539H103.156ZM71.842 40.5282V48.9487H86.5779V40.5282H71.842ZM103.156 48.9487V40.5282H88.4199V48.9487H103.156ZM97.5377 38.4231L97.6298 37.3705C97.6298 35.9747 97.1446 34.6361 96.281 33.6492C95.4174 32.6622 94.2461 32.1077 93.0248 32.1077C91.8035 32.1077 90.6322 32.6622 89.7686 33.6492C88.905 34.6361 88.4199 35.9747 88.4199 37.3705V38.4231H97.5377ZM86.5779 38.4231V37.3705C86.5779 35.9747 86.0927 34.6361 85.2291 33.6492C84.3655 32.6622 83.1942 32.1077 81.9729 32.1077C80.7516 32.1077 79.5803 32.6622 78.7167 33.6492C77.8531 34.6361 77.3679 35.9747 77.3679 37.3705L77.46 38.4231H86.5779Z" fill="black"/>
<path d="M50.25 44C50.25 46.5501 48.4545 48.5 46.375 48.5C44.2955 48.5 42.5 46.5501 42.5 44C42.5 41.4499 44.2955 39.5 46.375 39.5C48.4545 39.5 50.25 41.4499 50.25 44Z" stroke="black"/>
<path d="M13.5 11C13.5 13.5501 11.7045 15.5 9.625 15.5C7.54552 15.5 5.75 13.5501 5.75 11C5.75 8.44992 7.54552 6.5 9.625 6.5C11.7045 6.5 13.5 8.44992 13.5 11Z" stroke="black"/>
<path d="M125.5 12C125.5 14.5501 123.704 16.5 121.625 16.5C119.546 16.5 117.75 14.5501 117.75 12C117.75 9.44992 119.546 7.5 121.625 7.5C123.704 7.5 125.5 9.44992 125.5 12Z" stroke="black"/>
<path d="M164.875 52C164.875 54.5501 163.079 56.5 161 56.5C158.921 56.5 157.125 54.5501 157.125 52C157.125 49.4499 158.921 47.5 161 47.5C163.079 47.5 164.875 49.4499 164.875 52Z" stroke="black"/>
<path d="M100.125 89C100.125 91.5501 98.3295 93.5 96.25 93.5C94.1705 93.5 92.375 91.5501 92.375 89C92.375 86.4499 94.1705 84.5 96.25 84.5C98.3295 84.5 100.125 86.4499 100.125 89Z" stroke="black"/>
<path d="M5.19189 84.4243C10.1084 88.1158 9.95404 87.8357 12.6071 83.0217C13.7272 80.9892 14.1167 78.9494 16.688 79.4622C18.8847 79.9003 21.8358 85.0911 23.6828 82.5755" stroke="black" stroke-linecap="round"/>
<path d="M24.5 27C30.3425 26.2162 30.0667 26.1149 29.3915 20.4783C29.1064 18.0983 28.2575 16.2497 30.5156 14.7536C32.4448 13.4755 37.625 15.284 37.625 12" stroke="black" stroke-linecap="round"/>
<path d="M57.75 70C58.4359 76.6771 58.5244 76.362 63.4565 75.5903C65.539 75.2645 67.1565 74.2943 68.4656 76.875C69.584 79.0798 68.0015 85 70.875 85" stroke="black" stroke-linecap="round"/>
<path d="M115.5 92C121.342 91.2162 121.067 91.1149 120.391 85.4783C120.106 83.0983 119.257 81.2497 121.516 79.7536C123.445 78.4755 128.625 80.284 128.625 77" stroke="black" stroke-linecap="round"/>
<path d="M139.942 36.4243C144.858 40.1158 144.704 39.8357 147.357 35.0217C148.477 32.9892 148.867 30.9494 151.438 31.4622C153.635 31.9003 156.586 37.0911 158.433 34.5755" stroke="black" stroke-linecap="round"/>
<path d="M91.875 9C92.5609 15.6771 92.6494 15.362 97.5815 14.5903C99.664 14.2645 101.282 13.2943 102.591 15.875C103.709 18.0798 102.127 24 105 24" stroke="black" stroke-linecap="round"/>
<defs>
<linearGradient id="paint0_linear_4022_987" x1="87.5" y1="0" x2="87.5" y2="100" gradientUnits="userSpaceOnUse">
<stop stop-color="#0087FF"/>
<stop offset="1" stop-color="#0B1C3D"/>
</linearGradient>
</defs>
</svg>
