<svg width="170" height="180" viewBox="0 0 170 180" fill="none" xmlns="http://www.w3.org/2000/svg">
<path d="M0 10C0 4.47716 4.47715 0 10 0H160C165.523 0 170 4.47715 170 10V170C170 175.523 165.523 180 160 180H10C4.47715 180 0 175.523 0 170V10Z" fill="url(#paint0_linear_6201_1190)"/>
<path d="M145.47 70C145.263 69.999 145.061 69.9364 144.888 69.8195L141.507 67.6043H141.493L138.353 69.6667C138.151 69.7994 137.914 69.8664 137.674 69.8589C137.435 69.8515 137.203 69.7701 137.008 69.625C136.808 69.4725 136.656 69.2614 136.573 69.0189C136.489 68.7763 136.478 68.5135 136.539 68.264L137.443 64.5767C137.446 64.5671 137.446 64.5568 137.444 64.547C137.441 64.5372 137.436 64.5283 137.43 64.5212L134.404 61.9102C134.231 61.7608 134.106 61.5612 134.044 61.3371C133.982 61.1131 133.986 60.875 134.055 60.6534C134.122 60.4346 134.252 60.242 134.426 60.1007C134.6 59.9595 134.812 59.8762 135.033 59.8617L138.983 59.5979C138.989 59.5971 138.994 59.5948 138.999 59.5912C139.004 59.5875 139.007 59.5826 139.01 59.577L140.482 55.7231C140.562 55.5102 140.702 55.3272 140.883 55.1981C141.065 55.0691 141.28 55 141.5 55C141.72 55 141.935 55.0691 142.117 55.1981C142.298 55.3272 142.438 55.5102 142.518 55.7231L143.99 59.577C143.993 59.5826 143.996 59.5875 144.001 59.5912C144.006 59.5948 144.011 59.5971 144.017 59.5979L147.967 59.8617C148.188 59.8762 148.4 59.9595 148.574 60.1007C148.748 60.242 148.878 60.4346 148.945 60.6534C149.014 60.875 149.018 61.1131 148.956 61.3371C148.894 61.5612 148.769 61.7608 148.596 61.9102L145.57 64.5212C145.564 64.5283 145.559 64.5372 145.556 64.547C145.554 64.5568 145.554 64.5671 145.557 64.5767L146.528 68.5556C146.585 68.7807 146.576 69.0186 146.501 69.238C146.425 69.4574 146.288 69.648 146.106 69.7847C145.92 69.9217 145.698 69.9968 145.47 70ZM141.5 66.4933C141.706 66.4918 141.908 66.5521 142.082 66.6669L145.457 68.882H145.47C145.479 68.8774 145.486 68.8701 145.49 68.8612C145.497 68.8542 145.497 68.8473 145.49 68.8195L144.519 64.8406C144.467 64.6285 144.473 64.4053 144.537 64.1965C144.601 63.9877 144.72 63.8018 144.881 63.6601L147.914 61.0492C147.92 61.0422 147.934 61.0283 147.92 60.9936C147.907 60.9589 147.907 60.9658 147.9 60.9658L143.944 60.702C143.737 60.6865 143.538 60.6104 143.371 60.4826C143.204 60.3548 143.075 60.1804 143 59.9798L141.52 56.1328C141.513 56.112 141.507 56.112 141.5 56.112C141.493 56.112 141.487 56.112 141.48 56.1328L140 59.9867C139.925 60.1874 139.796 60.3617 139.629 60.4895C139.462 60.6174 139.263 60.6934 139.056 60.7089L135.1 60.9728C135.093 60.9728 135.086 60.9728 135.08 61.0006C135.073 61.0283 135.08 61.0492 135.086 61.0561L138.119 63.6671C138.28 63.8088 138.399 63.9947 138.463 64.2034C138.527 64.4122 138.533 64.6354 138.481 64.8475L137.577 68.5418C137.569 68.5747 137.57 68.6093 137.581 68.6414C137.592 68.6735 137.611 68.7016 137.637 68.7223C137.656 68.7409 137.68 68.7518 137.706 68.7531C137.732 68.7544 137.757 68.7459 137.778 68.7292L140.918 66.6669C141.092 66.5521 141.294 66.4918 141.5 66.4933Z" fill="black"/>
<path d="M94.47 31C94.2632 30.999 94.061 30.9364 93.8876 30.8195L90.5067 28.6043H90.4933L87.3535 30.6667C87.1506 30.7994 86.9142 30.8664 86.6745 30.8589C86.4348 30.8515 86.2026 30.7701 86.0078 30.625C85.8078 30.4725 85.6563 30.2614 85.5728 30.0189C85.4893 29.7763 85.4776 29.5135 85.5392 29.264L86.443 25.5767C86.4458 25.5671 86.4461 25.5568 86.4437 25.547C86.4413 25.5372 86.4365 25.5283 86.4296 25.5212L83.4035 22.9102C83.2311 22.7608 83.1058 22.5612 83.0437 22.3371C82.9817 22.1131 82.9857 21.875 83.0554 21.6534C83.1224 21.4346 83.2516 21.242 83.4261 21.1007C83.6005 20.9595 83.812 20.8762 84.0328 20.8617L87.9828 20.5979C87.9886 20.5971 87.9941 20.5948 87.9988 20.5912C88.0035 20.5875 88.0072 20.5826 88.0095 20.577L89.4824 16.7231C89.5619 16.5102 89.7016 16.3272 89.8832 16.1981C90.0649 16.0691 90.2799 16 90.5 16C90.7201 16 90.9351 16.0691 91.1168 16.1981C91.2984 16.3272 91.4381 16.5102 91.5176 16.7231L92.9905 20.577C92.9928 20.5826 92.9965 20.5875 93.0012 20.5912C93.0059 20.5948 93.0114 20.5971 93.0172 20.5979L96.9672 20.8617C97.188 20.8762 97.3995 20.9595 97.5739 21.1007C97.7484 21.242 97.8776 21.4346 97.9446 21.6534C98.0143 21.875 98.0183 22.1131 97.9563 22.3371C97.8942 22.5612 97.7689 22.7608 97.5965 22.9102L94.5704 25.5212C94.5635 25.5283 94.5587 25.5372 94.5563 25.547C94.5539 25.5568 94.5542 25.5671 94.557 25.5767L95.5278 29.5556C95.5854 29.7807 95.5759 30.0186 95.5007 30.238C95.4254 30.4574 95.2878 30.648 95.106 30.7847C94.92 30.9217 94.6981 30.9968 94.47 31ZM90.5 27.4933C90.7062 27.4918 90.9085 27.5521 91.0824 27.6669L94.4566 29.882H94.47C94.4786 29.8774 94.4856 29.8701 94.4901 29.8612C94.4968 29.8542 94.4968 29.8473 94.4901 29.8195L93.5193 25.8406C93.4667 25.6285 93.4726 25.4053 93.5366 25.1965C93.6005 24.9877 93.7198 24.8018 93.8809 24.6601L96.9136 22.0492C96.9203 22.0422 96.9337 22.0283 96.9203 21.9936C96.9069 21.9589 96.9069 21.9658 96.9002 21.9658L92.9436 21.702C92.7365 21.6865 92.5379 21.6104 92.3708 21.4826C92.2038 21.3548 92.075 21.1804 91.9996 20.9798L90.5201 17.1328C90.5134 17.112 90.5067 17.112 90.5 17.112C90.4933 17.112 90.4866 17.112 90.4799 17.1328L89.0004 20.9867C88.925 21.1874 88.7962 21.3617 88.6292 21.4895C88.4621 21.6174 88.2635 21.6934 88.0564 21.7089L84.0998 21.9728C84.0931 21.9728 84.0864 21.9728 84.0797 22.0006C84.073 22.0283 84.0797 22.0492 84.0864 22.0561L87.1191 24.6671C87.2802 24.8088 87.3995 24.9947 87.4634 25.2034C87.5274 25.4122 87.5333 25.6354 87.4807 25.8475L86.5769 29.5418C86.5688 29.5747 86.5702 29.6093 86.5809 29.6414C86.5916 29.6735 86.6111 29.7016 86.6371 29.7223C86.6558 29.7409 86.6803 29.7518 86.7062 29.7531C86.732 29.7544 86.7574 29.7459 86.7777 29.7292L89.9176 27.6669C90.0915 27.5521 90.2938 27.4918 90.5 27.4933Z" fill="black"/>
<path d="M69.47 156C69.2632 155.999 69.061 155.936 68.8876 155.819L65.5067 153.604H65.4933L62.3535 155.667C62.1506 155.799 61.9142 155.866 61.6745 155.859C61.4348 155.852 61.2026 155.77 61.0078 155.625C60.8078 155.472 60.6563 155.261 60.5728 155.019C60.4893 154.776 60.4776 154.513 60.5392 154.264L61.443 150.577C61.4458 150.567 61.4461 150.557 61.4437 150.547C61.4413 150.537 61.4365 150.528 61.4296 150.521L58.4035 147.91C58.2311 147.761 58.1058 147.561 58.0437 147.337C57.9817 147.113 57.9857 146.875 58.0554 146.653C58.1224 146.435 58.2516 146.242 58.4261 146.101C58.6005 145.959 58.812 145.876 59.0328 145.862L62.9828 145.598C62.9886 145.597 62.9941 145.595 62.9988 145.591C63.0035 145.588 63.0072 145.583 63.0095 145.577L64.4824 141.723C64.5619 141.51 64.7016 141.327 64.8832 141.198C65.0649 141.069 65.2799 141 65.5 141C65.7201 141 65.9351 141.069 66.1168 141.198C66.2984 141.327 66.4381 141.51 66.5176 141.723L67.9905 145.577C67.9928 145.583 67.9965 145.588 68.0012 145.591C68.0059 145.595 68.0114 145.597 68.0172 145.598L71.9672 145.862C72.188 145.876 72.3995 145.959 72.5739 146.101C72.7484 146.242 72.8776 146.435 72.9446 146.653C73.0143 146.875 73.0183 147.113 72.9563 147.337C72.8942 147.561 72.7689 147.761 72.5965 147.91L69.5704 150.521C69.5635 150.528 69.5587 150.537 69.5563 150.547C69.5539 150.557 69.5542 150.567 69.557 150.577L70.5278 154.556C70.5854 154.781 70.5759 155.019 70.5007 155.238C70.4254 155.457 70.2878 155.648 70.106 155.785C69.92 155.922 69.6981 155.997 69.47 156ZM65.5 152.493C65.7062 152.492 65.9085 152.552 66.0824 152.667L69.4566 154.882H69.47C69.4786 154.877 69.4856 154.87 69.4901 154.861C69.4968 154.854 69.4968 154.847 69.4901 154.82L68.5193 150.841C68.4667 150.628 68.4726 150.405 68.5366 150.196C68.6005 149.988 68.7198 149.802 68.8809 149.66L71.9136 147.049C71.9203 147.042 71.9337 147.028 71.9203 146.994C71.9069 146.959 71.9069 146.966 71.9002 146.966L67.9436 146.702C67.7365 146.686 67.5379 146.61 67.3708 146.483C67.2038 146.355 67.075 146.18 66.9996 145.98L65.5201 142.133C65.5134 142.112 65.5067 142.112 65.5 142.112C65.4933 142.112 65.4866 142.112 65.4799 142.133L64.0004 145.987C63.925 146.187 63.7962 146.362 63.6292 146.49C63.4621 146.617 63.2635 146.693 63.0564 146.709L59.0998 146.973C59.0931 146.973 59.0864 146.973 59.0797 147.001C59.073 147.028 59.0797 147.049 59.0864 147.056L62.1191 149.667C62.2802 149.809 62.3995 149.995 62.4634 150.203C62.5274 150.412 62.5333 150.635 62.4807 150.848L61.5769 154.542C61.5688 154.575 61.5702 154.609 61.5809 154.641C61.5916 154.673 61.6111 154.702 61.6371 154.722C61.6558 154.741 61.6803 154.752 61.7062 154.753C61.732 154.754 61.7574 154.746 61.7777 154.729L64.9176 152.667C65.0915 152.552 65.2938 152.492 65.5 152.493Z" fill="black"/>
<path d="M150.47 148C150.263 147.999 150.061 147.936 149.888 147.819L146.507 145.604H146.493L143.353 147.667C143.151 147.799 142.914 147.866 142.674 147.859C142.435 147.852 142.203 147.77 142.008 147.625C141.808 147.472 141.656 147.261 141.573 147.019C141.489 146.776 141.478 146.513 141.539 146.264L142.443 142.577C142.446 142.567 142.446 142.557 142.444 142.547C142.441 142.537 142.436 142.528 142.43 142.521L139.404 139.91C139.231 139.761 139.106 139.561 139.044 139.337C138.982 139.113 138.986 138.875 139.055 138.653C139.122 138.435 139.252 138.242 139.426 138.101C139.6 137.959 139.812 137.876 140.033 137.862L143.983 137.598C143.989 137.597 143.994 137.595 143.999 137.591C144.004 137.588 144.007 137.583 144.01 137.577L145.482 133.723C145.562 133.51 145.702 133.327 145.883 133.198C146.065 133.069 146.28 133 146.5 133C146.72 133 146.935 133.069 147.117 133.198C147.298 133.327 147.438 133.51 147.518 133.723L148.99 137.577C148.993 137.583 148.996 137.588 149.001 137.591C149.006 137.595 149.011 137.597 149.017 137.598L152.967 137.862C153.188 137.876 153.4 137.959 153.574 138.101C153.748 138.242 153.878 138.435 153.945 138.653C154.014 138.875 154.018 139.113 153.956 139.337C153.894 139.561 153.769 139.761 153.596 139.91L150.57 142.521C150.564 142.528 150.559 142.537 150.556 142.547C150.554 142.557 150.554 142.567 150.557 142.577L151.528 146.556C151.585 146.781 151.576 147.019 151.501 147.238C151.425 147.457 151.288 147.648 151.106 147.785C150.92 147.922 150.698 147.997 150.47 148ZM146.5 144.493C146.706 144.492 146.908 144.552 147.082 144.667L150.457 146.882H150.47C150.479 146.877 150.486 146.87 150.49 146.861C150.497 146.854 150.497 146.847 150.49 146.82L149.519 142.841C149.467 142.628 149.473 142.405 149.537 142.196C149.601 141.988 149.72 141.802 149.881 141.66L152.914 139.049C152.92 139.042 152.934 139.028 152.92 138.994C152.907 138.959 152.907 138.966 152.9 138.966L148.944 138.702C148.737 138.686 148.538 138.61 148.371 138.483C148.204 138.355 148.075 138.18 148 137.98L146.52 134.133C146.513 134.112 146.507 134.112 146.5 134.112C146.493 134.112 146.487 134.112 146.48 134.133L145 137.987C144.925 138.187 144.796 138.362 144.629 138.49C144.462 138.617 144.263 138.693 144.056 138.709L140.1 138.973C140.093 138.973 140.086 138.973 140.08 139.001C140.073 139.028 140.08 139.049 140.086 139.056L143.119 141.667C143.28 141.809 143.399 141.995 143.463 142.203C143.527 142.412 143.533 142.635 143.481 142.848L142.577 146.542C142.569 146.575 142.57 146.609 142.581 146.641C142.592 146.673 142.611 146.702 142.637 146.722C142.656 146.741 142.68 146.752 142.706 146.753C142.732 146.754 142.757 146.746 142.778 146.729L145.918 144.667C146.092 144.552 146.294 144.492 146.5 144.493Z" fill="black"/>
<path d="M33.7906 58.464C34.9301 57.3893 33.6119 55.9953 31.1189 56.8588C30.9722 56.9098 30.8357 56.9635 30.7069 57.0192C30.9512 56.5502 31.3119 56.0382 31.8519 55.548C31.8519 55.548 30.8434 55.9103 30.3774 55.8185C29.7995 55.7048 29.6182 55 29.6182 55C29.6182 55 29.017 56.3095 28.7107 57.3372C28.2722 56.4542 27.7865 55.595 27.7865 55.595C27.7865 55.595 27.5272 56.196 27.0525 56.4245C26.6698 56.6095 25.0953 56.769 25.0953 56.769C25.6203 57.0375 26.071 57.3693 26.4535 57.7125C26.0513 57.606 25.592 57.526 25.0668 57.488C22.9808 57.3368 22.1616 58.081 22.4406 58.8162L21.4336 58.8485L21.9816 60.9033L22.3221 61C23.1301 63.7373 22.9346 66.7745 22.9321 66.8088L22.9183 67.0068L23.1068 67.0623C26.125 67.9513 28.8672 70 28.8672 70C28.8672 70 32.4227 67.647 34.3776 67.0618L34.5486 67.0105L34.5521 66.8305C34.5531 66.788 34.6386 62.997 35.6199 60.526C35.6889 60.5163 35.7539 60.5085 35.8096 60.505L36.0164 60.4925L36.0371 60.2845C36.0379 60.2762 36.1223 59.0855 36.4336 58.5998L33.7906 58.464ZM22.0803 59.425L23.7011 59.8647V60.8805L22.3558 60.4985L22.0803 59.425ZM24.5988 67.053C24.2136 66.9035 23.8233 66.7675 23.4286 66.6455C23.4606 65.94 23.5068 63.5083 22.8703 61.1555L24.0478 61.49C24.2758 62.4957 24.6543 64.5678 24.5988 67.053ZM26.572 58.2608C28.5955 58.4073 28.9512 59.4517 28.9512 59.4517C28.9512 59.4517 27.7185 59.9025 26.9568 59.9025C24.4713 59.9025 24.1123 58.0825 26.572 58.2608ZM29.069 59.6055L31.1004 59.8358L28.568 60.4485L27.1215 60.1252L29.069 59.6055ZM26.6368 60.5208L28.3267 60.8983V62.1943L26.582 61.7075L26.6368 60.5208ZM28.647 69.255C28.278 68.981 27.663 68.5582 26.8465 68.105C26.9113 66.9107 26.919 63.7198 26.9193 62.3055L28.647 62.7963V69.255ZM30.9084 68.166C30.3055 68.5226 29.7136 68.8975 29.1335 69.29V62.5725C29.8115 62.3236 30.4917 62.0806 31.1739 61.8432C31.0272 63.2577 30.9354 66.9493 30.9084 68.166ZM31.7284 61.208C31.7284 61.208 29.294 61.9893 28.8137 62.1665V60.895L31.7664 60.1805L31.7284 61.208ZM31.4284 59.3428C30.2887 59.6347 29.0765 59.4288 29.0765 59.4288C29.0765 59.4288 28.8492 58.3125 30.6892 57.6753C32.9257 56.9005 33.8099 58.7325 31.4284 59.3428ZM33.1061 58.918L34.5551 58.9995L33.6849 59.2102L32.6457 59.1077C32.8139 59.0493 32.9667 58.9853 33.1061 58.918ZM34.0701 66.643C33.7084 66.7612 33.3269 66.916 32.9424 67.0913C32.9452 65.9202 33.0167 63.3247 33.5591 61.055C34.1169 60.883 34.6339 60.7362 35.0559 60.637C34.2491 62.8835 34.0964 65.877 34.0701 66.643ZM35.5796 60.0353C35.5796 60.0353 34.7794 60.2698 34.2684 60.4107L34.3969 59.5437L35.7881 59.2073C35.6741 59.521 35.5796 60.0353 35.5796 60.0353Z" fill="black"/>
<path d="M146.357 105.464C147.497 104.389 146.178 102.995 143.685 103.859C143.539 103.91 143.402 103.963 143.273 104.019C143.518 103.55 143.878 103.038 144.418 102.548C144.418 102.548 143.41 102.91 142.944 102.819C142.366 102.705 142.185 102 142.185 102C142.185 102 141.583 103.309 141.277 104.337C140.839 103.454 140.353 102.595 140.353 102.595C140.353 102.595 140.094 103.196 139.619 103.424C139.236 103.609 137.662 103.769 137.662 103.769C138.187 104.038 138.637 104.369 139.02 104.713C138.618 104.606 138.158 104.526 137.633 104.488C135.547 104.337 134.728 105.081 135.007 105.816L134 105.848L134.548 107.903L134.888 108C135.696 110.737 135.501 113.774 135.498 113.809L135.485 114.007L135.673 114.062C138.691 114.951 141.434 117 141.434 117C141.434 117 144.989 114.647 146.944 114.062L147.115 114.01L147.119 113.83C147.12 113.788 147.205 109.997 148.186 107.526C148.255 107.516 148.32 107.509 148.376 107.505L148.583 107.492L148.604 107.285C148.604 107.276 148.689 106.086 149 105.6L146.357 105.464ZM134.647 106.425L136.267 106.865V107.88L134.922 107.498L134.647 106.425ZM137.165 114.053C136.78 113.903 136.39 113.768 135.995 113.646C136.027 112.94 136.073 110.508 135.437 108.155L136.614 108.49C136.842 109.496 137.221 111.568 137.165 114.053ZM139.138 105.261C141.162 105.407 141.518 106.452 141.518 106.452C141.518 106.452 140.285 106.903 139.523 106.903C137.038 106.903 136.679 105.082 139.138 105.261ZM141.635 106.606L143.667 106.836L141.134 107.449L139.688 107.125L141.635 106.606ZM139.203 107.521L140.893 107.898V109.194L139.148 108.707L139.203 107.521ZM141.213 116.255C140.844 115.981 140.229 115.558 139.413 115.105C139.478 113.911 139.485 110.72 139.486 109.306L141.213 109.796V116.255ZM143.475 115.166C142.872 115.523 142.28 115.897 141.7 116.29V109.573C142.378 109.324 143.058 109.081 143.74 108.843C143.594 110.258 143.502 113.949 143.475 115.166ZM144.295 108.208C144.295 108.208 141.86 108.989 141.38 109.167V107.895L144.333 107.181L144.295 108.208ZM143.995 106.343C142.855 106.635 141.643 106.429 141.643 106.429C141.643 106.429 141.416 105.312 143.256 104.675C145.492 103.901 146.376 105.733 143.995 106.343ZM145.673 105.918L147.122 105.999L146.251 106.21L145.212 106.108C145.38 106.049 145.533 105.985 145.673 105.918ZM146.637 113.643C146.275 113.761 145.893 113.916 145.509 114.091C145.512 112.92 145.583 110.325 146.126 108.055C146.683 107.883 147.2 107.736 147.622 107.637C146.816 109.884 146.663 112.877 146.637 113.643ZM148.146 107.035C148.146 107.035 147.346 107.27 146.835 107.411L146.963 106.544L148.355 106.207C148.241 106.521 148.146 107.035 148.146 107.035Z" fill="black"/>
<path d="M28 120.438C28 119.526 28.2852 118.651 28.7929 118.007C29.3005 117.362 29.9891 117 30.707 117H41.043C41.7609 117 42.4495 117.362 42.9571 118.007C43.4648 118.651 43.75 119.526 43.75 120.438V128.562C43.75 129.474 43.4648 130.349 42.9571 130.993C42.4495 131.638 41.7609 132 41.043 132H30.707C29.9891 132 29.3005 131.638 28.7929 130.993C28.2852 130.349 28 129.474 28 128.562V120.438ZM28.9844 124.5V128.562C28.9844 129.77 29.7561 130.75 30.707 130.75H32.9219V125.384L31.3016 127.443C31.2092 127.56 31.0838 127.626 30.9531 127.626C30.8224 127.626 30.6971 127.56 30.6047 127.443C30.5122 127.325 30.4603 127.166 30.4603 127C30.4603 126.834 30.5122 126.675 30.6047 126.557L32.2259 124.5H28.9844ZM30.2326 123.25C30.0159 122.773 29.9291 122.219 29.9857 121.674C30.0423 121.128 30.2391 120.622 30.5455 120.232C30.8519 119.843 31.2509 119.593 31.6806 119.522C32.1102 119.45 32.5466 119.56 32.9219 119.835V118.25H30.707C30.2502 118.25 29.812 118.48 29.4889 118.891C29.1659 119.301 28.9844 119.857 28.9844 120.438V123.25H30.2326ZM31.9375 123.25H32.9219V122C32.9219 121.753 32.8641 121.511 32.756 121.306C32.6478 121.1 32.4941 120.94 32.3142 120.845C32.1343 120.751 31.9364 120.726 31.7455 120.774C31.5545 120.822 31.3791 120.941 31.2414 121.116C31.1038 121.291 31.01 121.514 30.972 121.756C30.9341 121.999 30.9536 122.25 31.0281 122.478C31.1026 122.707 31.2287 122.902 31.3906 123.039C31.5525 123.177 31.7428 123.25 31.9375 123.25ZM33.9062 122V123.25H34.8906C35.0853 123.25 35.2756 123.177 35.4375 123.039C35.5994 122.902 35.7256 122.707 35.8001 122.478C35.8746 122.25 35.8941 121.999 35.8561 121.756C35.8181 121.514 35.7244 121.291 35.5867 121.116C35.449 120.941 35.2736 120.822 35.0827 120.774C34.8917 120.726 34.6938 120.751 34.5139 120.845C34.334 120.94 34.1803 121.1 34.0721 121.306C33.964 121.511 33.9062 121.753 33.9062 122ZM36.5956 123.25H42.7656V120.438C42.7656 119.857 42.5841 119.301 42.2611 118.891C41.938 118.48 41.4998 118.25 41.043 118.25H33.9062V119.835C34.2816 119.56 34.7179 119.45 35.1475 119.522C35.5772 119.593 35.9762 119.843 36.2826 120.232C36.5891 120.622 36.7858 121.128 36.8424 121.674C36.899 122.219 36.8122 122.773 36.5956 123.25ZM34.6022 124.5L36.2235 126.557C36.3159 126.675 36.3678 126.834 36.3678 127C36.3678 127.166 36.3159 127.325 36.2235 127.443C36.131 127.56 36.0057 127.626 35.875 127.626C35.7443 127.626 35.619 127.56 35.5265 127.443L33.9062 125.384V130.75H41.043C41.4998 130.75 41.938 130.52 42.2611 130.109C42.5841 129.699 42.7656 129.143 42.7656 128.562V124.5H34.6022Z" fill="black"/>
<path d="M134 21.4375C134 20.5258 134.285 19.6515 134.793 19.0068C135.301 18.3622 135.989 18 136.707 18H147.043C147.761 18 148.449 18.3622 148.957 19.0068C149.465 19.6515 149.75 20.5258 149.75 21.4375V29.5625C149.75 30.4742 149.465 31.3485 148.957 31.9932C148.449 32.6378 147.761 33 147.043 33H136.707C135.989 33 135.301 32.6378 134.793 31.9932C134.285 31.3485 134 30.4742 134 29.5625V21.4375ZM134.984 25.5V29.5625C134.984 30.77 135.756 31.75 136.707 31.75H138.922V26.3837L137.302 28.4425C137.209 28.5599 137.084 28.6258 136.953 28.6258C136.822 28.6258 136.697 28.5599 136.605 28.4425C136.512 28.3251 136.46 28.166 136.46 28C136.46 27.834 136.512 27.6749 136.605 27.5575L138.226 25.5H134.984ZM136.233 24.25C136.016 23.7734 135.929 23.2193 135.986 22.6737C136.042 22.1282 136.239 21.6215 136.546 21.2324C136.852 20.8433 137.251 20.5934 137.681 20.5215C138.11 20.4497 138.547 20.5599 138.922 20.835V19.25H136.707C136.25 19.25 135.812 19.4805 135.489 19.8907C135.166 20.3009 134.984 20.8573 134.984 21.4375V24.25H136.233ZM137.938 24.25H138.922V23C138.922 22.7528 138.864 22.5111 138.756 22.3055C138.648 22.1 138.494 21.9398 138.314 21.8452C138.134 21.7505 137.936 21.7258 137.745 21.774C137.555 21.8222 137.379 21.9413 137.241 22.1161C137.104 22.2909 137.01 22.5137 136.972 22.7561C136.934 22.9986 136.954 23.2499 137.028 23.4784C137.103 23.7068 137.229 23.902 137.391 24.0393C137.552 24.1767 137.743 24.25 137.938 24.25ZM139.906 23V24.25H140.891C141.085 24.25 141.276 24.1767 141.438 24.0393C141.599 23.902 141.726 23.7068 141.8 23.4784C141.875 23.2499 141.894 22.9986 141.856 22.7561C141.818 22.5137 141.724 22.2909 141.587 22.1161C141.449 21.9413 141.274 21.8222 141.083 21.774C140.892 21.7258 140.694 21.7505 140.514 21.8452C140.334 21.9398 140.18 22.1 140.072 22.3055C139.964 22.5111 139.906 22.7528 139.906 23ZM142.596 24.25H148.766V21.4375C148.766 20.8573 148.584 20.3009 148.261 19.8907C147.938 19.4805 147.5 19.25 147.043 19.25H139.906V20.835C140.282 20.5599 140.718 20.4497 141.148 20.5215C141.577 20.5934 141.976 20.8433 142.283 21.2324C142.589 21.6215 142.786 22.1282 142.842 22.6737C142.899 23.2193 142.812 23.7734 142.596 24.25ZM140.602 25.5L142.223 27.5575C142.316 27.6749 142.368 27.834 142.368 28C142.368 28.166 142.316 28.3251 142.223 28.4425C142.131 28.5599 142.006 28.6258 141.875 28.6258C141.744 28.6258 141.619 28.5599 141.527 28.4425L139.906 26.3837V31.75H147.043C147.5 31.75 147.938 31.5195 148.261 31.1093C148.584 30.6991 148.766 30.1427 148.766 29.5625V25.5H140.602Z" fill="black"/>
<circle cx="71" cy="44" r="4.5" stroke="black"/>
<circle cx="22.0586" cy="23" r="4.5" stroke="black"/>
<circle cx="113" cy="121" r="4.5" stroke="black"/>
<circle cx="23" cy="143" r="4.5" stroke="black"/>
<path d="M17 96.4243C21.9165 100.116 21.7621 99.8357 24.4152 95.0217C25.5353 92.9892 25.9248 90.9494 28.4961 91.4622C30.6928 91.9003 33.6439 97.0911 35.4909 94.5755" stroke="black" stroke-linecap="round"/>
<path d="M36.3086 39C42.1511 38.2162 41.8753 38.1149 41.2001 32.4783C40.915 30.0983 40.0661 28.2497 42.3242 26.7536C44.2534 25.4755 49.4336 27.284 49.4336 24" stroke="black" stroke-linecap="round"/>
<path d="M66 117C66.6859 123.677 66.7744 123.362 71.7065 122.59C73.789 122.264 75.4065 121.294 76.7156 123.875C77.834 126.08 76.2515 132 79.125 132" stroke="black" stroke-linecap="round"/>
<path d="M121 99C126.842 98.2162 126.567 98.1149 125.891 92.4783C125.606 90.0983 124.757 88.2497 127.016 86.7536C128.945 85.4755 134.125 87.284 134.125 84" stroke="black" stroke-linecap="round"/>
<path d="M103 148.491C107.916 152.182 107.762 151.902 110.415 147.088C111.535 145.056 111.925 143.016 114.496 143.529C116.693 143.967 119.644 149.158 121.491 146.642" stroke="black" stroke-linecap="round"/>
<path d="M105 39C105.686 45.6771 105.774 45.362 110.707 44.5903C112.789 44.2645 114.407 43.2943 115.716 45.875C116.834 48.0798 115.252 54 118.125 54" stroke="black" stroke-linecap="round"/>
<path d="M64.25 67.8125C64.25 65.7405 65.2377 63.7534 66.9959 62.2882C68.754 60.8231 71.1386 60 73.625 60C76.1114 60 78.496 60.8231 80.2541 62.2882C82.0123 63.7534 83 65.7405 83 67.8125C83 65.7405 83.9877 63.7534 85.7459 62.2882C87.504 60.8231 89.8886 60 92.375 60C94.8614 60 97.246 60.8231 99.0041 62.2882C100.762 63.7534 101.75 65.7405 101.75 67.8125V67.8312C101.75 68.05 101.75 68.675 101.608 69.375H109.25C110.245 69.375 111.198 69.7042 111.902 70.2903C112.605 70.8763 113 71.6712 113 72.5V78.75C113 79.5788 112.605 80.3737 111.902 80.9597C111.198 81.5458 110.245 81.875 109.25 81.875V105.312C109.25 106.556 108.657 107.748 107.602 108.627C106.548 109.506 105.117 110 103.625 110H62.375C60.8832 110 59.4524 109.506 58.3975 108.627C57.3426 107.748 56.75 106.556 56.75 105.312V81.875C55.7554 81.875 54.8016 81.5458 54.0983 80.9597C53.3951 80.3737 53 79.5788 53 78.75V72.5C53 71.6712 53.3951 70.8763 54.0983 70.2903C54.8016 69.7042 55.7554 69.375 56.75 69.375H64.3925C64.2935 68.8646 64.2458 68.3482 64.25 67.8312V67.8125ZM68.255 69.375H79.25V67.8125C79.25 67.1969 79.1045 66.5874 78.8218 66.0187C78.5391 65.45 78.1248 64.9332 77.6025 64.4979C77.0801 64.0627 76.4601 63.7174 75.7776 63.4818C75.0951 63.2462 74.3637 63.125 73.625 63.125C72.8863 63.125 72.1549 63.2462 71.4724 63.4818C70.7899 63.7174 70.1699 64.0627 69.6475 64.4979C69.1252 64.9332 68.7109 65.45 68.4282 66.0187C68.1455 66.5874 68 67.1969 68 67.8125C68 68.0781 68.0075 68.6687 68.1688 69.1562C68.1913 69.2308 68.2201 69.3039 68.255 69.375ZM86.75 69.375H97.745C97.7795 69.3037 97.8083 69.2307 97.8312 69.1562C97.9925 68.6687 98 68.0781 98 67.8125C98 66.5693 97.4074 65.377 96.3525 64.4979C95.2976 63.6189 93.8668 63.125 92.375 63.125C90.8832 63.125 89.4524 63.6189 88.3975 64.4979C87.3426 65.377 86.75 66.5693 86.75 67.8125V69.375ZM56.75 72.5V78.75H79.25V72.5H56.75ZM86.75 72.5V78.75H109.25V72.5H86.75ZM105.5 81.875H86.75V106.875H103.625C104.122 106.875 104.599 106.71 104.951 106.417C105.302 106.124 105.5 105.727 105.5 105.312V81.875ZM79.25 106.875V81.875H60.5V105.312C60.5 105.727 60.6975 106.124 61.0492 106.417C61.4008 106.71 61.8777 106.875 62.375 106.875H79.25Z" fill="black"/>
<defs>
<linearGradient id="paint0_linear_6201_1190" x1="85" y1="0" x2="85" y2="180" gradientUnits="userSpaceOnUse">
<stop stop-color="#0087FF"/>
<stop offset="1" stop-color="#0B1C3D"/>
</linearGradient>
</defs>
</svg>
