<svg width="100" height="100" viewBox="0 0 100 100" fill="none" xmlns="http://www.w3.org/2000/svg">
<path d="M10.5263 52.6346V94.7372H47.3684V52.6346H10.5263ZM52.6316 52.6346V94.7372H89.4737V52.6346H52.6316ZM94.7368 52.6346V100H5.26316V52.6346H0V21.0577H15.9737L15.7895 18.4263C15.7881 14.3985 17.107 10.4813 19.5443 7.27446C21.9816 4.06765 25.4028 1.74806 29.2842 0.670905C33.1655 -0.40625 37.293 -0.181589 41.0345 1.31048C44.776 2.80256 47.9252 5.47979 50 8.93219C52.0748 5.47979 55.224 2.80256 58.9655 1.31048C62.707 -0.181589 66.8345 -0.40625 70.7158 0.670905C74.5972 1.74806 78.0184 4.06765 80.4557 7.27446C82.893 10.4813 84.2119 14.3985 84.2105 18.4263L84.0263 21.0577H100V52.6346H94.7368ZM5.26316 26.3205V47.3718H47.3684V26.3205H5.26316ZM94.7368 47.3718V26.3205H52.6316V47.3718H94.7368ZM78.6842 21.0577L78.9474 18.4263C78.9474 14.9368 77.5611 11.5903 75.0935 9.12288C72.6259 6.65545 69.2792 5.26927 65.7895 5.26927C62.2998 5.26927 58.953 6.65545 56.4854 9.12288C54.0179 11.5903 52.6316 14.9368 52.6316 18.4263V21.0577H78.6842ZM47.3684 21.0577V18.4263C47.3684 14.9368 45.9821 11.5903 43.5146 9.12288C41.047 6.65545 37.7002 5.26927 34.2105 5.26927C30.7208 5.26927 27.3741 6.65545 24.9065 9.12288C22.4389 11.5903 21.0526 14.9368 21.0526 18.4263L21.3158 21.0577H47.3684Z" fill="#020202"/>
</svg>
