<svg width="22" height="26" viewBox="0 0 22 26" fill="none" xmlns="http://www.w3.org/2000/svg">
<path d="M11.2278 13.7877C10.7883 13.7894 10.3614 13.9354 10.0129 14.2034C9.66444 14.4713 9.41359 14.8462 9.29894 15.2706C9.18428 15.6949 9.21218 16.1452 9.37834 16.5522C9.54449 16.9591 9.83971 17.3002 10.2186 17.5231V20.3846H12.2617V17.5231C12.5615 17.3458 12.8102 17.0939 12.9839 16.7919C13.1575 16.49 13.25 16.1483 13.2525 15.8V15.8C13.2525 15.5347 13.2 15.272 13.0981 15.0271C12.9962 14.7821 12.8469 14.5597 12.6587 14.3727C12.4706 14.1857 12.2473 14.0377 12.0017 13.9373C11.7561 13.8369 11.4931 13.7861 11.2278 13.7877V13.7877Z" stroke="black" stroke-linecap="round" stroke-linejoin="round"/>
<path d="M18.7908 9.16614H3.65846C2.19023 9.16614 1 10.3564 1 11.8246V22.3415C1 23.8097 2.19023 25 3.65846 25H18.7908C20.259 25 21.4492 23.8097 21.4492 22.3415V11.8246C21.4492 10.3564 20.259 9.16614 18.7908 9.16614Z" stroke="black" stroke-linecap="round" stroke-linejoin="round"/>
<path d="M4.67383 9.16615V7.56C4.67383 5.82018 5.36497 4.15162 6.59521 2.92138C7.82545 1.69114 9.49401 1 11.2338 1C12.9736 1 14.6422 1.69114 15.8724 2.92138C17.1027 4.15162 17.7938 5.82018 17.7938 7.56V9.16615" stroke="black" stroke-linecap="round" stroke-linejoin="round"/>
</svg>
