<svg width="24" height="24" viewBox="0 0 24 24" fill="none" xmlns="http://www.w3.org/2000/svg">
<path fill-rule="evenodd" clip-rule="evenodd" d="M0 12C0 5.3724 5.3724 0 12 0C18.6276 0 24 5.3724 24 12C24 18.6276 18.6276 24 12 24C5.3724 24 0 18.6276 0 12ZM13.2 7.2C13.2 6.88174 13.0736 6.57652 12.8485 6.35147C12.6235 6.12643 12.3183 6 12 6C11.6817 6 11.3765 6.12643 11.1515 6.35147C10.9264 6.57652 10.8 6.88174 10.8 7.2C10.8 7.51826 10.9264 7.82348 11.1515 8.04853C11.3765 8.27357 11.6817 8.4 12 8.4C12.3183 8.4 12.6235 8.27357 12.8485 8.04853C13.0736 7.82348 13.2 7.51826 13.2 7.2ZM12 18C12.3183 18 12.6235 17.8736 12.8485 17.6485C13.0736 17.4235 13.2 17.1183 13.2 16.8V12C13.2 11.6817 13.0736 11.3765 12.8485 11.1515C12.6235 10.9264 12.3183 10.8 12 10.8C11.6817 10.8 11.3765 10.9264 11.1515 11.1515C10.9264 11.3765 10.8 11.6817 10.8 12V16.8C10.8 17.1183 10.9264 17.4235 11.1515 17.6485C11.3765 17.8736 11.6817 18 12 18Z" fill="#333333"/>
</svg>
