<svg width="24" height="24" viewBox="0 0 24 24" fill="none" xmlns="http://www.w3.org/2000/svg">
<circle cx="12" cy="12" r="11.5" stroke="#333333"/>
<path d="M15.125 10.0146H11.375M15.75 7C16.0815 7 16.3995 7.12704 16.6339 7.35318C16.8683 7.57932 17 7.88604 17 8.20585V14.2351C17 14.5549 16.8683 14.8616 16.6339 15.0877C16.3995 15.3139 16.0815 15.4409 15.75 15.4409L13.8756 15.4403L12.4419 16.8234C12.3343 16.9272 12.1911 16.9896 12.0392 16.9988C11.8873 17.008 11.7371 16.9635 11.6169 16.8735L11.5581 16.8234L10.1244 15.4403L8.25 15.4409C7.91848 15.4409 7.60054 15.3139 7.36612 15.0877C7.1317 14.8616 7 14.5549 7 14.2351V8.20585C7 7.88604 7.1317 7.57932 7.36612 7.35318C7.60054 7.12704 7.91848 7 8.25 7H15.75Z" stroke="#333333" stroke-linecap="round" stroke-linejoin="round"/>
<path fill-rule="evenodd" clip-rule="evenodd" d="M9.49889 10.6175C9.81139 10.6175 10.1239 10.316 10.1239 10.0145C10.1239 9.71308 9.81139 9.41162 9.49889 9.41162C9.18639 9.41162 8.87451 9.71308 8.87451 10.0145C8.87451 10.316 9.18639 10.6175 9.49889 10.6175ZM9.49889 13.0292C9.81139 13.0292 10.1239 12.7277 10.1239 12.4262C10.1239 12.1248 9.81139 11.8233 9.49889 11.8233C9.18639 11.8233 8.87451 12.1248 8.87451 12.4262C8.87451 12.7277 9.18639 13.0292 9.49889 13.0292Z" fill="#333333"/>
<path d="M15.1255 12.4261H11.3755" stroke="#333333" stroke-linecap="round" stroke-linejoin="round"/>
</svg>
