<svg width="24" height="24" viewBox="0 0 24 24" fill="none" xmlns="http://www.w3.org/2000/svg">
<path d="M9.0625 6.63125C8.8625 6.86125 8.75 7.17875 8.75 7.4975C8.75 7.66326 8.68416 7.82223 8.56695 7.93944C8.44974 8.05665 8.29077 8.1225 8.12501 8.1225C7.95925 8.1225 7.80027 8.05665 7.68306 7.93944C7.56585 7.82223 7.50001 7.66326 7.50001 7.4975C7.50001 6.90625 7.70126 6.285 8.12501 5.805C8.55875 5.3125 9.2 4.9975 10 4.9975C10.8 4.9975 11.4413 5.3125 11.875 5.805C12.2988 6.28625 12.5 6.905 12.5 7.4975C12.5 8.11 12.355 8.585 12.1225 8.985C11.9188 9.33375 11.6525 9.61 11.4413 9.83125L11.3888 9.885C11.1563 10.1287 10.9775 10.3275 10.8463 10.5775C10.7213 10.8162 10.625 11.1325 10.625 11.6137C10.625 11.7795 10.5592 11.9385 10.4419 12.0557C10.3247 12.1729 10.1658 12.2387 10 12.2387C9.83424 12.2387 9.67527 12.1729 9.55806 12.0557C9.44085 11.9385 9.375 11.7795 9.375 11.6137C9.375 10.9487 9.5125 10.43 9.73875 9.9975C9.96 9.57625 10.2513 9.2675 10.4863 9.02125L10.5138 8.9925C10.7488 8.74625 10.9163 8.57125 11.0425 8.355C11.1613 8.15125 11.25 7.89375 11.25 7.4975C11.25 7.17875 11.1388 6.86 10.9375 6.63125C10.7463 6.415 10.45 6.2475 10 6.2475C9.55 6.2475 9.25375 6.415 9.0625 6.63125ZM10 15.2625C10.1176 15.2669 10.2349 15.2476 10.3449 15.2057C10.4548 15.1637 10.5552 15.1001 10.64 15.0184C10.7248 14.9368 10.7922 14.8389 10.8383 14.7306C10.8843 14.6223 10.9081 14.5058 10.9081 14.3881C10.9081 14.2704 10.8843 14.1539 10.8383 14.0456C10.7922 13.9373 10.7248 13.8395 10.64 13.7578C10.5552 13.6762 10.4548 13.6125 10.3449 13.5706C10.2349 13.5286 10.1176 13.5093 10 13.5137C9.76794 13.5137 9.54538 13.6059 9.38129 13.77C9.21719 13.9341 9.125 14.1567 9.125 14.3887C9.125 14.6208 9.21719 14.8434 9.38129 15.0075C9.54538 15.1716 9.76794 15.2637 10 15.2637V15.2625ZM1.07437e-05 9.9975C0.000556491 7.81228 0.716876 5.68739 2.03941 3.94782C3.36194 2.20826 5.21788 0.949782 7.32337 0.364878C9.42886 -0.220026 11.668 -0.0991587 13.6983 0.708993C15.7286 1.51715 17.4382 2.96809 18.5658 4.83992C19.6934 6.71174 20.1768 8.90139 19.9422 11.074C19.7075 13.2466 18.7676 15.2825 17.2663 16.8703C15.765 18.4581 13.7849 19.5105 11.6288 19.8664C9.47279 20.2224 7.25952 19.8623 5.32751 18.8412L0.77751 19.9787C0.672792 20.0051 0.563041 20.0038 0.458954 19.9751C0.354867 19.9464 0.259993 19.8912 0.18358 19.8149C0.107167 19.7386 0.0518214 19.6438 0.0229365 19.5398C-0.00594848 19.4358 -0.00738704 19.326 0.0187609 19.2212L1.15626 14.67C0.394628 13.2305 -0.00238109 11.6261 1.07437e-05 9.9975ZM10 1.2475C8.47298 1.24704 6.97241 1.64621 5.64745 2.40534C4.32249 3.16447 3.21926 4.25713 2.4474 5.57472C1.67555 6.89232 1.26196 8.38897 1.24772 9.91593C1.23349 11.4429 1.61911 12.947 2.36626 14.2787C2.44473 14.4177 2.46709 14.5814 2.42876 14.7362L1.48376 18.5137L5.26126 17.5687C5.41614 17.5304 5.57983 17.5528 5.71876 17.6312C6.88533 18.2848 8.18616 18.6622 9.52136 18.7346C10.8566 18.8071 12.1906 18.5725 13.421 18.049C14.6514 17.5255 15.7455 16.7269 16.6192 15.7147C17.4928 14.7024 18.1229 13.5034 18.461 12.2097C18.799 10.916 18.8361 9.56198 18.5693 8.25171C18.3025 6.94144 17.739 5.70974 16.922 4.65122C16.105 3.59269 15.0562 2.73549 13.8563 2.14545C12.6564 1.55541 11.3372 1.24823 10 1.2475Z" fill="black"/>
</svg>
