<svg width="20" height="21" viewBox="0 0 20 21" fill="none" xmlns="http://www.w3.org/2000/svg">
<path d="M18.9485 10.0023H16.8433C16.5641 10.0023 16.2964 10.1077 16.099 10.2952C15.9016 10.4828 15.7907 10.7371 15.7907 11.0023C15.7907 11.2675 15.9016 11.5219 16.099 11.7094C16.2964 11.897 16.5641 12.0023 16.8433 12.0023V14.0023H15.5949C15.72 13.6821 15.7858 13.3438 15.7896 13.0023C15.7896 12.3419 15.5602 11.7 15.1371 11.1761C14.7139 10.6522 14.1206 10.2756 13.4492 10.1047C12.7777 9.93376 12.0657 9.97809 11.4235 10.2308C10.7813 10.4835 10.2448 10.9304 9.89723 11.5023C9.82703 11.6161 9.7812 11.7419 9.7624 11.8726C9.74359 12.0033 9.75218 12.1362 9.78766 12.2637C9.82314 12.3912 9.88482 12.5107 9.96914 12.6155C10.0535 12.7203 10.1588 12.8081 10.279 12.8741C10.3992 12.94 10.532 12.9827 10.6696 12.9997C10.8073 13.0167 10.9471 13.0077 11.0811 12.9731C11.215 12.9386 11.3405 12.8792 11.4502 12.7984C11.5599 12.7176 11.6517 12.617 11.7203 12.5023C11.8127 12.3503 11.9456 12.2241 12.1056 12.1363C12.2656 12.0485 12.4471 12.0023 12.6319 12.0023C12.911 12.0023 13.1788 12.1077 13.3762 12.2952C13.5736 12.4828 13.6845 12.7371 13.6845 13.0023C13.6845 13.2675 13.5736 13.5219 13.3762 13.7094C13.1788 13.897 12.911 14.0023 12.6319 14.0023C12.3527 14.0023 12.085 14.1077 11.8876 14.2952C11.6902 14.4828 11.5793 14.7371 11.5793 15.0023C11.5793 15.2675 11.6902 15.5219 11.8876 15.7094C12.085 15.897 12.3527 16.0023 12.6319 16.0023C12.911 16.0023 13.1788 16.1077 13.3762 16.2952C13.5736 16.4828 13.6845 16.7371 13.6845 17.0023C13.6845 17.2675 13.5736 17.5219 13.3762 17.7094C13.1788 17.897 12.911 18.0023 12.6319 18.0023C12.4471 18.0023 12.2656 17.9561 12.1056 17.8683C11.9456 17.7806 11.8127 17.6543 11.7203 17.5023C11.6517 17.3877 11.5599 17.2871 11.4502 17.2063C11.3405 17.1255 11.215 17.0661 11.0811 17.0315C10.9471 16.997 10.8073 16.9879 10.6696 17.0049C10.532 17.0219 10.3992 17.0646 10.279 17.1306C10.1588 17.1965 10.0535 17.2844 9.96914 17.3891C9.88482 17.4939 9.82314 17.6135 9.78766 17.741C9.75218 17.8685 9.74359 18.0014 9.7624 18.132C9.7812 18.2627 9.82703 18.3886 9.89723 18.5023C10.2448 19.0742 10.7813 19.5212 11.4235 19.7739C12.0657 20.0266 12.7777 20.0709 13.4492 19.9C14.1206 19.729 14.7139 19.3524 15.1371 18.8285C15.5602 18.3046 15.7896 17.6627 15.7896 17.0023C15.7858 16.6608 15.72 16.3225 15.5949 16.0023H16.8422V19.0023C16.8422 19.2675 16.9531 19.5219 17.1505 19.7094C17.3479 19.897 17.6157 20.0023 17.8948 20.0023C18.174 20.0023 18.4417 19.897 18.6391 19.7094C18.8365 19.5219 18.9474 19.2675 18.9474 19.0023V12.0023C19.2266 12.0023 19.4943 11.897 19.6917 11.7094C19.8891 11.5219 20 11.2675 20 11.0023C20 10.7371 19.8891 10.4828 19.6917 10.2952C19.4943 10.1077 19.2266 10.0023 18.9474 10.0023H18.9485ZM6.34895 9.24532C6.38173 9.37352 6.44089 9.49428 6.52301 9.60066C6.60513 9.70704 6.7086 9.79693 6.82745 9.86515C6.9463 9.93337 7.07819 9.97858 7.21551 9.99817C7.35283 10.0178 7.49288 10.0113 7.62757 9.97928C7.76227 9.94722 7.88896 9.89016 8.00035 9.81138C8.11173 9.7326 8.20561 9.63366 8.27657 9.52027C8.34753 9.40687 8.39417 9.28125 8.4138 9.15065C8.43344 9.02006 8.42568 8.88706 8.39098 8.75932L6.54157 1.72932C6.4122 1.23551 6.11266 0.797004 5.69063 0.483623C5.26861 0.170242 4.74836 0 4.21272 0C3.67707 0 3.15682 0.170242 2.7348 0.483623C2.31277 0.797004 2.01323 1.23551 1.88386 1.72932L0.0334045 8.75932C-0.0013006 8.88706 -0.009059 9.02006 0.0105764 9.15065C0.0302118 9.28125 0.0768529 9.40687 0.147813 9.52027C0.218772 9.63366 0.312648 9.7326 0.424032 9.81138C0.535416 9.89016 0.662106 9.94722 0.796805 9.97928C0.931503 10.0113 1.07155 10.0178 1.20887 9.99817C1.34619 9.97858 1.47808 9.93337 1.59693 9.86515C1.71578 9.79693 1.81925 9.70704 1.90137 9.60066C1.98349 9.49428 2.04265 9.37352 2.07543 9.24532L2.66383 7.00232H5.75845L6.34895 9.24532ZM3.19118 5.00232L3.92483 2.21532C3.94696 2.15994 3.9863 2.11225 4.03762 2.0786C4.08895 2.04495 4.14983 2.02693 4.21219 2.02693C4.27455 2.02693 4.33543 2.04495 4.38676 2.0786C4.43808 2.11225 4.47742 2.15994 4.49955 2.21532L5.2332 5.00232H3.19118ZM11.5803 5.00232H12.6329C12.912 5.00259 13.1796 5.10803 13.3769 5.29551C13.5742 5.48299 13.6852 5.73719 13.6855 6.00232V7.00232C13.6855 7.26754 13.7964 7.52189 13.9938 7.70943C14.1912 7.89697 14.4589 8.00232 14.7381 8.00232C15.0173 8.00232 15.285 7.89697 15.4824 7.70943C15.6798 7.52189 15.7907 7.26754 15.7907 7.00232V6.00232C15.7899 5.20692 15.4569 4.44432 14.8649 3.88188C14.2729 3.31944 13.4702 3.00312 12.6329 3.00232H11.5803C11.3012 3.00232 11.0334 3.10768 10.836 3.29522C10.6386 3.48275 10.5277 3.73711 10.5277 4.00232C10.5277 4.26754 10.6386 4.52189 10.836 4.70943C11.0334 4.89697 11.3012 5.00232 11.5803 5.00232ZM7.36996 14.0023H6.31737C6.03829 14.0021 5.77072 13.8966 5.57339 13.7091C5.37605 13.5217 5.26506 13.2675 5.26478 13.0023V12.0023C5.26478 11.7371 5.15388 11.4828 4.95648 11.2952C4.75909 11.1077 4.49135 11.0023 4.21219 11.0023C3.93303 11.0023 3.66529 11.1077 3.4679 11.2952C3.2705 11.4828 3.1596 11.7371 3.1596 12.0023V13.0023C3.16044 13.7977 3.4934 14.5603 4.08541 15.1228C4.67743 15.6852 5.48013 16.0015 6.31737 16.0023H7.36996C7.64913 16.0023 7.91686 15.897 8.11426 15.7094C8.31166 15.5219 8.42255 15.2675 8.42255 15.0023C8.42255 14.7371 8.31166 14.4828 8.11426 14.2952C7.91686 14.1077 7.64913 14.0023 7.36996 14.0023Z" fill="#333333"/>
</svg>
