<svg width="20" height="24" viewBox="0 0 20 24" fill="none" xmlns="http://www.w3.org/2000/svg">
<path d="M8.33333 12.5057L6.175 10.2857L5 11.4943L8.33333 14.9229L15 8.06575L13.825 6.85718L8.33333 12.5057Z" fill="#333333"/>
<path d="M10 24L4.85334 21.1774C3.38611 20.3746 2.15914 19.1759 1.30411 17.71C0.449067 16.2442 -0.00176088 14.5666 5.16881e-06 12.8571V1.71429C0.000446399 1.25977 0.176183 0.823996 0.488648 0.502604C0.801113 0.181211 1.22478 0.000453837 1.66667 0H18.3333C18.7752 0.000453837 19.1989 0.181211 19.5114 0.502604C19.8238 0.823996 19.9996 1.25977 20 1.71429V12.8571C20.0018 14.5666 19.5509 16.2442 18.6959 17.71C17.8409 19.1759 16.6139 20.3746 15.1467 21.1774L10 24ZM1.66667 1.71429V12.8571C1.66529 14.2558 2.03426 15.6285 2.73397 16.8278C3.43369 18.0271 4.43773 19.0078 5.63834 19.6646L10 22.0569L14.3617 19.6654C15.5624 19.0086 16.5665 18.0278 17.2662 16.8283C17.966 15.6288 18.3349 14.256 18.3333 12.8571V1.71429H1.66667Z" fill="#333333"/>
</svg>
