<svg width="22" height="24" viewBox="0 0 22 24" fill="none" xmlns="http://www.w3.org/2000/svg">
<path d="M7.00701 2.385C5.57839 2.77872 4.15948 3.20685 2.75151 3.669C2.62294 3.71065 2.50866 3.78756 2.42167 3.89099C2.33469 3.99442 2.2785 4.1202 2.25951 4.254C1.42851 10.4895 3.34851 15.039 5.63901 18.036C6.60878 19.3176 7.76512 20.4466 9.06951 21.3855C9.58851 21.7515 10.0475 22.0155 10.409 22.185C10.589 22.2705 10.736 22.3275 10.8485 22.362C10.8977 22.3793 10.9484 22.3918 11 22.3995C11.051 22.3912 11.1011 22.3787 11.15 22.362C11.264 22.3275 11.411 22.2705 11.591 22.185C11.951 22.0155 12.4115 21.75 12.9305 21.3855C14.2349 20.4466 15.3912 19.3176 16.361 18.036C18.6515 15.0405 20.5715 10.4895 19.7405 4.254C19.7217 4.12014 19.6656 3.99427 19.5786 3.89082C19.4915 3.78736 19.3772 3.71049 19.2485 3.669C18.272 3.3495 16.6235 2.829 14.993 2.3865C13.328 1.935 11.7965 1.6005 11 1.6005C10.205 1.6005 8.67201 1.935 7.00701 2.3865V2.385ZM6.60801 0.84C8.23551 0.3975 9.96501 0 11 0C12.035 0 13.7645 0.3975 15.392 0.84C17.057 1.29 18.7355 1.8225 19.7225 2.145C20.1352 2.28128 20.501 2.5312 20.778 2.86605C21.055 3.20091 21.232 3.60711 21.2885 4.038C22.1825 10.7535 20.108 15.7305 17.591 19.023C16.5237 20.4315 15.251 21.6718 13.8155 22.7025C13.3191 23.0592 12.7932 23.3728 12.2435 23.64C11.8235 23.838 11.372 24 11 24C10.628 24 10.178 23.838 9.75651 23.64C9.20678 23.3728 8.68087 23.0592 8.18451 22.7025C6.74905 21.6717 5.47638 20.4314 4.40901 19.023C1.89201 15.7305 -0.182492 10.7535 0.711508 4.038C0.768039 3.60711 0.944973 3.20091 1.22198 2.86605C1.49899 2.5312 1.86485 2.28128 2.27751 2.145C3.7103 1.67521 5.15422 1.24009 6.60801 0.84Z" fill="black"/>
<path d="M13.25 9.75004C13.2502 10.2155 13.1061 10.6696 12.8375 11.0498C12.5688 11.4299 12.1889 11.7174 11.75 11.8725L12.3275 14.8575C12.3485 14.9661 12.3453 15.078 12.318 15.1851C12.2907 15.2923 12.24 15.3921 12.1696 15.4774C12.0992 15.5627 12.0109 15.6314 11.9108 15.6785C11.8108 15.7256 11.7016 15.7501 11.591 15.75H10.409C10.2985 15.7498 10.1895 15.7253 10.0896 15.678C9.98979 15.6308 9.90161 15.5621 9.83139 15.4768C9.76117 15.3916 9.71065 15.2918 9.68345 15.1848C9.65624 15.0777 9.65301 14.966 9.674 14.8575L10.25 11.8725C9.86114 11.7351 9.51755 11.4933 9.25678 11.1738C8.99601 10.8542 8.82809 10.4692 8.77138 10.0606C8.71466 9.6521 8.77132 9.23584 8.93518 8.85734C9.09904 8.47884 9.36378 8.15266 9.70048 7.91444C10.0372 7.67623 10.4329 7.53515 10.8443 7.50661C11.2558 7.47808 11.6672 7.56319 12.0335 7.75265C12.3999 7.94211 12.7071 8.22862 12.9217 8.58088C13.1362 8.93314 13.2498 9.33759 13.25 9.75004Z" fill="black"/>
</svg>
