<svg width="24" height="24" viewBox="0 0 24 24" fill="none" xmlns="http://www.w3.org/2000/svg">
<path d="M1.464 9.93266C1.30331 9.76335 1.21304 9.53376 1.21304 9.29436C1.21304 9.05496 1.30331 8.82536 1.464 8.65606L9.42857 0.265139L9.54857 0.158605C9.71372 0.0391429 9.91338 -0.0156125 10.1129 0.00384926C10.3124 0.023311 10.4991 0.11576 10.6406 0.265139L10.74 0.391535C10.8538 0.565563 10.9061 0.776045 10.8879 0.986468C10.8698 1.19689 10.7823 1.39398 10.6406 1.54355L4.14 8.39062H23.1429C23.3702 8.39062 23.5882 8.48574 23.7489 8.65506C23.9097 8.82437 24 9.05401 24 9.29346C24 9.5329 23.9097 9.76254 23.7489 9.93185C23.5882 10.1012 23.3702 10.1963 23.1429 10.1963H2.06914C1.84225 10.1962 1.62464 10.1014 1.464 9.93266ZM0 14.7104C0 14.471 0.0903058 14.2414 0.251051 14.072C0.411797 13.9027 0.629814 13.8076 0.857143 13.8076H21.9309C22.1003 13.8077 22.2658 13.8606 22.4067 13.9597C22.5476 14.0587 22.6574 14.1996 22.7224 14.3644C22.7873 14.5292 22.8044 14.7106 22.7715 14.8856C22.7387 15.0606 22.6573 15.2215 22.5377 15.3478L14.5714 23.7388L14.4514 23.8453C14.275 23.9706 14.0607 24.0226 13.8501 23.991C13.6394 23.9594 13.4474 23.8465 13.3112 23.6743C13.175 23.5021 13.1043 23.2828 13.1129 23.0588C13.1215 22.8348 13.2088 22.6222 13.3577 22.4622L19.8651 15.6133H0.857143C0.629814 15.6133 0.411797 15.5182 0.251051 15.3488C0.0903058 15.1795 0 14.9499 0 14.7104Z" fill="#333333"/>
</svg>
