<svg width="20" height="24" viewBox="0 0 20 24" fill="none" xmlns="http://www.w3.org/2000/svg">
<path d="M10.0002 4.28573C10.4422 4.28573 10.8661 4.46634 11.1787 4.78783C11.4912 5.10933 11.6668 5.54536 11.6668 6.00002V9.42859H8.33349V6.00002C8.33349 5.54536 8.50909 5.10933 8.82165 4.78783C9.13421 4.46634 9.55813 4.28573 10.0002 4.28573V4.28573ZM12.5002 9.42859V6.00002C12.5002 5.31803 12.2368 4.66398 11.7679 4.18174C11.2991 3.69951 10.6632 3.42859 10.0002 3.42859C9.33712 3.42859 8.70124 3.69951 8.23239 4.18174C7.76355 4.66398 7.50016 5.31803 7.50016 6.00002V9.42859C7.05813 9.42859 6.63421 9.6092 6.32165 9.93069C6.00909 10.2522 5.8335 10.6882 5.8335 11.1429V15.4286C5.8335 15.8832 6.00909 16.3193 6.32165 16.6408C6.63421 16.9623 7.05813 17.1429 7.50016 17.1429H12.5002C12.9422 17.1429 13.3661 16.9623 13.6787 16.6408C13.9912 16.3193 14.1668 15.8832 14.1668 15.4286V11.1429C14.1668 10.6882 13.9912 10.2522 13.6787 9.93069C13.3661 9.6092 12.9422 9.42859 12.5002 9.42859V9.42859ZM7.50016 10.2857H12.5002C12.7212 10.2857 12.9331 10.376 13.0894 10.5368C13.2457 10.6975 13.3335 10.9155 13.3335 11.1429V15.4286C13.3335 15.6559 13.2457 15.8739 13.0894 16.0347C12.9331 16.1954 12.7212 16.2857 12.5002 16.2857H7.50016C7.27915 16.2857 7.06719 16.1954 6.91091 16.0347C6.75463 15.8739 6.66683 15.6559 6.66683 15.4286V11.1429C6.66683 10.9155 6.75463 10.6975 6.91091 10.5368C7.06719 10.376 7.27915 10.2857 7.50016 10.2857Z" fill="#333333"/>
<path d="M10 24L4.85334 21.1774C3.38611 20.3746 2.15914 19.1759 1.30411 17.71C0.449067 16.2442 -0.00176088 14.5666 5.16881e-06 12.8571V1.71429C0.000446399 1.25977 0.176183 0.823996 0.488648 0.502604C0.801113 0.181211 1.22478 0.000453837 1.66667 0H18.3333C18.7752 0.000453837 19.1989 0.181211 19.5114 0.502604C19.8238 0.823996 19.9996 1.25977 20 1.71429V12.8571C20.0018 14.5666 19.5509 16.2442 18.6959 17.71C17.8409 19.1759 16.6139 20.3746 15.1467 21.1774L10 24ZM1.66667 1.71429V12.8571C1.66529 14.2558 2.03426 15.6285 2.73397 16.8278C3.43369 18.0271 4.43773 19.0078 5.63834 19.6646L10 22.0569L14.3617 19.6654C15.5624 19.0086 16.5665 18.0278 17.2662 16.8283C17.966 15.6288 18.3349 14.256 18.3333 12.8571V1.71429H1.66667Z" fill="#333333"/>
</svg>
