<svg width="24" height="24" viewBox="0 0 24 24" fill="none" xmlns="http://www.w3.org/2000/svg">
<path d="M9.64286 1V4.14286L8.07143 4.92857L5.71429 2.57143L2.57143 5.71429L4.92857 8.07143L4.14286 9.64286H1V14.3571H4.14286L4.92857 15.9286L2.57143 18.2857L5.71429 21.4286L8.07143 19.0714L9.64286 19.8571V23H14.3571V19.8571L15.9286 19.0714L18.2857 21.4286L21.4286 18.2857L19.0714 15.9286L19.8571 14.3571H23V9.64286H19.8571L19.0714 8.07143L21.4286 5.71429L18.2857 2.57143L15.9286 4.92857L14.3571 4.14286V1H9.64286Z" stroke="#333333" stroke-width="2" stroke-linecap="round" stroke-linejoin="round"/>
<path d="M11.9998 15.1428C13.7355 15.1428 15.1426 13.7357 15.1426 11.9999C15.1426 10.2642 13.7355 8.85706 11.9998 8.85706C10.264 8.85706 8.85693 10.2642 8.85693 11.9999C8.85693 13.7357 10.264 15.1428 11.9998 15.1428Z" stroke="#333333" stroke-width="2" stroke-linecap="round" stroke-linejoin="round"/>
</svg>
