<svg width="22" height="22" viewBox="0 0 22 22" fill="none" xmlns="http://www.w3.org/2000/svg">
<path d="M4.34272 1.22276H8.35423C8.57429 1.22283 8.78611 1.31106 8.94691 1.46961C9.10771 1.62816 9.20549 1.84522 9.22048 2.07693C9.23548 2.30863 9.16659 2.53771 9.02771 2.71787C8.88884 2.89802 8.69035 3.01584 8.47235 3.04749L8.35423 3.05605H4.34272C3.68248 3.05596 3.04682 3.3204 2.56422 3.79592C2.08162 4.27145 1.78807 4.92259 1.74288 5.61776L1.73709 5.80598V17.4168C1.73701 18.1136 1.98757 18.7844 2.43814 19.2938C2.88871 19.8031 3.50568 20.1129 4.16437 20.1606L4.34272 20.1667H15.3443C16.0045 20.1668 16.6402 19.9024 17.1228 19.4268C17.6054 18.9513 17.8989 18.3002 17.9441 17.605L17.9499 17.4168V16.8081C17.948 16.5744 18.0307 16.3486 18.1813 16.1771C18.3318 16.0056 18.5388 15.9013 18.7598 15.8856C18.9808 15.8698 19.1992 15.9438 19.3703 16.0923C19.5413 16.2409 19.6521 16.4528 19.68 16.6847L19.687 16.8081V17.4168C19.6871 18.5901 19.2608 19.7187 18.496 20.5703C17.7312 21.4218 16.686 21.9313 15.5759 21.9939L15.3443 22H4.34272C3.23098 22.0001 2.16155 21.5502 1.35471 20.743C0.547874 19.9359 0.0650828 18.8329 0.00579044 17.6612L1.75717e-08 17.4168V5.80598C-9.99287e-05 4.63268 0.426168 3.50402 1.19099 2.6525C1.95582 1.80098 3.00095 1.29145 4.1111 1.22887L4.34272 1.22276H8.35423H4.34272ZM13.3211 4.33201V0.917213C13.321 0.748607 13.365 0.583238 13.4482 0.439298C13.5314 0.295357 13.6506 0.178422 13.7927 0.101356C13.9348 0.0242899 14.0943 -0.00992133 14.2536 0.00248532C14.4129 0.014892 14.5659 0.073436 14.6957 0.171677L14.7907 0.256009L21.7321 7.2836C22.0564 7.61115 22.0865 8.13914 21.8213 8.50213L21.7321 8.60601L14.7907 15.6361C14.6755 15.7529 14.532 15.8339 14.376 15.8702C14.22 15.9065 14.0575 15.8967 13.9065 15.8419C13.7554 15.7871 13.6216 15.6893 13.5198 15.5594C13.4179 15.4295 13.352 15.2725 13.3292 15.1056L13.3211 14.9748V11.5503L12.9494 11.5429C9.87128 11.5332 7.24018 12.8666 4.99933 15.5774C4.42494 16.2716 3.3491 15.7387 3.48691 14.8294C4.44462 8.54735 7.65592 4.99689 12.9714 4.36868L13.3211 4.33201V0.917213V4.33201Z" fill="#0B1C3D"/>
</svg>
