<svg width="22" height="24" viewBox="0 0 22 24" fill="none" xmlns="http://www.w3.org/2000/svg">
<path d="M10.7799 5.6375C10.8 5.59627 10.8313 5.56151 10.8702 5.5372C10.9091 5.51289 10.954 5.5 10.9999 5.5C11.0458 5.5 11.0907 5.51289 11.1296 5.5372C11.1685 5.56151 11.1998 5.59627 11.2199 5.6375L12.0917 7.40438C12.1091 7.44012 12.135 7.47107 12.1671 7.49454C12.1992 7.51802 12.2366 7.53333 12.2759 7.53912L14.2284 7.82238C14.4278 7.85125 14.5089 8.09738 14.3632 8.239L12.9524 9.61538C12.924 9.64316 12.9027 9.67747 12.8905 9.71532C12.8783 9.75318 12.8754 9.79344 12.8823 9.83262L13.215 11.7769C13.2225 11.8218 13.2173 11.8679 13.2 11.91C13.1828 11.9521 13.1541 11.9885 13.1172 12.0152C13.0804 12.0419 13.0368 12.0579 12.9914 12.0612C12.946 12.0645 12.9006 12.0551 12.8603 12.034L11.114 11.1155C11.079 11.0972 11.0401 11.0876 11.0006 11.0876C10.9611 11.0876 10.9222 11.0972 10.8872 11.1155L9.14092 12.034C9.10062 12.0547 9.05537 12.0638 9.0102 12.0603C8.96504 12.0568 8.92173 12.0408 8.8851 12.0142C8.84847 11.9875 8.81995 11.9512 8.80273 11.9093C8.7855 11.8674 8.78025 11.8216 8.78754 11.7769L9.12029 9.83262C9.12731 9.79355 9.12472 9.75336 9.11274 9.71551C9.10077 9.67766 9.07976 9.6433 9.05154 9.61538L7.63529 8.239C7.60285 8.20715 7.57992 8.16689 7.56908 8.12274C7.55823 8.07859 7.5599 8.03229 7.57389 7.98904C7.58788 7.94578 7.61364 7.90727 7.64829 7.87784C7.68293 7.8484 7.72509 7.8292 7.77004 7.82238L9.72254 7.53912C9.76189 7.53333 9.79923 7.51802 9.83134 7.49454C9.86344 7.47107 9.88934 7.44012 9.90679 7.40438L10.7799 5.6375Z" fill="#0087FF"/>
<path d="M2.75 2.75C2.75 2.02065 3.03973 1.32118 3.55546 0.805456C4.07118 0.289731 4.77065 0 5.5 0L16.5 0C17.2293 0 17.9288 0.289731 18.4445 0.805456C18.9603 1.32118 19.25 2.02065 19.25 2.75V21.3125C19.2499 21.4369 19.2161 21.5589 19.1522 21.6655C19.0883 21.7722 18.9966 21.8595 18.887 21.9182C18.7774 21.9769 18.6539 22.0048 18.5296 21.9989C18.4054 21.9929 18.2852 21.9534 18.1816 21.8845L11 18.0139L3.81837 21.8845C3.71484 21.9534 3.59457 21.9929 3.47035 21.9989C3.34613 22.0048 3.22263 21.9769 3.113 21.9182C3.00337 21.8595 2.91171 21.7722 2.84778 21.6655C2.78386 21.5589 2.75006 21.4369 2.75 21.3125V2.75ZM5.5 1.375C5.13533 1.375 4.78559 1.51987 4.52773 1.77773C4.26987 2.03559 4.125 2.38533 4.125 2.75V20.0282L10.6191 16.6155C10.732 16.5404 10.8645 16.5004 11 16.5004C11.1355 16.5004 11.268 16.5404 11.3809 16.6155L17.875 20.0282V2.75C17.875 2.38533 17.7301 2.03559 17.4723 1.77773C17.2144 1.51987 16.8647 1.375 16.5 1.375H5.5Z" fill="#0087FF"/>
</svg>
