<svg width="24" height="28" viewBox="0 0 24 28" fill="none" xmlns="http://www.w3.org/2000/svg">
<path d="M12.0035 3C13.8162 3.00105 15.6051 3.41263 17.236 4.20385C18.8669 4.99508 20.2974 6.1454 21.4201 7.5685C22.5429 8.9916 23.3288 10.6505 23.7189 12.4207C24.1089 14.191 24.0929 16.0265 23.6721 17.7897C23.2514 19.5529 22.4368 21.1979 21.2894 22.6012C20.142 24.0046 18.6917 25.1299 17.0473 25.8926C15.4029 26.6553 13.6071 27.0357 11.7947 27.0052C9.98222 26.9748 8.20023 26.5342 6.5824 25.7166L6.40085 25.619L0.931769 26.9844C0.826516 27.0109 0.716772 27.0142 0.610113 26.9941C0.503454 26.9741 0.402418 26.9311 0.313978 26.8682C0.225538 26.8053 0.1518 26.724 0.097852 26.6298C0.0439039 26.5356 0.0110304 26.4309 0.00150032 26.3227V26.1997L0.0225067 26.0752L1.3879 20.6076L1.29337 20.4275C0.606752 19.0759 0.184088 17.6057 0.048014 16.0958L0.010503 15.5226L0 15.0035C0 11.82 1.26465 8.76682 3.51573 6.51573C5.76682 4.26465 8.81995 3 12.0035 3V3ZM12.0035 4.50043C10.1706 4.50014 8.36963 4.97947 6.77942 5.8908C5.18921 6.80212 3.86516 8.11372 2.93884 9.69525C2.01253 11.2768 1.5162 13.0732 1.49918 14.9059C1.48216 16.7387 1.94504 18.544 2.84182 20.1425C2.91144 20.2668 2.94423 20.4083 2.93635 20.5506L2.91534 20.6916L1.78101 25.2244L6.31833 24.0931C6.41057 24.0704 6.50628 24.0653 6.60041 24.0781L6.73695 24.1096L6.86749 24.1681C8.26791 24.9521 9.82937 25.4047 11.432 25.4912C13.0346 25.5777 14.6357 25.2958 16.1124 24.6671C17.589 24.0384 18.902 23.0797 19.9504 21.8645C20.9988 20.6494 21.7548 19.2101 22.1603 17.6572C22.5658 16.1044 22.6101 14.4792 22.2897 12.9066C21.9692 11.334 21.2927 9.85569 20.3119 8.58527C19.3312 7.31485 18.0724 6.28609 16.6321 5.57799C15.1918 4.86988 13.6084 4.50126 12.0035 4.50043V4.50043Z" fill="#333333"/>
<path d="M15.125 13.0146H11.375M15.75 10C16.0815 10 16.3995 10.127 16.6339 10.3532C16.8683 10.5793 17 10.886 17 11.2058V17.2351C17 17.5549 16.8683 17.8616 16.6339 18.0877C16.3995 18.3139 16.0815 18.4409 15.75 18.4409L13.8756 18.4403L12.4419 19.8234C12.3343 19.9272 12.1911 19.9896 12.0392 19.9988C11.8873 20.008 11.7371 19.9635 11.6169 19.8735L11.5581 19.8234L10.1244 18.4403L8.25 18.4409C7.91848 18.4409 7.60054 18.3139 7.36612 18.0877C7.1317 17.8616 7 17.5549 7 17.2351V11.2058C7 10.886 7.1317 10.5793 7.36612 10.3532C7.60054 10.127 7.91848 10 8.25 10H15.75Z" stroke="#333333" stroke-linecap="round" stroke-linejoin="round"/>
<path fill-rule="evenodd" clip-rule="evenodd" d="M9.49889 13.6175C9.81139 13.6175 10.1239 13.316 10.1239 13.0145C10.1239 12.7131 9.81139 12.4116 9.49889 12.4116C9.18639 12.4116 8.87451 12.7131 8.87451 13.0145C8.87451 13.316 9.18639 13.6175 9.49889 13.6175ZM9.49889 16.0292C9.81139 16.0292 10.1239 15.7277 10.1239 15.4262C10.1239 15.1248 9.81139 14.8233 9.49889 14.8233C9.18639 14.8233 8.87451 15.1248 8.87451 15.4262C8.87451 15.7277 9.18639 16.0292 9.49889 16.0292Z" fill="#333333"/>
<path d="M15.1255 15.4263H11.3755" stroke="#333333" stroke-linecap="round" stroke-linejoin="round"/>
<path d="M19.7273 0C18.5818 0 17.5727 0.583333 17 1.5C16.4273 0.583333 15.4182 0 14.2727 0C12.4727 0 11 1.5 11 3.33333C11 6.63889 17 10 17 10C17 10 23 6.66667 23 3.33333C23 1.5 21.5273 0 19.7273 0Z" fill="#F44336"/>
</svg>
