<svg width="20" height="20" viewBox="0 0 20 20" fill="none" xmlns="http://www.w3.org/2000/svg">
<path d="M9.1865 11.8634L8.33317 10.5834L6.6665 13.0834H14.1665L11.2498 8.91675L9.1865 11.8634Z" fill="#0087FF"/>
<path d="M5.919 6.25012C6.61074 6.25012 7.1715 5.68935 7.1715 4.99762C7.1715 4.30588 6.61074 3.74512 5.919 3.74512C5.22727 3.74512 4.6665 4.30588 4.6665 4.99762C4.6665 5.68935 5.22727 6.25012 5.919 6.25012Z" fill="#0087FF"/>
<path d="M15.8333 1.66675H5C3.995 1.66675 2.5 2.33258 2.5 4.16675V15.8334C2.5 17.6676 3.995 18.3334 5 18.3334H17.5V16.6667H5.01C4.625 16.6567 4.16667 16.5051 4.16667 15.8334C4.16667 15.1617 4.625 15.0101 5.01 15.0001H17.5V3.33341C17.5 2.41425 16.7525 1.66675 15.8333 1.66675ZM15.8333 13.3334H4.16667V4.16675C4.16667 3.49508 4.625 3.34341 5 3.33341H15.8333V13.3334Z" fill="#0087FF"/>
</svg>
