<svg width="22" height="22" viewBox="0 0 22 22" fill="none" xmlns="http://www.w3.org/2000/svg">
<path d="M3.88234 5.17617C3.88238 4.3112 4.09918 3.46003 4.51291 2.70043C4.92665 1.94083 5.52413 1.29702 6.25077 0.827809C6.97741 0.3586 7.81005 0.0789558 8.67261 0.0144265C9.53516 -0.0501029 10.4001 0.10254 11.1885 0.458409C11.9769 0.814278 12.6635 1.36203 13.1857 2.05161C13.7078 2.7412 14.0488 3.55063 14.1776 4.40596C14.3063 5.26129 14.2187 6.13525 13.9227 6.94799C13.6266 7.76073 13.1317 8.48633 12.483 9.0585H12.3109C11.2717 9.0585 10.3464 9.54638 9.74984 10.3073C9.01821 10.4059 8.27396 10.3468 7.56704 10.1341C6.86012 9.92131 6.20688 9.55982 5.65117 9.07384C5.09545 8.58786 4.65011 7.98864 4.34503 7.31639C4.03995 6.64414 3.88219 5.91441 3.88234 5.17617ZM9.05879 1.29383C8.02913 1.29383 7.04164 1.70286 6.31356 2.43094C5.58548 3.15902 5.17645 4.14651 5.17645 5.17617C5.17645 6.20583 5.58548 7.19332 6.31356 7.92139C7.04164 8.64947 8.02913 9.0585 9.05879 9.0585C10.0884 9.0585 11.0759 8.64947 11.804 7.92139C12.5321 7.19332 12.9411 6.20583 12.9411 5.17617C12.9411 4.14651 12.5321 3.15902 11.804 2.43094C11.0759 1.70286 10.0884 1.29383 9.05879 1.29383ZM9.12738 11.6467H2.59987C2.25905 11.6454 1.92131 11.7113 1.60603 11.8407C1.29074 11.9702 1.00411 12.1606 0.762568 12.4011C0.521028 12.6415 0.329332 12.9273 0.198473 13.242C0.0676146 13.5567 0.000167603 13.8941 0 14.235C0 16.4233 1.078 18.0733 2.76293 19.1487C4.42198 20.206 6.65821 20.7055 9.05879 20.7055C10.098 20.7055 11.1074 20.6123 12.0521 20.4208L10.9469 19.2923C10.3464 19.3726 9.7149 19.4114 9.05879 19.4114C6.8135 19.4114 4.84386 18.9403 3.45916 18.0565C2.10034 17.1894 1.29411 15.9302 1.29411 14.235C1.29411 13.5193 1.87387 12.9408 2.59987 12.9408H9.05749V12.3145C9.05749 12.0854 9.08338 11.8616 9.12738 11.6467ZM10.3529 16.0338C10.3529 16.5475 10.5535 17.0393 10.912 17.4055L14.8383 21.4134C15.5889 22.1795 16.8144 22.1976 17.587 21.4535L21.4007 17.7821C21.5875 17.602 21.7367 17.3866 21.8395 17.1484C21.9424 16.9102 21.9969 16.6539 21.9999 16.3945C22.0029 16.135 21.9543 15.8776 21.857 15.637C21.7597 15.3965 21.6156 15.1777 21.4331 14.9933L17.4123 10.9311C17.2307 10.7478 17.0146 10.6023 16.7765 10.503C16.5384 10.4037 16.283 10.3526 16.025 10.3526H12.307C12.0502 10.3526 11.7959 10.4032 11.5586 10.5016C11.3214 10.6 11.1058 10.7441 10.9243 10.9259C10.7428 11.1076 10.599 11.3233 10.5009 11.5607C10.4029 11.7981 10.3526 12.0525 10.3529 12.3093V16.0351V16.0338ZM13.9117 14.882C13.6543 14.882 13.4074 14.7798 13.2254 14.5977C13.0434 14.4157 12.9411 14.1688 12.9411 13.9114C12.9411 13.654 13.0434 13.4071 13.2254 13.2251C13.4074 13.0431 13.6543 12.9408 13.9117 12.9408C14.1691 12.9408 14.416 13.0431 14.598 13.2251C14.78 13.4071 14.8823 13.654 14.8823 13.9114C14.8823 14.1688 14.78 14.4157 14.598 14.5977C14.416 14.7798 14.1691 14.882 13.9117 14.882Z" fill="#333333"/>
</svg>
