<svg width="24" height="24" viewBox="0 0 24 24" fill="none" xmlns="http://www.w3.org/2000/svg">
<path d="M9.04335 2.6001C8.14392 2.6001 7.28133 2.87403 6.64534 3.36162C6.00934 3.84921 5.65205 4.51053 5.65205 5.2001V18.2001C5.65205 18.8897 6.00934 19.551 6.64534 20.0386C7.28133 20.5262 8.14392 20.8001 9.04335 20.8001H19.2173C20.1167 20.8001 20.9793 20.5262 21.6153 20.0386C22.2513 19.551 22.6086 18.8897 22.6086 18.2001V5.2001C22.6086 4.51053 22.2513 3.84921 21.6153 3.36162C20.9793 2.87403 20.1167 2.6001 19.2173 2.6001H9.04335ZM7.3477 5.2001C7.3477 4.85532 7.52635 4.52466 7.84434 4.28086C8.16234 4.03706 8.59364 3.9001 9.04335 3.9001H19.2173C19.667 3.9001 20.0983 4.03706 20.4163 4.28086C20.7343 4.52466 20.9129 4.85532 20.9129 5.2001V18.2001C20.9129 18.5449 20.7343 18.8755 20.4163 19.1193C20.0983 19.3631 19.667 19.5001 19.2173 19.5001H9.04335C8.59364 19.5001 8.16234 19.3631 7.84434 19.1193C7.52635 18.8755 7.3477 18.5449 7.3477 18.2001V5.2001ZM2.26074 7.8001C2.26076 7.34371 2.41746 6.89537 2.71511 6.50013C3.01276 6.1049 3.44086 5.77669 3.95639 5.5485V18.8501C3.95639 19.7121 4.40302 20.5387 5.19801 21.1482C5.993 21.7577 7.07124 22.1001 8.19552 22.1001H18.7628C18.4652 22.4953 18.0371 22.8235 17.5216 23.0517C17.006 23.2799 16.4212 23.4001 15.826 23.4001H8.19552C6.62152 23.4001 5.11199 22.9207 3.999 22.0674C2.88601 21.2141 2.26074 20.0568 2.26074 18.8501V7.8001Z" fill="#333333"/>
<path d="M14.7636 6.06644C14.406 6.07116 14.0531 6.12995 13.7252 6.23945C13.3973 6.34895 13.1008 6.50699 12.8527 6.70453C12.6047 6.90206 12.4099 7.13519 12.2796 7.39056C12.1493 7.64592 12.086 7.9185 12.0934 8.19265L13.0028 8.17943C12.9983 7.99664 13.0408 7.81496 13.1278 7.64476C13.2149 7.47455 13.3448 7.31917 13.5102 7.18746C13.6756 7.05576 13.8733 6.95033 14.0918 6.87717C14.3103 6.80402 14.5455 6.76459 14.784 6.76113C15.0224 6.75766 15.2594 6.79023 15.4814 6.85698C15.7034 6.92373 15.906 7.02336 16.0778 7.15016C16.2496 7.27696 16.3871 7.42846 16.4826 7.59601C16.578 7.76356 16.6294 7.94388 16.6339 8.12667L16.731 12.0545C16.7406 12.4233 16.5586 12.78 16.2252 13.0459C15.8917 13.3119 15.4342 13.4655 14.9531 13.4728C14.472 13.4801 14.0068 13.3406 13.6599 13.085C13.313 12.8293 13.1127 12.4785 13.1032 12.1097L13.0828 11.415L12.1766 11.4257L12.1938 12.1229C12.1999 12.3971 12.2766 12.6676 12.4195 12.919C12.5623 13.1704 12.7684 13.3977 13.0261 13.5879C13.2837 13.7781 13.5878 13.9274 13.9209 14.0273C14.254 14.1272 14.6095 14.1757 14.9671 14.17C15.687 14.156 16.3702 13.9235 16.8666 13.5236C17.1167 13.326 17.3133 13.0925 17.4449 12.8364C17.5766 12.5803 17.6408 12.3068 17.6338 12.0316L17.5367 8.10373C17.5209 7.55176 17.2199 7.02715 16.7 6.64516C16.18 6.26316 15.4836 6.05501 14.7636 6.06644V6.06644Z" fill="#333333"/>
<path d="M13.2731 16.6285C13.0345 16.6324 12.7973 16.6001 12.575 16.5335C12.3528 16.4669 12.1499 16.3673 11.978 16.2404C11.8061 16.1136 11.6686 15.9619 11.5734 15.7941C11.4781 15.6264 11.4271 15.4459 11.4231 15.263L11.326 11.3351C11.3209 11.1522 11.363 10.9704 11.4499 10.8C11.5368 10.6296 11.6667 10.474 11.8322 10.3422C11.9977 10.2104 12.1955 10.105 12.4143 10.032C12.6331 9.959 12.8686 9.91986 13.1072 9.91681C13.346 9.91422 13.583 9.94839 13.8042 10.0173C14.0255 10.0862 14.2264 10.1885 14.3952 10.318C14.5687 10.4446 14.7077 10.5963 14.8042 10.7644C14.9007 10.9324 14.9528 11.1135 14.9575 11.2971L14.993 12.3452L15.9024 12.332L15.8767 11.2911C15.863 10.737 15.5627 10.2098 15.042 9.82547C14.5213 9.44111 13.8228 9.23108 13.1001 9.24158C12.3774 9.25208 11.6897 9.48225 11.1884 9.88146C10.6871 10.2807 10.4131 10.8162 10.4268 11.3703L10.5239 15.2981C10.5296 15.5727 10.6061 15.8437 10.749 16.0956C10.8918 16.3474 11.0982 16.5751 11.3562 16.7656C11.6143 16.9561 11.9189 17.1055 12.2526 17.2054C12.5862 17.3053 12.9424 17.3537 13.3005 17.3477C14.0199 17.3298 14.7006 17.0938 15.1934 16.6915C15.6974 16.2908 15.9743 15.7536 15.9636 15.197L15.0542 15.2102C15.0593 15.3931 15.0172 15.575 14.9303 15.7454C14.8435 15.9158 14.7136 16.0713 14.5481 16.2031C14.3826 16.3349 14.1847 16.4403 13.9659 16.5133C13.7471 16.5863 13.5117 16.6255 13.2731 16.6285V16.6285Z" fill="#333333"/>
</svg>
