<?xml version="1.0" standalone="no"?>
<!DOCTYPE svg PUBLIC "-//W3C//DTD SVG 20010904//EN"
 "http://www.w3.org/TR/2001/REC-SVG-20010904/DTD/svg10.dtd">
<svg version="1.0" xmlns="http://www.w3.org/2000/svg"
 width="835.000000pt" height="918.000000pt" viewBox="0 0 835.000000 918.000000"
 preserveAspectRatio="xMidYMid meet">

<g transform="translate(0.000000,918.000000) scale(0.100000,-0.100000)"
fill="#000000" stroke="none">
<path d="M3895 9159 c-109 -18 -219 -72 -229 -113 -5 -19 -68 -125 -92 -155
-1 -1 -7 0 -13 4 -8 4 -8 12 -1 26 6 11 16 16 22 13 7 -4 8 -3 4 4 -4 7 -3 12
2 12 12 0 35 61 26 69 -7 7 -90 -84 -109 -119 -7 -14 -15 -70 -19 -125 -3 -55
-10 -180 -16 -278 l-10 -177 24 -49 c67 -131 260 -273 388 -284 27 -2 33 3 52
41 20 41 22 42 66 41 35 -2 52 -9 78 -33 17 -16 32 -35 32 -42 0 -16 118 10
138 30 23 23 -46 57 -163 81 l-30 7 24 19 c29 24 115 26 168 4 39 -17 49 -14
36 8 -24 42 -72 68 -138 74 -54 5 -64 8 -53 19 7 7 49 17 92 23 86 10 126 -2
126 -40 0 -18 17 -35 26 -26 8 7 -13 80 -29 102 -14 18 -15 18 -52 1 -30 -14
-52 -17 -97 -12 -160 16 -270 146 -253 296 8 67 30 94 112 132 24 11 46 24 49
29 3 5 18 9 35 9 27 0 29 3 29 38 0 21 -7 47 -15 59 -8 12 -14 37 -13 55 3 32
2 33 -39 36 -24 2 -43 7 -43 11 0 4 7 52 15 106 8 54 12 102 9 106 -6 11 -71
10 -139 -2z m-331 -294 c-4 -8 -8 -15 -10 -15 -2 0 -4 7 -4 15 0 8 4 15 10 15
5 0 7 -7 4 -15z m-3 -68 c-12 -34 -42 -77 -55 -77 -4 0 -2 9 4 20 6 11 8 20 4
20 -4 0 2 10 13 23 11 12 23 31 27 41 12 34 18 8 7 -27z m-41 -108 c-7 -11
-14 -19 -16 -16 -7 7 7 37 17 37 6 0 5 -9 -1 -21z"/>
<path d="M4354 9035 c4 -10 -1 -15 -14 -15 -26 0 -128 -39 -136 -52 -3 -5 -1
-15 5 -21 9 -9 28 -4 77 22 72 37 94 33 94 -20 0 -27 -2 -29 -27 -23 -16 4
-30 10 -33 15 -9 14 -59 -3 -85 -28 -45 -46 -25 -93 40 -93 14 0 35 5 46 10
21 12 26 31 7 28 -8 -2 -12 5 -10 17 5 27 11 32 21 16 5 -7 13 -11 18 -8 14 9
28 -4 48 -43 17 -34 18 -34 26 -11 5 12 10 50 10 83 2 56 0 62 -37 99 -39 40
-61 50 -50 24z"/>
<path d="M3631 9024 c0 -11 3 -14 6 -6 3 7 2 16 -1 19 -3 4 -6 -2 -5 -13z"/>
<path d="M4405 8615 c-27 -99 -48 -159 -61 -175 -7 -8 -17 -27 -23 -43 -8 -22
-8 -27 4 -27 8 0 25 -16 38 -35 l24 -35 11 25 c9 20 7 31 -13 67 -14 24 -25
46 -25 51 0 16 28 6 51 -19 l24 -26 7 33 c10 50 4 202 -9 224 -10 17 -13 12
-28 -40z"/>
<path d="M4155 8580 c-3 -5 -2 -10 4 -10 5 0 13 5 16 10 3 6 2 10 -4 10 -5 0
-13 -4 -16 -10z"/>
<path d="M4220 8503 c-14 -2 -46 -11 -72 -19 -25 -8 -59 -14 -74 -12 -15 2
-29 -3 -31 -9 -3 -9 7 -14 29 -15 18 -1 40 -2 50 -3 9 0 28 -7 42 -14 21 -11
30 -12 56 -1 30 13 65 61 53 74 -7 6 -11 6 -53 -1z"/>
<path d="M3437 8409 c-3 -12 -2 -31 3 -42 7 -18 9 -14 9 21 1 46 -4 54 -12 21z"/>
<path d="M4450 8246 c-6 -24 -10 -52 -8 -62 3 -15 11 -8 37 29 26 39 30 51 21
62 -21 26 -37 16 -50 -29z"/>
<path d="M1596 6695 c-197 -50 -365 -213 -421 -409 -30 -107 -32 -141 -7 -131
32 13 77 15 151 9 58 -5 70 -9 55 -17 -34 -19 -79 -59 -88 -81 -9 -20 -10 -20
-13 6 -5 35 -19 45 -77 53 l-49 8 5 -76 c3 -42 10 -82 15 -89 6 -7 13 -27 16
-45 10 -54 49 -124 73 -133 15 -6 21 -15 18 -27 -7 -28 108 -135 191 -177 87
-44 173 -66 185 -46 15 25 0 42 -33 34 l-30 -6 6 41 c5 42 0 50 -20 30 -28
-28 -43 19 -21 66 14 30 25 31 53 5 25 -23 51 -18 60 11 4 10 15 19 25 19 10
0 21 4 24 9 6 9 -117 51 -147 51 -9 0 -28 11 -43 23 -27 24 -27 24 -9 49 17
22 25 24 66 20 28 -3 49 0 53 7 10 15 93 14 106 -1 6 -7 17 -21 24 -32 9 -13
25 -19 55 -19 30 0 44 -5 52 -18 8 -16 4 -22 -21 -38 -17 -10 -50 -22 -73 -26
-43 -7 -41 -11 16 -29 9 -3 17 -14 17 -25 0 -11 3 -21 8 -23 4 -2 25 -22 46
-45 41 -45 44 -67 4 -39 -36 25 -44 19 -15 -12 15 -15 27 -34 27 -41 0 -21 58
-8 137 31 46 22 92 57 143 108 122 121 180 255 180 422 0 104 -15 168 -60 264
-66 137 -174 238 -317 296 -69 28 -91 32 -193 34 -78 3 -134 -1 -174 -11z
m120 -90 c6 -16 -12 -45 -28 -45 -16 0 -20 29 -6 44 17 20 27 20 34 1z m189
-45 c10 -16 -16 -43 -28 -31 -11 11 -2 41 12 41 5 0 13 -5 16 -10z m183 -126
c-19 -19 -50 -12 -42 10 7 18 35 26 49 14 5 -5 3 -14 -7 -24z m-633 -104 c0
-30 -33 -40 -51 -15 -19 25 -6 47 25 43 20 -2 26 -8 26 -28z m289 -65 c25 -19
32 -55 11 -55 -19 0 -40 -43 -32 -64 3 -8 24 -24 47 -36 47 -24 52 -40 12 -40
-24 0 -27 -4 -27 -32 0 -30 -3 -33 -30 -33 -25 0 -31 4 -33 26 -2 15 4 34 14
43 16 16 16 20 -5 61 -25 49 -37 106 -28 130 8 19 46 19 71 0z m101 -35 c3 -5
2 -10 -4 -10 -5 0 -13 5 -16 10 -3 6 -2 10 4 10 5 0 13 -4 16 -10z m-39 -85
c18 -15 18 -15 -10 -13 -16 2 -31 9 -34 16 -5 17 20 15 44 -3z m-70 -197 c9
-14 -14 -27 -37 -21 -24 7 -43 29 -35 42 7 11 62 -5 72 -21z m-353 -4 c11 -14
16 -32 12 -44 -5 -15 -3 -18 9 -14 28 11 32 -26 5 -47 -35 -27 -42 -23 -36 17
5 28 3 35 -8 30 -18 -6 -21 -1 -30 47 -6 32 -5 37 11 37 11 0 27 -12 37 -26z
m40 -160 c8 -9 -11 -44 -23 -44 -6 0 -10 11 -10 25 0 23 18 34 33 19z m547
-68 c0 -3 -4 -8 -10 -11 -5 -3 -10 -1 -10 4 0 6 5 11 10 11 6 0 10 -2 10 -4z
m-41 -25 c24 -13 27 -33 7 -50 -10 -8 -23 -4 -55 19 -23 17 -40 34 -37 38 7
11 59 7 85 -7z"/>
<path d="M6175 6693 c-36 -9 -37 -20 -7 -54 16 -19 42 -59 57 -89 15 -30 38
-71 50 -90 12 -19 29 -55 39 -80 20 -52 65 -125 119 -194 21 -27 36 -55 33
-63 -3 -8 -2 -12 3 -9 4 3 17 -5 28 -17 35 -39 36 -47 8 -47 -17 0 -29 8 -36
23 -6 13 -20 29 -31 36 -16 10 -19 10 -13 -1 6 -10 5 -11 -6 0 -21 20 -38 15
-31 -10 13 -54 -38 17 -102 140 -36 70 -86 156 -111 192 -25 36 -66 95 -92
133 -54 79 -59 79 -140 9 -59 -49 -56 -46 -44 -70 5 -9 13 -29 19 -43 17 -42
71 -45 125 -7 24 18 44 3 90 -65 21 -32 44 -57 52 -57 11 0 13 -12 10 -55 -4
-60 -15 -86 -54 -130 l-26 -29 37 31 c44 37 76 49 91 34 6 -6 11 -36 11 -66 0
-52 1 -54 14 -30 l13 26 26 -21 c14 -11 34 -20 44 -20 11 0 19 -3 19 -7 0 -5
19 -32 41 -62 l42 -55 -19 -34 c-25 -47 -94 -106 -167 -142 -91 -46 -97 -43
-97 38 0 88 -18 180 -42 212 -10 14 -19 42 -20 63 -1 20 -2 37 -2 37 -1 0 -19
-7 -41 -15 -78 -28 -87 -24 -201 89 -58 57 -107 98 -110 92 -27 -78 -31 -224
-9 -310 24 -93 25 -93 81 -47 55 47 79 53 69 19 -5 -21 -5 -21 6 -5 10 18 12
17 24 -6 12 -24 8 -79 -11 -132 l-7 -20 16 20 c16 19 16 19 17 -15 0 -19 3
-59 7 -89 6 -52 7 -54 66 -92 92 -59 197 -89 315 -89 53 0 120 6 147 14 58 15
153 55 175 73 8 7 31 25 51 40 19 15 50 45 68 65 35 40 33 62 -9 91 -10 7 -24
25 -29 40 -10 26 -9 27 23 27 22 0 40 -8 56 -25 13 -14 27 -25 32 -25 9 0 47
77 48 95 0 6 -12 16 -27 23 -16 7 -48 24 -73 37 -24 14 -58 25 -74 25 -20 0
-41 11 -64 33 -24 23 -31 27 -26 12 7 -18 6 -19 -12 -5 -44 34 -84 70 -77 70
4 0 19 -9 33 -20 34 -26 43 -25 38 5 -7 32 -2 32 33 -6 16 -17 29 -26 29 -20
0 6 7 8 17 4 14 -6 15 0 10 40 -4 26 -13 60 -21 75 -22 42 -93 115 -105 107
-6 -3 -11 1 -11 10 0 12 -6 15 -20 10 -12 -4 -20 -2 -20 5 0 6 -4 8 -10 5 -5
-3 -10 -1 -10 5 0 6 -12 9 -27 8 -21 -2 -33 6 -60 40 -18 24 -33 49 -33 55 0
7 7 3 15 -7 8 -11 15 -15 15 -9 0 13 -25 35 -32 28 -10 -11 -69 76 -64 93 4
12 -9 36 -39 71 -25 29 -50 62 -56 72 -5 10 -13 18 -17 18 -4 -1 -16 -3 -27
-6z m-76 -186 c37 -51 76 -105 87 -122 16 -26 16 -28 1 -16 -9 7 -27 30 -39
50 -12 20 -45 65 -73 101 -60 76 -73 96 -56 86 6 -4 42 -49 80 -99z m-84 11
c6 -23 3 -29 -19 -39 -52 -24 -100 27 -58 63 39 35 65 27 77 -24z m510 -268
c4 -6 -5 -5 -19 2 -14 6 -26 15 -26 20 0 10 36 -7 45 -22z m49 -29 c-7 -7 -34
28 -34 43 1 6 10 0 21 -13 11 -13 17 -27 13 -30z m-634 -231 c17 -22 29 -40
26 -40 -9 0 -66 62 -66 71 0 16 8 10 40 -31z m758 -175 c-3 -3 -9 2 -12 12 -6
14 -5 15 5 6 7 -7 10 -15 7 -18z m-11 -87 c-3 -8 -6 -5 -6 6 -1 11 2 17 5 13
3 -3 4 -12 1 -19z"/>
<path d="M5811 6417 c-26 -42 -26 -47 -1 -47 14 0 21 9 26 35 9 49 0 53 -25
12z"/>
<path d="M5831 6293 c30 -67 46 -93 70 -107 31 -18 69 -14 69 9 0 7 19 20 41
29 23 9 40 19 38 21 -2 2 -33 -2 -68 -10 -80 -17 -98 -12 -76 21 20 31 19 32
-9 27 -13 -3 -34 0 -46 7 -12 7 -21 8 -19 3z"/>
<path d="M3790 6055 c-315 -52 -575 -188 -796 -417 -253 -262 -386 -595 -386
-963 0 -369 133 -701 387 -964 205 -212 446 -344 745 -408 119 -25 401 -25
520 0 299 64 540 196 745 408 254 263 387 595 387 964 0 369 -133 701 -387
964 -202 209 -443 343 -735 406 -105 23 -371 28 -480 10z m445 -21 c429 -75
803 -353 1000 -743 44 -89 98 -246 122 -361 25 -119 25 -391 0 -510 -24 -115
-78 -272 -122 -361 -197 -390 -571 -668 -1000 -743 -118 -21 -352 -21 -470 0
-429 75 -803 353 -1000 743 -44 89 -98 246 -122 361 -25 119 -25 391 0 510 64
300 202 551 414 751 190 178 445 306 700 353 109 19 366 20 478 0z"/>
<path d="M3883 5279 c-150 -25 -288 -122 -370 -260 -38 -64 -73 -190 -73 -264
0 -110 49 -244 122 -336 l29 -36 -21 -128 c-21 -131 -21 -155 2 -155 7 0 63
33 125 74 l112 73 63 -13 c81 -17 127 -17 210 0 87 19 159 54 234 114 l61 50
64 -29 c113 -50 118 -42 67 112 l-32 98 27 55 c122 248 -19 558 -288 636 -51
14 -264 20 -332 9z m-39 -67 c-134 -87 -204 -218 -204 -383 0 -181 94 -332
255 -409 116 -55 261 -59 374 -9 39 17 47 18 59 5 12 -12 7 -19 -39 -54 -136
-101 -285 -135 -429 -98 l-53 14 -109 -70 c-60 -39 -111 -69 -113 -67 -2 3 5
60 15 128 l19 124 -33 41 c-157 193 -151 471 13 658 69 78 206 155 280 157 19
1 11 -7 -35 -37z"/>
<path d="M1667 5687 c-7 -20 18 -43 28 -27 4 7 1 19 -7 27 -14 13 -16 13 -21
0z"/>
<path d="M1725 5597 c-20 -20 -24 -28 -12 -23 10 3 25 6 33 6 9 0 12 5 8 11
-3 6 -1 15 6 19 7 4 8 9 4 12 -5 2 -22 -9 -39 -25z"/>
<path d="M7083 2903 c-11 -2 -26 -17 -33 -32 -17 -41 -80 -109 -80 -86 0 15
-3 14 -18 -6 -10 -13 -22 -33 -27 -44 -8 -19 -9 -19 -12 2 -3 16 -11 21 -29
20 -14 -1 -29 -8 -33 -16 -6 -9 -11 -10 -15 -2 -16 24 -28 9 -24 -29 2 -22 0
-40 -4 -40 -5 0 -8 13 -8 29 0 17 -4 33 -10 36 -10 6 -15 -13 -12 -47 3 -36
-16 -16 -22 23 -4 25 -11 39 -19 36 -17 -5 -17 -85 -1 -124 11 -25 12 -37 3
-57 -10 -21 -9 -29 3 -43 8 -10 15 -29 16 -42 1 -26 9 -38 19 -28 3 4 1 24 -5
46 -7 21 -12 56 -12 77 0 40 13 73 23 57 6 -10 48 -10 65 1 8 5 12 -1 12 -18
0 -14 -4 -27 -9 -30 -4 -3 -11 -20 -15 -37 -6 -31 -7 -32 -26 -14 -22 20 -25
10 -11 -28 8 -20 2 -41 -31 -108 -22 -46 -46 -91 -54 -100 -8 -9 -14 -23 -12
-30 2 -7 -7 -18 -18 -23 -21 -9 -19 -11 22 -39 50 -33 53 -42 21 -67 -13 -10
-34 -39 -47 -65 -13 -26 -30 -50 -37 -52 -25 -10 -13 -42 36 -101 77 -93 213
-173 341 -202 51 -11 183 -13 193 -3 4 3 24 8 45 10 41 4 88 20 172 61 83 40
188 150 237 249 54 107 67 172 60 303 -5 113 -26 188 -75 269 l-27 46 -5 -45
c-6 -56 -99 -217 -149 -258 -25 -20 -146 8 -228 53 l-48 27 53 -51 c30 -28 68
-59 85 -68 66 -33 70 -57 23 -126 -27 -40 -33 -63 -21 -90 5 -12 2 -24 -8 -34
-13 -14 -20 -14 -47 -3 -28 12 -29 14 -13 26 16 12 15 14 -19 28 -20 9 -39 20
-43 25 -3 6 -11 8 -18 5 -28 -10 -82 106 -57 121 17 11 11 20 -29 38 -36 18
-39 23 -45 70 -5 44 -3 55 16 72 22 21 22 20 1 -32 -3 -7 6 -15 21 -19 36 -9
70 20 55 47 -7 15 -6 17 6 13 18 -7 19 3 1 35 -11 20 -15 21 -22 9 -15 -25
-42 -29 -49 -7 -10 29 12 51 37 38 18 -10 19 -8 17 19 -3 22 6 40 38 76 23 26
46 61 52 79 10 29 4 25 -53 -34 -74 -77 -95 -88 -121 -59 -14 15 -17 31 -13
75 3 30 8 58 11 61 11 11 36 -16 30 -32 -6 -17 21 -19 35 -1 5 6 16 31 23 55
7 24 30 63 50 86 l38 43 -46 7 c-48 6 -63 6 -100 -1z m-183 -212 c0 -6 -4 -13
-10 -16 -5 -3 -10 1 -10 9 0 9 5 16 10 16 6 0 10 -4 10 -9z m725 -250 c3 -5 1
-12 -4 -15 -5 -3 -11 1 -15 9 -6 16 9 21 19 6z m-430 -332 c11 -16 -2 -22 -32
-14 -26 7 -26 8 -8 15 28 12 33 12 40 -1z m3 -118 c-1 -4 4 -19 11 -35 6 -16
10 -37 7 -45 -3 -12 -6 -11 -11 7 -4 12 -11 22 -15 22 -9 0 -30 46 -30 66 0
11 4 12 19 2 11 -7 19 -14 19 -17z m96 13 c8 -21 -1 -34 -24 -34 -22 0 -33 23
-17 39 16 16 34 14 41 -5z m45 -133 c19 -12 6 -41 -19 -41 -13 0 -20 7 -20 18
0 31 14 39 39 23z m-91 -129 c6 -18 -15 -14 -22 4 -4 10 -1 14 6 12 6 -2 14
-10 16 -16z"/>
<path d="M7333 2803 c-22 -8 -14 -21 17 -28 35 -8 71 12 48 26 -14 9 -46 10
-65 2z"/>
<path d="M727 2749 c-25 -16 -49 -40 -52 -52 -3 -12 -13 -39 -22 -59 -11 -26
-13 -41 -6 -50 8 -9 5 -30 -8 -68 -10 -30 -18 -83 -18 -118 -1 -68 -11 -94
-48 -129 -14 -14 -23 -33 -23 -53 0 -34 -20 -42 -21 -7 0 21 -1 21 -8 2 -5
-11 -6 -24 -4 -28 3 -5 -4 -17 -16 -28 -12 -11 -21 -31 -21 -44 0 -18 -5 -25
-20 -25 -23 0 -55 -44 -44 -61 5 -9 10 -6 15 9 5 12 13 22 19 22 13 0 13 -17
0 -25 -5 -3 -10 -17 -10 -30 0 -13 -6 -25 -12 -28 -9 -3 -4 -11 12 -25 34 -29
40 -27 40 8 0 37 68 110 120 130 19 7 43 20 52 28 11 9 29 12 50 9 34 -6 92
18 94 38 0 6 4 27 8 48 7 33 11 37 40 37 32 0 76 23 76 41 0 5 -6 9 -14 9 -27
0 -105 75 -131 127 -38 75 -30 108 33 127 l47 15 -48 0 -48 1 16 30 c9 17 38
47 65 66 50 36 50 36 35 65 -9 17 -24 29 -35 29 -10 0 -22 5 -25 10 -11 18
-40 11 -88 -21z"/>
<path d="M900 2762 c0 -25 24 -59 61 -84 24 -17 45 -43 55 -67 10 -27 20 -38
30 -34 11 4 14 -7 14 -53 0 -53 2 -57 15 -43 13 13 14 23 4 60 -6 24 -13 62
-16 84 -7 56 -42 98 -95 115 -23 7 -49 18 -55 23 -9 6 -13 6 -13 -1z"/>
<path d="M353 2616 c5 -13 3 -17 -7 -13 -16 6 -38 -36 -30 -58 4 -8 12 -15 20
-15 9 0 14 -11 14 -27 l0 -27 22 22 c20 19 21 25 10 55 -7 18 -12 41 -12 50 0
9 -5 19 -12 23 -8 5 -9 2 -5 -10z m7 -46 c0 -5 -5 -10 -11 -10 -5 0 -7 5 -4
10 3 6 8 10 11 10 2 0 4 -4 4 -10z"/>
<path d="M7478 2603 c6 -2 18 -2 25 0 6 3 1 5 -13 5 -14 0 -19 -2 -12 -5z"/>
<path d="M1360 2579 c0 -6 -9 -22 -20 -36 -11 -14 -20 -36 -20 -48 0 -12 -9
-34 -21 -49 -16 -21 -24 -24 -39 -16 -10 6 -21 10 -24 10 -10 0 -6 -39 4 -45
8 -5 8 -11 0 -20 -16 -19 37 -98 60 -92 24 6 50 -11 50 -32 0 -18 -20 -41 -54
-65 -18 -12 -17 -14 4 -64 12 -29 29 -52 36 -52 12 0 12 -4 -1 -23 -9 -15 -13
-35 -9 -53 4 -22 0 -34 -18 -50 -30 -28 -100 -54 -142 -54 -35 0 -53 -18 -119
-123 l-18 -27 50 19 c111 42 240 160 296 271 33 65 65 164 65 200 0 25 -4 30
-25 30 -32 0 -34 27 -2 32 20 3 22 8 21 68 0 77 -20 154 -36 144 -8 -5 -9 -1
-5 10 4 9 0 30 -8 47 -16 30 -25 37 -25 18z m17 -175 c-3 -3 -12 -4 -19 -1 -8
3 -5 6 6 6 11 1 17 -2 13 -5z"/>
<path d="M7510 2580 c0 -5 4 -10 9 -10 6 0 13 5 16 10 3 6 -1 10 -9 10 -9 0
-16 -4 -16 -10z"/>
<path d="M935 2540 c3 -5 15 -10 25 -10 10 0 22 5 25 10 4 6 -7 10 -25 10 -18
0 -29 -4 -25 -10z"/>
<path d="M7440 2539 c14 -6 38 -17 53 -25 24 -12 29 -12 34 2 7 20 6 20 -57
27 -44 5 -50 4 -30 -4z"/>
<path d="M443 2516 c21 -16 22 -30 2 -22 -9 3 -15 0 -15 -9 0 -19 14 -19 30 0
16 19 6 45 -17 45 -17 -1 -17 -1 0 -14z"/>
<path d="M777 2524 c-12 -12 4 -24 32 -24 16 0 34 7 41 15 11 13 7 15 -27 15
-22 0 -43 -3 -46 -6z"/>
<path d="M510 2513 c0 -4 5 -15 10 -23 8 -13 10 -13 10 2 0 9 -4 20 -10 23 -5
3 -10 3 -10 -2z"/>
<path d="M1037 2421 c-4 -16 -20 -45 -37 -65 l-32 -36 17 -44 c19 -50 44 -71
93 -78 30 -4 32 -2 32 24 0 16 -5 28 -12 28 -7 0 -18 11 -25 25 -9 20 -8 25 3
25 11 0 14 14 12 60 -2 33 -6 60 -10 60 -5 0 -8 7 -8 15 0 27 -27 16 -33 -14z"/>
<path d="M893 2403 c-7 -2 -13 -9 -13 -14 0 -13 31 -10 60 6 l25 14 -30 0
c-16 0 -36 -3 -42 -6z"/>
<path d="M6555 2377 c-16 -25 -11 -117 7 -117 5 0 6 9 3 20 -3 11 -2 20 3 20
5 0 7 11 4 25 -3 18 0 25 12 25 10 0 16 9 16 25 0 32 -24 33 -45 2z"/>
<path d="M6620 2396 c0 -2 7 -6 15 -10 8 -3 15 -1 15 4 0 6 -7 10 -15 10 -8 0
-15 -2 -15 -4z"/>
<path d="M283 2382 c-30 -5 -37 -36 -28 -125 6 -70 38 -183 55 -201 17 -17
140 93 140 125 0 20 -4 23 -53 33 -16 4 -32 17 -39 32 -7 15 -23 27 -40 31
-34 7 -36 28 -6 60 19 20 20 25 7 36 -8 7 -24 11 -36 9z"/>
<path d="M6640 2361 c0 -6 4 -12 8 -15 5 -3 9 1 9 9 0 8 -4 15 -9 15 -4 0 -8
-4 -8 -9z"/>
<path d="M7090 2338 c0 -11 28 -10 35 1 3 6 -4 9 -15 8 -11 -1 -20 -5 -20 -9z"/>
<path d="M6627 2218 c-11 -9 -17 -32 -19 -75 -3 -65 7 -90 23 -60 6 9 19 17
29 17 10 0 22 5 25 10 10 16 -5 70 -20 70 -21 0 -36 25 -23 38 16 16 6 15 -15
0z"/>
<path d="M452 1869 c2 -7 14 -19 26 -27 21 -14 22 -14 14 9 -9 24 -48 42 -40
18z"/>
<path d="M3920 1370 c-371 -48 -606 -426 -486 -780 29 -84 77 -168 123 -212
l32 -31 42 27 c49 33 62 29 20 -7 l-30 -25 31 -6 c24 -5 39 0 65 20 19 15 32
32 29 39 -7 19 27 59 80 96 35 23 43 35 39 50 -5 14 0 21 21 29 l27 11 -20 19
c-52 48 -70 216 -27 247 42 30 53 43 49 55 -3 7 8 20 24 29 23 14 28 22 24 43
-4 21 -2 25 11 20 10 -4 15 -13 11 -21 -4 -12 0 -14 22 -8 46 11 48 11 47 -12
0 -18 5 -23 23 -23 32 0 39 25 20 66 -18 38 -36 44 -44 15 -5 -18 -6 -18 -64
3 -48 17 -59 25 -57 41 3 19 21 28 81 40 15 3 27 12 27 20 0 16 -8 18 -54 15
-23 -1 -28 1 -22 15 3 9 9 27 12 38 3 12 22 58 43 102 22 44 37 83 34 88 -9
14 -30 7 -42 -15 l-11 -23 6 23 c6 24 7 24 -86 12z m77 -72 c-3 -8 -6 -5 -6 6
-1 11 2 17 5 13 3 -3 4 -12 1 -19z"/>
<path d="M4315 1248 c-16 -6 -37 -16 -45 -23 -8 -7 -32 -20 -52 -28 -38 -16
-51 -37 -24 -37 8 0 36 11 63 24 26 13 63 30 81 37 52 22 32 46 -23 27z"/>
<path d="M4410 1171 c0 -4 -26 -13 -57 -20 -63 -12 -103 -42 -103 -78 0 -22 2
-23 68 -19 37 2 74 7 84 11 10 4 27 -4 47 -22 25 -22 34 -41 43 -89 10 -54 8
-76 -11 -168 -12 -59 -31 -127 -41 -151 -11 -25 -24 -63 -30 -86 -7 -23 -18
-52 -26 -65 -20 -29 -95 -64 -139 -64 -40 0 -48 -22 -15 -40 24 -13 25 -32 4
-94 -9 -26 -13 -50 -10 -54 16 -15 125 56 197 128 179 178 227 433 125 664
-35 78 -93 156 -117 156 -10 0 -19 -4 -19 -9z m-10 -65 c0 -7 -8 -20 -19 -30
-18 -16 -18 -15 -7 18 10 33 26 40 26 12z"/>
<path d="M4315 685 c-33 -13 -102 -28 -152 -35 -51 -7 -93 -16 -93 -19 0 -8
105 -61 121 -61 5 0 9 8 7 17 -2 13 5 19 27 23 17 3 45 13 63 23 32 17 32 17
32 -4 0 -18 2 -20 16 -8 18 15 58 90 47 88 -5 -1 -35 -12 -68 -24z"/>
<path d="M4037 447 c3 -30 3 -67 -1 -81 -3 -14 -38 -57 -77 -95 -66 -65 -69
-70 -50 -80 11 -6 40 -11 64 -11 45 0 45 0 52 41 4 23 16 48 26 57 10 9 22 31
25 49 3 18 10 33 16 33 5 0 6 5 2 11 -3 6 3 24 15 40 l22 29 -28 11 c-15 6
-38 20 -50 31 l-22 20 6 -55z"/>
<path d="M3734 348 l-19 -23 23 19 c35 30 36 12 2 -28 -18 -20 -27 -36 -22
-36 6 0 14 5 17 10 3 6 11 10 17 10 6 0 5 -7 -3 -17 -11 -13 -8 -13 13 2 15
11 30 26 33 34 4 10 -2 8 -16 -5 l-22 -19 12 23 c13 24 9 52 -7 52 -5 0 -17
-10 -28 -22z"/>
<path d="M3645 311 c-3 -5 -1 -12 5 -16 5 -3 10 1 10 9 0 18 -6 21 -15 7z"/>
<path d="M3783 276 c-19 -29 -20 -35 -7 -40 8 -3 13 -2 10 3 -3 4 3 16 14 26
20 18 27 45 13 45 -5 0 -18 -16 -30 -34z"/>
<path d="M3809 253 c-13 -16 -12 -17 4 -4 10 8 17 9 17 3 0 -6 -4 -14 -10 -17
-18 -11 -10 -22 25 -32 32 -10 35 -9 35 9 0 16 -5 19 -21 15 -16 -4 -19 -3
-11 5 13 13 5 38 -13 38 -7 0 -19 -8 -26 -17z"/>
</g>
</svg>
